<?xml version="1.0" encoding="utf-8" standalone="no"?>
<!DOCTYPE svg PUBLIC "-//W3C//DTD SVG 1.1//EN"
  "http://www.w3.org/Graphics/SVG/1.1/DTD/svg11.dtd">
<svg xmlns:xlink="http://www.w3.org/1999/xlink" width="288pt" height="144pt" viewBox="0 0 288 144" xmlns="http://www.w3.org/2000/svg" version="1.1">
 <metadata>
  <rdf:RDF xmlns:dc="http://purl.org/dc/elements/1.1/" xmlns:cc="http://creativecommons.org/ns#" xmlns:rdf="http://www.w3.org/1999/02/22-rdf-syntax-ns#">
   <cc:Work>
    <dc:type rdf:resource="http://purl.org/dc/dcmitype/StillImage"/>
    <dc:date>2024-04-02T23:48:13.610497</dc:date>
    <dc:format>image/svg+xml</dc:format>
    <dc:creator>
     <cc:Agent>
      <dc:title>Matplotlib v3.8.3, https://matplotlib.org/</dc:title>
     </cc:Agent>
    </dc:creator>
   </cc:Work>
  </rdf:RDF>
 </metadata>
 <defs>
  <style type="text/css">*{stroke-linejoin: round; stroke-linecap: butt}</style>
 </defs>
 <g id="figure_1">
  <g id="patch_1">
   <path d="M 0 144 
L 288 144 
L 288 0 
L 0 0 
z
" style="fill: #ffffff"/>
  </g>
  <g id="axes_1">
   <g id="patch_2">
    <path d="M 56.025 100.98 
L 157.610183 100.98 
L 157.610183 26.16 
L 56.025 26.16 
z
" style="fill: #eaeaf2"/>
   </g>
   <g id="matplotlib.axis_1">
    <g id="xtick_1">
     <g id="line2d_1">
      <path d="M 60.640661 100.98 
L 60.640661 26.16 
" clip-path="url(#pcc12295dd2)" style="fill: none; stroke: #ffffff; stroke-width: 1.6; stroke-linecap: round"/>
     </g>
     <g id="text_1">
      <!-- 0.0 -->
      <g style="fill: #262626" transform="translate(55.080661 116.20625) scale(0.08 -0.08)">
       <defs>
        <path id="ArialMT-30" d="M 266 2259 
Q 266 3072 433 3567 
Q 600 4063 929 4331 
Q 1259 4600 1759 4600 
Q 2128 4600 2406 4451 
Q 2684 4303 2865 4023 
Q 3047 3744 3150 3342 
Q 3253 2941 3253 2259 
Q 3253 1453 3087 958 
Q 2922 463 2592 192 
Q 2263 -78 1759 -78 
Q 1097 -78 719 397 
Q 266 969 266 2259 
z
M 844 2259 
Q 844 1131 1108 757 
Q 1372 384 1759 384 
Q 2147 384 2411 759 
Q 2675 1134 2675 2259 
Q 2675 3391 2411 3762 
Q 2147 4134 1753 4134 
Q 1366 4134 1134 3806 
Q 844 3388 844 2259 
z
" transform="scale(0.015625)"/>
        <path id="ArialMT-2e" d="M 581 0 
L 581 641 
L 1222 641 
L 1222 0 
L 581 0 
z
" transform="scale(0.015625)"/>
       </defs>
       <use xlink:href="#ArialMT-30"/>
       <use xlink:href="#ArialMT-2e" x="55.615234"/>
       <use xlink:href="#ArialMT-30" x="83.398438"/>
      </g>
     </g>
    </g>
    <g id="xtick_2">
     <g id="line2d_2">
      <path d="M 106.816668 100.98 
L 106.816668 26.16 
" clip-path="url(#pcc12295dd2)" style="fill: none; stroke: #ffffff; stroke-width: 1.6; stroke-linecap: round"/>
     </g>
     <g id="text_2">
      <!-- 0.5 -->
      <g style="fill: #262626" transform="translate(101.256668 116.20625) scale(0.08 -0.08)">
       <defs>
        <path id="ArialMT-35" d="M 266 1200 
L 856 1250 
Q 922 819 1161 601 
Q 1400 384 1738 384 
Q 2144 384 2425 690 
Q 2706 997 2706 1503 
Q 2706 1984 2436 2262 
Q 2166 2541 1728 2541 
Q 1456 2541 1237 2417 
Q 1019 2294 894 2097 
L 366 2166 
L 809 4519 
L 3088 4519 
L 3088 3981 
L 1259 3981 
L 1013 2750 
Q 1425 3038 1878 3038 
Q 2478 3038 2890 2622 
Q 3303 2206 3303 1553 
Q 3303 931 2941 478 
Q 2500 -78 1738 -78 
Q 1113 -78 717 272 
Q 322 622 266 1200 
z
" transform="scale(0.015625)"/>
       </defs>
       <use xlink:href="#ArialMT-30"/>
       <use xlink:href="#ArialMT-2e" x="55.615234"/>
       <use xlink:href="#ArialMT-35" x="83.398438"/>
      </g>
     </g>
    </g>
    <g id="xtick_3">
     <g id="line2d_3">
      <path d="M 152.992675 100.98 
L 152.992675 26.16 
" clip-path="url(#pcc12295dd2)" style="fill: none; stroke: #ffffff; stroke-width: 1.6; stroke-linecap: round"/>
     </g>
     <g id="text_3">
      <!-- 1.0 -->
      <g style="fill: #262626" transform="translate(147.432675 116.20625) scale(0.08 -0.08)">
       <defs>
        <path id="ArialMT-31" d="M 2384 0 
L 1822 0 
L 1822 3584 
Q 1619 3391 1289 3197 
Q 959 3003 697 2906 
L 697 3450 
Q 1169 3672 1522 3987 
Q 1875 4303 2022 4600 
L 2384 4600 
L 2384 0 
z
" transform="scale(0.015625)"/>
       </defs>
       <use xlink:href="#ArialMT-31"/>
       <use xlink:href="#ArialMT-2e" x="55.615234"/>
       <use xlink:href="#ArialMT-30" x="83.398438"/>
      </g>
     </g>
    </g>
    <g id="xtick_4">
     <g id="line2d_4">
      <path d="M 69.875863 100.98 
L 69.875863 26.16 
" clip-path="url(#pcc12295dd2)" style="fill: none; stroke: #ffffff; stroke-width: 0.7; stroke-linecap: round"/>
     </g>
    </g>
    <g id="xtick_5">
     <g id="line2d_5">
      <path d="M 79.111064 100.98 
L 79.111064 26.16 
" clip-path="url(#pcc12295dd2)" style="fill: none; stroke: #ffffff; stroke-width: 0.7; stroke-linecap: round"/>
     </g>
    </g>
    <g id="xtick_6">
     <g id="line2d_6">
      <path d="M 88.346265 100.98 
L 88.346265 26.16 
" clip-path="url(#pcc12295dd2)" style="fill: none; stroke: #ffffff; stroke-width: 0.7; stroke-linecap: round"/>
     </g>
    </g>
    <g id="xtick_7">
     <g id="line2d_7">
      <path d="M 97.581467 100.98 
L 97.581467 26.16 
" clip-path="url(#pcc12295dd2)" style="fill: none; stroke: #ffffff; stroke-width: 0.7; stroke-linecap: round"/>
     </g>
    </g>
    <g id="xtick_8">
     <g id="line2d_8">
      <path d="M 116.051869 100.98 
L 116.051869 26.16 
" clip-path="url(#pcc12295dd2)" style="fill: none; stroke: #ffffff; stroke-width: 0.7; stroke-linecap: round"/>
     </g>
    </g>
    <g id="xtick_9">
     <g id="line2d_9">
      <path d="M 125.287071 100.98 
L 125.287071 26.16 
" clip-path="url(#pcc12295dd2)" style="fill: none; stroke: #ffffff; stroke-width: 0.7; stroke-linecap: round"/>
     </g>
    </g>
    <g id="xtick_10">
     <g id="line2d_10">
      <path d="M 134.522272 100.98 
L 134.522272 26.16 
" clip-path="url(#pcc12295dd2)" style="fill: none; stroke: #ffffff; stroke-width: 0.7; stroke-linecap: round"/>
     </g>
    </g>
    <g id="xtick_11">
     <g id="line2d_11">
      <path d="M 143.757473 100.98 
L 143.757473 26.16 
" clip-path="url(#pcc12295dd2)" style="fill: none; stroke: #ffffff; stroke-width: 0.7; stroke-linecap: round"/>
     </g>
    </g>
    <g id="text_4">
     <!-- x/c -->
     <g style="fill: #262626" transform="translate(100.428529 128.954063) scale(0.1 -0.1)">
      <defs>
       <path id="ArialMT-78" d="M 47 0 
L 1259 1725 
L 138 3319 
L 841 3319 
L 1350 2541 
Q 1494 2319 1581 2169 
Q 1719 2375 1834 2534 
L 2394 3319 
L 3066 3319 
L 1919 1756 
L 3153 0 
L 2463 0 
L 1781 1031 
L 1600 1309 
L 728 0 
L 47 0 
z
" transform="scale(0.015625)"/>
       <path id="ArialMT-2f" d="M 0 -78 
L 1328 4659 
L 1778 4659 
L 453 -78 
L 0 -78 
z
" transform="scale(0.015625)"/>
       <path id="ArialMT-63" d="M 2588 1216 
L 3141 1144 
Q 3050 572 2676 248 
Q 2303 -75 1759 -75 
Q 1078 -75 664 370 
Q 250 816 250 1647 
Q 250 2184 428 2587 
Q 606 2991 970 3192 
Q 1334 3394 1763 3394 
Q 2303 3394 2647 3120 
Q 2991 2847 3088 2344 
L 2541 2259 
Q 2463 2594 2264 2762 
Q 2066 2931 1784 2931 
Q 1359 2931 1093 2626 
Q 828 2322 828 1663 
Q 828 994 1084 691 
Q 1341 388 1753 388 
Q 2084 388 2306 591 
Q 2528 794 2588 1216 
z
" transform="scale(0.015625)"/>
      </defs>
      <use xlink:href="#ArialMT-78"/>
      <use xlink:href="#ArialMT-2f" x="50"/>
      <use xlink:href="#ArialMT-63" x="77.783203"/>
     </g>
    </g>
   </g>
   <g id="matplotlib.axis_2">
    <g id="ytick_1">
     <g id="line2d_12">
      <path d="M 56.025 100.510805 
L 157.610183 100.510805 
" clip-path="url(#pcc12295dd2)" style="fill: none; stroke: #ffffff; stroke-width: 1.6; stroke-linecap: round"/>
     </g>
     <g id="text_5">
      <!-- −0.4 -->
      <g style="fill: #262626" transform="translate(30.7325 103.37393) scale(0.08 -0.08)">
       <defs>
        <path id="ArialMT-2212" d="M 3381 1997 
L 356 1997 
L 356 2522 
L 3381 2522 
L 3381 1997 
z
" transform="scale(0.015625)"/>
        <path id="ArialMT-34" d="M 2069 0 
L 2069 1097 
L 81 1097 
L 81 1613 
L 2172 4581 
L 2631 4581 
L 2631 1613 
L 3250 1613 
L 3250 1097 
L 2631 1097 
L 2631 0 
L 2069 0 
z
M 2069 1613 
L 2069 3678 
L 634 1613 
L 2069 1613 
z
" transform="scale(0.015625)"/>
       </defs>
       <use xlink:href="#ArialMT-2212"/>
       <use xlink:href="#ArialMT-30" x="58.398438"/>
       <use xlink:href="#ArialMT-2e" x="114.013672"/>
       <use xlink:href="#ArialMT-34" x="141.796875"/>
      </g>
     </g>
    </g>
    <g id="ytick_2">
     <g id="line2d_13">
      <path d="M 56.025 82.040403 
L 157.610183 82.040403 
" clip-path="url(#pcc12295dd2)" style="fill: none; stroke: #ffffff; stroke-width: 1.6; stroke-linecap: round"/>
     </g>
     <g id="text_6">
      <!-- −0.2 -->
      <g style="fill: #262626" transform="translate(30.7325 84.903528) scale(0.08 -0.08)">
       <defs>
        <path id="ArialMT-32" d="M 3222 541 
L 3222 0 
L 194 0 
Q 188 203 259 391 
Q 375 700 629 1000 
Q 884 1300 1366 1694 
Q 2113 2306 2375 2664 
Q 2638 3022 2638 3341 
Q 2638 3675 2398 3904 
Q 2159 4134 1775 4134 
Q 1369 4134 1125 3890 
Q 881 3647 878 3216 
L 300 3275 
Q 359 3922 746 4261 
Q 1134 4600 1788 4600 
Q 2447 4600 2831 4234 
Q 3216 3869 3216 3328 
Q 3216 3053 3103 2787 
Q 2991 2522 2730 2228 
Q 2469 1934 1863 1422 
Q 1356 997 1212 845 
Q 1069 694 975 541 
L 3222 541 
z
" transform="scale(0.015625)"/>
       </defs>
       <use xlink:href="#ArialMT-2212"/>
       <use xlink:href="#ArialMT-30" x="58.398438"/>
       <use xlink:href="#ArialMT-2e" x="114.013672"/>
       <use xlink:href="#ArialMT-32" x="141.796875"/>
      </g>
     </g>
    </g>
    <g id="ytick_3">
     <g id="line2d_14">
      <path d="M 56.025 63.57 
L 157.610183 63.57 
" clip-path="url(#pcc12295dd2)" style="fill: none; stroke: #ffffff; stroke-width: 1.6; stroke-linecap: round"/>
     </g>
     <g id="text_7">
      <!-- 0.0 -->
      <g style="fill: #262626" transform="translate(35.405 66.433125) scale(0.08 -0.08)">
       <use xlink:href="#ArialMT-30"/>
       <use xlink:href="#ArialMT-2e" x="55.615234"/>
       <use xlink:href="#ArialMT-30" x="83.398438"/>
      </g>
     </g>
    </g>
    <g id="ytick_4">
     <g id="line2d_15">
      <path d="M 56.025 45.099597 
L 157.610183 45.099597 
" clip-path="url(#pcc12295dd2)" style="fill: none; stroke: #ffffff; stroke-width: 1.6; stroke-linecap: round"/>
     </g>
     <g id="text_8">
      <!-- 0.2 -->
      <g style="fill: #262626" transform="translate(35.405 47.962722) scale(0.08 -0.08)">
       <use xlink:href="#ArialMT-30"/>
       <use xlink:href="#ArialMT-2e" x="55.615234"/>
       <use xlink:href="#ArialMT-32" x="83.398438"/>
      </g>
     </g>
    </g>
    <g id="ytick_5">
     <g id="line2d_16">
      <path d="M 56.025 26.629195 
L 157.610183 26.629195 
" clip-path="url(#pcc12295dd2)" style="fill: none; stroke: #ffffff; stroke-width: 1.6; stroke-linecap: round"/>
     </g>
     <g id="text_9">
      <!-- 0.4 -->
      <g style="fill: #262626" transform="translate(35.405 29.49232) scale(0.08 -0.08)">
       <use xlink:href="#ArialMT-30"/>
       <use xlink:href="#ArialMT-2e" x="55.615234"/>
       <use xlink:href="#ArialMT-34" x="83.398438"/>
      </g>
     </g>
    </g>
    <g id="ytick_6">
     <g id="line2d_17">
      <path d="M 56.025 95.893205 
L 157.610183 95.893205 
" clip-path="url(#pcc12295dd2)" style="fill: none; stroke: #ffffff; stroke-width: 0.7; stroke-linecap: round"/>
     </g>
    </g>
    <g id="ytick_7">
     <g id="line2d_18">
      <path d="M 56.025 91.275604 
L 157.610183 91.275604 
" clip-path="url(#pcc12295dd2)" style="fill: none; stroke: #ffffff; stroke-width: 0.7; stroke-linecap: round"/>
     </g>
    </g>
    <g id="ytick_8">
     <g id="line2d_19">
      <path d="M 56.025 86.658003 
L 157.610183 86.658003 
" clip-path="url(#pcc12295dd2)" style="fill: none; stroke: #ffffff; stroke-width: 0.7; stroke-linecap: round"/>
     </g>
    </g>
    <g id="ytick_9">
     <g id="line2d_20">
      <path d="M 56.025 77.422802 
L 157.610183 77.422802 
" clip-path="url(#pcc12295dd2)" style="fill: none; stroke: #ffffff; stroke-width: 0.7; stroke-linecap: round"/>
     </g>
    </g>
    <g id="ytick_10">
     <g id="line2d_21">
      <path d="M 56.025 72.805201 
L 157.610183 72.805201 
" clip-path="url(#pcc12295dd2)" style="fill: none; stroke: #ffffff; stroke-width: 0.7; stroke-linecap: round"/>
     </g>
    </g>
    <g id="ytick_11">
     <g id="line2d_22">
      <path d="M 56.025 68.187601 
L 157.610183 68.187601 
" clip-path="url(#pcc12295dd2)" style="fill: none; stroke: #ffffff; stroke-width: 0.7; stroke-linecap: round"/>
     </g>
    </g>
    <g id="ytick_12">
     <g id="line2d_23">
      <path d="M 56.025 58.952399 
L 157.610183 58.952399 
" clip-path="url(#pcc12295dd2)" style="fill: none; stroke: #ffffff; stroke-width: 0.7; stroke-linecap: round"/>
     </g>
    </g>
    <g id="ytick_13">
     <g id="line2d_24">
      <path d="M 56.025 54.334799 
L 157.610183 54.334799 
" clip-path="url(#pcc12295dd2)" style="fill: none; stroke: #ffffff; stroke-width: 0.7; stroke-linecap: round"/>
     </g>
    </g>
    <g id="ytick_14">
     <g id="line2d_25">
      <path d="M 56.025 49.717198 
L 157.610183 49.717198 
" clip-path="url(#pcc12295dd2)" style="fill: none; stroke: #ffffff; stroke-width: 0.7; stroke-linecap: round"/>
     </g>
    </g>
    <g id="ytick_15">
     <g id="line2d_26">
      <path d="M 56.025 40.481997 
L 157.610183 40.481997 
" clip-path="url(#pcc12295dd2)" style="fill: none; stroke: #ffffff; stroke-width: 0.7; stroke-linecap: round"/>
     </g>
    </g>
    <g id="ytick_16">
     <g id="line2d_27">
      <path d="M 56.025 35.864396 
L 157.610183 35.864396 
" clip-path="url(#pcc12295dd2)" style="fill: none; stroke: #ffffff; stroke-width: 0.7; stroke-linecap: round"/>
     </g>
    </g>
    <g id="ytick_17">
     <g id="line2d_28">
      <path d="M 56.025 31.246795 
L 157.610183 31.246795 
" clip-path="url(#pcc12295dd2)" style="fill: none; stroke: #ffffff; stroke-width: 0.7; stroke-linecap: round"/>
     </g>
    </g>
    <g id="text_10">
     <!-- y/c -->
     <g style="fill: #262626" transform="translate(13.954375 66.1575) scale(0.1 -0.1)">
      <defs>
       <path id="ArialMT-79" d="M 397 -1278 
L 334 -750 
Q 519 -800 656 -800 
Q 844 -800 956 -737 
Q 1069 -675 1141 -563 
Q 1194 -478 1313 -144 
Q 1328 -97 1363 -6 
L 103 3319 
L 709 3319 
L 1400 1397 
Q 1534 1031 1641 628 
Q 1738 1016 1872 1384 
L 2581 3319 
L 3144 3319 
L 1881 -56 
Q 1678 -603 1566 -809 
Q 1416 -1088 1222 -1217 
Q 1028 -1347 759 -1347 
Q 597 -1347 397 -1278 
z
" transform="scale(0.015625)"/>
      </defs>
      <use xlink:href="#ArialMT-79"/>
      <use xlink:href="#ArialMT-2f" x="50"/>
      <use xlink:href="#ArialMT-63" x="77.783203"/>
     </g>
    </g>
   </g>
   <g id="patch_3">
    <path d="M 152.992675 63.57 
L 152.67406 63.42316 
L 151.79764 62.969712 
L 150.502864 62.245672 
L 148.86454 61.371099 
L 146.858654 60.452196 
L 144.435337 59.506511 
L 141.606595 58.508186 
L 138.420451 57.456297 
L 134.924927 56.363772 
L 131.172665 55.249084 
L 127.217228 54.136242 
L 123.111257 53.050182 
L 118.907394 52.020457 
L 114.658277 51.080314 
L 110.411932 50.262075 
L 106.213609 49.61007 
L 102.07901 49.169551 
L 98.00998 48.952523 
L 94.024991 48.956217 
L 90.144359 49.172321 
L 86.39302 49.589752 
L 82.793139 50.192811 
L 79.375191 50.957486 
L 76.170576 51.863459 
L 73.210694 52.89226 
L 70.522327 54.023572 
L 68.126715 55.237078 
L 66.045101 56.508765 
L 64.291336 57.814623 
L 62.876504 59.126021 
L 61.806144 60.412485 
L 61.084874 61.637072 
L 60.706231 62.758226 
L 60.642508 63.48873 
L 60.671137 63.747316 
L 60.706231 63.904314 
L 60.756101 64.048383 
L 60.785654 64.114877 
L 60.819824 64.175829 
L 60.859536 64.232164 
L 60.906635 64.282034 
L 60.962046 64.330057 
L 61.023922 64.377157 
L 61.167991 64.464891 
L 61.334225 64.546161 
L 61.62421 64.656983 
L 61.901266 64.739176 
L 63.311482 64.941427 
L 65.209315 64.938657 
L 67.597538 64.711471 
L 70.494621 64.253405 
L 73.925498 63.571847 
L 77.935423 62.718514 
L 82.517006 61.803306 
L 87.603755 60.924115 
L 93.1144 60.164981 
L 98.919647 59.614563 
L 104.8468 59.297796 
L 110.764717 59.174044 
L 116.586588 59.215603 
L 122.230219 59.413236 
L 127.598642 59.759556 
L 132.593962 60.22224 
L 137.141375 60.753264 
L 141.189164 61.312917 
L 144.692076 61.867029 
L 147.616864 62.382353 
L 149.93767 62.836725 
L 151.624941 63.209827 
L 152.650049 63.472107 
z
" clip-path="url(#pcc12295dd2)" style="fill-opacity: 0.2; stroke: #000000; stroke-opacity: 0.7; stroke-linejoin: miter"/>
   </g>
   <g id="patch_4">
    <path d="M 56.025 100.98 
L 56.025 26.16 
" style="fill: none; stroke: #ffffff; stroke-width: 1.25; stroke-linejoin: miter; stroke-linecap: square"/>
   </g>
   <g id="patch_5">
    <path d="M 157.610183 100.98 
L 157.610183 26.16 
" style="fill: none; stroke: #ffffff; stroke-width: 1.25; stroke-linejoin: miter; stroke-linecap: square"/>
   </g>
   <g id="patch_6">
    <path d="M 56.025 100.98 
L 157.610183 100.98 
" style="fill: none; stroke: #ffffff; stroke-width: 1.25; stroke-linejoin: miter; stroke-linecap: square"/>
   </g>
   <g id="patch_7">
    <path d="M 56.025 26.16 
L 157.610183 26.16 
" style="fill: none; stroke: #ffffff; stroke-width: 1.25; stroke-linejoin: miter; stroke-linecap: square"/>
   </g>
   <g id="text_11">
    <g id="patch_8">
     <path d="M 92.457592 42.55825 
L 121.177592 42.55825 
Q 122.777592 42.55825 122.777592 40.95825 
L 122.777592 33.642 
Q 122.777592 32.042 121.177592 32.042 
L 92.457592 32.042 
Q 90.857592 32.042 90.857592 33.642 
L 90.857592 40.95825 
Q 90.857592 42.55825 92.457592 42.55825 
z
" style="fill: #ffffff; stroke: #000000; stroke-linejoin: miter"/>
    </g>
    <!-- $\alpha$ = 5.0° -->
    <g transform="translate(92.457592 39.36825) scale(0.08 -0.08)">
     <defs>
      <path id="DejaVuSans-Oblique-3b1" d="M 2619 1628 
L 2622 2350 
Q 2625 3088 2069 3091 
Q 1653 3094 1394 2747 
Q 1069 2319 959 1747 
Q 825 1059 994 731 
Q 1169 397 1547 397 
Q 1966 397 2319 1063 
L 2619 1628 
z
M 2166 3578 
Q 3141 3594 3128 2584 
Q 3128 2584 3616 3500 
L 4128 3500 
L 3119 1603 
L 3109 919 
Q 3109 766 3194 638 
Q 3291 488 3391 488 
L 3669 488 
L 3575 0 
L 3228 0 
Q 2934 0 2722 263 
Q 2622 394 2619 669 
Q 2416 334 2066 50 
Q 1900 -81 1453 -78 
Q 722 -72 456 397 
Q 184 884 353 1747 
Q 534 2675 1009 3097 
Q 1544 3569 2166 3578 
z
" transform="scale(0.015625)"/>
      <path id="ArialMT-20" transform="scale(0.015625)"/>
      <path id="ArialMT-3d" d="M 3381 2694 
L 356 2694 
L 356 3219 
L 3381 3219 
L 3381 2694 
z
M 3381 1303 
L 356 1303 
L 356 1828 
L 3381 1828 
L 3381 1303 
z
" transform="scale(0.015625)"/>
      <path id="ArialMT-b0" d="M 400 3794 
Q 400 4153 654 4406 
Q 909 4659 1266 4659 
Q 1628 4659 1881 4406 
Q 2134 4153 2134 3794 
Q 2134 3434 1879 3179 
Q 1625 2925 1266 2925 
Q 909 2925 654 3178 
Q 400 3431 400 3794 
z
M 741 3794 
Q 741 3575 895 3420 
Q 1050 3266 1269 3266 
Q 1484 3266 1639 3420 
Q 1794 3575 1794 3794 
Q 1794 4013 1639 4167 
Q 1484 4322 1269 4322 
Q 1050 4322 895 4167 
Q 741 4013 741 3794 
z
" transform="scale(0.015625)"/>
     </defs>
     <use xlink:href="#DejaVuSans-Oblique-3b1" transform="translate(0 0.203125)"/>
     <use xlink:href="#ArialMT-20" transform="translate(65.917969 0.203125)"/>
     <use xlink:href="#ArialMT-3d" transform="translate(93.701172 0.203125)"/>
     <use xlink:href="#ArialMT-20" transform="translate(152.099609 0.203125)"/>
     <use xlink:href="#ArialMT-35" transform="translate(179.882812 0.203125)"/>
     <use xlink:href="#ArialMT-2e" transform="translate(235.498047 0.203125)"/>
     <use xlink:href="#ArialMT-30" transform="translate(263.28125 0.203125)"/>
     <use xlink:href="#ArialMT-b0" transform="translate(318.896484 0.203125)"/>
    </g>
   </g>
   <g id="text_12">
    <!-- Original Airfoil -->
    <g style="fill: #262626" transform="translate(75.97306 20.16) scale(0.1 -0.1)">
     <defs>
      <path id="ArialMT-4f" d="M 309 2231 
Q 309 3372 921 4017 
Q 1534 4663 2503 4663 
Q 3138 4663 3647 4359 
Q 4156 4056 4423 3514 
Q 4691 2972 4691 2284 
Q 4691 1588 4409 1038 
Q 4128 488 3612 205 
Q 3097 -78 2500 -78 
Q 1853 -78 1343 234 
Q 834 547 571 1087 
Q 309 1628 309 2231 
z
M 934 2222 
Q 934 1394 1379 917 
Q 1825 441 2497 441 
Q 3181 441 3623 922 
Q 4066 1403 4066 2288 
Q 4066 2847 3877 3264 
Q 3688 3681 3323 3911 
Q 2959 4141 2506 4141 
Q 1863 4141 1398 3698 
Q 934 3256 934 2222 
z
" transform="scale(0.015625)"/>
      <path id="ArialMT-72" d="M 416 0 
L 416 3319 
L 922 3319 
L 922 2816 
Q 1116 3169 1280 3281 
Q 1444 3394 1641 3394 
Q 1925 3394 2219 3213 
L 2025 2691 
Q 1819 2813 1613 2813 
Q 1428 2813 1281 2702 
Q 1134 2591 1072 2394 
Q 978 2094 978 1738 
L 978 0 
L 416 0 
z
" transform="scale(0.015625)"/>
      <path id="ArialMT-69" d="M 425 3934 
L 425 4581 
L 988 4581 
L 988 3934 
L 425 3934 
z
M 425 0 
L 425 3319 
L 988 3319 
L 988 0 
L 425 0 
z
" transform="scale(0.015625)"/>
      <path id="ArialMT-67" d="M 319 -275 
L 866 -356 
Q 900 -609 1056 -725 
Q 1266 -881 1628 -881 
Q 2019 -881 2231 -725 
Q 2444 -569 2519 -288 
Q 2563 -116 2559 434 
Q 2191 0 1641 0 
Q 956 0 581 494 
Q 206 988 206 1678 
Q 206 2153 378 2554 
Q 550 2956 876 3175 
Q 1203 3394 1644 3394 
Q 2231 3394 2613 2919 
L 2613 3319 
L 3131 3319 
L 3131 450 
Q 3131 -325 2973 -648 
Q 2816 -972 2473 -1159 
Q 2131 -1347 1631 -1347 
Q 1038 -1347 672 -1080 
Q 306 -813 319 -275 
z
M 784 1719 
Q 784 1066 1043 766 
Q 1303 466 1694 466 
Q 2081 466 2343 764 
Q 2606 1063 2606 1700 
Q 2606 2309 2336 2618 
Q 2066 2928 1684 2928 
Q 1309 2928 1046 2623 
Q 784 2319 784 1719 
z
" transform="scale(0.015625)"/>
      <path id="ArialMT-6e" d="M 422 0 
L 422 3319 
L 928 3319 
L 928 2847 
Q 1294 3394 1984 3394 
Q 2284 3394 2536 3286 
Q 2788 3178 2913 3003 
Q 3038 2828 3088 2588 
Q 3119 2431 3119 2041 
L 3119 0 
L 2556 0 
L 2556 2019 
Q 2556 2363 2490 2533 
Q 2425 2703 2258 2804 
Q 2091 2906 1866 2906 
Q 1506 2906 1245 2678 
Q 984 2450 984 1813 
L 984 0 
L 422 0 
z
" transform="scale(0.015625)"/>
      <path id="ArialMT-61" d="M 2588 409 
Q 2275 144 1986 34 
Q 1697 -75 1366 -75 
Q 819 -75 525 192 
Q 231 459 231 875 
Q 231 1119 342 1320 
Q 453 1522 633 1644 
Q 813 1766 1038 1828 
Q 1203 1872 1538 1913 
Q 2219 1994 2541 2106 
Q 2544 2222 2544 2253 
Q 2544 2597 2384 2738 
Q 2169 2928 1744 2928 
Q 1347 2928 1158 2789 
Q 969 2650 878 2297 
L 328 2372 
Q 403 2725 575 2942 
Q 747 3159 1072 3276 
Q 1397 3394 1825 3394 
Q 2250 3394 2515 3294 
Q 2781 3194 2906 3042 
Q 3031 2891 3081 2659 
Q 3109 2516 3109 2141 
L 3109 1391 
Q 3109 606 3145 398 
Q 3181 191 3288 0 
L 2700 0 
Q 2613 175 2588 409 
z
M 2541 1666 
Q 2234 1541 1622 1453 
Q 1275 1403 1131 1340 
Q 988 1278 909 1158 
Q 831 1038 831 891 
Q 831 666 1001 516 
Q 1172 366 1500 366 
Q 1825 366 2078 508 
Q 2331 650 2450 897 
Q 2541 1088 2541 1459 
L 2541 1666 
z
" transform="scale(0.015625)"/>
      <path id="ArialMT-6c" d="M 409 0 
L 409 4581 
L 972 4581 
L 972 0 
L 409 0 
z
" transform="scale(0.015625)"/>
      <path id="ArialMT-41" d="M -9 0 
L 1750 4581 
L 2403 4581 
L 4278 0 
L 3588 0 
L 3053 1388 
L 1138 1388 
L 634 0 
L -9 0 
z
M 1313 1881 
L 2866 1881 
L 2388 3150 
Q 2169 3728 2063 4100 
Q 1975 3659 1816 3225 
L 1313 1881 
z
" transform="scale(0.015625)"/>
      <path id="ArialMT-66" d="M 556 0 
L 556 2881 
L 59 2881 
L 59 3319 
L 556 3319 
L 556 3672 
Q 556 4006 616 4169 
Q 697 4388 901 4523 
Q 1106 4659 1475 4659 
Q 1713 4659 2000 4603 
L 1916 4113 
Q 1741 4144 1584 4144 
Q 1328 4144 1222 4034 
Q 1116 3925 1116 3625 
L 1116 3319 
L 1763 3319 
L 1763 2881 
L 1116 2881 
L 1116 0 
L 556 0 
z
" transform="scale(0.015625)"/>
      <path id="ArialMT-6f" d="M 213 1659 
Q 213 2581 725 3025 
Q 1153 3394 1769 3394 
Q 2453 3394 2887 2945 
Q 3322 2497 3322 1706 
Q 3322 1066 3130 698 
Q 2938 331 2570 128 
Q 2203 -75 1769 -75 
Q 1072 -75 642 372 
Q 213 819 213 1659 
z
M 791 1659 
Q 791 1022 1069 705 
Q 1347 388 1769 388 
Q 2188 388 2466 706 
Q 2744 1025 2744 1678 
Q 2744 2294 2464 2611 
Q 2184 2928 1769 2928 
Q 1347 2928 1069 2612 
Q 791 2297 791 1659 
z
" transform="scale(0.015625)"/>
     </defs>
     <use xlink:href="#ArialMT-4f"/>
     <use xlink:href="#ArialMT-72" x="77.783203"/>
     <use xlink:href="#ArialMT-69" x="111.083984"/>
     <use xlink:href="#ArialMT-67" x="133.300781"/>
     <use xlink:href="#ArialMT-69" x="188.916016"/>
     <use xlink:href="#ArialMT-6e" x="211.132812"/>
     <use xlink:href="#ArialMT-61" x="266.748047"/>
     <use xlink:href="#ArialMT-6c" x="322.363281"/>
     <use xlink:href="#ArialMT-20" x="344.580078"/>
     <use xlink:href="#ArialMT-41" x="366.863281"/>
     <use xlink:href="#ArialMT-69" x="433.5625"/>
     <use xlink:href="#ArialMT-72" x="455.779297"/>
     <use xlink:href="#ArialMT-66" x="489.080078"/>
     <use xlink:href="#ArialMT-6f" x="516.863281"/>
     <use xlink:href="#ArialMT-69" x="572.478516"/>
     <use xlink:href="#ArialMT-6c" x="594.695312"/>
    </g>
   </g>
  </g>
  <g id="axes_2">
   <g id="patch_9">
    <path d="M 172.486387 100.98 
L 274.07157 100.98 
L 274.07157 26.16 
L 172.486387 26.16 
z
" style="fill: #eaeaf2"/>
   </g>
   <g id="matplotlib.axis_3">
    <g id="xtick_12">
     <g id="line2d_29">
      <path d="M 177.102048 100.98 
L 177.102048 26.16 
" clip-path="url(#p1f9c9ff622)" style="fill: none; stroke: #ffffff; stroke-width: 1.6; stroke-linecap: round"/>
     </g>
     <g id="text_13">
      <!-- 0.0 -->
      <g style="fill: #262626" transform="translate(171.542048 116.20625) scale(0.08 -0.08)">
       <use xlink:href="#ArialMT-30"/>
       <use xlink:href="#ArialMT-2e" x="55.615234"/>
       <use xlink:href="#ArialMT-30" x="83.398438"/>
      </g>
     </g>
    </g>
    <g id="xtick_13">
     <g id="line2d_30">
      <path d="M 223.278055 100.98 
L 223.278055 26.16 
" clip-path="url(#p1f9c9ff622)" style="fill: none; stroke: #ffffff; stroke-width: 1.6; stroke-linecap: round"/>
     </g>
     <g id="text_14">
      <!-- 0.5 -->
      <g style="fill: #262626" transform="translate(217.718055 116.20625) scale(0.08 -0.08)">
       <use xlink:href="#ArialMT-30"/>
       <use xlink:href="#ArialMT-2e" x="55.615234"/>
       <use xlink:href="#ArialMT-35" x="83.398438"/>
      </g>
     </g>
    </g>
    <g id="xtick_14">
     <g id="line2d_31">
      <path d="M 269.454062 100.98 
L 269.454062 26.16 
" clip-path="url(#p1f9c9ff622)" style="fill: none; stroke: #ffffff; stroke-width: 1.6; stroke-linecap: round"/>
     </g>
     <g id="text_15">
      <!-- 1.0 -->
      <g style="fill: #262626" transform="translate(263.894062 116.20625) scale(0.08 -0.08)">
       <use xlink:href="#ArialMT-31"/>
       <use xlink:href="#ArialMT-2e" x="55.615234"/>
       <use xlink:href="#ArialMT-30" x="83.398438"/>
      </g>
     </g>
    </g>
    <g id="xtick_15">
     <g id="line2d_32">
      <path d="M 186.33725 100.98 
L 186.33725 26.16 
" clip-path="url(#p1f9c9ff622)" style="fill: none; stroke: #ffffff; stroke-width: 0.7; stroke-linecap: round"/>
     </g>
    </g>
    <g id="xtick_16">
     <g id="line2d_33">
      <path d="M 195.572451 100.98 
L 195.572451 26.16 
" clip-path="url(#p1f9c9ff622)" style="fill: none; stroke: #ffffff; stroke-width: 0.7; stroke-linecap: round"/>
     </g>
    </g>
    <g id="xtick_17">
     <g id="line2d_34">
      <path d="M 204.807653 100.98 
L 204.807653 26.16 
" clip-path="url(#p1f9c9ff622)" style="fill: none; stroke: #ffffff; stroke-width: 0.7; stroke-linecap: round"/>
     </g>
    </g>
    <g id="xtick_18">
     <g id="line2d_35">
      <path d="M 214.042854 100.98 
L 214.042854 26.16 
" clip-path="url(#p1f9c9ff622)" style="fill: none; stroke: #ffffff; stroke-width: 0.7; stroke-linecap: round"/>
     </g>
    </g>
    <g id="xtick_19">
     <g id="line2d_36">
      <path d="M 232.513257 100.98 
L 232.513257 26.16 
" clip-path="url(#p1f9c9ff622)" style="fill: none; stroke: #ffffff; stroke-width: 0.7; stroke-linecap: round"/>
     </g>
    </g>
    <g id="xtick_20">
     <g id="line2d_37">
      <path d="M 241.748458 100.98 
L 241.748458 26.16 
" clip-path="url(#p1f9c9ff622)" style="fill: none; stroke: #ffffff; stroke-width: 0.7; stroke-linecap: round"/>
     </g>
    </g>
    <g id="xtick_21">
     <g id="line2d_38">
      <path d="M 250.983659 100.98 
L 250.983659 26.16 
" clip-path="url(#p1f9c9ff622)" style="fill: none; stroke: #ffffff; stroke-width: 0.7; stroke-linecap: round"/>
     </g>
    </g>
    <g id="xtick_22">
     <g id="line2d_39">
      <path d="M 260.218861 100.98 
L 260.218861 26.16 
" clip-path="url(#p1f9c9ff622)" style="fill: none; stroke: #ffffff; stroke-width: 0.7; stroke-linecap: round"/>
     </g>
    </g>
    <g id="text_16">
     <!-- x/c -->
     <g style="fill: #262626" transform="translate(216.889916 128.954063) scale(0.1 -0.1)">
      <use xlink:href="#ArialMT-78"/>
      <use xlink:href="#ArialMT-2f" x="50"/>
      <use xlink:href="#ArialMT-63" x="77.783203"/>
     </g>
    </g>
   </g>
   <g id="matplotlib.axis_4">
    <g id="ytick_18">
     <g id="line2d_40">
      <path d="M 172.486387 100.510805 
L 274.07157 100.510805 
" clip-path="url(#p1f9c9ff622)" style="fill: none; stroke: #ffffff; stroke-width: 1.6; stroke-linecap: round"/>
     </g>
    </g>
    <g id="ytick_19">
     <g id="line2d_41">
      <path d="M 172.486387 82.040403 
L 274.07157 82.040403 
" clip-path="url(#p1f9c9ff622)" style="fill: none; stroke: #ffffff; stroke-width: 1.6; stroke-linecap: round"/>
     </g>
    </g>
    <g id="ytick_20">
     <g id="line2d_42">
      <path d="M 172.486387 63.57 
L 274.07157 63.57 
" clip-path="url(#p1f9c9ff622)" style="fill: none; stroke: #ffffff; stroke-width: 1.6; stroke-linecap: round"/>
     </g>
    </g>
    <g id="ytick_21">
     <g id="line2d_43">
      <path d="M 172.486387 45.099597 
L 274.07157 45.099597 
" clip-path="url(#p1f9c9ff622)" style="fill: none; stroke: #ffffff; stroke-width: 1.6; stroke-linecap: round"/>
     </g>
    </g>
    <g id="ytick_22">
     <g id="line2d_44">
      <path d="M 172.486387 26.629195 
L 274.07157 26.629195 
" clip-path="url(#p1f9c9ff622)" style="fill: none; stroke: #ffffff; stroke-width: 1.6; stroke-linecap: round"/>
     </g>
    </g>
    <g id="ytick_23">
     <g id="line2d_45">
      <path d="M 172.486387 95.893205 
L 274.07157 95.893205 
" clip-path="url(#p1f9c9ff622)" style="fill: none; stroke: #ffffff; stroke-width: 0.7; stroke-linecap: round"/>
     </g>
    </g>
    <g id="ytick_24">
     <g id="line2d_46">
      <path d="M 172.486387 91.275604 
L 274.07157 91.275604 
" clip-path="url(#p1f9c9ff622)" style="fill: none; stroke: #ffffff; stroke-width: 0.7; stroke-linecap: round"/>
     </g>
    </g>
    <g id="ytick_25">
     <g id="line2d_47">
      <path d="M 172.486387 86.658003 
L 274.07157 86.658003 
" clip-path="url(#p1f9c9ff622)" style="fill: none; stroke: #ffffff; stroke-width: 0.7; stroke-linecap: round"/>
     </g>
    </g>
    <g id="ytick_26">
     <g id="line2d_48">
      <path d="M 172.486387 77.422802 
L 274.07157 77.422802 
" clip-path="url(#p1f9c9ff622)" style="fill: none; stroke: #ffffff; stroke-width: 0.7; stroke-linecap: round"/>
     </g>
    </g>
    <g id="ytick_27">
     <g id="line2d_49">
      <path d="M 172.486387 72.805201 
L 274.07157 72.805201 
" clip-path="url(#p1f9c9ff622)" style="fill: none; stroke: #ffffff; stroke-width: 0.7; stroke-linecap: round"/>
     </g>
    </g>
    <g id="ytick_28">
     <g id="line2d_50">
      <path d="M 172.486387 68.187601 
L 274.07157 68.187601 
" clip-path="url(#p1f9c9ff622)" style="fill: none; stroke: #ffffff; stroke-width: 0.7; stroke-linecap: round"/>
     </g>
    </g>
    <g id="ytick_29">
     <g id="line2d_51">
      <path d="M 172.486387 58.952399 
L 274.07157 58.952399 
" clip-path="url(#p1f9c9ff622)" style="fill: none; stroke: #ffffff; stroke-width: 0.7; stroke-linecap: round"/>
     </g>
    </g>
    <g id="ytick_30">
     <g id="line2d_52">
      <path d="M 172.486387 54.334799 
L 274.07157 54.334799 
" clip-path="url(#p1f9c9ff622)" style="fill: none; stroke: #ffffff; stroke-width: 0.7; stroke-linecap: round"/>
     </g>
    </g>
    <g id="ytick_31">
     <g id="line2d_53">
      <path d="M 172.486387 49.717198 
L 274.07157 49.717198 
" clip-path="url(#p1f9c9ff622)" style="fill: none; stroke: #ffffff; stroke-width: 0.7; stroke-linecap: round"/>
     </g>
    </g>
    <g id="ytick_32">
     <g id="line2d_54">
      <path d="M 172.486387 40.481997 
L 274.07157 40.481997 
" clip-path="url(#p1f9c9ff622)" style="fill: none; stroke: #ffffff; stroke-width: 0.7; stroke-linecap: round"/>
     </g>
    </g>
    <g id="ytick_33">
     <g id="line2d_55">
      <path d="M 172.486387 35.864396 
L 274.07157 35.864396 
" clip-path="url(#p1f9c9ff622)" style="fill: none; stroke: #ffffff; stroke-width: 0.7; stroke-linecap: round"/>
     </g>
    </g>
    <g id="ytick_34">
     <g id="line2d_56">
      <path d="M 172.486387 31.246795 
L 274.07157 31.246795 
" clip-path="url(#p1f9c9ff622)" style="fill: none; stroke: #ffffff; stroke-width: 0.7; stroke-linecap: round"/>
     </g>
    </g>
   </g>
   <g id="patch_10">
    <path d="M 269.454062 63.57 
L 269.111436 63.667893 
L 268.086329 63.930173 
L 266.399057 64.303275 
L 264.078251 64.757647 
L 261.153463 65.272971 
L 257.650551 65.827083 
L 253.602762 66.386736 
L 249.055349 66.91776 
L 244.060029 67.380444 
L 238.691606 67.726764 
L 233.047975 67.924397 
L 227.226104 67.965956 
L 221.308187 67.842204 
L 215.381035 67.525437 
L 209.575787 66.975019 
L 204.065142 66.215885 
L 198.978393 65.336694 
L 194.39681 64.421486 
L 190.386886 63.568153 
L 186.956008 62.886595 
L 184.058926 62.428529 
L 181.670703 62.201343 
L 179.772869 62.198573 
L 178.362653 62.400824 
L 178.085597 62.483017 
L 177.795612 62.593839 
L 177.629378 62.675109 
L 177.485309 62.762843 
L 177.423433 62.809943 
L 177.368022 62.857966 
L 177.320923 62.907836 
L 177.281211 62.964171 
L 177.247041 63.025123 
L 177.217489 63.091617 
L 177.167618 63.235686 
L 177.132525 63.392684 
L 177.103896 63.65127 
L 177.167618 64.381774 
L 177.546262 65.502928 
L 178.267531 66.727515 
L 179.337891 68.013979 
L 180.752724 69.325377 
L 182.506488 70.631235 
L 184.588103 71.902922 
L 186.983714 73.116428 
L 189.672081 74.24774 
L 192.631963 75.276541 
L 195.836578 76.182514 
L 199.254526 76.947189 
L 202.854407 77.550248 
L 206.605746 77.967679 
L 210.486378 78.183783 
L 214.471367 78.187477 
L 218.540397 77.970449 
L 222.674997 77.52993 
L 226.873319 76.877925 
L 231.119665 76.059686 
L 235.368781 75.119543 
L 239.572644 74.089818 
L 243.678615 73.003758 
L 247.634052 71.890916 
L 251.386314 70.776228 
L 254.881838 69.683703 
L 258.067982 68.631814 
L 260.896724 67.633489 
L 263.320041 66.687804 
L 265.325927 65.768901 
L 266.964252 64.894328 
L 268.259027 64.170288 
L 269.135447 63.71684 
z
" clip-path="url(#p1f9c9ff622)" style="fill-opacity: 0.2; stroke: #000000; stroke-opacity: 0.7; stroke-linejoin: miter"/>
   </g>
   <g id="patch_11">
    <path d="M 172.486387 100.98 
L 172.486387 26.16 
" style="fill: none; stroke: #ffffff; stroke-width: 1.25; stroke-linejoin: miter; stroke-linecap: square"/>
   </g>
   <g id="patch_12">
    <path d="M 274.07157 100.98 
L 274.07157 26.16 
" style="fill: none; stroke: #ffffff; stroke-width: 1.25; stroke-linejoin: miter; stroke-linecap: square"/>
   </g>
   <g id="patch_13">
    <path d="M 172.486387 100.98 
L 274.07157 100.98 
" style="fill: none; stroke: #ffffff; stroke-width: 1.25; stroke-linejoin: miter; stroke-linecap: square"/>
   </g>
   <g id="patch_14">
    <path d="M 172.486387 26.16 
L 274.07157 26.16 
" style="fill: none; stroke: #ffffff; stroke-width: 1.25; stroke-linejoin: miter; stroke-linecap: square"/>
   </g>
   <g id="text_17">
    <g id="patch_15">
     <path d="M 207.558979 42.55825 
L 238.998979 42.55825 
Q 240.598979 42.55825 240.598979 40.95825 
L 240.598979 33.642 
Q 240.598979 32.042 238.998979 32.042 
L 207.558979 32.042 
Q 205.958979 32.042 205.958979 33.642 
L 205.958979 40.95825 
Q 205.958979 42.55825 207.558979 42.55825 
z
" style="fill: #ffffff; stroke: #000000; stroke-linejoin: miter"/>
    </g>
    <!-- $\alpha$ = -5.0° -->
    <g transform="translate(207.558979 39.36825) scale(0.08 -0.08)">
     <defs>
      <path id="ArialMT-2d" d="M 203 1375 
L 203 1941 
L 1931 1941 
L 1931 1375 
L 203 1375 
z
" transform="scale(0.015625)"/>
     </defs>
     <use xlink:href="#DejaVuSans-Oblique-3b1" transform="translate(0 0.203125)"/>
     <use xlink:href="#ArialMT-20" transform="translate(65.917969 0.203125)"/>
     <use xlink:href="#ArialMT-3d" transform="translate(93.701172 0.203125)"/>
     <use xlink:href="#ArialMT-20" transform="translate(152.099609 0.203125)"/>
     <use xlink:href="#ArialMT-2d" transform="translate(179.882812 0.203125)"/>
     <use xlink:href="#ArialMT-35" transform="translate(213.183594 0.203125)"/>
     <use xlink:href="#ArialMT-2e" transform="translate(268.798828 0.203125)"/>
     <use xlink:href="#ArialMT-30" transform="translate(296.582031 0.203125)"/>
     <use xlink:href="#ArialMT-b0" transform="translate(352.197266 0.203125)"/>
    </g>
   </g>
   <g id="text_18">
    <!-- Image Airfoil -->
    <g style="fill: #262626" transform="translate(195.76726 20.16) scale(0.1 -0.1)">
     <defs>
      <path id="ArialMT-49" d="M 597 0 
L 597 4581 
L 1203 4581 
L 1203 0 
L 597 0 
z
" transform="scale(0.015625)"/>
      <path id="ArialMT-6d" d="M 422 0 
L 422 3319 
L 925 3319 
L 925 2853 
Q 1081 3097 1340 3245 
Q 1600 3394 1931 3394 
Q 2300 3394 2536 3241 
Q 2772 3088 2869 2813 
Q 3263 3394 3894 3394 
Q 4388 3394 4653 3120 
Q 4919 2847 4919 2278 
L 4919 0 
L 4359 0 
L 4359 2091 
Q 4359 2428 4304 2576 
Q 4250 2725 4106 2815 
Q 3963 2906 3769 2906 
Q 3419 2906 3187 2673 
Q 2956 2441 2956 1928 
L 2956 0 
L 2394 0 
L 2394 2156 
Q 2394 2531 2256 2718 
Q 2119 2906 1806 2906 
Q 1569 2906 1367 2781 
Q 1166 2656 1075 2415 
Q 984 2175 984 1722 
L 984 0 
L 422 0 
z
" transform="scale(0.015625)"/>
      <path id="ArialMT-65" d="M 2694 1069 
L 3275 997 
Q 3138 488 2766 206 
Q 2394 -75 1816 -75 
Q 1088 -75 661 373 
Q 234 822 234 1631 
Q 234 2469 665 2931 
Q 1097 3394 1784 3394 
Q 2450 3394 2872 2941 
Q 3294 2488 3294 1666 
Q 3294 1616 3291 1516 
L 816 1516 
Q 847 969 1125 678 
Q 1403 388 1819 388 
Q 2128 388 2347 550 
Q 2566 713 2694 1069 
z
M 847 1978 
L 2700 1978 
Q 2663 2397 2488 2606 
Q 2219 2931 1791 2931 
Q 1403 2931 1139 2672 
Q 875 2413 847 1978 
z
" transform="scale(0.015625)"/>
     </defs>
     <use xlink:href="#ArialMT-49"/>
     <use xlink:href="#ArialMT-6d" x="27.783203"/>
     <use xlink:href="#ArialMT-61" x="111.083984"/>
     <use xlink:href="#ArialMT-67" x="166.699219"/>
     <use xlink:href="#ArialMT-65" x="222.314453"/>
     <use xlink:href="#ArialMT-20" x="277.929688"/>
     <use xlink:href="#ArialMT-41" x="300.212891"/>
     <use xlink:href="#ArialMT-69" x="366.912109"/>
     <use xlink:href="#ArialMT-72" x="389.128906"/>
     <use xlink:href="#ArialMT-66" x="422.429688"/>
     <use xlink:href="#ArialMT-6f" x="450.212891"/>
     <use xlink:href="#ArialMT-69" x="505.828125"/>
     <use xlink:href="#ArialMT-6c" x="528.044922"/>
    </g>
   </g>
  </g>
 </g>
 <defs>
  <clipPath id="pcc12295dd2">
   <rect x="56.025" y="26.16" width="101.585183" height="74.82"/>
  </clipPath>
  <clipPath id="p1f9c9ff622">
   <rect x="172.486387" y="26.16" width="101.585183" height="74.82"/>
  </clipPath>
 </defs>
</svg>
