<?xml version="1.0" encoding="utf-8" standalone="no"?>
<!DOCTYPE svg PUBLIC "-//W3C//DTD SVG 1.1//EN"
  "http://www.w3.org/Graphics/SVG/1.1/DTD/svg11.dtd">
<svg xmlns:xlink="http://www.w3.org/1999/xlink" width="468pt" height="151.2pt" viewBox="0 0 468 151.2" xmlns="http://www.w3.org/2000/svg" version="1.1">
 <metadata>
  <rdf:RDF xmlns:dc="http://purl.org/dc/elements/1.1/" xmlns:cc="http://creativecommons.org/ns#" xmlns:rdf="http://www.w3.org/1999/02/22-rdf-syntax-ns#">
   <cc:Work>
    <dc:type rdf:resource="http://purl.org/dc/dcmitype/StillImage"/>
    <dc:date>2024-04-02T18:11:53.010767</dc:date>
    <dc:format>image/svg+xml</dc:format>
    <dc:creator>
     <cc:Agent>
      <dc:title>Matplotlib v3.8.3, https://matplotlib.org/</dc:title>
     </cc:Agent>
    </dc:creator>
   </cc:Work>
  </rdf:RDF>
 </metadata>
 <defs>
  <style type="text/css">*{stroke-linejoin: round; stroke-linecap: butt}</style>
 </defs>
 <g id="figure_1">
  <g id="patch_1">
   <path d="M 0 151.2 
L 468 151.2 
L 468 0 
L 0 0 
z
" style="fill: #ffffff"/>
  </g>
  <g id="axes_1">
   <g id="patch_2">
    <path d="M 51.615 108.18 
L 163.474425 108.18 
L 163.474425 37.005 
L 51.615 37.005 
z
" style="fill: #eaeaf2"/>
   </g>
   <g id="matplotlib.axis_1">
    <g id="xtick_1">
     <g id="line2d_1">
      <path d="M 56.699519 108.18 
L 56.699519 37.005 
" clip-path="url(#p118772faea)" style="fill: none; stroke: #ffffff; stroke-width: 1.6; stroke-linecap: round"/>
     </g>
     <g id="text_1">
      <!-- 0.0 -->
      <g style="fill: #262626" transform="translate(51.139519 123.40625) scale(0.08 -0.08)">
       <defs>
        <path id="ArialMT-30" d="M 266 2259 
Q 266 3072 433 3567 
Q 600 4063 929 4331 
Q 1259 4600 1759 4600 
Q 2128 4600 2406 4451 
Q 2684 4303 2865 4023 
Q 3047 3744 3150 3342 
Q 3253 2941 3253 2259 
Q 3253 1453 3087 958 
Q 2922 463 2592 192 
Q 2263 -78 1759 -78 
Q 1097 -78 719 397 
Q 266 969 266 2259 
z
M 844 2259 
Q 844 1131 1108 757 
Q 1372 384 1759 384 
Q 2147 384 2411 759 
Q 2675 1134 2675 2259 
Q 2675 3391 2411 3762 
Q 2147 4134 1753 4134 
Q 1366 4134 1134 3806 
Q 844 3388 844 2259 
z
" transform="scale(0.015625)"/>
        <path id="ArialMT-2e" d="M 581 0 
L 581 641 
L 1222 641 
L 1222 0 
L 581 0 
z
" transform="scale(0.015625)"/>
       </defs>
       <use xlink:href="#ArialMT-30"/>
       <use xlink:href="#ArialMT-2e" x="55.615234"/>
       <use xlink:href="#ArialMT-30" x="83.398438"/>
      </g>
     </g>
    </g>
    <g id="xtick_2">
     <g id="line2d_2">
      <path d="M 107.544713 108.18 
L 107.544713 37.005 
" clip-path="url(#p118772faea)" style="fill: none; stroke: #ffffff; stroke-width: 1.6; stroke-linecap: round"/>
     </g>
     <g id="text_2">
      <!-- 0.5 -->
      <g style="fill: #262626" transform="translate(101.984713 123.40625) scale(0.08 -0.08)">
       <defs>
        <path id="ArialMT-35" d="M 266 1200 
L 856 1250 
Q 922 819 1161 601 
Q 1400 384 1738 384 
Q 2144 384 2425 690 
Q 2706 997 2706 1503 
Q 2706 1984 2436 2262 
Q 2166 2541 1728 2541 
Q 1456 2541 1237 2417 
Q 1019 2294 894 2097 
L 366 2166 
L 809 4519 
L 3088 4519 
L 3088 3981 
L 1259 3981 
L 1013 2750 
Q 1425 3038 1878 3038 
Q 2478 3038 2890 2622 
Q 3303 2206 3303 1553 
Q 3303 931 2941 478 
Q 2500 -78 1738 -78 
Q 1113 -78 717 272 
Q 322 622 266 1200 
z
" transform="scale(0.015625)"/>
       </defs>
       <use xlink:href="#ArialMT-30"/>
       <use xlink:href="#ArialMT-2e" x="55.615234"/>
       <use xlink:href="#ArialMT-35" x="83.398438"/>
      </g>
     </g>
    </g>
    <g id="xtick_3">
     <g id="line2d_3">
      <path d="M 158.389906 108.18 
L 158.389906 37.005 
" clip-path="url(#p118772faea)" style="fill: none; stroke: #ffffff; stroke-width: 1.6; stroke-linecap: round"/>
     </g>
     <g id="text_3">
      <!-- 1.0 -->
      <g style="fill: #262626" transform="translate(152.829906 123.40625) scale(0.08 -0.08)">
       <defs>
        <path id="ArialMT-31" d="M 2384 0 
L 1822 0 
L 1822 3584 
Q 1619 3391 1289 3197 
Q 959 3003 697 2906 
L 697 3450 
Q 1169 3672 1522 3987 
Q 1875 4303 2022 4600 
L 2384 4600 
L 2384 0 
z
" transform="scale(0.015625)"/>
       </defs>
       <use xlink:href="#ArialMT-31"/>
       <use xlink:href="#ArialMT-2e" x="55.615234"/>
       <use xlink:href="#ArialMT-30" x="83.398438"/>
      </g>
     </g>
    </g>
    <g id="xtick_4">
     <g id="line2d_4">
      <path d="M 66.868558 108.18 
L 66.868558 37.005 
" clip-path="url(#p118772faea)" style="fill: none; stroke: #ffffff; stroke-width: 0.7; stroke-linecap: round"/>
     </g>
    </g>
    <g id="xtick_5">
     <g id="line2d_5">
      <path d="M 77.037597 108.18 
L 77.037597 37.005 
" clip-path="url(#p118772faea)" style="fill: none; stroke: #ffffff; stroke-width: 0.7; stroke-linecap: round"/>
     </g>
    </g>
    <g id="xtick_6">
     <g id="line2d_6">
      <path d="M 87.206635 108.18 
L 87.206635 37.005 
" clip-path="url(#p118772faea)" style="fill: none; stroke: #ffffff; stroke-width: 0.7; stroke-linecap: round"/>
     </g>
    </g>
    <g id="xtick_7">
     <g id="line2d_7">
      <path d="M 97.375674 108.18 
L 97.375674 37.005 
" clip-path="url(#p118772faea)" style="fill: none; stroke: #ffffff; stroke-width: 0.7; stroke-linecap: round"/>
     </g>
    </g>
    <g id="xtick_8">
     <g id="line2d_8">
      <path d="M 117.713751 108.18 
L 117.713751 37.005 
" clip-path="url(#p118772faea)" style="fill: none; stroke: #ffffff; stroke-width: 0.7; stroke-linecap: round"/>
     </g>
    </g>
    <g id="xtick_9">
     <g id="line2d_9">
      <path d="M 127.88279 108.18 
L 127.88279 37.005 
" clip-path="url(#p118772faea)" style="fill: none; stroke: #ffffff; stroke-width: 0.7; stroke-linecap: round"/>
     </g>
    </g>
    <g id="xtick_10">
     <g id="line2d_10">
      <path d="M 138.051829 108.18 
L 138.051829 37.005 
" clip-path="url(#p118772faea)" style="fill: none; stroke: #ffffff; stroke-width: 0.7; stroke-linecap: round"/>
     </g>
    </g>
    <g id="xtick_11">
     <g id="line2d_11">
      <path d="M 148.220867 108.18 
L 148.220867 37.005 
" clip-path="url(#p118772faea)" style="fill: none; stroke: #ffffff; stroke-width: 0.7; stroke-linecap: round"/>
     </g>
    </g>
    <g id="text_4">
     <!-- x/c -->
     <g style="fill: #262626" transform="translate(101.15565 136.154063) scale(0.1 -0.1)">
      <defs>
       <path id="ArialMT-78" d="M 47 0 
L 1259 1725 
L 138 3319 
L 841 3319 
L 1350 2541 
Q 1494 2319 1581 2169 
Q 1719 2375 1834 2534 
L 2394 3319 
L 3066 3319 
L 1919 1756 
L 3153 0 
L 2463 0 
L 1781 1031 
L 1600 1309 
L 728 0 
L 47 0 
z
" transform="scale(0.015625)"/>
       <path id="ArialMT-2f" d="M 0 -78 
L 1328 4659 
L 1778 4659 
L 453 -78 
L 0 -78 
z
" transform="scale(0.015625)"/>
       <path id="ArialMT-63" d="M 2588 1216 
L 3141 1144 
Q 3050 572 2676 248 
Q 2303 -75 1759 -75 
Q 1078 -75 664 370 
Q 250 816 250 1647 
Q 250 2184 428 2587 
Q 606 2991 970 3192 
Q 1334 3394 1763 3394 
Q 2303 3394 2647 3120 
Q 2991 2847 3088 2344 
L 2541 2259 
Q 2463 2594 2264 2762 
Q 2066 2931 1784 2931 
Q 1359 2931 1093 2626 
Q 828 2322 828 1663 
Q 828 994 1084 691 
Q 1341 388 1753 388 
Q 2084 388 2306 591 
Q 2528 794 2588 1216 
z
" transform="scale(0.015625)"/>
      </defs>
      <use xlink:href="#ArialMT-78"/>
      <use xlink:href="#ArialMT-2f" x="50"/>
      <use xlink:href="#ArialMT-63" x="77.783203"/>
     </g>
    </g>
   </g>
   <g id="matplotlib.axis_2">
    <g id="ytick_1">
     <g id="line2d_12">
      <path d="M 51.615 92.930577 
L 163.474425 92.930577 
" clip-path="url(#p118772faea)" style="fill: none; stroke: #ffffff; stroke-width: 1.6; stroke-linecap: round"/>
     </g>
     <g id="text_5">
      <!-- −0.2 -->
      <g style="fill: #262626" transform="translate(26.3225 95.793702) scale(0.08 -0.08)">
       <defs>
        <path id="ArialMT-2212" d="M 3381 1997 
L 356 1997 
L 356 2522 
L 3381 2522 
L 3381 1997 
z
" transform="scale(0.015625)"/>
        <path id="ArialMT-32" d="M 3222 541 
L 3222 0 
L 194 0 
Q 188 203 259 391 
Q 375 700 629 1000 
Q 884 1300 1366 1694 
Q 2113 2306 2375 2664 
Q 2638 3022 2638 3341 
Q 2638 3675 2398 3904 
Q 2159 4134 1775 4134 
Q 1369 4134 1125 3890 
Q 881 3647 878 3216 
L 300 3275 
Q 359 3922 746 4261 
Q 1134 4600 1788 4600 
Q 2447 4600 2831 4234 
Q 3216 3869 3216 3328 
Q 3216 3053 3103 2787 
Q 2991 2522 2730 2228 
Q 2469 1934 1863 1422 
Q 1356 997 1212 845 
Q 1069 694 975 541 
L 3222 541 
z
" transform="scale(0.015625)"/>
       </defs>
       <use xlink:href="#ArialMT-2212"/>
       <use xlink:href="#ArialMT-30" x="58.398438"/>
       <use xlink:href="#ArialMT-2e" x="114.013672"/>
       <use xlink:href="#ArialMT-32" x="141.796875"/>
      </g>
     </g>
    </g>
    <g id="ytick_2">
     <g id="line2d_13">
      <path d="M 51.615 72.5925 
L 163.474425 72.5925 
" clip-path="url(#p118772faea)" style="fill: none; stroke: #ffffff; stroke-width: 1.6; stroke-linecap: round"/>
     </g>
     <g id="text_6">
      <!-- 0.0 -->
      <g style="fill: #262626" transform="translate(30.995 75.455625) scale(0.08 -0.08)">
       <use xlink:href="#ArialMT-30"/>
       <use xlink:href="#ArialMT-2e" x="55.615234"/>
       <use xlink:href="#ArialMT-30" x="83.398438"/>
      </g>
     </g>
    </g>
    <g id="ytick_3">
     <g id="line2d_14">
      <path d="M 51.615 52.254423 
L 163.474425 52.254423 
" clip-path="url(#p118772faea)" style="fill: none; stroke: #ffffff; stroke-width: 1.6; stroke-linecap: round"/>
     </g>
     <g id="text_7">
      <!-- 0.2 -->
      <g style="fill: #262626" transform="translate(30.995 55.117548) scale(0.08 -0.08)">
       <use xlink:href="#ArialMT-30"/>
       <use xlink:href="#ArialMT-2e" x="55.615234"/>
       <use xlink:href="#ArialMT-32" x="83.398438"/>
      </g>
     </g>
    </g>
    <g id="ytick_4">
     <g id="line2d_15">
      <path d="M 51.615 103.099616 
L 163.474425 103.099616 
" clip-path="url(#p118772faea)" style="fill: none; stroke: #ffffff; stroke-width: 0.7; stroke-linecap: round"/>
     </g>
    </g>
    <g id="ytick_5">
     <g id="line2d_16">
      <path d="M 51.615 98.015097 
L 163.474425 98.015097 
" clip-path="url(#p118772faea)" style="fill: none; stroke: #ffffff; stroke-width: 0.7; stroke-linecap: round"/>
     </g>
    </g>
    <g id="ytick_6">
     <g id="line2d_17">
      <path d="M 51.615 87.846058 
L 163.474425 87.846058 
" clip-path="url(#p118772faea)" style="fill: none; stroke: #ffffff; stroke-width: 0.7; stroke-linecap: round"/>
     </g>
    </g>
    <g id="ytick_7">
     <g id="line2d_18">
      <path d="M 51.615 82.761539 
L 163.474425 82.761539 
" clip-path="url(#p118772faea)" style="fill: none; stroke: #ffffff; stroke-width: 0.7; stroke-linecap: round"/>
     </g>
    </g>
    <g id="ytick_8">
     <g id="line2d_19">
      <path d="M 51.615 77.677019 
L 163.474425 77.677019 
" clip-path="url(#p118772faea)" style="fill: none; stroke: #ffffff; stroke-width: 0.7; stroke-linecap: round"/>
     </g>
    </g>
    <g id="ytick_9">
     <g id="line2d_20">
      <path d="M 51.615 67.507981 
L 163.474425 67.507981 
" clip-path="url(#p118772faea)" style="fill: none; stroke: #ffffff; stroke-width: 0.7; stroke-linecap: round"/>
     </g>
    </g>
    <g id="ytick_10">
     <g id="line2d_21">
      <path d="M 51.615 62.423461 
L 163.474425 62.423461 
" clip-path="url(#p118772faea)" style="fill: none; stroke: #ffffff; stroke-width: 0.7; stroke-linecap: round"/>
     </g>
    </g>
    <g id="ytick_11">
     <g id="line2d_22">
      <path d="M 51.615 57.338942 
L 163.474425 57.338942 
" clip-path="url(#p118772faea)" style="fill: none; stroke: #ffffff; stroke-width: 0.7; stroke-linecap: round"/>
     </g>
    </g>
    <g id="ytick_12">
     <g id="line2d_23">
      <path d="M 51.615 47.169903 
L 163.474425 47.169903 
" clip-path="url(#p118772faea)" style="fill: none; stroke: #ffffff; stroke-width: 0.7; stroke-linecap: round"/>
     </g>
    </g>
    <g id="ytick_13">
     <g id="line2d_24">
      <path d="M 51.615 42.085384 
L 163.474425 42.085384 
" clip-path="url(#p118772faea)" style="fill: none; stroke: #ffffff; stroke-width: 0.7; stroke-linecap: round"/>
     </g>
    </g>
    <g id="text_8">
     <!-- y/c -->
     <g style="fill: #262626" transform="translate(9.544375 75.18) scale(0.1 -0.1)">
      <defs>
       <path id="ArialMT-79" d="M 397 -1278 
L 334 -750 
Q 519 -800 656 -800 
Q 844 -800 956 -737 
Q 1069 -675 1141 -563 
Q 1194 -478 1313 -144 
Q 1328 -97 1363 -6 
L 103 3319 
L 709 3319 
L 1400 1397 
Q 1534 1031 1641 628 
Q 1738 1016 1872 1384 
L 2581 3319 
L 3144 3319 
L 1881 -56 
Q 1678 -603 1566 -809 
Q 1416 -1088 1222 -1217 
Q 1028 -1347 759 -1347 
Q 597 -1347 397 -1278 
z
" transform="scale(0.015625)"/>
      </defs>
      <use xlink:href="#ArialMT-79"/>
      <use xlink:href="#ArialMT-2f" x="50"/>
      <use xlink:href="#ArialMT-63" x="77.783203"/>
     </g>
    </g>
   </g>
   <g id="patch_3">
    <path d="M 158.389906 72.5925 
L 158.38357 72.591603 
L 158.364564 72.588913 
L 158.332893 72.584431 
L 158.288564 72.578162 
L 158.231589 72.570108 
L 158.161981 72.560277 
L 158.079759 72.548675 
L 157.984942 72.535309 
L 157.877555 72.52019 
L 157.757623 72.503328 
L 157.625177 72.484734 
L 157.480251 72.464423 
L 157.322879 72.442407 
L 157.153102 72.418701 
L 156.970961 72.393323 
L 156.776502 72.36629 
L 156.569773 72.337619 
L 156.350826 72.307331 
L 156.119716 72.275445 
L 155.8765 72.241982 
L 155.621239 72.206966 
L 155.353996 72.170419 
L 155.074838 72.132366 
L 154.783834 72.09283 
L 154.481058 72.051837 
L 154.166583 72.009414 
L 153.84049 71.965588 
L 153.502859 71.920386 
L 153.153774 71.873836 
L 152.793323 71.825969 
L 152.421594 71.776812 
L 152.038681 71.726396 
L 151.64468 71.674751 
L 151.239688 71.621909 
L 150.823806 71.5679 
L 150.397138 71.512758 
L 149.95979 71.456513 
L 149.511871 71.399198 
L 149.053494 71.340847 
L 148.584771 71.281492 
L 148.105821 71.221167 
L 147.616762 71.159906 
L 147.117716 71.097741 
L 146.608808 71.034709 
L 146.090164 70.970842 
L 145.561913 70.906176 
L 145.024189 70.840745 
L 144.477123 70.774583 
L 143.920853 70.707727 
L 143.355517 70.64021 
L 142.781257 70.572069 
L 142.198215 70.503338 
L 141.606536 70.434053 
L 141.006369 70.364249 
L 140.397862 70.293963 
L 139.781168 70.22323 
L 139.156439 70.152085 
L 138.523832 70.080566 
L 137.883505 70.008708 
L 137.235616 69.936547 
L 136.580328 69.86412 
L 135.917804 69.791464 
L 135.248208 69.718615 
L 134.571709 69.64561 
L 133.888473 69.572487 
L 133.198672 69.499283 
L 132.502478 69.426035 
L 131.800063 69.352781 
L 131.091604 69.27956 
L 130.377276 69.206409 
L 129.657258 69.133367 
L 128.931729 69.060472 
L 128.20087 68.987765 
L 127.464863 68.915285 
L 126.723891 68.84307 
L 125.97814 68.771162 
L 125.227794 68.6996 
L 124.473042 68.628426 
L 123.714071 68.55768 
L 122.95107 68.487404 
L 122.184229 68.417639 
L 121.41374 68.348429 
L 120.639794 68.279815 
L 119.862585 68.21184 
L 119.082306 68.144547 
L 118.299152 68.077981 
L 117.513317 68.012184 
L 116.724998 67.947202 
L 115.934391 67.883078 
L 115.141693 67.819858 
L 114.347102 67.757586 
L 113.550815 67.696309 
L 112.753032 67.636071 
L 111.953951 67.576919 
L 111.15377 67.518898 
L 110.352691 67.462056 
L 109.550911 67.406437 
L 108.748632 67.352089 
L 107.946052 67.299058 
L 107.143373 67.24739 
L 106.340793 67.197132 
L 105.538514 67.14833 
L 104.736734 67.10103 
L 103.935655 67.055278 
L 103.135474 67.011121 
L 102.336393 66.968604 
L 101.53861 66.927771 
L 100.742323 66.888667 
L 99.947732 66.851338 
L 99.155034 66.815826 
L 98.364427 66.782174 
L 97.576108 66.750426 
L 96.790274 66.720624 
L 96.007119 66.692807 
L 95.22684 66.667017 
L 94.449631 66.643293 
L 93.675685 66.621673 
L 92.905196 66.602195 
L 92.138356 66.584894 
L 91.375355 66.569807 
L 90.616383 66.556966 
L 89.861631 66.546405 
L 89.111285 66.538155 
L 88.365534 66.532245 
L 87.624562 66.528705 
L 86.888555 66.52756 
L 86.157696 66.528837 
L 85.432167 66.532559 
L 84.712149 66.538748 
L 83.997821 66.547425 
L 83.289362 66.558608 
L 82.586947 66.572314 
L 81.890753 66.588558 
L 81.200952 66.607353 
L 80.517717 66.628711 
L 79.841217 66.652641 
L 79.171621 66.67915 
L 78.509097 66.708244 
L 77.853809 66.739927 
L 77.20592 66.774199 
L 76.565593 66.811061 
L 75.932986 66.85051 
L 75.308258 66.892542 
L 74.691563 66.937151 
L 74.083056 66.984327 
L 73.482889 67.034062 
L 72.89121 67.086344 
L 72.308168 67.141157 
L 71.733908 67.198486 
L 71.168572 67.258315 
L 70.612302 67.320623 
L 70.065237 67.385389 
L 69.527512 67.452591 
L 68.999261 67.522204 
L 68.480617 67.594202 
L 67.971709 67.668559 
L 67.472663 67.745245 
L 66.983604 67.824229 
L 66.504654 67.905482 
L 66.035931 67.988969 
L 65.577554 68.074657 
L 65.129635 68.162512 
L 64.692288 68.252498 
L 64.26562 68.344577 
L 63.849738 68.438713 
L 63.444745 68.534867 
L 63.050744 68.633001 
L 62.667831 68.733076 
L 62.296103 68.835052 
L 61.935651 68.938888 
L 61.586566 69.044546 
L 61.248935 69.151985 
L 60.922842 69.261165 
L 60.608368 69.372045 
L 60.305591 69.484586 
L 60.014587 69.598749 
L 59.735429 69.714493 
L 59.468186 69.831781 
L 59.212925 69.950574 
L 58.969709 70.070835 
L 58.738599 70.192527 
L 58.519652 70.315614 
L 58.312923 70.440062 
L 58.118464 70.565836 
L 57.936324 70.692904 
L 57.766546 70.821234 
L 57.609174 70.950795 
L 57.464248 71.08156 
L 57.331802 71.213499 
L 57.211871 71.346587 
L 57.104483 71.480798 
L 57.009666 71.61611 
L 56.927444 71.752502 
L 56.857836 71.889952 
L 56.800861 72.028442 
L 56.756532 72.167956 
L 56.724861 72.308479 
L 56.705855 72.449998 
L 56.699519 72.5925 
L 56.705855 72.735002 
L 56.724861 72.876521 
L 56.756532 73.017044 
L 56.800861 73.156558 
L 56.857836 73.295048 
L 56.927444 73.432498 
L 57.009666 73.56889 
L 57.104483 73.704202 
L 57.211871 73.838413 
L 57.331802 73.971501 
L 57.464248 74.10344 
L 57.609174 74.234205 
L 57.766546 74.363766 
L 57.936324 74.492096 
L 58.118464 74.619164 
L 58.312923 74.744938 
L 58.519652 74.869386 
L 58.738599 74.992473 
L 58.969709 75.114165 
L 59.212925 75.234426 
L 59.468186 75.353219 
L 59.735429 75.470507 
L 60.014587 75.586251 
L 60.305591 75.700414 
L 60.608368 75.812955 
L 60.922842 75.923835 
L 61.248935 76.033015 
L 61.586566 76.140454 
L 61.935651 76.246112 
L 62.296103 76.349948 
L 62.667831 76.451924 
L 63.050744 76.551999 
L 63.444745 76.650133 
L 63.849738 76.746287 
L 64.26562 76.840423 
L 64.692288 76.932502 
L 65.129635 77.022488 
L 65.577554 77.110343 
L 66.035931 77.196031 
L 66.504654 77.279518 
L 66.983604 77.360771 
L 67.472663 77.439755 
L 67.971709 77.516441 
L 68.480617 77.590798 
L 68.999261 77.662796 
L 69.527512 77.732409 
L 70.065237 77.799611 
L 70.612302 77.864377 
L 71.168572 77.926685 
L 71.733908 77.986514 
L 72.308168 78.043843 
L 72.89121 78.098656 
L 73.482889 78.150938 
L 74.083056 78.200673 
L 74.691563 78.247849 
L 75.308258 78.292458 
L 75.932986 78.33449 
L 76.565593 78.373939 
L 77.20592 78.410801 
L 77.853809 78.445073 
L 78.509097 78.476756 
L 79.171621 78.50585 
L 79.841217 78.532359 
L 80.517717 78.556289 
L 81.200952 78.577647 
L 81.890753 78.596442 
L 82.586947 78.612686 
L 83.289362 78.626392 
L 83.997821 78.637575 
L 84.712149 78.646252 
L 85.432167 78.652441 
L 86.157696 78.656163 
L 86.888555 78.65744 
L 87.624562 78.656295 
L 88.365534 78.652755 
L 89.111285 78.646845 
L 89.861631 78.638595 
L 90.616383 78.628034 
L 91.375355 78.615193 
L 92.138356 78.600106 
L 92.905196 78.582805 
L 93.675685 78.563327 
L 94.449631 78.541707 
L 95.22684 78.517983 
L 96.007119 78.492193 
L 96.790274 78.464376 
L 97.576108 78.434574 
L 98.364427 78.402826 
L 99.155034 78.369174 
L 99.947732 78.333662 
L 100.742323 78.296333 
L 101.53861 78.257229 
L 102.336393 78.216396 
L 103.135474 78.173879 
L 103.935655 78.129722 
L 104.736734 78.08397 
L 105.538514 78.03667 
L 106.340793 77.987868 
L 107.143373 77.93761 
L 107.946052 77.885942 
L 108.748632 77.832911 
L 109.550911 77.778563 
L 110.352691 77.722944 
L 111.15377 77.666102 
L 111.953951 77.608081 
L 112.753032 77.548929 
L 113.550815 77.488691 
L 114.347102 77.427414 
L 115.141693 77.365142 
L 115.934391 77.301922 
L 116.724998 77.237798 
L 117.513317 77.172816 
L 118.299152 77.107019 
L 119.082306 77.040453 
L 119.862585 76.97316 
L 120.639794 76.905185 
L 121.41374 76.836571 
L 122.184229 76.767361 
L 122.95107 76.697596 
L 123.714071 76.62732 
L 124.473042 76.556574 
L 125.227794 76.4854 
L 125.97814 76.413838 
L 126.723891 76.34193 
L 127.464863 76.269715 
L 128.20087 76.197235 
L 128.931729 76.124528 
L 129.657258 76.051633 
L 130.377276 75.978591 
L 131.091604 75.90544 
L 131.800063 75.832219 
L 132.502478 75.758965 
L 133.198672 75.685717 
L 133.888473 75.612513 
L 134.571709 75.53939 
L 135.248208 75.466385 
L 135.917804 75.393536 
L 136.580328 75.32088 
L 137.235616 75.248453 
L 137.883505 75.176292 
L 138.523832 75.104434 
L 139.156439 75.032915 
L 139.781168 74.96177 
L 140.397862 74.891037 
L 141.006369 74.820751 
L 141.606536 74.750947 
L 142.198215 74.681662 
L 142.781257 74.612931 
L 143.355517 74.54479 
L 143.920853 74.477273 
L 144.477123 74.410417 
L 145.024189 74.344255 
L 145.561913 74.278824 
L 146.090164 74.214158 
L 146.608808 74.150291 
L 147.117716 74.087259 
L 147.616762 74.025094 
L 148.105821 73.963833 
L 148.584771 73.903508 
L 149.053494 73.844153 
L 149.511871 73.785802 
L 149.95979 73.728487 
L 150.397138 73.672242 
L 150.823806 73.6171 
L 151.239688 73.563091 
L 151.64468 73.510249 
L 152.038681 73.458604 
L 152.421594 73.408188 
L 152.793323 73.359031 
L 153.153774 73.311164 
L 153.502859 73.264614 
L 153.84049 73.219412 
L 154.166583 73.175586 
L 154.481058 73.133163 
L 154.783834 73.09217 
L 155.074838 73.052634 
L 155.353996 73.014581 
L 155.621239 72.978034 
L 155.8765 72.943018 
L 156.119716 72.909555 
L 156.350826 72.877669 
L 156.569773 72.847381 
L 156.776502 72.81871 
L 156.970961 72.791677 
L 157.153102 72.766299 
L 157.322879 72.742593 
L 157.480251 72.720577 
L 157.625177 72.700266 
L 157.757623 72.681672 
L 157.877555 72.66481 
L 157.984942 72.649691 
L 158.079759 72.636325 
L 158.161981 72.624723 
L 158.231589 72.614892 
L 158.288564 72.606838 
L 158.332893 72.600569 
L 158.364564 72.596087 
L 158.38357 72.593397 
z
" clip-path="url(#p118772faea)" style="fill-opacity: 0.2; stroke: #000000; stroke-opacity: 0.7; stroke-linejoin: miter"/>
   </g>
   <g id="patch_4">
    <path d="M 51.615 108.18 
L 51.615 37.005 
" style="fill: none; stroke: #ffffff; stroke-width: 1.25; stroke-linejoin: miter; stroke-linecap: square"/>
   </g>
   <g id="patch_5">
    <path d="M 163.474425 108.18 
L 163.474425 37.005 
" style="fill: none; stroke: #ffffff; stroke-width: 1.25; stroke-linejoin: miter; stroke-linecap: square"/>
   </g>
   <g id="patch_6">
    <path d="M 51.615 108.18 
L 163.474425 108.18 
" style="fill: none; stroke: #ffffff; stroke-width: 1.25; stroke-linejoin: miter; stroke-linecap: square"/>
   </g>
   <g id="patch_7">
    <path d="M 51.615 37.005 
L 163.474425 37.005 
" style="fill: none; stroke: #ffffff; stroke-width: 1.25; stroke-linejoin: miter; stroke-linecap: square"/>
   </g>
   <g id="text_9">
    <g id="patch_8">
     <path d="M 80.464713 61.50025 
L 134.624713 61.50025 
Q 136.224713 61.50025 136.224713 59.90025 
L 136.224713 44.1225 
Q 136.224713 42.5225 134.624713 42.5225 
L 80.464713 42.5225 
Q 78.864713 42.5225 78.864713 44.1225 
L 78.864713 59.90025 
Q 78.864713 61.50025 80.464713 61.50025 
z
" style="fill: #ffffff; stroke: #000000; stroke-linejoin: miter"/>
    </g>
    <!-- $\mathrm{Re}_\mathrm{c}$ = 1000000 -->
    <g transform="translate(80.464713 49.84875) scale(0.08 -0.08)">
     <defs>
      <path id="DejaVuSans-52" d="M 2841 2188 
Q 3044 2119 3236 1894 
Q 3428 1669 3622 1275 
L 4263 0 
L 3584 0 
L 2988 1197 
Q 2756 1666 2539 1819 
Q 2322 1972 1947 1972 
L 1259 1972 
L 1259 0 
L 628 0 
L 628 4666 
L 2053 4666 
Q 2853 4666 3247 4331 
Q 3641 3997 3641 3322 
Q 3641 2881 3436 2590 
Q 3231 2300 2841 2188 
z
M 1259 4147 
L 1259 2491 
L 2053 2491 
Q 2509 2491 2742 2702 
Q 2975 2913 2975 3322 
Q 2975 3731 2742 3939 
Q 2509 4147 2053 4147 
L 1259 4147 
z
" transform="scale(0.015625)"/>
      <path id="DejaVuSans-65" d="M 3597 1894 
L 3597 1613 
L 953 1613 
Q 991 1019 1311 708 
Q 1631 397 2203 397 
Q 2534 397 2845 478 
Q 3156 559 3463 722 
L 3463 178 
Q 3153 47 2828 -22 
Q 2503 -91 2169 -91 
Q 1331 -91 842 396 
Q 353 884 353 1716 
Q 353 2575 817 3079 
Q 1281 3584 2069 3584 
Q 2775 3584 3186 3129 
Q 3597 2675 3597 1894 
z
M 3022 2063 
Q 3016 2534 2758 2815 
Q 2500 3097 2075 3097 
Q 1594 3097 1305 2825 
Q 1016 2553 972 2059 
L 3022 2063 
z
" transform="scale(0.015625)"/>
      <path id="DejaVuSans-63" d="M 3122 3366 
L 3122 2828 
Q 2878 2963 2633 3030 
Q 2388 3097 2138 3097 
Q 1578 3097 1268 2742 
Q 959 2388 959 1747 
Q 959 1106 1268 751 
Q 1578 397 2138 397 
Q 2388 397 2633 464 
Q 2878 531 3122 666 
L 3122 134 
Q 2881 22 2623 -34 
Q 2366 -91 2075 -91 
Q 1284 -91 818 406 
Q 353 903 353 1747 
Q 353 2603 823 3093 
Q 1294 3584 2113 3584 
Q 2378 3584 2631 3529 
Q 2884 3475 3122 3366 
z
" transform="scale(0.015625)"/>
      <path id="ArialMT-20" transform="scale(0.015625)"/>
      <path id="ArialMT-3d" d="M 3381 2694 
L 356 2694 
L 356 3219 
L 3381 3219 
L 3381 2694 
z
M 3381 1303 
L 356 1303 
L 356 1828 
L 3381 1828 
L 3381 1303 
z
" transform="scale(0.015625)"/>
     </defs>
     <use xlink:href="#DejaVuSans-52" transform="translate(0 0.09375)"/>
     <use xlink:href="#DejaVuSans-65" transform="translate(69.482422 0.09375)"/>
     <use xlink:href="#DejaVuSans-63" transform="translate(131.962891 -16.3125) scale(0.7)"/>
     <use xlink:href="#ArialMT-20" transform="translate(173.183594 0.09375)"/>
     <use xlink:href="#ArialMT-3d" transform="translate(200.966797 0.09375)"/>
     <use xlink:href="#ArialMT-20" transform="translate(259.365234 0.09375)"/>
     <use xlink:href="#ArialMT-31" transform="translate(287.148438 0.09375)"/>
     <use xlink:href="#ArialMT-30" transform="translate(342.763672 0.09375)"/>
     <use xlink:href="#ArialMT-30" transform="translate(398.378906 0.09375)"/>
     <use xlink:href="#ArialMT-30" transform="translate(453.994141 0.09375)"/>
     <use xlink:href="#ArialMT-30" transform="translate(509.609375 0.09375)"/>
     <use xlink:href="#ArialMT-30" transform="translate(565.224609 0.09375)"/>
     <use xlink:href="#ArialMT-30" transform="translate(620.839844 0.09375)"/>
    </g>
    <!-- $\Delta\alpha$ = 0.0° -->
    <g transform="translate(90.424713 58.31025) scale(0.08 -0.08)">
     <defs>
      <path id="DejaVuSans-394" d="M 2188 4044 
L 906 525 
L 3472 525 
L 2188 4044 
z
M 50 0 
L 1831 4666 
L 2547 4666 
L 4325 0 
L 50 0 
z
" transform="scale(0.015625)"/>
      <path id="DejaVuSans-Oblique-3b1" d="M 2619 1628 
L 2622 2350 
Q 2625 3088 2069 3091 
Q 1653 3094 1394 2747 
Q 1069 2319 959 1747 
Q 825 1059 994 731 
Q 1169 397 1547 397 
Q 1966 397 2319 1063 
L 2619 1628 
z
M 2166 3578 
Q 3141 3594 3128 2584 
Q 3128 2584 3616 3500 
L 4128 3500 
L 3119 1603 
L 3109 919 
Q 3109 766 3194 638 
Q 3291 488 3391 488 
L 3669 488 
L 3575 0 
L 3228 0 
Q 2934 0 2722 263 
Q 2622 394 2619 669 
Q 2416 334 2066 50 
Q 1900 -81 1453 -78 
Q 722 -72 456 397 
Q 184 884 353 1747 
Q 534 2675 1009 3097 
Q 1544 3569 2166 3578 
z
" transform="scale(0.015625)"/>
      <path id="ArialMT-b0" d="M 400 3794 
Q 400 4153 654 4406 
Q 909 4659 1266 4659 
Q 1628 4659 1881 4406 
Q 2134 4153 2134 3794 
Q 2134 3434 1879 3179 
Q 1625 2925 1266 2925 
Q 909 2925 654 3178 
Q 400 3431 400 3794 
z
M 741 3794 
Q 741 3575 895 3420 
Q 1050 3266 1269 3266 
Q 1484 3266 1639 3420 
Q 1794 3575 1794 3794 
Q 1794 4013 1639 4167 
Q 1484 4322 1269 4322 
Q 1050 4322 895 4167 
Q 741 4013 741 3794 
z
" transform="scale(0.015625)"/>
     </defs>
     <use xlink:href="#DejaVuSans-394" transform="translate(0 0.09375)"/>
     <use xlink:href="#DejaVuSans-Oblique-3b1" transform="translate(68.408203 0.09375)"/>
     <use xlink:href="#ArialMT-20" transform="translate(134.326172 0.09375)"/>
     <use xlink:href="#ArialMT-3d" transform="translate(162.109375 0.09375)"/>
     <use xlink:href="#ArialMT-20" transform="translate(220.507812 0.09375)"/>
     <use xlink:href="#ArialMT-30" transform="translate(248.291016 0.09375)"/>
     <use xlink:href="#ArialMT-2e" transform="translate(303.90625 0.09375)"/>
     <use xlink:href="#ArialMT-30" transform="translate(331.689453 0.09375)"/>
     <use xlink:href="#ArialMT-b0" transform="translate(387.304688 0.09375)"/>
    </g>
   </g>
   <g id="text_10">
    <!-- Step 1: -->
    <g style="fill: #262626" transform="translate(91.700963 20.274375) scale(0.1 -0.1)">
     <defs>
      <path id="ArialMT-53" d="M 288 1472 
L 859 1522 
Q 900 1178 1048 958 
Q 1197 738 1509 602 
Q 1822 466 2213 466 
Q 2559 466 2825 569 
Q 3091 672 3220 851 
Q 3350 1031 3350 1244 
Q 3350 1459 3225 1620 
Q 3100 1781 2813 1891 
Q 2628 1963 1997 2114 
Q 1366 2266 1113 2400 
Q 784 2572 623 2826 
Q 463 3081 463 3397 
Q 463 3744 659 4045 
Q 856 4347 1234 4503 
Q 1613 4659 2075 4659 
Q 2584 4659 2973 4495 
Q 3363 4331 3572 4012 
Q 3781 3694 3797 3291 
L 3216 3247 
Q 3169 3681 2898 3903 
Q 2628 4125 2100 4125 
Q 1550 4125 1298 3923 
Q 1047 3722 1047 3438 
Q 1047 3191 1225 3031 
Q 1400 2872 2139 2705 
Q 2878 2538 3153 2413 
Q 3553 2228 3743 1945 
Q 3934 1663 3934 1294 
Q 3934 928 3725 604 
Q 3516 281 3123 101 
Q 2731 -78 2241 -78 
Q 1619 -78 1198 103 
Q 778 284 539 648 
Q 300 1013 288 1472 
z
" transform="scale(0.015625)"/>
      <path id="ArialMT-74" d="M 1650 503 
L 1731 6 
Q 1494 -44 1306 -44 
Q 1000 -44 831 53 
Q 663 150 594 308 
Q 525 466 525 972 
L 525 2881 
L 113 2881 
L 113 3319 
L 525 3319 
L 525 4141 
L 1084 4478 
L 1084 3319 
L 1650 3319 
L 1650 2881 
L 1084 2881 
L 1084 941 
Q 1084 700 1114 631 
Q 1144 563 1211 522 
Q 1278 481 1403 481 
Q 1497 481 1650 503 
z
" transform="scale(0.015625)"/>
      <path id="ArialMT-65" d="M 2694 1069 
L 3275 997 
Q 3138 488 2766 206 
Q 2394 -75 1816 -75 
Q 1088 -75 661 373 
Q 234 822 234 1631 
Q 234 2469 665 2931 
Q 1097 3394 1784 3394 
Q 2450 3394 2872 2941 
Q 3294 2488 3294 1666 
Q 3294 1616 3291 1516 
L 816 1516 
Q 847 969 1125 678 
Q 1403 388 1819 388 
Q 2128 388 2347 550 
Q 2566 713 2694 1069 
z
M 847 1978 
L 2700 1978 
Q 2663 2397 2488 2606 
Q 2219 2931 1791 2931 
Q 1403 2931 1139 2672 
Q 875 2413 847 1978 
z
" transform="scale(0.015625)"/>
      <path id="ArialMT-70" d="M 422 -1272 
L 422 3319 
L 934 3319 
L 934 2888 
Q 1116 3141 1344 3267 
Q 1572 3394 1897 3394 
Q 2322 3394 2647 3175 
Q 2972 2956 3137 2557 
Q 3303 2159 3303 1684 
Q 3303 1175 3120 767 
Q 2938 359 2589 142 
Q 2241 -75 1856 -75 
Q 1575 -75 1351 44 
Q 1128 163 984 344 
L 984 -1272 
L 422 -1272 
z
M 931 1641 
Q 931 1000 1190 694 
Q 1450 388 1819 388 
Q 2194 388 2461 705 
Q 2728 1022 2728 1688 
Q 2728 2322 2467 2637 
Q 2206 2953 1844 2953 
Q 1484 2953 1207 2617 
Q 931 2281 931 1641 
z
" transform="scale(0.015625)"/>
      <path id="ArialMT-3a" d="M 578 2678 
L 578 3319 
L 1219 3319 
L 1219 2678 
L 578 2678 
z
M 578 0 
L 578 641 
L 1219 641 
L 1219 0 
L 578 0 
z
" transform="scale(0.015625)"/>
     </defs>
     <use xlink:href="#ArialMT-53"/>
     <use xlink:href="#ArialMT-74" x="66.699219"/>
     <use xlink:href="#ArialMT-65" x="94.482422"/>
     <use xlink:href="#ArialMT-70" x="150.097656"/>
     <use xlink:href="#ArialMT-20" x="205.712891"/>
     <use xlink:href="#ArialMT-31" x="233.496094"/>
     <use xlink:href="#ArialMT-3a" x="289.111328"/>
    </g>
    <!-- Original Airfoil -->
    <g style="fill: #262626" transform="translate(76.700181 31.005) scale(0.1 -0.1)">
     <defs>
      <path id="ArialMT-4f" d="M 309 2231 
Q 309 3372 921 4017 
Q 1534 4663 2503 4663 
Q 3138 4663 3647 4359 
Q 4156 4056 4423 3514 
Q 4691 2972 4691 2284 
Q 4691 1588 4409 1038 
Q 4128 488 3612 205 
Q 3097 -78 2500 -78 
Q 1853 -78 1343 234 
Q 834 547 571 1087 
Q 309 1628 309 2231 
z
M 934 2222 
Q 934 1394 1379 917 
Q 1825 441 2497 441 
Q 3181 441 3623 922 
Q 4066 1403 4066 2288 
Q 4066 2847 3877 3264 
Q 3688 3681 3323 3911 
Q 2959 4141 2506 4141 
Q 1863 4141 1398 3698 
Q 934 3256 934 2222 
z
" transform="scale(0.015625)"/>
      <path id="ArialMT-72" d="M 416 0 
L 416 3319 
L 922 3319 
L 922 2816 
Q 1116 3169 1280 3281 
Q 1444 3394 1641 3394 
Q 1925 3394 2219 3213 
L 2025 2691 
Q 1819 2813 1613 2813 
Q 1428 2813 1281 2702 
Q 1134 2591 1072 2394 
Q 978 2094 978 1738 
L 978 0 
L 416 0 
z
" transform="scale(0.015625)"/>
      <path id="ArialMT-69" d="M 425 3934 
L 425 4581 
L 988 4581 
L 988 3934 
L 425 3934 
z
M 425 0 
L 425 3319 
L 988 3319 
L 988 0 
L 425 0 
z
" transform="scale(0.015625)"/>
      <path id="ArialMT-67" d="M 319 -275 
L 866 -356 
Q 900 -609 1056 -725 
Q 1266 -881 1628 -881 
Q 2019 -881 2231 -725 
Q 2444 -569 2519 -288 
Q 2563 -116 2559 434 
Q 2191 0 1641 0 
Q 956 0 581 494 
Q 206 988 206 1678 
Q 206 2153 378 2554 
Q 550 2956 876 3175 
Q 1203 3394 1644 3394 
Q 2231 3394 2613 2919 
L 2613 3319 
L 3131 3319 
L 3131 450 
Q 3131 -325 2973 -648 
Q 2816 -972 2473 -1159 
Q 2131 -1347 1631 -1347 
Q 1038 -1347 672 -1080 
Q 306 -813 319 -275 
z
M 784 1719 
Q 784 1066 1043 766 
Q 1303 466 1694 466 
Q 2081 466 2343 764 
Q 2606 1063 2606 1700 
Q 2606 2309 2336 2618 
Q 2066 2928 1684 2928 
Q 1309 2928 1046 2623 
Q 784 2319 784 1719 
z
" transform="scale(0.015625)"/>
      <path id="ArialMT-6e" d="M 422 0 
L 422 3319 
L 928 3319 
L 928 2847 
Q 1294 3394 1984 3394 
Q 2284 3394 2536 3286 
Q 2788 3178 2913 3003 
Q 3038 2828 3088 2588 
Q 3119 2431 3119 2041 
L 3119 0 
L 2556 0 
L 2556 2019 
Q 2556 2363 2490 2533 
Q 2425 2703 2258 2804 
Q 2091 2906 1866 2906 
Q 1506 2906 1245 2678 
Q 984 2450 984 1813 
L 984 0 
L 422 0 
z
" transform="scale(0.015625)"/>
      <path id="ArialMT-61" d="M 2588 409 
Q 2275 144 1986 34 
Q 1697 -75 1366 -75 
Q 819 -75 525 192 
Q 231 459 231 875 
Q 231 1119 342 1320 
Q 453 1522 633 1644 
Q 813 1766 1038 1828 
Q 1203 1872 1538 1913 
Q 2219 1994 2541 2106 
Q 2544 2222 2544 2253 
Q 2544 2597 2384 2738 
Q 2169 2928 1744 2928 
Q 1347 2928 1158 2789 
Q 969 2650 878 2297 
L 328 2372 
Q 403 2725 575 2942 
Q 747 3159 1072 3276 
Q 1397 3394 1825 3394 
Q 2250 3394 2515 3294 
Q 2781 3194 2906 3042 
Q 3031 2891 3081 2659 
Q 3109 2516 3109 2141 
L 3109 1391 
Q 3109 606 3145 398 
Q 3181 191 3288 0 
L 2700 0 
Q 2613 175 2588 409 
z
M 2541 1666 
Q 2234 1541 1622 1453 
Q 1275 1403 1131 1340 
Q 988 1278 909 1158 
Q 831 1038 831 891 
Q 831 666 1001 516 
Q 1172 366 1500 366 
Q 1825 366 2078 508 
Q 2331 650 2450 897 
Q 2541 1088 2541 1459 
L 2541 1666 
z
" transform="scale(0.015625)"/>
      <path id="ArialMT-6c" d="M 409 0 
L 409 4581 
L 972 4581 
L 972 0 
L 409 0 
z
" transform="scale(0.015625)"/>
      <path id="ArialMT-41" d="M -9 0 
L 1750 4581 
L 2403 4581 
L 4278 0 
L 3588 0 
L 3053 1388 
L 1138 1388 
L 634 0 
L -9 0 
z
M 1313 1881 
L 2866 1881 
L 2388 3150 
Q 2169 3728 2063 4100 
Q 1975 3659 1816 3225 
L 1313 1881 
z
" transform="scale(0.015625)"/>
      <path id="ArialMT-66" d="M 556 0 
L 556 2881 
L 59 2881 
L 59 3319 
L 556 3319 
L 556 3672 
Q 556 4006 616 4169 
Q 697 4388 901 4523 
Q 1106 4659 1475 4659 
Q 1713 4659 2000 4603 
L 1916 4113 
Q 1741 4144 1584 4144 
Q 1328 4144 1222 4034 
Q 1116 3925 1116 3625 
L 1116 3319 
L 1763 3319 
L 1763 2881 
L 1116 2881 
L 1116 0 
L 556 0 
z
" transform="scale(0.015625)"/>
      <path id="ArialMT-6f" d="M 213 1659 
Q 213 2581 725 3025 
Q 1153 3394 1769 3394 
Q 2453 3394 2887 2945 
Q 3322 2497 3322 1706 
Q 3322 1066 3130 698 
Q 2938 331 2570 128 
Q 2203 -75 1769 -75 
Q 1072 -75 642 372 
Q 213 819 213 1659 
z
M 791 1659 
Q 791 1022 1069 705 
Q 1347 388 1769 388 
Q 2188 388 2466 706 
Q 2744 1025 2744 1678 
Q 2744 2294 2464 2611 
Q 2184 2928 1769 2928 
Q 1347 2928 1069 2612 
Q 791 2297 791 1659 
z
" transform="scale(0.015625)"/>
     </defs>
     <use xlink:href="#ArialMT-4f"/>
     <use xlink:href="#ArialMT-72" x="77.783203"/>
     <use xlink:href="#ArialMT-69" x="111.083984"/>
     <use xlink:href="#ArialMT-67" x="133.300781"/>
     <use xlink:href="#ArialMT-69" x="188.916016"/>
     <use xlink:href="#ArialMT-6e" x="211.132812"/>
     <use xlink:href="#ArialMT-61" x="266.748047"/>
     <use xlink:href="#ArialMT-6c" x="322.363281"/>
     <use xlink:href="#ArialMT-20" x="344.580078"/>
     <use xlink:href="#ArialMT-41" x="366.863281"/>
     <use xlink:href="#ArialMT-69" x="433.5625"/>
     <use xlink:href="#ArialMT-72" x="455.779297"/>
     <use xlink:href="#ArialMT-66" x="489.080078"/>
     <use xlink:href="#ArialMT-6f" x="516.863281"/>
     <use xlink:href="#ArialMT-69" x="572.478516"/>
     <use xlink:href="#ArialMT-6c" x="594.695312"/>
    </g>
   </g>
  </g>
  <g id="axes_2">
   <g id="patch_9">
    <path d="M 197.032253 108.18 
L 308.891678 108.18 
L 308.891678 37.005 
L 197.032253 37.005 
z
" style="fill: #eaeaf2"/>
   </g>
   <g id="matplotlib.axis_3">
    <g id="xtick_12">
     <g id="line2d_25">
      <path d="M 202.116772 108.18 
L 202.116772 37.005 
" clip-path="url(#p0930189547)" style="fill: none; stroke: #ffffff; stroke-width: 1.6; stroke-linecap: round"/>
     </g>
     <g id="text_11">
      <!-- 0.0 -->
      <g style="fill: #262626" transform="translate(196.556772 123.40625) scale(0.08 -0.08)">
       <use xlink:href="#ArialMT-30"/>
       <use xlink:href="#ArialMT-2e" x="55.615234"/>
       <use xlink:href="#ArialMT-30" x="83.398438"/>
      </g>
     </g>
    </g>
    <g id="xtick_13">
     <g id="line2d_26">
      <path d="M 253.011225 108.18 
L 253.011225 37.005 
" clip-path="url(#p0930189547)" style="fill: none; stroke: #ffffff; stroke-width: 1.6; stroke-linecap: round"/>
     </g>
     <g id="text_12">
      <!-- 0.5 -->
      <g style="fill: #262626" transform="translate(247.451225 123.40625) scale(0.08 -0.08)">
       <use xlink:href="#ArialMT-30"/>
       <use xlink:href="#ArialMT-2e" x="55.615234"/>
       <use xlink:href="#ArialMT-35" x="83.398438"/>
      </g>
     </g>
    </g>
    <g id="xtick_14">
     <g id="line2d_27">
      <path d="M 303.905677 108.18 
L 303.905677 37.005 
" clip-path="url(#p0930189547)" style="fill: none; stroke: #ffffff; stroke-width: 1.6; stroke-linecap: round"/>
     </g>
     <g id="text_13">
      <!-- 1.0 -->
      <g style="fill: #262626" transform="translate(298.345677 123.40625) scale(0.08 -0.08)">
       <use xlink:href="#ArialMT-31"/>
       <use xlink:href="#ArialMT-2e" x="55.615234"/>
       <use xlink:href="#ArialMT-30" x="83.398438"/>
      </g>
     </g>
    </g>
    <g id="xtick_15">
     <g id="line2d_28">
      <path d="M 212.295663 108.18 
L 212.295663 37.005 
" clip-path="url(#p0930189547)" style="fill: none; stroke: #ffffff; stroke-width: 0.7; stroke-linecap: round"/>
     </g>
    </g>
    <g id="xtick_16">
     <g id="line2d_29">
      <path d="M 222.474553 108.18 
L 222.474553 37.005 
" clip-path="url(#p0930189547)" style="fill: none; stroke: #ffffff; stroke-width: 0.7; stroke-linecap: round"/>
     </g>
    </g>
    <g id="xtick_17">
     <g id="line2d_30">
      <path d="M 232.653444 108.18 
L 232.653444 37.005 
" clip-path="url(#p0930189547)" style="fill: none; stroke: #ffffff; stroke-width: 0.7; stroke-linecap: round"/>
     </g>
    </g>
    <g id="xtick_18">
     <g id="line2d_31">
      <path d="M 242.832334 108.18 
L 242.832334 37.005 
" clip-path="url(#p0930189547)" style="fill: none; stroke: #ffffff; stroke-width: 0.7; stroke-linecap: round"/>
     </g>
    </g>
    <g id="xtick_19">
     <g id="line2d_32">
      <path d="M 263.190115 108.18 
L 263.190115 37.005 
" clip-path="url(#p0930189547)" style="fill: none; stroke: #ffffff; stroke-width: 0.7; stroke-linecap: round"/>
     </g>
    </g>
    <g id="xtick_20">
     <g id="line2d_33">
      <path d="M 273.369006 108.18 
L 273.369006 37.005 
" clip-path="url(#p0930189547)" style="fill: none; stroke: #ffffff; stroke-width: 0.7; stroke-linecap: round"/>
     </g>
    </g>
    <g id="xtick_21">
     <g id="line2d_34">
      <path d="M 283.547896 108.18 
L 283.547896 37.005 
" clip-path="url(#p0930189547)" style="fill: none; stroke: #ffffff; stroke-width: 0.7; stroke-linecap: round"/>
     </g>
    </g>
    <g id="xtick_22">
     <g id="line2d_35">
      <path d="M 293.726787 108.18 
L 293.726787 37.005 
" clip-path="url(#p0930189547)" style="fill: none; stroke: #ffffff; stroke-width: 0.7; stroke-linecap: round"/>
     </g>
    </g>
    <g id="text_14">
     <!-- x/c -->
     <g style="fill: #262626" transform="translate(246.572903 136.154063) scale(0.1 -0.1)">
      <use xlink:href="#ArialMT-78"/>
      <use xlink:href="#ArialMT-2f" x="50"/>
      <use xlink:href="#ArialMT-63" x="77.783203"/>
     </g>
    </g>
   </g>
   <g id="matplotlib.axis_4">
    <g id="ytick_14">
     <g id="line2d_36">
      <path d="M 197.032253 91.971945 
L 308.891678 91.971945 
" clip-path="url(#p0930189547)" style="fill: none; stroke: #ffffff; stroke-width: 1.6; stroke-linecap: round"/>
     </g>
    </g>
    <g id="ytick_15">
     <g id="line2d_37">
      <path d="M 197.032253 71.614164 
L 308.891678 71.614164 
" clip-path="url(#p0930189547)" style="fill: none; stroke: #ffffff; stroke-width: 1.6; stroke-linecap: round"/>
     </g>
    </g>
    <g id="ytick_16">
     <g id="line2d_38">
      <path d="M 197.032253 51.256383 
L 308.891678 51.256383 
" clip-path="url(#p0930189547)" style="fill: none; stroke: #ffffff; stroke-width: 1.6; stroke-linecap: round"/>
     </g>
    </g>
    <g id="ytick_17">
     <g id="line2d_39">
      <path d="M 197.032253 107.240281 
L 308.891678 107.240281 
" clip-path="url(#p0930189547)" style="fill: none; stroke: #ffffff; stroke-width: 0.7; stroke-linecap: round"/>
     </g>
    </g>
    <g id="ytick_18">
     <g id="line2d_40">
      <path d="M 197.032253 102.150835 
L 308.891678 102.150835 
" clip-path="url(#p0930189547)" style="fill: none; stroke: #ffffff; stroke-width: 0.7; stroke-linecap: round"/>
     </g>
    </g>
    <g id="ytick_19">
     <g id="line2d_41">
      <path d="M 197.032253 97.06139 
L 308.891678 97.06139 
" clip-path="url(#p0930189547)" style="fill: none; stroke: #ffffff; stroke-width: 0.7; stroke-linecap: round"/>
     </g>
    </g>
    <g id="ytick_20">
     <g id="line2d_42">
      <path d="M 197.032253 86.8825 
L 308.891678 86.8825 
" clip-path="url(#p0930189547)" style="fill: none; stroke: #ffffff; stroke-width: 0.7; stroke-linecap: round"/>
     </g>
    </g>
    <g id="ytick_21">
     <g id="line2d_43">
      <path d="M 197.032253 81.793054 
L 308.891678 81.793054 
" clip-path="url(#p0930189547)" style="fill: none; stroke: #ffffff; stroke-width: 0.7; stroke-linecap: round"/>
     </g>
    </g>
    <g id="ytick_22">
     <g id="line2d_44">
      <path d="M 197.032253 76.703609 
L 308.891678 76.703609 
" clip-path="url(#p0930189547)" style="fill: none; stroke: #ffffff; stroke-width: 0.7; stroke-linecap: round"/>
     </g>
    </g>
    <g id="ytick_23">
     <g id="line2d_45">
      <path d="M 197.032253 66.524719 
L 308.891678 66.524719 
" clip-path="url(#p0930189547)" style="fill: none; stroke: #ffffff; stroke-width: 0.7; stroke-linecap: round"/>
     </g>
    </g>
    <g id="ytick_24">
     <g id="line2d_46">
      <path d="M 197.032253 61.435273 
L 308.891678 61.435273 
" clip-path="url(#p0930189547)" style="fill: none; stroke: #ffffff; stroke-width: 0.7; stroke-linecap: round"/>
     </g>
    </g>
    <g id="ytick_25">
     <g id="line2d_47">
      <path d="M 197.032253 56.345828 
L 308.891678 56.345828 
" clip-path="url(#p0930189547)" style="fill: none; stroke: #ffffff; stroke-width: 0.7; stroke-linecap: round"/>
     </g>
    </g>
    <g id="ytick_26">
     <g id="line2d_48">
      <path d="M 197.032253 46.166938 
L 308.891678 46.166938 
" clip-path="url(#p0930189547)" style="fill: none; stroke: #ffffff; stroke-width: 0.7; stroke-linecap: round"/>
     </g>
    </g>
    <g id="ytick_27">
     <g id="line2d_49">
      <path d="M 197.032253 41.077492 
L 308.891678 41.077492 
" clip-path="url(#p0930189547)" style="fill: none; stroke: #ffffff; stroke-width: 0.7; stroke-linecap: round"/>
     </g>
    </g>
   </g>
   <g id="patch_10">
    <path d="M 303.807158 79.641652 
L 303.801265 79.639143 
L 303.783586 79.631618 
L 303.754125 79.61908 
L 303.712889 79.601534 
L 303.659889 79.578987 
L 303.595135 79.551448 
L 303.518643 79.518929 
L 303.430431 79.481442 
L 303.330519 79.439003 
L 303.21893 79.391629 
L 303.095691 79.339339 
L 302.960829 79.282155 
L 302.814376 79.220098 
L 302.656366 79.153194 
L 302.486835 79.08147 
L 302.305824 79.004954 
L 302.113374 78.923676 
L 301.90953 78.837668 
L 301.694339 78.746965 
L 301.467852 78.651602 
L 301.230121 78.551616 
L 300.981202 78.447046 
L 300.721153 78.337931 
L 300.450036 78.224315 
L 300.167913 78.106241 
L 299.87485 77.983753 
L 299.570917 77.856898 
L 299.256185 77.725724 
L 298.930728 77.59028 
L 298.594622 77.450616 
L 298.247947 77.306785 
L 297.890785 77.158838 
L 297.523219 77.006831 
L 297.145338 76.850819 
L 296.757229 76.690858 
L 296.358986 76.527006 
L 295.950703 76.359321 
L 295.532476 76.187864 
L 295.104406 76.012694 
L 294.666593 75.833875 
L 294.219142 75.651467 
L 293.762161 75.465535 
L 293.295758 75.276143 
L 292.820043 75.083357 
L 292.335132 74.887242 
L 291.841141 74.687865 
L 291.338186 74.485293 
L 290.82639 74.279596 
L 290.305874 74.070843 
L 289.776764 73.859102 
L 289.239187 73.644445 
L 288.693273 73.426943 
L 288.139151 73.206668 
L 287.576956 72.983692 
L 287.006823 72.75809 
L 286.42889 72.529933 
L 285.843295 72.299298 
L 285.250181 72.06626 
L 284.649689 71.830893 
L 284.041965 71.593275 
L 283.427156 71.353483 
L 282.805409 71.111595 
L 282.176876 70.867688 
L 281.541708 70.621842 
L 280.900057 70.374136 
L 280.25208 70.124651 
L 279.597933 69.873468 
L 278.937773 69.620667 
L 278.271761 69.366331 
L 277.600056 69.110544 
L 276.922821 68.853387 
L 276.240219 68.594946 
L 275.552416 68.335305 
L 274.859577 68.074549 
L 272.208984 67.861101 
L 271.46251 67.789123 
L 270.711438 67.717492 
L 269.955954 67.646249 
L 269.196248 67.575435 
L 268.432507 67.505091 
L 267.664924 67.435259 
L 266.893688 67.365981 
L 266.118993 67.2973 
L 265.341031 67.22926 
L 264.559996 67.161902 
L 263.776083 67.095271 
L 262.989487 67.029411 
L 262.200404 66.964365 
L 261.409031 66.900179 
L 260.615565 66.836898 
L 259.820204 66.774566 
L 259.023146 66.713229 
L 258.22459 66.652933 
L 257.424735 66.593724 
L 256.623779 66.535647 
L 255.821923 66.478749 
L 255.019367 66.423077 
L 254.21631 66.368676 
L 253.412953 66.315593 
L 252.609496 66.263875 
L 251.806139 66.213568 
L 251.003082 66.164719 
L 250.200526 66.117374 
L 249.39867 66.071578 
L 248.597715 66.027378 
L 247.797859 65.984819 
L 246.999303 65.943946 
L 246.202245 65.904805 
L 245.406884 65.867439 
L 244.613418 65.831893 
L 243.822045 65.798209 
L 243.032963 65.76643 
L 242.246367 65.736599 
L 241.462454 65.708755 
L 240.681419 65.68294 
L 239.903456 65.659193 
L 239.128761 65.637552 
L 238.357525 65.618055 
L 237.589942 65.600738 
L 236.826202 65.585636 
L 236.066495 65.572783 
L 235.311011 65.562212 
L 234.559939 65.553953 
L 233.813465 65.548038 
L 233.071776 65.544494 
L 232.335055 65.543348 
L 231.603488 65.544626 
L 230.877256 65.548352 
L 230.156541 65.554547 
L 229.441521 65.563232 
L 228.732375 65.574426 
L 228.02928 65.588145 
L 227.332411 65.604405 
L 226.641942 65.623219 
L 225.958045 65.644597 
L 225.280889 65.66855 
L 224.610645 65.695085 
L 223.947479 65.724207 
L 223.291556 65.75592 
L 222.64304 65.790226 
L 222.002092 65.827124 
L 221.368872 65.866611 
L 220.743539 65.908684 
L 220.126247 65.953335 
L 219.51715 66.000558 
L 218.916401 66.050341 
L 218.32415 66.102673 
L 217.740543 66.157539 
L 217.165726 66.214925 
L 216.599843 66.274811 
L 216.043034 66.337179 
L 215.495438 66.402008 
L 214.957192 66.469275 
L 214.42843 66.538956 
L 213.909284 66.611024 
L 213.399882 66.685452 
L 212.900353 66.762212 
L 212.41082 66.841274 
L 211.931406 66.922605 
L 211.462229 67.006173 
L 211.003408 67.091944 
L 210.555055 67.179884 
L 210.117284 67.269957 
L 209.690202 67.362125 
L 209.273918 67.456352 
L 208.868533 67.5526 
L 208.47415 67.650829 
L 208.090866 67.751001 
L 207.718777 67.853075 
L 207.357976 67.957013 
L 207.008553 68.062773 
L 206.670595 68.170316 
L 206.344186 68.279601 
L 206.029407 68.390589 
L 205.726337 68.503239 
L 205.435052 68.617512 
L 205.155623 68.733369 
L 204.888121 68.85077 
L 204.632613 68.969678 
L 204.389161 69.090056 
L 204.157827 69.211865 
L 203.938668 69.335072 
L 203.731739 69.45964 
L 203.537092 69.585536 
L 203.354774 69.712727 
L 203.184833 69.841181 
L 203.027308 69.970869 
L 202.882241 70.10176 
L 202.749667 70.233827 
L 202.62962 70.367043 
L 202.522128 70.501385 
L 202.427219 70.636828 
L 202.344917 70.773352 
L 202.275243 70.910935 
L 202.218212 71.04956 
L 202.17384 71.189209 
L 202.142138 71.329868 
L 202.123114 71.471524 
L 202.116772 71.614164 
L 202.123114 71.756804 
L 202.142138 71.89846 
L 202.17384 72.039119 
L 202.218212 72.178768 
L 202.275243 72.317393 
L 202.344917 72.454976 
L 202.427219 72.591499 
L 202.522128 72.726943 
L 202.62962 72.861284 
L 202.749667 72.994501 
L 202.882241 73.126568 
L 203.027308 73.257459 
L 203.184833 73.387146 
L 203.354774 73.515601 
L 203.537092 73.642792 
L 203.731739 73.768688 
L 203.938668 73.893256 
L 204.157827 74.016462 
L 204.389161 74.138272 
L 204.632613 74.25865 
L 204.888121 74.377558 
L 205.155623 74.494959 
L 205.435052 74.610816 
L 205.726337 74.725089 
L 206.029407 74.837739 
L 206.344186 74.948727 
L 206.670595 75.058012 
L 207.008553 75.165555 
L 207.357976 75.271315 
L 207.718777 75.375253 
L 208.090866 75.477327 
L 208.47415 75.577499 
L 208.868533 75.675728 
L 209.273918 75.771975 
L 209.690202 75.866202 
L 210.117284 75.958371 
L 210.555055 76.048443 
L 211.003408 76.136383 
L 211.462229 76.222155 
L 211.931406 76.305723 
L 212.41082 76.387054 
L 212.900353 76.466115 
L 213.399882 76.542875 
L 213.909284 76.617304 
L 214.42843 76.689372 
L 214.957192 76.759053 
L 215.495438 76.82632 
L 216.043034 76.891149 
L 216.599843 76.953517 
L 217.165726 77.013403 
L 217.740543 77.070788 
L 218.32415 77.125655 
L 218.916401 77.177986 
L 219.51715 77.22777 
L 220.126247 77.274992 
L 220.743539 77.319644 
L 221.368872 77.361717 
L 222.002092 77.401204 
L 222.64304 77.438102 
L 223.291556 77.472407 
L 223.947479 77.50412 
L 224.610645 77.533243 
L 225.280889 77.559778 
L 225.958045 77.583731 
L 226.641942 77.605109 
L 227.332411 77.623923 
L 228.02928 77.640183 
L 228.732375 77.653902 
L 229.441521 77.665096 
L 230.156541 77.673781 
L 230.877256 77.679976 
L 231.603488 77.683701 
L 232.335055 77.68498 
L 233.071776 77.683834 
L 233.813465 77.68029 
L 234.559939 77.674375 
L 235.311011 77.666116 
L 236.066495 77.655545 
L 236.826202 77.642692 
L 237.589942 77.62759 
L 238.357525 77.610273 
L 239.128761 77.590775 
L 239.903456 77.569135 
L 240.681419 77.545387 
L 241.462454 77.519573 
L 242.246367 77.491729 
L 243.032963 77.461897 
L 243.822045 77.430119 
L 244.613418 77.396435 
L 245.406884 77.360888 
L 246.202245 77.323523 
L 246.999303 77.284381 
L 247.797859 77.243509 
L 248.597715 77.20095 
L 249.39867 77.15675 
L 250.200526 77.110954 
L 251.003082 77.063609 
L 251.806139 77.014759 
L 252.609496 76.964453 
L 253.412953 76.912735 
L 254.21631 76.859652 
L 255.019367 76.805251 
L 255.821923 76.749579 
L 256.623779 76.692681 
L 257.424735 76.634604 
L 258.22459 76.575395 
L 259.023146 76.515099 
L 259.820204 76.453762 
L 260.615565 76.39143 
L 261.409031 76.328148 
L 262.200404 76.263963 
L 262.989487 76.198917 
L 263.776083 76.133057 
L 264.559996 76.066426 
L 265.341031 75.999068 
L 266.118993 75.931027 
L 266.893688 75.862347 
L 267.664924 75.793069 
L 268.432507 75.723237 
L 269.196248 75.652893 
L 269.955954 75.582079 
L 270.711438 75.510835 
L 271.46251 75.439204 
L 272.208984 75.367226 
L 272.950674 75.294942 
L 273.68466 75.305864 
L 274.410136 75.42491 
L 275.130507 75.542394 
L 275.845588 75.658308 
L 276.555195 75.772641 
L 277.259147 75.885387 
L 277.957262 75.996535 
L 278.649362 76.106077 
L 279.335269 76.214005 
L 280.014807 76.320311 
L 280.687802 76.424986 
L 281.354082 76.528023 
L 282.013474 76.629415 
L 282.665811 76.729154 
L 283.310924 76.827232 
L 283.948648 76.923645 
L 284.57882 77.018385 
L 285.201277 77.111446 
L 285.81586 77.202824 
L 286.422411 77.292512 
L 287.020774 77.380507 
L 287.610795 77.466804 
L 288.192322 77.5514 
L 288.765206 77.63429 
L 289.329299 77.715472 
L 289.884455 77.794944 
L 290.430532 77.872703 
L 290.967389 77.948748 
L 291.494887 78.023079 
L 292.01289 78.095694 
L 292.521264 78.166593 
L 293.019877 78.235776 
L 293.508601 78.303245 
L 293.987308 78.369001 
L 294.455875 78.433045 
L 294.914179 78.495379 
L 295.362103 78.556006 
L 295.799529 78.614928 
L 296.226344 78.67215 
L 296.642436 78.727674 
L 297.047697 78.781504 
L 297.442022 78.833645 
L 297.825307 78.8841 
L 298.197452 78.932876 
L 298.55836 78.979976 
L 298.907936 79.025407 
L 299.246089 79.069173 
L 299.57273 79.11128 
L 299.887774 79.151734 
L 300.191137 79.19054 
L 300.482739 79.227704 
L 300.762505 79.263233 
L 301.030361 79.297132 
L 301.286235 79.329406 
L 301.53006 79.360063 
L 301.761772 79.389107 
L 301.98131 79.416545 
L 302.188616 79.442381 
L 302.383634 79.466622 
L 302.566314 79.489272 
L 302.736607 79.510337 
L 302.894467 79.529821 
L 303.039853 79.547728 
L 303.172727 79.564064 
L 303.293052 79.578831 
L 303.400798 79.592034 
L 303.495935 79.603675 
L 303.578439 79.613759 
L 303.648287 79.622286 
L 303.70546 79.62926 
L 303.749944 79.634683 
L 303.781727 79.638555 
L 303.8008 79.640878 
z
" clip-path="url(#p0930189547)" style="fill-opacity: 0.2; stroke: #000000; stroke-opacity: 0.7; stroke-linejoin: miter"/>
   </g>
   <g id="patch_11">
    <path d="M 197.032253 108.18 
L 197.032253 37.005 
" style="fill: none; stroke: #ffffff; stroke-width: 1.25; stroke-linejoin: miter; stroke-linecap: square"/>
   </g>
   <g id="patch_12">
    <path d="M 308.891678 108.18 
L 308.891678 37.005 
" style="fill: none; stroke: #ffffff; stroke-width: 1.25; stroke-linejoin: miter; stroke-linecap: square"/>
   </g>
   <g id="patch_13">
    <path d="M 197.032253 108.18 
L 308.891678 108.18 
" style="fill: none; stroke: #ffffff; stroke-width: 1.25; stroke-linejoin: miter; stroke-linecap: square"/>
   </g>
   <g id="patch_14">
    <path d="M 197.032253 37.005 
L 308.891678 37.005 
" style="fill: none; stroke: #ffffff; stroke-width: 1.25; stroke-linejoin: miter; stroke-linecap: square"/>
   </g>
   <g id="text_15">
    <g id="patch_15">
     <path d="M 225.881965 61.50025 
L 280.041965 61.50025 
Q 281.641965 61.50025 281.641965 59.90025 
L 281.641965 44.1225 
Q 281.641965 42.5225 280.041965 42.5225 
L 225.881965 42.5225 
Q 224.281965 42.5225 224.281965 44.1225 
L 224.281965 59.90025 
Q 224.281965 61.50025 225.881965 61.50025 
z
" style="fill: #ffffff; stroke: #000000; stroke-linejoin: miter"/>
    </g>
    <!-- $\mathrm{Re}_\mathrm{c}$ = 1000000 -->
    <g transform="translate(225.881965 49.84875) scale(0.08 -0.08)">
     <use xlink:href="#DejaVuSans-52" transform="translate(0 0.09375)"/>
     <use xlink:href="#DejaVuSans-65" transform="translate(69.482422 0.09375)"/>
     <use xlink:href="#DejaVuSans-63" transform="translate(131.962891 -16.3125) scale(0.7)"/>
     <use xlink:href="#ArialMT-20" transform="translate(173.183594 0.09375)"/>
     <use xlink:href="#ArialMT-3d" transform="translate(200.966797 0.09375)"/>
     <use xlink:href="#ArialMT-20" transform="translate(259.365234 0.09375)"/>
     <use xlink:href="#ArialMT-31" transform="translate(287.148438 0.09375)"/>
     <use xlink:href="#ArialMT-30" transform="translate(342.763672 0.09375)"/>
     <use xlink:href="#ArialMT-30" transform="translate(398.378906 0.09375)"/>
     <use xlink:href="#ArialMT-30" transform="translate(453.994141 0.09375)"/>
     <use xlink:href="#ArialMT-30" transform="translate(509.609375 0.09375)"/>
     <use xlink:href="#ArialMT-30" transform="translate(565.224609 0.09375)"/>
     <use xlink:href="#ArialMT-30" transform="translate(620.839844 0.09375)"/>
    </g>
    <!-- $\Delta\alpha$ = 0.0° -->
    <g transform="translate(235.841965 58.31025) scale(0.08 -0.08)">
     <use xlink:href="#DejaVuSans-394" transform="translate(0 0.09375)"/>
     <use xlink:href="#DejaVuSans-Oblique-3b1" transform="translate(68.408203 0.09375)"/>
     <use xlink:href="#ArialMT-20" transform="translate(134.326172 0.09375)"/>
     <use xlink:href="#ArialMT-3d" transform="translate(162.109375 0.09375)"/>
     <use xlink:href="#ArialMT-20" transform="translate(220.507812 0.09375)"/>
     <use xlink:href="#ArialMT-30" transform="translate(248.291016 0.09375)"/>
     <use xlink:href="#ArialMT-2e" transform="translate(303.90625 0.09375)"/>
     <use xlink:href="#ArialMT-30" transform="translate(331.689453 0.09375)"/>
     <use xlink:href="#ArialMT-b0" transform="translate(387.304688 0.09375)"/>
    </g>
   </g>
   <g id="text_16">
    <!-- Step 2: -->
    <g style="fill: #262626" transform="translate(237.118215 20.428125) scale(0.1 -0.1)">
     <use xlink:href="#ArialMT-53"/>
     <use xlink:href="#ArialMT-74" x="66.699219"/>
     <use xlink:href="#ArialMT-65" x="94.482422"/>
     <use xlink:href="#ArialMT-70" x="150.097656"/>
     <use xlink:href="#ArialMT-20" x="205.712891"/>
     <use xlink:href="#ArialMT-32" x="233.496094"/>
     <use xlink:href="#ArialMT-3a" x="289.111328"/>
    </g>
    <!-- Deflected Airfoil -->
    <g style="fill: #262626" transform="translate(218.223684 31.005) scale(0.1 -0.1)">
     <defs>
      <path id="ArialMT-44" d="M 494 0 
L 494 4581 
L 2072 4581 
Q 2606 4581 2888 4516 
Q 3281 4425 3559 4188 
Q 3922 3881 4101 3404 
Q 4281 2928 4281 2316 
Q 4281 1794 4159 1391 
Q 4038 988 3847 723 
Q 3656 459 3429 307 
Q 3203 156 2883 78 
Q 2563 0 2147 0 
L 494 0 
z
M 1100 541 
L 2078 541 
Q 2531 541 2789 625 
Q 3047 709 3200 863 
Q 3416 1078 3536 1442 
Q 3656 1806 3656 2325 
Q 3656 3044 3420 3430 
Q 3184 3816 2847 3947 
Q 2603 4041 2063 4041 
L 1100 4041 
L 1100 541 
z
" transform="scale(0.015625)"/>
      <path id="ArialMT-64" d="M 2575 0 
L 2575 419 
Q 2259 -75 1647 -75 
Q 1250 -75 917 144 
Q 584 363 401 755 
Q 219 1147 219 1656 
Q 219 2153 384 2558 
Q 550 2963 881 3178 
Q 1213 3394 1622 3394 
Q 1922 3394 2156 3267 
Q 2391 3141 2538 2938 
L 2538 4581 
L 3097 4581 
L 3097 0 
L 2575 0 
z
M 797 1656 
Q 797 1019 1065 703 
Q 1334 388 1700 388 
Q 2069 388 2326 689 
Q 2584 991 2584 1609 
Q 2584 2291 2321 2609 
Q 2059 2928 1675 2928 
Q 1300 2928 1048 2622 
Q 797 2316 797 1656 
z
" transform="scale(0.015625)"/>
     </defs>
     <use xlink:href="#ArialMT-44"/>
     <use xlink:href="#ArialMT-65" x="72.216797"/>
     <use xlink:href="#ArialMT-66" x="127.832031"/>
     <use xlink:href="#ArialMT-6c" x="155.615234"/>
     <use xlink:href="#ArialMT-65" x="177.832031"/>
     <use xlink:href="#ArialMT-63" x="233.447266"/>
     <use xlink:href="#ArialMT-74" x="283.447266"/>
     <use xlink:href="#ArialMT-65" x="311.230469"/>
     <use xlink:href="#ArialMT-64" x="366.845703"/>
     <use xlink:href="#ArialMT-20" x="422.460938"/>
     <use xlink:href="#ArialMT-41" x="444.744141"/>
     <use xlink:href="#ArialMT-69" x="511.443359"/>
     <use xlink:href="#ArialMT-72" x="533.660156"/>
     <use xlink:href="#ArialMT-66" x="566.960938"/>
     <use xlink:href="#ArialMT-6f" x="594.744141"/>
     <use xlink:href="#ArialMT-69" x="650.359375"/>
     <use xlink:href="#ArialMT-6c" x="672.576172"/>
    </g>
   </g>
  </g>
  <g id="axes_3">
   <g id="patch_16">
    <path d="M 342.449505 108.18 
L 454.30893 108.18 
L 454.30893 37.005 
L 342.449505 37.005 
z
" style="fill: #eaeaf2"/>
   </g>
   <g id="matplotlib.axis_5">
    <g id="xtick_23">
     <g id="line2d_50">
      <path d="M 347.534025 108.18 
L 347.534025 37.005 
" clip-path="url(#p5c52801047)" style="fill: none; stroke: #ffffff; stroke-width: 1.6; stroke-linecap: round"/>
     </g>
     <g id="text_17">
      <!-- 0.0 -->
      <g style="fill: #262626" transform="translate(341.974025 123.40625) scale(0.08 -0.08)">
       <use xlink:href="#ArialMT-30"/>
       <use xlink:href="#ArialMT-2e" x="55.615234"/>
       <use xlink:href="#ArialMT-30" x="83.398438"/>
      </g>
     </g>
    </g>
    <g id="xtick_24">
     <g id="line2d_51">
      <path d="M 398.379218 108.18 
L 398.379218 37.005 
" clip-path="url(#p5c52801047)" style="fill: none; stroke: #ffffff; stroke-width: 1.6; stroke-linecap: round"/>
     </g>
     <g id="text_18">
      <!-- 0.5 -->
      <g style="fill: #262626" transform="translate(392.819218 123.40625) scale(0.08 -0.08)">
       <use xlink:href="#ArialMT-30"/>
       <use xlink:href="#ArialMT-2e" x="55.615234"/>
       <use xlink:href="#ArialMT-35" x="83.398438"/>
      </g>
     </g>
    </g>
    <g id="xtick_25">
     <g id="line2d_52">
      <path d="M 449.224411 108.18 
L 449.224411 37.005 
" clip-path="url(#p5c52801047)" style="fill: none; stroke: #ffffff; stroke-width: 1.6; stroke-linecap: round"/>
     </g>
     <g id="text_19">
      <!-- 1.0 -->
      <g style="fill: #262626" transform="translate(443.664411 123.40625) scale(0.08 -0.08)">
       <use xlink:href="#ArialMT-31"/>
       <use xlink:href="#ArialMT-2e" x="55.615234"/>
       <use xlink:href="#ArialMT-30" x="83.398438"/>
      </g>
     </g>
    </g>
    <g id="xtick_26">
     <g id="line2d_53">
      <path d="M 357.703063 108.18 
L 357.703063 37.005 
" clip-path="url(#p5c52801047)" style="fill: none; stroke: #ffffff; stroke-width: 0.7; stroke-linecap: round"/>
     </g>
    </g>
    <g id="xtick_27">
     <g id="line2d_54">
      <path d="M 367.872102 108.18 
L 367.872102 37.005 
" clip-path="url(#p5c52801047)" style="fill: none; stroke: #ffffff; stroke-width: 0.7; stroke-linecap: round"/>
     </g>
    </g>
    <g id="xtick_28">
     <g id="line2d_55">
      <path d="M 378.041141 108.18 
L 378.041141 37.005 
" clip-path="url(#p5c52801047)" style="fill: none; stroke: #ffffff; stroke-width: 0.7; stroke-linecap: round"/>
     </g>
    </g>
    <g id="xtick_29">
     <g id="line2d_56">
      <path d="M 388.210179 108.18 
L 388.210179 37.005 
" clip-path="url(#p5c52801047)" style="fill: none; stroke: #ffffff; stroke-width: 0.7; stroke-linecap: round"/>
     </g>
    </g>
    <g id="xtick_30">
     <g id="line2d_57">
      <path d="M 408.548257 108.18 
L 408.548257 37.005 
" clip-path="url(#p5c52801047)" style="fill: none; stroke: #ffffff; stroke-width: 0.7; stroke-linecap: round"/>
     </g>
    </g>
    <g id="xtick_31">
     <g id="line2d_58">
      <path d="M 418.717295 108.18 
L 418.717295 37.005 
" clip-path="url(#p5c52801047)" style="fill: none; stroke: #ffffff; stroke-width: 0.7; stroke-linecap: round"/>
     </g>
    </g>
    <g id="xtick_32">
     <g id="line2d_59">
      <path d="M 428.886334 108.18 
L 428.886334 37.005 
" clip-path="url(#p5c52801047)" style="fill: none; stroke: #ffffff; stroke-width: 0.7; stroke-linecap: round"/>
     </g>
    </g>
    <g id="xtick_33">
     <g id="line2d_60">
      <path d="M 439.055373 108.18 
L 439.055373 37.005 
" clip-path="url(#p5c52801047)" style="fill: none; stroke: #ffffff; stroke-width: 0.7; stroke-linecap: round"/>
     </g>
    </g>
    <g id="text_20">
     <!-- x/c -->
     <g style="fill: #262626" transform="translate(391.990155 136.154063) scale(0.1 -0.1)">
      <use xlink:href="#ArialMT-78"/>
      <use xlink:href="#ArialMT-2f" x="50"/>
      <use xlink:href="#ArialMT-63" x="77.783203"/>
     </g>
    </g>
   </g>
   <g id="matplotlib.axis_6">
    <g id="ytick_28">
     <g id="line2d_61">
      <path d="M 342.449505 95.448572 
L 454.30893 95.448572 
" clip-path="url(#p5c52801047)" style="fill: none; stroke: #ffffff; stroke-width: 1.6; stroke-linecap: round"/>
     </g>
    </g>
    <g id="ytick_29">
     <g id="line2d_62">
      <path d="M 342.449505 75.110495 
L 454.30893 75.110495 
" clip-path="url(#p5c52801047)" style="fill: none; stroke: #ffffff; stroke-width: 1.6; stroke-linecap: round"/>
     </g>
    </g>
    <g id="ytick_30">
     <g id="line2d_63">
      <path d="M 342.449505 54.772418 
L 454.30893 54.772418 
" clip-path="url(#p5c52801047)" style="fill: none; stroke: #ffffff; stroke-width: 1.6; stroke-linecap: round"/>
     </g>
    </g>
    <g id="ytick_31">
     <g id="line2d_64">
      <path d="M 342.449505 105.617611 
L 454.30893 105.617611 
" clip-path="url(#p5c52801047)" style="fill: none; stroke: #ffffff; stroke-width: 0.7; stroke-linecap: round"/>
     </g>
    </g>
    <g id="ytick_32">
     <g id="line2d_65">
      <path d="M 342.449505 100.533092 
L 454.30893 100.533092 
" clip-path="url(#p5c52801047)" style="fill: none; stroke: #ffffff; stroke-width: 0.7; stroke-linecap: round"/>
     </g>
    </g>
    <g id="ytick_33">
     <g id="line2d_66">
      <path d="M 342.449505 90.364053 
L 454.30893 90.364053 
" clip-path="url(#p5c52801047)" style="fill: none; stroke: #ffffff; stroke-width: 0.7; stroke-linecap: round"/>
     </g>
    </g>
    <g id="ytick_34">
     <g id="line2d_67">
      <path d="M 342.449505 85.279534 
L 454.30893 85.279534 
" clip-path="url(#p5c52801047)" style="fill: none; stroke: #ffffff; stroke-width: 0.7; stroke-linecap: round"/>
     </g>
    </g>
    <g id="ytick_35">
     <g id="line2d_68">
      <path d="M 342.449505 80.195014 
L 454.30893 80.195014 
" clip-path="url(#p5c52801047)" style="fill: none; stroke: #ffffff; stroke-width: 0.7; stroke-linecap: round"/>
     </g>
    </g>
    <g id="ytick_36">
     <g id="line2d_69">
      <path d="M 342.449505 70.025976 
L 454.30893 70.025976 
" clip-path="url(#p5c52801047)" style="fill: none; stroke: #ffffff; stroke-width: 0.7; stroke-linecap: round"/>
     </g>
    </g>
    <g id="ytick_37">
     <g id="line2d_70">
      <path d="M 342.449505 64.941456 
L 454.30893 64.941456 
" clip-path="url(#p5c52801047)" style="fill: none; stroke: #ffffff; stroke-width: 0.7; stroke-linecap: round"/>
     </g>
    </g>
    <g id="ytick_38">
     <g id="line2d_71">
      <path d="M 342.449505 59.856937 
L 454.30893 59.856937 
" clip-path="url(#p5c52801047)" style="fill: none; stroke: #ffffff; stroke-width: 0.7; stroke-linecap: round"/>
     </g>
    </g>
    <g id="ytick_39">
     <g id="line2d_72">
      <path d="M 342.449505 49.687898 
L 454.30893 49.687898 
" clip-path="url(#p5c52801047)" style="fill: none; stroke: #ffffff; stroke-width: 0.7; stroke-linecap: round"/>
     </g>
    </g>
    <g id="ytick_40">
     <g id="line2d_73">
      <path d="M 342.449505 44.603379 
L 454.30893 44.603379 
" clip-path="url(#p5c52801047)" style="fill: none; stroke: #ffffff; stroke-width: 0.7; stroke-linecap: round"/>
     </g>
    </g>
    <g id="ytick_41">
     <g id="line2d_74">
      <path d="M 342.449505 39.51886 
L 454.30893 39.51886 
" clip-path="url(#p5c52801047)" style="fill: none; stroke: #ffffff; stroke-width: 0.7; stroke-linecap: round"/>
     </g>
    </g>
   </g>
   <g id="patch_17">
    <path d="M 449.224411 75.101699 
L 449.218075 75.099116 
L 449.199069 75.09138 
L 449.167398 75.078533 
L 449.123069 75.060645 
L 449.066094 75.037809 
L 448.996487 75.010143 
L 448.914264 74.977786 
L 448.819447 74.940896 
L 448.71206 74.899644 
L 448.592128 74.854213 
L 448.459683 74.804793 
L 448.314756 74.751579 
L 448.157384 74.694762 
L 447.987607 74.63453 
L 447.805466 74.571063 
L 447.611007 74.504524 
L 447.404278 74.435064 
L 447.185332 74.36281 
L 446.954222 74.287869 
L 446.711006 74.21032 
L 446.455744 74.130217 
L 446.188501 74.047584 
L 445.909343 73.962416 
L 445.61834 73.874677 
L 445.315563 73.784305 
L 445.001089 73.691206 
L 444.674996 73.595263 
L 444.337364 73.496335 
L 443.98828 73.39426 
L 443.627828 73.288858 
L 443.256099 73.179939 
L 442.873187 73.067303 
L 442.479185 72.950748 
L 442.074193 72.830071 
L 441.658311 72.705079 
L 441.231643 72.575593 
L 440.794295 72.44145 
L 440.346377 72.302511 
L 439.887999 72.158667 
L 439.419277 72.009842 
L 438.940326 71.856001 
L 438.451267 71.697149 
L 437.952221 71.533338 
L 437.443313 71.36467 
L 436.924669 71.191298 
L 436.396419 71.013428 
L 435.858694 70.831321 
L 435.311628 70.645291 
L 434.755358 70.455705 
L 434.190023 70.262981 
L 433.615762 70.067589 
L 433.03272 69.870041 
L 432.441042 69.670894 
L 431.840874 69.470741 
L 431.232367 69.270206 
L 430.615673 69.069942 
L 429.990944 68.870619 
L 429.358338 68.672922 
L 428.71801 68.477541 
L 428.070122 68.285166 
L 427.414834 68.096477 
L 426.752309 67.912141 
L 426.082714 67.7328 
L 425.406214 67.559066 
L 424.722978 67.391516 
L 424.033177 67.230684 
L 423.336983 67.077055 
L 422.634569 66.931062 
L 421.926109 66.793078 
L 421.211781 66.663418 
L 420.491763 66.542331 
L 419.766234 66.429999 
L 419.035375 66.326537 
L 418.299368 66.231994 
L 417.558397 66.14635 
L 416.812645 66.06952 
L 416.0623 66.001356 
L 415.307547 65.941649 
L 414.548576 65.890133 
L 413.785575 65.846493 
L 413.018734 65.810363 
L 412.248245 65.781338 
L 411.474299 65.758978 
L 410.69709 65.742814 
L 409.916811 65.732354 
L 409.133657 65.727092 
L 408.347822 65.726513 
L 407.559503 65.730101 
L 406.768896 65.737345 
L 405.976198 65.747744 
L 405.181607 65.760817 
L 404.385321 65.776106 
L 403.587537 65.79318 
L 402.788456 65.811642 
L 401.988276 65.831131 
L 401.187196 65.851328 
L 400.385417 65.871956 
L 399.583137 65.892782 
L 398.780558 65.91362 
L 397.977878 65.934329 
L 397.175299 65.954815 
L 396.373019 65.975028 
L 395.57124 65.994961 
L 394.77016 66.014648 
L 393.96998 66.034161 
L 393.170898 66.053608 
L 392.373115 66.073124 
L 391.576829 66.092875 
L 390.782237 66.113045 
L 389.98954 66.133839 
L 389.198933 66.155473 
L 388.410614 66.178171 
L 387.624779 66.202161 
L 386.841625 66.227671 
L 386.061345 66.25492 
L 385.284136 66.284122 
L 384.510191 66.315476 
L 383.739702 66.349163 
L 382.972861 66.385347 
L 382.20986 66.42417 
L 381.450889 66.46575 
L 380.696136 66.510181 
L 379.945791 66.55753 
L 379.200039 66.607841 
L 378.459068 66.66113 
L 377.723061 66.717389 
L 376.992202 66.776586 
L 376.266672 66.83867 
L 375.546654 66.903566 
L 374.832327 66.971184 
L 374.123867 67.04142 
L 373.421453 67.114155 
L 372.725258 67.189264 
L 372.035457 67.266615 
L 371.352222 67.346072 
L 370.675722 67.427501 
L 370.006127 67.51077 
L 369.343602 67.595752 
L 368.688314 67.68233 
L 368.040426 67.770396 
L 367.400098 67.859855 
L 366.767491 67.950626 
L 366.142763 68.042644 
L 365.526068 68.135859 
L 364.917562 68.230236 
L 364.317394 68.325759 
L 363.725716 68.422426 
L 363.142674 68.520252 
L 362.568413 68.619265 
L 362.003077 68.719504 
L 361.446808 68.821022 
L 360.899742 68.923877 
L 360.362017 69.028137 
L 359.833767 69.133873 
L 359.315123 69.241155 
L 358.806214 69.350057 
L 358.307169 69.460647 
L 357.818109 69.572985 
L 357.339159 69.687129 
L 356.870437 69.80312 
L 356.412059 69.920992 
L 355.964141 70.040764 
L 355.526793 70.162439 
L 355.100125 70.286005 
L 354.684243 70.411433 
L 354.279251 70.538678 
L 353.885249 70.667676 
L 353.502336 70.798351 
L 353.130608 70.930608 
L 352.770156 71.064339 
L 352.421071 71.199425 
L 352.08344 71.335734 
L 351.757347 71.473127 
L 351.442873 71.611461 
L 351.140096 71.750585 
L 350.849093 71.890351 
L 350.569935 72.030612 
L 350.302692 72.171225 
L 350.04743 72.312055 
L 349.804214 72.452978 
L 349.573104 72.593882 
L 349.354157 72.73467 
L 349.147429 72.875262 
L 348.95297 73.015597 
L 348.770829 73.155633 
L 348.601051 73.29535 
L 348.44368 73.43475 
L 348.298753 73.573857 
L 348.166307 73.712715 
L 348.046376 73.85139 
L 347.938988 73.98997 
L 347.844172 74.128558 
L 347.761949 74.267275 
L 347.692342 74.406256 
L 347.635367 74.545647 
L 347.591038 74.685605 
L 347.559366 74.82629 
L 347.540361 74.967866 
L 347.534025 75.110495 
L 347.540361 75.245058 
L 347.559366 75.380487 
L 347.591038 75.516428 
L 347.635367 75.652531 
L 347.692342 75.788448 
L 347.761949 75.923837 
L 347.844172 76.058371 
L 347.938988 76.191736 
L 348.046376 76.323634 
L 348.166307 76.45379 
L 348.298753 76.58195 
L 348.44368 76.707885 
L 348.601051 76.831393 
L 348.770829 76.952296 
L 348.95297 77.070448 
L 349.147429 77.185725 
L 349.354157 77.298033 
L 349.573104 77.407304 
L 349.804214 77.513494 
L 350.04743 77.61658 
L 350.302692 77.716564 
L 350.569935 77.813463 
L 350.849093 77.90731 
L 351.140096 77.998154 
L 351.442873 78.08605 
L 351.757347 78.171065 
L 352.08344 78.253266 
L 352.421071 78.332724 
L 352.770156 78.409507 
L 353.130608 78.483679 
L 353.502336 78.555299 
L 353.885249 78.624415 
L 354.279251 78.691065 
L 354.684243 78.755275 
L 355.100125 78.817058 
L 355.526793 78.876413 
L 355.964141 78.933322 
L 356.412059 78.987756 
L 356.870437 79.03967 
L 357.339159 79.089004 
L 357.818109 79.135689 
L 358.307169 79.179643 
L 358.806214 79.220774 
L 359.315123 79.258986 
L 359.833767 79.294174 
L 360.362017 79.326235 
L 360.899742 79.355061 
L 361.446808 79.380549 
L 362.003077 79.402602 
L 362.568413 79.421126 
L 363.142674 79.436041 
L 363.725716 79.447275 
L 364.317394 79.454771 
L 364.917562 79.458487 
L 365.526068 79.458395 
L 366.142763 79.454489 
L 366.767491 79.446775 
L 367.400098 79.43528 
L 368.040426 79.420049 
L 368.688314 79.401142 
L 369.343602 79.378638 
L 370.006127 79.352627 
L 370.675722 79.323215 
L 371.352222 79.290518 
L 372.035457 79.25466 
L 372.725258 79.215772 
L 373.421453 79.173988 
L 374.123867 79.129445 
L 374.832327 79.082273 
L 375.546654 79.032602 
L 376.266672 78.980552 
L 376.992202 78.926232 
L 377.723061 78.869739 
L 378.459068 78.811154 
L 379.200039 78.750544 
L 379.945791 78.687954 
L 380.696136 78.623411 
L 381.450889 78.556922 
L 382.20986 78.488473 
L 382.972861 78.41803 
L 383.739702 78.345541 
L 384.510191 78.270933 
L 385.284136 78.19412 
L 386.061345 78.115 
L 386.841625 78.033462 
L 387.624779 77.949385 
L 388.410614 77.862645 
L 389.198933 77.773116 
L 389.98954 77.680678 
L 390.782237 77.585215 
L 391.576829 77.486628 
L 392.373115 77.384832 
L 393.170898 77.279762 
L 393.96998 77.171381 
L 394.77016 77.05968 
L 395.57124 76.944682 
L 396.373019 76.826449 
L 397.175299 76.70508 
L 397.977878 76.580718 
L 398.780558 76.453546 
L 399.583137 76.323794 
L 400.385417 76.191739 
L 401.187196 76.057699 
L 401.988276 75.92204 
L 402.788456 75.785167 
L 403.587537 75.647527 
L 404.385321 75.509604 
L 405.181607 75.371915 
L 405.976198 75.235005 
L 406.768896 75.099444 
L 407.559503 74.965821 
L 408.347822 74.834734 
L 409.133657 74.70679 
L 409.916811 74.582595 
L 410.69709 74.462745 
L 411.474299 74.347824 
L 412.248245 74.238393 
L 413.018734 74.134986 
L 413.785575 74.0381 
L 414.548576 73.948191 
L 415.307547 73.86567 
L 416.0623 73.790892 
L 416.812645 73.724158 
L 417.558397 73.665706 
L 418.299368 73.615707 
L 419.035375 73.574267 
L 419.766234 73.541423 
L 420.491763 73.517141 
L 421.211781 73.501315 
L 421.926109 73.493775 
L 422.634569 73.494278 
L 423.336983 73.502521 
L 424.033177 73.518138 
L 424.722978 73.540706 
L 425.406214 73.569751 
L 426.082714 73.604755 
L 426.752309 73.645158 
L 427.414834 73.69037 
L 428.070122 73.739773 
L 428.71801 73.792733 
L 429.358338 73.848607 
L 429.990944 73.906746 
L 430.615673 73.966509 
L 431.232367 74.027268 
L 431.840874 74.088412 
L 432.441042 74.149361 
L 433.03272 74.209564 
L 433.615762 74.268513 
L 434.190023 74.325741 
L 434.755358 74.380831 
L 435.311628 74.433418 
L 435.858694 74.483192 
L 436.396419 74.5299 
L 436.924669 74.573347 
L 437.443313 74.613397 
L 437.952221 74.649971 
L 438.451267 74.683046 
L 438.940326 74.712653 
L 439.419277 74.738874 
L 439.887999 74.761839 
L 440.346377 74.781717 
L 440.794295 74.79872 
L 441.231643 74.813087 
L 441.658311 74.825086 
L 442.074193 74.835005 
L 442.479185 74.843148 
L 442.873187 74.849824 
L 443.256099 74.855345 
L 443.627828 74.86002 
L 443.98828 74.864148 
L 444.337364 74.868012 
L 444.674996 74.871874 
L 445.001089 74.875974 
L 445.315563 74.880522 
L 445.61834 74.885697 
L 445.909343 74.891643 
L 446.188501 74.89847 
L 446.455744 74.90625 
L 446.711006 74.915018 
L 446.954222 74.924773 
L 447.185332 74.935477 
L 447.404278 74.947061 
L 447.611007 74.959422 
L 447.805466 74.97243 
L 447.987607 74.985931 
L 448.157384 74.99975 
L 448.314756 75.013695 
L 448.459683 75.027563 
L 448.592128 75.041145 
L 448.71206 75.054227 
L 448.819447 75.0666 
L 448.914264 75.078063 
L 448.996487 75.088424 
L 449.066094 75.097511 
L 449.123069 75.105169 
L 449.167398 75.111266 
L 449.199069 75.115699 
L 449.218075 75.118389 
L 449.224411 75.119291 
z
" clip-path="url(#p5c52801047)" style="fill-opacity: 0.2; stroke: #000000; stroke-opacity: 0.7; stroke-linejoin: miter"/>
   </g>
   <g id="patch_18">
    <path d="M 342.449505 108.18 
L 342.449505 37.005 
" style="fill: none; stroke: #ffffff; stroke-width: 1.25; stroke-linejoin: miter; stroke-linecap: square"/>
   </g>
   <g id="patch_19">
    <path d="M 454.30893 108.18 
L 454.30893 37.005 
" style="fill: none; stroke: #ffffff; stroke-width: 1.25; stroke-linejoin: miter; stroke-linecap: square"/>
   </g>
   <g id="patch_20">
    <path d="M 342.449505 108.18 
L 454.30893 108.18 
" style="fill: none; stroke: #ffffff; stroke-width: 1.25; stroke-linejoin: miter; stroke-linecap: square"/>
   </g>
   <g id="patch_21">
    <path d="M 342.449505 37.005 
L 454.30893 37.005 
" style="fill: none; stroke: #ffffff; stroke-width: 1.25; stroke-linejoin: miter; stroke-linecap: square"/>
   </g>
   <g id="text_21">
    <g id="patch_22">
     <path d="M 373.539218 61.50025 
L 423.219218 61.50025 
Q 424.819218 61.50025 424.819218 59.90025 
L 424.819218 44.1225 
Q 424.819218 42.5225 423.219218 42.5225 
L 373.539218 42.5225 
Q 371.939218 42.5225 371.939218 44.1225 
L 371.939218 59.90025 
Q 371.939218 61.50025 373.539218 61.50025 
z
" style="fill: #ffffff; stroke: #000000; stroke-linejoin: miter"/>
    </g>
    <!-- $\mathrm{Re}_\mathrm{c}$ = 997816 -->
    <g transform="translate(373.539218 49.84875) scale(0.08 -0.08)">
     <defs>
      <path id="ArialMT-39" d="M 350 1059 
L 891 1109 
Q 959 728 1153 556 
Q 1347 384 1650 384 
Q 1909 384 2104 503 
Q 2300 622 2425 820 
Q 2550 1019 2634 1356 
Q 2719 1694 2719 2044 
Q 2719 2081 2716 2156 
Q 2547 1888 2255 1720 
Q 1963 1553 1622 1553 
Q 1053 1553 659 1965 
Q 266 2378 266 3053 
Q 266 3750 677 4175 
Q 1088 4600 1706 4600 
Q 2153 4600 2523 4359 
Q 2894 4119 3086 3673 
Q 3278 3228 3278 2384 
Q 3278 1506 3087 986 
Q 2897 466 2520 194 
Q 2144 -78 1638 -78 
Q 1100 -78 759 220 
Q 419 519 350 1059 
z
M 2653 3081 
Q 2653 3566 2395 3850 
Q 2138 4134 1775 4134 
Q 1400 4134 1122 3828 
Q 844 3522 844 3034 
Q 844 2597 1108 2323 
Q 1372 2050 1759 2050 
Q 2150 2050 2401 2323 
Q 2653 2597 2653 3081 
z
" transform="scale(0.015625)"/>
      <path id="ArialMT-37" d="M 303 3981 
L 303 4522 
L 3269 4522 
L 3269 4084 
Q 2831 3619 2401 2847 
Q 1972 2075 1738 1259 
Q 1569 684 1522 0 
L 944 0 
Q 953 541 1156 1306 
Q 1359 2072 1739 2783 
Q 2119 3494 2547 3981 
L 303 3981 
z
" transform="scale(0.015625)"/>
      <path id="ArialMT-38" d="M 1131 2484 
Q 781 2613 612 2850 
Q 444 3088 444 3419 
Q 444 3919 803 4259 
Q 1163 4600 1759 4600 
Q 2359 4600 2725 4251 
Q 3091 3903 3091 3403 
Q 3091 3084 2923 2848 
Q 2756 2613 2416 2484 
Q 2838 2347 3058 2040 
Q 3278 1734 3278 1309 
Q 3278 722 2862 322 
Q 2447 -78 1769 -78 
Q 1091 -78 675 323 
Q 259 725 259 1325 
Q 259 1772 486 2073 
Q 713 2375 1131 2484 
z
M 1019 3438 
Q 1019 3113 1228 2906 
Q 1438 2700 1772 2700 
Q 2097 2700 2305 2904 
Q 2513 3109 2513 3406 
Q 2513 3716 2298 3927 
Q 2084 4138 1766 4138 
Q 1444 4138 1231 3931 
Q 1019 3725 1019 3438 
z
M 838 1322 
Q 838 1081 952 856 
Q 1066 631 1291 507 
Q 1516 384 1775 384 
Q 2178 384 2440 643 
Q 2703 903 2703 1303 
Q 2703 1709 2433 1975 
Q 2163 2241 1756 2241 
Q 1359 2241 1098 1978 
Q 838 1716 838 1322 
z
" transform="scale(0.015625)"/>
      <path id="ArialMT-36" d="M 3184 3459 
L 2625 3416 
Q 2550 3747 2413 3897 
Q 2184 4138 1850 4138 
Q 1581 4138 1378 3988 
Q 1113 3794 959 3422 
Q 806 3050 800 2363 
Q 1003 2672 1297 2822 
Q 1591 2972 1913 2972 
Q 2475 2972 2870 2558 
Q 3266 2144 3266 1488 
Q 3266 1056 3080 686 
Q 2894 316 2569 119 
Q 2244 -78 1831 -78 
Q 1128 -78 684 439 
Q 241 956 241 2144 
Q 241 3472 731 4075 
Q 1159 4600 1884 4600 
Q 2425 4600 2770 4297 
Q 3116 3994 3184 3459 
z
M 888 1484 
Q 888 1194 1011 928 
Q 1134 663 1356 523 
Q 1578 384 1822 384 
Q 2178 384 2434 671 
Q 2691 959 2691 1453 
Q 2691 1928 2437 2201 
Q 2184 2475 1800 2475 
Q 1419 2475 1153 2201 
Q 888 1928 888 1484 
z
" transform="scale(0.015625)"/>
     </defs>
     <use xlink:href="#DejaVuSans-52" transform="translate(0 0.09375)"/>
     <use xlink:href="#DejaVuSans-65" transform="translate(69.482422 0.09375)"/>
     <use xlink:href="#DejaVuSans-63" transform="translate(131.962891 -16.3125) scale(0.7)"/>
     <use xlink:href="#ArialMT-20" transform="translate(173.183594 0.09375)"/>
     <use xlink:href="#ArialMT-3d" transform="translate(200.966797 0.09375)"/>
     <use xlink:href="#ArialMT-20" transform="translate(259.365234 0.09375)"/>
     <use xlink:href="#ArialMT-39" transform="translate(287.148438 0.09375)"/>
     <use xlink:href="#ArialMT-39" transform="translate(342.763672 0.09375)"/>
     <use xlink:href="#ArialMT-37" transform="translate(398.378906 0.09375)"/>
     <use xlink:href="#ArialMT-38" transform="translate(453.994141 0.09375)"/>
     <use xlink:href="#ArialMT-31" transform="translate(509.609375 0.09375)"/>
     <use xlink:href="#ArialMT-36" transform="translate(565.224609 0.09375)"/>
    </g>
    <!-- $\Delta\alpha$ = 4.6° -->
    <g transform="translate(381.259218 58.31025) scale(0.08 -0.08)">
     <defs>
      <path id="ArialMT-34" d="M 2069 0 
L 2069 1097 
L 81 1097 
L 81 1613 
L 2172 4581 
L 2631 4581 
L 2631 1613 
L 3250 1613 
L 3250 1097 
L 2631 1097 
L 2631 0 
L 2069 0 
z
M 2069 1613 
L 2069 3678 
L 634 1613 
L 2069 1613 
z
" transform="scale(0.015625)"/>
     </defs>
     <use xlink:href="#DejaVuSans-394" transform="translate(0 0.09375)"/>
     <use xlink:href="#DejaVuSans-Oblique-3b1" transform="translate(68.408203 0.09375)"/>
     <use xlink:href="#ArialMT-20" transform="translate(134.326172 0.09375)"/>
     <use xlink:href="#ArialMT-3d" transform="translate(162.109375 0.09375)"/>
     <use xlink:href="#ArialMT-20" transform="translate(220.507812 0.09375)"/>
     <use xlink:href="#ArialMT-34" transform="translate(248.291016 0.09375)"/>
     <use xlink:href="#ArialMT-2e" transform="translate(303.90625 0.09375)"/>
     <use xlink:href="#ArialMT-36" transform="translate(331.689453 0.09375)"/>
     <use xlink:href="#ArialMT-b0" transform="translate(387.304688 0.09375)"/>
    </g>
   </g>
   <g id="patch_23">
    <path d="M 168.832535 72.5925 
Q 180.255226 72.5925 190.559882 72.5925 
" style="fill: none; stroke: #000000; stroke-linecap: round"/>
    <path d="M 185.759882 70.1925 
L 190.559882 72.5925 
L 185.759882 74.9925 
" style="fill: none; stroke: #000000; stroke-linecap: round"/>
   </g>
   <g id="patch_24">
    <path d="M 314.249788 72.5925 
Q 325.672478 72.5925 335.977135 72.5925 
" style="fill: none; stroke: #000000; stroke-linecap: round"/>
    <path d="M 331.177135 70.1925 
L 335.977135 72.5925 
L 331.177135 74.9925 
" style="fill: none; stroke: #000000; stroke-linecap: round"/>
   </g>
   <g id="text_22">
    <!-- Step 3: -->
    <g style="fill: #262626" transform="translate(382.535468 20.428125) scale(0.1 -0.1)">
     <defs>
      <path id="ArialMT-33" d="M 269 1209 
L 831 1284 
Q 928 806 1161 595 
Q 1394 384 1728 384 
Q 2125 384 2398 659 
Q 2672 934 2672 1341 
Q 2672 1728 2419 1979 
Q 2166 2231 1775 2231 
Q 1616 2231 1378 2169 
L 1441 2663 
Q 1497 2656 1531 2656 
Q 1891 2656 2178 2843 
Q 2466 3031 2466 3422 
Q 2466 3731 2256 3934 
Q 2047 4138 1716 4138 
Q 1388 4138 1169 3931 
Q 950 3725 888 3313 
L 325 3413 
Q 428 3978 793 4289 
Q 1159 4600 1703 4600 
Q 2078 4600 2393 4439 
Q 2709 4278 2876 4000 
Q 3044 3722 3044 3409 
Q 3044 3113 2884 2869 
Q 2725 2625 2413 2481 
Q 2819 2388 3044 2092 
Q 3269 1797 3269 1353 
Q 3269 753 2831 336 
Q 2394 -81 1725 -81 
Q 1122 -81 723 278 
Q 325 638 269 1209 
z
" transform="scale(0.015625)"/>
     </defs>
     <use xlink:href="#ArialMT-53"/>
     <use xlink:href="#ArialMT-74" x="66.699219"/>
     <use xlink:href="#ArialMT-65" x="94.482422"/>
     <use xlink:href="#ArialMT-70" x="150.097656"/>
     <use xlink:href="#ArialMT-20" x="205.712891"/>
     <use xlink:href="#ArialMT-33" x="233.496094"/>
     <use xlink:href="#ArialMT-3a" x="289.111328"/>
    </g>
    <!-- Normalized Airfoil -->
    <g style="fill: #262626" transform="translate(359.478437 31.005) scale(0.1 -0.1)">
     <defs>
      <path id="ArialMT-4e" d="M 488 0 
L 488 4581 
L 1109 4581 
L 3516 984 
L 3516 4581 
L 4097 4581 
L 4097 0 
L 3475 0 
L 1069 3600 
L 1069 0 
L 488 0 
z
" transform="scale(0.015625)"/>
      <path id="ArialMT-6d" d="M 422 0 
L 422 3319 
L 925 3319 
L 925 2853 
Q 1081 3097 1340 3245 
Q 1600 3394 1931 3394 
Q 2300 3394 2536 3241 
Q 2772 3088 2869 2813 
Q 3263 3394 3894 3394 
Q 4388 3394 4653 3120 
Q 4919 2847 4919 2278 
L 4919 0 
L 4359 0 
L 4359 2091 
Q 4359 2428 4304 2576 
Q 4250 2725 4106 2815 
Q 3963 2906 3769 2906 
Q 3419 2906 3187 2673 
Q 2956 2441 2956 1928 
L 2956 0 
L 2394 0 
L 2394 2156 
Q 2394 2531 2256 2718 
Q 2119 2906 1806 2906 
Q 1569 2906 1367 2781 
Q 1166 2656 1075 2415 
Q 984 2175 984 1722 
L 984 0 
L 422 0 
z
" transform="scale(0.015625)"/>
      <path id="ArialMT-7a" d="M 125 0 
L 125 456 
L 2238 2881 
Q 1878 2863 1603 2863 
L 250 2863 
L 250 3319 
L 2963 3319 
L 2963 2947 
L 1166 841 
L 819 456 
Q 1197 484 1528 484 
L 3063 484 
L 3063 0 
L 125 0 
z
" transform="scale(0.015625)"/>
     </defs>
     <use xlink:href="#ArialMT-4e"/>
     <use xlink:href="#ArialMT-6f" x="72.216797"/>
     <use xlink:href="#ArialMT-72" x="127.832031"/>
     <use xlink:href="#ArialMT-6d" x="161.132812"/>
     <use xlink:href="#ArialMT-61" x="244.433594"/>
     <use xlink:href="#ArialMT-6c" x="300.048828"/>
     <use xlink:href="#ArialMT-69" x="322.265625"/>
     <use xlink:href="#ArialMT-7a" x="344.482422"/>
     <use xlink:href="#ArialMT-65" x="394.482422"/>
     <use xlink:href="#ArialMT-64" x="450.097656"/>
     <use xlink:href="#ArialMT-20" x="505.712891"/>
     <use xlink:href="#ArialMT-41" x="527.996094"/>
     <use xlink:href="#ArialMT-69" x="594.695312"/>
     <use xlink:href="#ArialMT-72" x="616.912109"/>
     <use xlink:href="#ArialMT-66" x="650.212891"/>
     <use xlink:href="#ArialMT-6f" x="677.996094"/>
     <use xlink:href="#ArialMT-69" x="733.611328"/>
     <use xlink:href="#ArialMT-6c" x="755.828125"/>
    </g>
   </g>
  </g>
 </g>
 <defs>
  <clipPath id="p118772faea">
   <rect x="51.615" y="37.005" width="111.859425" height="71.175"/>
  </clipPath>
  <clipPath id="p0930189547">
   <rect x="197.032253" y="37.005" width="111.859425" height="71.175"/>
  </clipPath>
  <clipPath id="p5c52801047">
   <rect x="342.449505" y="37.005" width="111.859425" height="71.175"/>
  </clipPath>
 </defs>
</svg>
