<?xml version="1.0" encoding="utf-8" standalone="no"?>
<!DOCTYPE svg PUBLIC "-//W3C//DTD SVG 1.1//EN"
  "http://www.w3.org/Graphics/SVG/1.1/DTD/svg11.dtd">
<svg xmlns:xlink="http://www.w3.org/1999/xlink" width="396pt" height="360pt" viewBox="0 0 396 360" xmlns="http://www.w3.org/2000/svg" version="1.1">
 <metadata>
  <rdf:RDF xmlns:dc="http://purl.org/dc/elements/1.1/" xmlns:cc="http://creativecommons.org/ns#" xmlns:rdf="http://www.w3.org/1999/02/22-rdf-syntax-ns#">
   <cc:Work>
    <dc:type rdf:resource="http://purl.org/dc/dcmitype/StillImage"/>
    <dc:date>2023-12-04T23:07:34.093904</dc:date>
    <dc:format>image/svg+xml</dc:format>
    <dc:creator>
     <cc:Agent>
      <dc:title>Matplotlib v3.8.0, https://matplotlib.org/</dc:title>
     </cc:Agent>
    </dc:creator>
   </cc:Work>
  </rdf:RDF>
 </metadata>
 <defs>
  <style type="text/css">*{stroke-linejoin: round; stroke-linecap: butt}</style>
 </defs>
 <g id="figure_1">
  <g id="patch_1">
   <path d="M 0 360 
L 396 360 
L 396 0 
L 0 0 
z
" style="fill: #ffffff"/>
  </g>
  <g id="axes_1">
   <g id="patch_2">
    <path d="M 356.53729 138.464352 
L 352.25152 137.659649 
L 347.027431 136.683947 
L 340.009714 135.279465 
L 330.730114 133.270734 
L 321.014442 130.992775 
L 311.497321 128.594328 
L 301.98464 126.050312 
L 292.418342 123.369953 
L 282.770269 120.576051 
L 273.021019 117.695238 
L 263.207402 114.766896 
L 253.558696 111.918741 
L 244.114502 109.228554 
L 234.865025 106.759716 
L 225.769614 104.566765 
L 216.752235 102.686196 
L 207.728197 101.121147 
L 198.648925 99.851644 
L 189.509726 98.865605 
L 180.330575 98.161224 
L 171.129515 97.741259 
L 161.911618 97.609229 
L 152.687379 97.757842 
L 143.480897 98.182373 
L 134.315285 98.892906 
L 125.207698 99.88982 
L 116.175575 101.181011 
L 107.250338 102.775072 
L 98.475997 104.679897 
L 89.907786 106.902812 
L 81.612575 109.443467 
L 73.679813 112.300309 
L 66.226214 115.455899 
L 59.400169 118.867716 
L 53.40337 122.439435 
L 48.456214 126.003258 
L 44.693172 129.355624 
L 42.092083 132.333842 
L 40.506393 134.828204 
L 39.702736 136.833606 
L 39.46271 138.464352 
L 39.618679 139.569674 
L 40.100537 140.502634 
L 40.862531 141.251691 
L 42.026639 141.857114 
L 43.938186 142.388055 
L 47.254216 142.86484 
L 52.605832 143.185371 
L 60.039297 143.241525 
L 68.826258 143.050043 
L 78.331139 142.679161 
L 88.190256 142.189027 
L 98.243137 141.624698 
L 108.410482 141.017563 
L 118.648567 140.388551 
L 128.93231 139.751929 
L 139.217956 139.120094 
L 149.476333 138.502179 
L 159.709947 137.908679 
L 169.917909 137.343113 
L 180.102377 136.815564 
L 190.264966 136.329267 
L 200.401903 135.891165 
L 210.51468 135.514259 
L 220.611318 135.203303 
L 230.694289 134.962105 
L 240.76778 134.795768 
L 250.835849 134.70204 
L 260.900145 134.681272 
L 270.959336 134.731496 
L 281.006764 134.851826 
L 291.036467 135.048254 
L 301.048731 135.32525 
L 311.056841 135.687223 
L 321.129318 136.139878 
L 331.176143 136.6842 
L 340.047382 137.237939 
L 346.914457 137.719322 
L 352.188073 138.122926 
z
" clip-path="url(#p14f1861d07)" style="opacity: 0.2; stroke: #ffffff; stroke-linejoin: miter"/>
   </g>
   <g id="line2d_1">
    <path d="M 356.53729 138.446819 
L 353.70095 135.316484 
L 350.862045 132.498593 
L 347.904479 129.872543 
L 345.293418 127.795998 
L 342.352035 125.70555 
L 339.086926 123.6655 
L 335.505413 121.730937 
L 331.615528 119.944705 
L 327.425994 118.335256 
L 322.946208 116.915561 
L 318.186216 115.683207 
L 313.156692 114.621689 
L 307.868916 113.702793 
L 300.437398 112.635392 
L 286.468402 110.927384 
L 271.420123 109.038248 
L 257.801425 107.100557 
L 214.239743 100.62311 
L 204.255406 99.477045 
L 194.246133 98.56503 
L 184.251824 97.915734 
L 174.31232 97.541267 
L 164.467241 97.441967 
L 154.755834 97.6121 
L 145.216811 98.044753 
L 135.888197 98.734661 
L 126.807179 99.678532 
L 118.009956 100.873236 
L 109.531598 102.312904 
L 101.4059 103.986218 
L 93.665254 105.875029 
L 86.340518 107.954889 
L 79.460889 110.197344 
L 73.053792 112.57316 
L 67.144767 115.055254 
L 61.757369 117.620097 
L 58.072138 119.585459 
L 54.700712 121.576853 
L 51.650651 123.584257 
L 48.928795 125.595254 
L 46.541249 127.594042 
L 44.493367 129.560888 
L 42.789741 131.472233 
L 41.434192 133.301569 
L 40.429761 135.021113 
L 39.778698 136.604191 
L 39.482466 138.02808 
L 39.482466 138.862582 
L 39.640479 139.598569 
L 39.956349 140.253761 
L 40.429761 140.829509 
L 41.060241 141.328691 
L 42.29905 141.943168 
L 43.887036 142.412303 
L 45.820639 142.755902 
L 48.928795 143.053192 
L 53.647965 143.225118 
L 60.494587 143.218017 
L 70.0355 142.986332 
L 82.843308 142.462371 
L 101.4059 141.452565 
L 184.251824 136.613936 
L 206.755385 135.653584 
L 226.624486 135.051007 
L 243.646581 134.754654 
L 260.111803 134.673571 
L 277.990044 134.811895 
L 296.566593 135.20039 
L 313.156692 135.771289 
L 328.855233 136.538503 
L 343.368807 137.470219 
L 356.53729 138.481885 
L 356.53729 138.481885 
" clip-path="url(#p14f1861d07)" style="fill: none; stroke: #ffa500; stroke-opacity: 0.7; stroke-width: 1.5; stroke-linecap: round"/>
   </g>
   <g id="line2d_2">
    <path d="M 356.53729 138.446819 
L 354.565808 138.035488 
L 352.112964 137.290286 
L 349.458751 136.235512 
L 346.200779 134.653064 
L 342.352035 132.470025 
L 337.927862 129.669301 
L 331.615528 125.378607 
L 319.803368 117.281363 
L 313.156692 113.045898 
L 307.868916 109.947357 
L 302.334746 106.999489 
L 296.566593 104.265901 
L 292.597534 102.587661 
L 288.534179 101.037872 
L 284.380577 99.62426 
L 280.14087 98.351475 
L 275.819282 97.221263 
L 271.420123 96.232713 
L 264.685549 95.007811 
L 257.801425 94.074802 
L 250.783189 93.407372 
L 243.646581 92.974711 
L 236.407605 92.744024 
L 226.624486 92.694369 
L 216.727262 92.873862 
L 204.255406 93.327456 
L 189.244615 94.091242 
L 171.840657 95.177707 
L 154.755834 96.461586 
L 142.863463 97.548827 
L 131.314451 98.839582 
L 122.370873 100.056961 
L 113.728775 101.463544 
L 105.422607 103.071799 
L 97.48548 104.882049 
L 89.949032 106.882872 
L 82.843308 109.053719 
L 76.196632 111.36895 
L 70.0355 113.802033 
L 64.384472 116.328548 
L 59.266075 118.92697 
L 55.789172 120.910734 
L 52.631193 122.914046 
L 49.799221 124.92542 
L 47.299606 126.930271 
L 45.137955 128.910203 
L 43.319114 130.842876 
L 41.847163 132.702615 
L 40.725403 134.46183 
L 39.956349 136.093178 
L 39.541727 137.572287 
L 39.482466 138.862582 
L 39.640479 139.598569 
L 39.956349 140.253761 
L 40.429761 140.829509 
L 41.060241 141.328691 
L 42.29905 141.943168 
L 43.887036 142.412303 
L 45.820639 142.755902 
L 48.928795 143.053192 
L 53.647965 143.225118 
L 60.494587 143.218017 
L 70.0355 142.986332 
L 82.843308 142.462371 
L 101.4059 141.452565 
L 184.251824 136.613936 
L 206.755385 135.653584 
L 226.624486 135.051007 
L 243.646581 134.754654 
L 260.111803 134.673571 
L 277.990044 134.811895 
L 296.566593 135.20039 
L 313.156692 135.771289 
L 328.855233 136.538503 
L 343.368807 137.470219 
L 356.53729 138.481885 
L 356.53729 138.481885 
" clip-path="url(#p14f1861d07)" style="fill: none; stroke: #f1a812; stroke-opacity: 0.7; stroke-width: 1.5; stroke-linecap: round"/>
   </g>
   <g id="line2d_3">
    <path d="M 356.53729 138.446819 
L 350.862045 137.42031 
L 346.200779 136.362447 
L 342.352035 135.305681 
L 337.927862 133.864236 
L 334.242631 132.471265 
L 330.25186 130.766142 
L 325.9645 128.714759 
L 321.390164 126.293489 
L 316.539111 123.493449 
L 311.42222 120.324124 
L 304.206091 115.579567 
L 280.14087 99.376451 
L 273.629127 95.393993 
L 269.192821 92.874516 
L 264.685549 90.501948 
L 260.111803 88.306622 
L 255.476143 86.315531 
L 250.783189 84.551569 
L 246.03762 83.032904 
L 241.244166 81.772515 
L 236.407605 80.777902 
L 231.532759 80.05099 
L 226.624486 79.588224 
L 221.68768 79.380847 
L 216.727262 79.415359 
L 211.748176 79.674118 
L 206.755385 80.13607 
L 201.753867 80.777577 
L 194.246133 82.020802 
L 186.746817 83.522748 
L 176.789886 85.780853 
L 129.052223 97.082422 
L 109.531598 101.53603 
L 99.433407 104.066366 
L 91.793909 106.185682 
L 84.57778 108.40911 
L 77.813784 110.739225 
L 71.528886 113.168443 
L 65.74814 115.683763 
L 60.494587 118.269979 
L 56.913074 120.246157 
L 53.647965 122.244542 
L 50.706582 124.254831 
L 48.095521 126.26375 
L 45.820639 128.254293 
L 43.887036 130.205431 
L 42.29905 132.09249 
L 41.060241 133.888315 
L 40.173388 135.565201 
L 39.640479 137.097459 
L 39.46271 138.464352 
L 39.541727 139.240692 
L 39.778698 139.936219 
L 40.173388 140.551418 
L 40.725403 141.088439 
L 41.434192 141.550817 
L 42.789741 142.114744 
L 44.493367 142.539781 
L 47.299606 142.925164 
L 50.706582 143.145128 
L 55.789172 143.24522 
L 64.384472 143.145687 
L 76.196632 142.758012 
L 91.793909 142.002399 
L 115.85913 140.566547 
L 162.025335 137.774163 
L 186.746817 136.495364 
L 206.755385 135.653584 
L 226.624486 135.051007 
L 243.646581 134.754654 
L 260.111803 134.673571 
L 277.990044 134.811895 
L 296.566593 135.20039 
L 313.156692 135.771289 
L 328.855233 136.538503 
L 343.368807 137.470219 
L 356.53729 138.481885 
L 356.53729 138.481885 
" clip-path="url(#p14f1861d07)" style="fill: none; stroke: #e3ab24; stroke-opacity: 0.7; stroke-width: 1.5; stroke-linecap: round"/>
   </g>
   <g id="line2d_4">
    <path d="M 356.53729 138.446819 
L 349.458751 137.188211 
L 341.299288 135.501453 
L 334.242631 133.82594 
L 327.425994 131.961736 
L 321.390164 130.05862 
L 316.539111 128.32848 
L 311.42222 126.290306 
L 306.050968 123.902598 
L 300.437398 121.131323 
L 294.5941 117.955639 
L 288.534179 114.373519 
L 282.271225 110.406538 
L 273.629127 104.606329 
L 250.783189 88.951992 
L 243.646581 84.466766 
L 238.830974 81.666645 
L 233.974665 79.068123 
L 229.082496 76.710347 
L 224.159343 74.628123 
L 219.210114 72.850834 
L 214.239743 71.401534 
L 209.253183 70.296284 
L 204.255406 69.543746 
L 199.251393 69.145049 
L 194.246133 69.09393 
L 189.244615 69.377155 
L 184.251824 69.975164 
L 179.272738 70.862942 
L 174.31232 72.011041 
L 169.375514 73.386726 
L 164.467241 74.95517 
L 157.169026 77.591191 
L 149.96238 80.462398 
L 140.523857 84.46988 
L 113.728775 96.008892 
L 101.4059 100.992531 
L 73.053792 112.282453 
L 67.144767 114.923067 
L 61.757369 117.566363 
L 56.913074 120.227778 
L 53.647965 122.236932 
L 50.706582 124.252033 
L 48.095521 126.262864 
L 45.820639 128.254061 
L 43.887036 130.205384 
L 42.29905 132.092484 
L 41.060241 133.888314 
L 40.173388 135.565201 
L 39.640479 137.097459 
L 39.46271 138.464352 
L 39.541727 139.240692 
L 39.778698 139.936219 
L 40.173388 140.551418 
L 40.725403 141.088439 
L 41.434192 141.550817 
L 42.789741 142.114744 
L 44.493367 142.539781 
L 47.299606 142.925164 
L 50.706582 143.145128 
L 55.789172 143.24522 
L 64.384472 143.145687 
L 76.196632 142.758012 
L 91.793909 142.002399 
L 115.85913 140.566547 
L 162.025335 137.774163 
L 186.746817 136.495364 
L 206.755385 135.653584 
L 226.624486 135.051007 
L 243.646581 134.754654 
L 260.111803 134.673571 
L 277.990044 134.811895 
L 296.566593 135.20039 
L 313.156692 135.771289 
L 328.855233 136.538503 
L 343.368807 137.470219 
L 356.53729 138.481885 
L 356.53729 138.481885 
" clip-path="url(#p14f1861d07)" style="fill: none; stroke: #d5ae36; stroke-opacity: 0.7; stroke-width: 1.5; stroke-linecap: round"/>
   </g>
   <g id="line2d_5">
    <path d="M 356.53729 138.446819 
L 349.458751 137.190645 
L 340.210828 135.315504 
L 330.25186 133.090906 
L 321.390164 130.923006 
L 313.156692 128.694253 
L 306.050968 126.552041 
L 298.51452 124.007461 
L 292.597534 121.784537 
L 286.468402 119.254549 
L 280.14087 116.389832 
L 273.629127 113.172796 
L 266.947777 109.600093 
L 260.111803 105.686359 
L 253.136537 101.467083 
L 243.646581 95.469571 
L 224.159343 83.020465 
L 216.727262 78.558293 
L 211.748176 75.753374 
L 206.755385 73.131566 
L 201.753867 70.731905 
L 196.748607 68.591 
L 191.744594 66.742025 
L 186.746817 65.213785 
L 181.760257 64.029884 
L 176.789886 63.208044 
L 171.840657 62.759583 
L 166.917504 62.689082 
L 162.025335 62.994255 
L 157.169026 63.666025 
L 152.353419 64.688812 
L 147.583313 66.041009 
L 142.863463 67.695647 
L 138.198575 69.621208 
L 133.593298 71.782568 
L 129.052223 74.14203 
L 124.579877 76.66041 
L 118.009956 80.649539 
L 109.531598 86.163739 
L 81.137536 105.107385 
L 71.528886 111.042754 
L 55.789172 120.646809 
L 51.650651 123.482678 
L 48.095521 126.231572 
L 45.820639 128.242846 
L 43.887036 130.202111 
L 42.29905 132.091772 
L 41.060241 133.888217 
L 40.173388 135.565195 
L 39.640479 137.097459 
L 39.46271 138.464352 
L 39.541727 139.240692 
L 39.778698 139.936219 
L 40.173388 140.551418 
L 40.725403 141.088439 
L 41.434192 141.550817 
L 42.789741 142.114744 
L 44.493367 142.539781 
L 47.299606 142.925164 
L 50.706582 143.145128 
L 55.789172 143.24522 
L 64.384472 143.145687 
L 76.196632 142.758012 
L 91.793909 142.002399 
L 115.85913 140.566547 
L 162.025335 137.774163 
L 186.746817 136.495364 
L 206.755385 135.653584 
L 226.624486 135.051007 
L 243.646581 134.754654 
L 260.111803 134.673571 
L 277.990044 134.811895 
L 296.566593 135.20039 
L 313.156692 135.771289 
L 328.855233 136.538503 
L 343.368807 137.470219 
L 356.53729 138.481885 
L 356.53729 138.481885 
" clip-path="url(#p14f1861d07)" style="fill: none; stroke: #c7b148; stroke-opacity: 0.7; stroke-width: 1.5; stroke-linecap: round"/>
   </g>
   <g id="line2d_6">
    <path d="M 356.53729 138.446819 
L 349.458751 137.190701 
L 340.210828 135.318734 
L 328.855233 132.800819 
L 316.539111 129.841176 
L 306.050968 127.100679 
L 296.566593 124.407671 
L 286.468402 121.279568 
L 277.990044 118.424719 
L 269.192821 115.228928 
L 260.111803 111.673366 
L 250.783189 107.748018 
L 241.244166 103.454706 
L 231.532759 98.811604 
L 221.68768 93.859691 
L 209.253183 87.348666 
L 186.746817 75.504924 
L 179.272738 71.828006 
L 171.840657 68.459119 
L 166.917504 66.441792 
L 162.025335 64.648289 
L 157.169026 63.113026 
L 152.353419 61.868691 
L 147.583313 60.94517 
L 142.863463 60.368465 
L 138.198575 60.159666 
L 133.593298 60.334009 
L 129.052223 60.900087 
L 124.579877 61.85925 
L 120.180718 63.205237 
L 115.85913 64.924063 
L 111.619423 66.994192 
L 107.465821 69.386996 
L 103.402466 72.067481 
L 99.433407 74.995276 
L 95.562602 78.125837 
L 91.793909 81.411818 
L 86.340518 86.52576 
L 81.137536 91.718169 
L 73.053792 100.149923 
L 60.494587 113.273384 
L 52.631193 121.099434 
L 45.820639 127.91857 
L 43.319114 130.74194 
L 41.847163 132.671406 
L 40.725403 134.455324 
L 39.956349 136.092548 
L 39.541727 137.572281 
L 39.482466 138.862582 
L 39.640479 139.598569 
L 39.956349 140.253761 
L 40.429761 140.829509 
L 41.060241 141.328691 
L 42.29905 141.943168 
L 43.887036 142.412303 
L 45.820639 142.755902 
L 48.928795 143.053192 
L 53.647965 143.225118 
L 60.494587 143.218017 
L 70.0355 142.986332 
L 82.843308 142.462371 
L 101.4059 141.452565 
L 184.251824 136.613936 
L 206.755385 135.653584 
L 226.624486 135.051007 
L 243.646581 134.754654 
L 260.111803 134.673571 
L 277.990044 134.811895 
L 296.566593 135.20039 
L 313.156692 135.771289 
L 328.855233 136.538503 
L 343.368807 137.470219 
L 356.53729 138.481885 
L 356.53729 138.481885 
" clip-path="url(#p14f1861d07)" style="fill: none; stroke: #b9b35a; stroke-opacity: 0.7; stroke-width: 1.5; stroke-linecap: round"/>
   </g>
   <g id="line2d_7">
    <path d="M 356.53729 138.446819 
L 349.458751 137.190702 
L 340.210828 135.31884 
L 328.855233 132.803091 
L 316.539111 129.859408 
L 304.206091 126.674066 
L 292.597534 123.445524 
L 280.14087 119.754249 
L 262.406702 114.220416 
L 199.251393 94.042623 
L 186.746817 89.72064 
L 176.789886 86.044004 
L 166.917504 82.170959 
L 154.755834 77.143083 
L 138.198575 70.257964 
L 131.314451 67.623528 
L 126.807179 66.060021 
L 122.370873 64.69531 
L 118.009956 63.567832 
L 113.728775 62.714925 
L 109.531598 62.171591 
L 105.422607 61.969257 
L 101.4059 62.1346 
L 97.48548 62.688451 
L 93.665254 63.644861 
L 89.949032 65.010337 
L 86.340518 66.783294 
L 82.843308 68.953759 
L 79.460889 71.503322 
L 76.196632 74.405361 
L 73.053792 77.625537 
L 70.0355 81.122539 
L 67.144767 84.849063 
L 64.384472 88.753006 
L 61.757369 92.778822 
L 58.072138 98.920132 
L 54.700712 105.012195 
L 50.706582 112.743476 
L 45.820639 122.785238 
L 41.434192 132.259862 
L 40.173388 135.333352 
L 39.640479 137.06811 
L 39.46271 138.464352 
L 39.541727 139.240692 
L 39.778698 139.936219 
L 40.173388 140.551418 
L 40.725403 141.088439 
L 41.434192 141.550817 
L 42.789741 142.114744 
L 44.493367 142.539781 
L 47.299606 142.925164 
L 50.706582 143.145128 
L 55.789172 143.24522 
L 64.384472 143.145687 
L 76.196632 142.758012 
L 91.793909 142.002399 
L 115.85913 140.566547 
L 162.025335 137.774163 
L 186.746817 136.495364 
L 206.755385 135.653584 
L 226.624486 135.051007 
L 243.646581 134.754654 
L 260.111803 134.673571 
L 277.990044 134.811895 
L 296.566593 135.20039 
L 313.156692 135.771289 
L 328.855233 136.538503 
L 343.368807 137.470219 
L 356.53729 138.481885 
L 356.53729 138.481885 
" clip-path="url(#p14f1861d07)" style="fill: none; stroke: #abb66c; stroke-opacity: 0.7; stroke-width: 1.5; stroke-linecap: round"/>
   </g>
   <g id="line2d_8">
    <path d="M 356.53729 138.446819 
L 349.458751 137.190702 
L 340.210828 135.318842 
L 328.855233 132.803165 
L 316.539111 129.860311 
L 304.206091 126.679556 
L 292.597534 123.466219 
L 277.990044 119.176154 
L 246.03762 109.677648 
L 236.407605 107.056724 
L 226.624486 104.609746 
L 216.727262 102.386681 
L 206.755385 100.410359 
L 196.748607 98.672022 
L 184.251824 96.769775 
L 149.96238 91.796512 
L 140.523857 90.091862 
L 133.593298 88.650633 
L 126.807179 87.055859 
L 120.180718 85.307932 
L 113.728775 83.420926 
L 105.422607 80.740883 
L 95.562602 77.294098 
L 84.57778 73.467987 
L 79.460889 71.9056 
L 76.196632 71.069764 
L 73.053792 70.440059 
L 70.0355 70.052737 
L 67.144767 69.943792 
L 64.384472 70.1481 
L 61.757369 70.698487 
L 59.266075 71.624763 
L 56.913074 72.952737 
L 54.700712 74.703257 
L 52.631193 76.891307 
L 50.706582 79.525195 
L 48.928795 82.605882 
L 47.299606 86.126467 
L 45.820639 90.071884 
L 44.493367 94.418806 
L 43.319114 99.135799 
L 42.29905 104.183719 
L 41.434192 109.516352 
L 40.725403 115.081288 
L 40.173388 120.821005 
L 39.778698 126.674131 
L 39.541727 132.576841 
L 39.482466 138.862582 
L 39.640479 139.598569 
L 39.956349 140.253761 
L 40.429761 140.829509 
L 41.060241 141.328691 
L 42.29905 141.943168 
L 43.887036 142.412303 
L 45.820639 142.755902 
L 48.928795 143.053192 
L 53.647965 143.225118 
L 60.494587 143.218017 
L 70.0355 142.986332 
L 82.843308 142.462371 
L 101.4059 141.452565 
L 184.251824 136.613936 
L 206.755385 135.653584 
L 226.624486 135.051007 
L 243.646581 134.754654 
L 260.111803 134.673571 
L 277.990044 134.811895 
L 296.566593 135.20039 
L 313.156692 135.771289 
L 328.855233 136.538503 
L 343.368807 137.470219 
L 356.53729 138.481885 
L 356.53729 138.481885 
" clip-path="url(#p14f1861d07)" style="fill: none; stroke: #9db97e; stroke-opacity: 0.7; stroke-width: 1.5; stroke-linecap: round"/>
   </g>
   <g id="line2d_9">
    <path d="M 356.53729 138.446819 
L 349.458751 137.190702 
L 340.210828 135.318842 
L 328.855233 132.803166 
L 316.539111 129.86033 
L 304.206091 126.679715 
L 292.597534 123.466993 
L 277.990044 119.180055 
L 248.416687 110.399305 
L 238.830974 107.788772 
L 229.082496 105.369179 
L 221.68768 103.725359 
L 214.239743 102.256611 
L 206.755385 100.981447 
L 199.251393 99.911227 
L 191.744594 99.050465 
L 184.251824 98.397745 
L 176.789886 97.947115 
L 169.375514 97.68972 
L 162.025335 97.615448 
L 154.755834 97.714358 
L 145.216811 98.100788 
L 135.888197 98.763932 
L 126.807179 99.693045 
L 118.009956 100.880033 
L 109.531598 102.315893 
L 101.4059 103.987443 
L 93.665254 105.875493 
L 86.340518 107.95505 
L 79.460889 110.197394 
L 73.053792 112.573174 
L 67.144767 115.055257 
L 61.757369 117.620097 
L 58.072138 119.58546 
L 54.700712 121.576853 
L 51.650651 123.584257 
L 48.928795 125.595254 
L 46.541249 127.594042 
L 44.493367 129.560888 
L 42.789741 131.472233 
L 41.434192 133.301569 
L 40.429761 135.021113 
L 39.778698 136.604191 
L 39.482466 138.02808 
L 39.46271 138.464352 
L 39.541727 144.236138 
L 39.778698 149.866279 
L 40.173388 155.295614 
L 40.725403 160.468981 
L 41.434192 165.336034 
L 42.29905 169.851939 
L 43.319114 173.977952 
L 44.493367 177.681863 
L 45.820639 180.938313 
L 47.299606 183.728968 
L 48.928795 186.042564 
L 50.706582 187.874827 
L 51.650651 188.610983 
L 52.631193 189.228259 
L 53.647965 189.727973 
L 54.700712 190.111823 
L 55.789172 190.381868 
L 56.913074 190.540512 
L 59.266075 190.534829 
L 61.757369 190.120191 
L 64.384472 189.32626 
L 67.144767 188.186231 
L 70.0355 186.736081 
L 73.053792 185.0138 
L 77.813784 182.006119 
L 84.57778 177.411748 
L 97.48548 168.608879 
L 103.402466 164.82907 
L 109.531598 161.176358 
L 115.85913 157.718725 
L 122.370873 154.506262 
L 129.052223 151.571841 
L 135.888197 148.932604 
L 142.863463 146.592077 
L 149.96238 144.542702 
L 157.169026 142.768555 
L 164.467241 141.24803 
L 171.840657 139.956325 
L 179.272738 138.867558 
L 186.746817 137.956443 
L 196.748607 136.977707 
L 206.755385 136.224671 
L 219.210114 135.540854 
L 231.532759 135.087768 
L 246.03762 134.785953 
L 262.406702 134.694338 
L 280.14087 134.847217 
L 296.566593 135.200858 
L 313.156692 135.771325 
L 328.855233 136.538504 
L 343.368807 137.470219 
L 356.53729 138.481885 
L 356.53729 138.481885 
" clip-path="url(#p14f1861d07)" style="fill: none; stroke: #80b69d; stroke-opacity: 0.7; stroke-width: 1.5; stroke-linecap: round"/>
   </g>
   <g id="line2d_10">
    <path d="M 356.53729 138.446819 
L 349.458751 137.190702 
L 340.210828 135.318842 
L 328.855233 132.803166 
L 316.539111 129.86033 
L 304.206091 126.679715 
L 292.597534 123.466993 
L 277.990044 119.180055 
L 248.416687 110.399305 
L 238.830974 107.788772 
L 229.082496 105.369179 
L 221.68768 103.725359 
L 214.239743 102.256611 
L 206.755385 100.981447 
L 199.251393 99.911227 
L 191.744594 99.050465 
L 184.251824 98.397745 
L 176.789886 97.947115 
L 169.375514 97.68972 
L 162.025335 97.615448 
L 154.755834 97.714358 
L 145.216811 98.100788 
L 135.888197 98.763932 
L 126.807179 99.693045 
L 118.009956 100.880033 
L 109.531598 102.315893 
L 101.4059 103.987443 
L 93.665254 105.875493 
L 86.340518 107.95505 
L 79.460889 110.197394 
L 73.053792 112.573174 
L 67.144767 115.055257 
L 61.757369 117.620097 
L 58.072138 119.58546 
L 54.700712 121.576853 
L 51.650651 123.584257 
L 48.928795 125.595254 
L 46.541249 127.594042 
L 44.493367 129.560888 
L 42.789741 131.472233 
L 41.434192 133.301569 
L 40.429761 135.021113 
L 39.778698 136.604191 
L 39.482466 138.02808 
L 39.482466 138.863673 
L 39.640479 139.627918 
L 40.173388 140.783267 
L 41.060241 142.09488 
L 45.137955 147.337753 
L 56.913074 162.527555 
L 60.494587 166.670289 
L 63.054105 169.392479 
L 65.74814 172.019729 
L 68.574006 174.498566 
L 71.528886 176.778095 
L 74.609836 178.811617 
L 77.813784 180.558034 
L 81.137536 181.983027 
L 84.57778 183.059942 
L 88.131084 183.770389 
L 91.793909 184.104537 
L 95.562602 184.061106 
L 99.433407 183.64708 
L 103.402466 182.877167 
L 107.465821 181.773034 
L 111.619423 180.362375 
L 115.85913 178.677836 
L 120.180718 176.755861 
L 126.807179 173.513565 
L 135.888197 168.732869 
L 152.353419 159.980175 
L 159.592395 156.372728 
L 166.917504 152.978681 
L 174.31232 149.858591 
L 181.760257 147.052457 
L 189.244615 144.581312 
L 196.748607 142.449682 
L 204.255406 140.648573 
L 211.748176 139.158667 
L 219.210114 137.95345 
L 226.624486 137.002094 
L 233.974665 136.271925 
L 243.646581 135.586469 
L 253.136537 135.16476 
L 264.685549 134.914289 
L 277.990044 134.894806 
L 292.597534 135.117586 
L 307.868916 135.567992 
L 322.946208 136.22168 
L 337.927862 137.095599 
L 353.70095 138.254329 
L 356.53729 138.481885 
L 356.53729 138.481885 
" clip-path="url(#p14f1861d07)" style="fill: none; stroke: #72b1ac; stroke-opacity: 0.7; stroke-width: 1.5; stroke-linecap: round"/>
   </g>
   <g id="line2d_11">
    <path d="M 356.53729 138.446819 
L 349.458751 137.190702 
L 340.210828 135.318842 
L 328.855233 132.803166 
L 316.539111 129.86033 
L 304.206091 126.679715 
L 292.597534 123.466993 
L 277.990044 119.180055 
L 248.416687 110.399305 
L 238.830974 107.788772 
L 229.082496 105.369179 
L 221.68768 103.725359 
L 214.239743 102.256611 
L 206.755385 100.981447 
L 199.251393 99.911227 
L 191.744594 99.050465 
L 184.251824 98.397745 
L 176.789886 97.947115 
L 169.375514 97.68972 
L 162.025335 97.615448 
L 154.755834 97.714358 
L 145.216811 98.100788 
L 135.888197 98.763932 
L 126.807179 99.693045 
L 118.009956 100.880033 
L 109.531598 102.315893 
L 101.4059 103.987443 
L 93.665254 105.875493 
L 86.340518 107.95505 
L 79.460889 110.197394 
L 73.053792 112.573174 
L 67.144767 115.055257 
L 61.757369 117.620097 
L 58.072138 119.58546 
L 54.700712 121.576853 
L 51.650651 123.584257 
L 48.928795 125.595254 
L 46.541249 127.594042 
L 44.493367 129.560888 
L 42.789741 131.472233 
L 41.434192 133.301569 
L 40.429761 135.021113 
L 39.778698 136.604191 
L 39.482466 138.02808 
L 39.482466 138.862582 
L 39.640479 139.598618 
L 39.956349 140.254392 
L 40.429761 140.832867 
L 41.060241 141.340331 
L 42.29905 141.990916 
L 43.887036 142.553063 
L 48.095521 143.684124 
L 51.650651 144.703639 
L 54.700712 145.746992 
L 58.072138 147.10761 
L 61.757369 148.834932 
L 65.74814 150.951528 
L 70.0355 153.448227 
L 76.196632 157.288941 
L 88.131084 164.812142 
L 93.665254 168.022204 
L 97.48548 170.050001 
L 101.4059 171.936841 
L 105.422607 173.640845 
L 109.531598 175.123365 
L 113.728775 176.350218 
L 118.009956 177.292748 
L 122.370873 177.928696 
L 126.807179 178.242842 
L 131.314451 178.227393 
L 135.888197 177.882116 
L 140.523857 177.214214 
L 145.216811 176.237962 
L 149.96238 174.974114 
L 154.755834 173.449124 
L 159.592395 171.694205 
L 166.917504 168.707848 
L 174.31232 165.410914 
L 204.255406 151.659706 
L 211.748176 148.616622 
L 219.210114 145.879458 
L 226.624486 143.48364 
L 233.974665 141.443595 
L 241.244166 139.755484 
L 248.416687 138.400778 
L 255.476143 137.350247 
L 262.406702 136.567953 
L 269.192821 136.014922 
L 277.990044 135.56723 
L 286.468402 135.373398 
L 296.566593 135.380864 
L 307.868916 135.62193 
L 321.390164 136.152934 
L 335.505413 136.938939 
L 350.862045 138.03086 
L 356.53729 138.481885 
L 356.53729 138.481885 
" clip-path="url(#p14f1861d07)" style="fill: none; stroke: #64abba; stroke-opacity: 0.7; stroke-width: 1.5; stroke-linecap: round"/>
   </g>
   <g id="line2d_12">
    <path d="M 356.53729 138.446819 
L 349.458751 137.190702 
L 340.210828 135.318842 
L 328.855233 132.803166 
L 316.539111 129.86033 
L 304.206091 126.679715 
L 292.597534 123.466993 
L 277.990044 119.180055 
L 248.416687 110.399305 
L 238.830974 107.788772 
L 229.082496 105.369179 
L 221.68768 103.725359 
L 214.239743 102.256611 
L 206.755385 100.981447 
L 199.251393 99.911227 
L 191.744594 99.050465 
L 184.251824 98.397745 
L 176.789886 97.947115 
L 169.375514 97.68972 
L 162.025335 97.615448 
L 154.755834 97.714358 
L 145.216811 98.100788 
L 135.888197 98.763932 
L 126.807179 99.693045 
L 118.009956 100.880033 
L 109.531598 102.315893 
L 101.4059 103.987443 
L 93.665254 105.875493 
L 86.340518 107.95505 
L 79.460889 110.197394 
L 73.053792 112.573174 
L 67.144767 115.055257 
L 61.757369 117.620097 
L 58.072138 119.58546 
L 54.700712 121.576853 
L 51.650651 123.584257 
L 48.928795 125.595254 
L 46.541249 127.594042 
L 44.493367 129.560888 
L 42.789741 131.472233 
L 41.434192 133.301569 
L 40.429761 135.021113 
L 39.778698 136.604191 
L 39.482466 138.02808 
L 39.482466 138.862582 
L 39.640479 139.598569 
L 39.956349 140.253763 
L 40.429761 140.829526 
L 41.060241 141.328789 
L 42.29905 141.943886 
L 43.887036 142.415623 
L 45.820639 142.767351 
L 48.928795 143.097039 
L 55.789172 143.509154 
L 63.054105 144.021486 
L 68.574006 144.640613 
L 73.053792 145.334152 
L 77.813784 146.274994 
L 82.843308 147.499904 
L 88.131084 149.032096 
L 93.665254 150.87649 
L 99.433407 153.015836 
L 107.465821 156.251212 
L 126.807179 164.189753 
L 133.593298 166.647144 
L 138.198575 168.126219 
L 142.863463 169.436297 
L 147.583313 170.544618 
L 152.353419 171.42229 
L 157.169026 172.045298 
L 162.025335 172.395356 
L 166.917504 172.460558 
L 171.840657 172.235785 
L 176.789886 171.72288 
L 181.760257 170.930559 
L 186.746817 169.874073 
L 191.744594 168.574651 
L 196.748607 167.05873 
L 201.753867 165.357022 
L 209.253183 162.530952 
L 219.210114 158.443727 
L 238.830974 150.239177 
L 246.03762 147.46336 
L 253.136537 144.965827 
L 260.111803 142.788301 
L 266.947777 140.950459 
L 273.629127 139.452307 
L 280.14087 138.277688 
L 286.468402 137.398418 
L 292.597534 136.778574 
L 298.51452 136.378482 
L 306.050968 136.117941 
L 313.156692 136.089169 
L 321.390164 136.266833 
L 331.615528 136.723914 
L 344.349349 137.541613 
L 356.53729 138.481885 
L 356.53729 138.481885 
" clip-path="url(#p14f1861d07)" style="fill: none; stroke: #56a6c8; stroke-opacity: 0.7; stroke-width: 1.5; stroke-linecap: round"/>
   </g>
   <g id="line2d_13">
    <path d="M 356.53729 138.446819 
L 349.458751 137.190702 
L 340.210828 135.318842 
L 328.855233 132.803166 
L 316.539111 129.86033 
L 304.206091 126.679715 
L 292.597534 123.466993 
L 277.990044 119.180055 
L 248.416687 110.399305 
L 238.830974 107.788772 
L 229.082496 105.369179 
L 221.68768 103.725359 
L 214.239743 102.256611 
L 206.755385 100.981447 
L 199.251393 99.911227 
L 191.744594 99.050465 
L 184.251824 98.397745 
L 176.789886 97.947115 
L 169.375514 97.68972 
L 162.025335 97.615448 
L 154.755834 97.714358 
L 145.216811 98.100788 
L 135.888197 98.763932 
L 126.807179 99.693045 
L 118.009956 100.880033 
L 109.531598 102.315893 
L 101.4059 103.987443 
L 93.665254 105.875493 
L 86.340518 107.95505 
L 79.460889 110.197394 
L 73.053792 112.573174 
L 67.144767 115.055257 
L 61.757369 117.620097 
L 58.072138 119.58546 
L 54.700712 121.576853 
L 51.650651 123.584257 
L 48.928795 125.595254 
L 46.541249 127.594042 
L 44.493367 129.560888 
L 42.789741 131.472233 
L 41.434192 133.301569 
L 40.429761 135.021113 
L 39.778698 136.604191 
L 39.482466 138.02808 
L 39.482466 138.862582 
L 39.640479 139.598569 
L 39.956349 140.253761 
L 40.429761 140.829509 
L 41.060241 141.328692 
L 42.29905 141.943174 
L 43.887036 142.41235 
L 45.820639 142.756136 
L 48.928795 143.054541 
L 53.647965 143.232948 
L 61.757369 143.252315 
L 79.460889 143.200509 
L 88.131084 143.437144 
L 95.562602 143.891713 
L 101.4059 144.447477 
L 107.465821 145.227025 
L 113.728775 146.258171 
L 120.180718 147.556828 
L 126.807179 149.123018 
L 133.593298 150.937759 
L 142.863463 153.672345 
L 166.917504 161.000562 
L 174.31232 162.940616 
L 179.272738 164.070743 
L 184.251824 165.036517 
L 189.244615 165.812241 
L 194.246133 166.3761 
L 199.251393 166.710934 
L 204.255406 166.804871 
L 209.253183 166.651765 
L 214.239743 166.251437 
L 219.210114 165.609705 
L 224.159343 164.738197 
L 229.082496 163.653957 
L 233.974665 162.378865 
L 238.830974 160.938893 
L 246.03762 158.534294 
L 253.136537 155.931904 
L 282.271225 144.930168 
L 288.534179 142.925247 
L 294.5941 141.225207 
L 300.437398 139.841569 
L 306.050968 138.767383 
L 311.42222 137.980658 
L 316.539111 137.448462 
L 321.390164 137.13122 
L 327.425994 136.969777 
L 334.242631 137.054355 
L 342.352035 137.434174 
L 353.210259 138.215485 
L 356.53729 138.481885 
L 356.53729 138.481885 
" clip-path="url(#p14f1861d07)" style="fill: none; stroke: #48a0d6; stroke-opacity: 0.7; stroke-width: 1.5; stroke-linecap: round"/>
   </g>
   <g id="line2d_14">
    <path d="M 356.53729 138.446819 
L 349.458751 137.190702 
L 340.210828 135.318842 
L 328.855233 132.803166 
L 316.539111 129.86033 
L 304.206091 126.679715 
L 292.597534 123.466993 
L 277.990044 119.180055 
L 248.416687 110.399305 
L 238.830974 107.788772 
L 229.082496 105.369179 
L 221.68768 103.725359 
L 214.239743 102.256611 
L 206.755385 100.981447 
L 199.251393 99.911227 
L 191.744594 99.050465 
L 184.251824 98.397745 
L 176.789886 97.947115 
L 169.375514 97.68972 
L 162.025335 97.615448 
L 154.755834 97.714358 
L 145.216811 98.100788 
L 135.888197 98.763932 
L 126.807179 99.693045 
L 118.009956 100.880033 
L 109.531598 102.315893 
L 101.4059 103.987443 
L 93.665254 105.875493 
L 86.340518 107.95505 
L 79.460889 110.197394 
L 73.053792 112.573174 
L 67.144767 115.055257 
L 61.757369 117.620097 
L 58.072138 119.58546 
L 54.700712 121.576853 
L 51.650651 123.584257 
L 48.928795 125.595254 
L 46.541249 127.594042 
L 44.493367 129.560888 
L 42.789741 131.472233 
L 41.434192 133.301569 
L 40.429761 135.021113 
L 39.778698 136.604191 
L 39.482466 138.02808 
L 39.482466 138.862582 
L 39.640479 139.598569 
L 39.956349 140.253761 
L 40.429761 140.829509 
L 41.060241 141.328691 
L 42.29905 141.943168 
L 43.887036 142.412303 
L 45.820639 142.755905 
L 48.928795 143.053217 
L 53.647965 143.225338 
L 60.494587 143.219809 
L 71.528886 142.951916 
L 111.619423 141.724148 
L 120.180718 141.783666 
L 129.052223 142.094174 
L 135.888197 142.535051 
L 142.863463 143.182651 
L 149.96238 144.054704 
L 157.169026 145.1587 
L 164.467241 146.489409 
L 171.840657 148.026982 
L 181.760257 150.335236 
L 211.748176 157.613346 
L 219.210114 159.091659 
L 226.624486 160.265999 
L 231.532759 160.844591 
L 236.407605 161.239477 
L 241.244166 161.437675 
L 246.03762 161.430697 
L 250.783189 161.214927 
L 255.476143 160.791838 
L 260.111803 160.168037 
L 264.685549 159.355117 
L 269.192821 158.369335 
L 273.629127 157.23111 
L 280.14087 155.291069 
L 286.468402 153.153894 
L 294.5941 150.167807 
L 309.659482 144.557706 
L 316.539111 142.283493 
L 321.390164 140.89635 
L 325.9645 139.796488 
L 330.25186 138.975539 
L 334.242631 138.40903 
L 339.086926 137.985921 
L 343.368807 137.84795 
L 347.904479 137.919442 
L 353.70095 138.258865 
L 356.53729 138.481885 
L 356.53729 138.481885 
" clip-path="url(#p14f1861d07)" style="fill: none; stroke: #399be4; stroke-opacity: 0.7; stroke-width: 1.5; stroke-linecap: round"/>
   </g>
   <g id="line2d_15">
    <path d="M 356.53729 138.446819 
L 349.458751 137.190702 
L 340.210828 135.318842 
L 328.855233 132.803166 
L 316.539111 129.86033 
L 304.206091 126.679715 
L 292.597534 123.466993 
L 277.990044 119.180055 
L 248.416687 110.399305 
L 238.830974 107.788772 
L 229.082496 105.369179 
L 221.68768 103.725359 
L 214.239743 102.256611 
L 206.755385 100.981447 
L 199.251393 99.911227 
L 191.744594 99.050465 
L 184.251824 98.397745 
L 176.789886 97.947115 
L 169.375514 97.68972 
L 162.025335 97.615448 
L 154.755834 97.714358 
L 145.216811 98.100788 
L 135.888197 98.763932 
L 126.807179 99.693045 
L 118.009956 100.880033 
L 109.531598 102.315893 
L 101.4059 103.987443 
L 93.665254 105.875493 
L 86.340518 107.95505 
L 79.460889 110.197394 
L 73.053792 112.573174 
L 67.144767 115.055257 
L 61.757369 117.620097 
L 58.072138 119.58546 
L 54.700712 121.576853 
L 51.650651 123.584257 
L 48.928795 125.595254 
L 46.541249 127.594042 
L 44.493367 129.560888 
L 42.789741 131.472233 
L 41.434192 133.301569 
L 40.429761 135.021113 
L 39.778698 136.604191 
L 39.482466 138.02808 
L 39.482466 138.862582 
L 39.640479 139.598569 
L 39.956349 140.253761 
L 40.429761 140.829509 
L 41.060241 141.328691 
L 42.29905 141.943168 
L 43.887036 142.412303 
L 45.820639 142.755902 
L 48.928795 143.053192 
L 53.647965 143.225122 
L 60.494587 143.218059 
L 70.0355 142.986785 
L 82.843308 142.466382 
L 103.402466 141.376002 
L 126.807179 140.147751 
L 140.523857 139.642393 
L 152.353419 139.445533 
L 162.025335 139.5064 
L 171.840657 139.817661 
L 179.272738 140.243867 
L 186.746817 140.852762 
L 194.246133 141.6537 
L 201.753867 142.647962 
L 209.253183 143.826865 
L 219.210114 145.649445 
L 231.532759 148.209336 
L 253.136537 152.830732 
L 260.111803 154.119781 
L 266.947777 155.16799 
L 273.629127 155.91567 
L 277.990044 156.223404 
L 282.271225 156.366616 
L 286.468402 156.339283 
L 290.577393 156.139474 
L 294.5941 155.769517 
L 298.51452 155.236026 
L 302.334746 154.549771 
L 307.868916 153.266941 
L 313.156692 151.737524 
L 318.186216 150.037798 
L 324.471114 147.651435 
L 340.210828 141.422593 
L 344.349349 140.082637 
L 347.904479 139.179033 
L 350.862045 138.663157 
L 353.70095 138.421857 
L 356.221302 138.458558 
L 356.53729 138.481885 
L 356.53729 138.481885 
" clip-path="url(#p14f1861d07)" style="fill: none; stroke: #2b95f2; stroke-opacity: 0.7; stroke-width: 1.5; stroke-linecap: round"/>
   </g>
   <g id="line2d_16">
    <path d="M 356.53729 138.446819 
L 349.458751 137.190702 
L 340.210828 135.318842 
L 328.855233 132.803166 
L 316.539111 129.86033 
L 304.206091 126.679715 
L 292.597534 123.466993 
L 277.990044 119.180055 
L 248.416687 110.399305 
L 238.830974 107.788772 
L 229.082496 105.369179 
L 221.68768 103.725359 
L 214.239743 102.256611 
L 206.755385 100.981447 
L 199.251393 99.911227 
L 191.744594 99.050465 
L 184.251824 98.397745 
L 176.789886 97.947115 
L 169.375514 97.68972 
L 162.025335 97.615448 
L 154.755834 97.714358 
L 145.216811 98.100788 
L 135.888197 98.763932 
L 126.807179 99.693045 
L 118.009956 100.880033 
L 109.531598 102.315893 
L 101.4059 103.987443 
L 93.665254 105.875493 
L 86.340518 107.95505 
L 79.460889 110.197394 
L 73.053792 112.573174 
L 67.144767 115.055257 
L 61.757369 117.620097 
L 58.072138 119.58546 
L 54.700712 121.576853 
L 51.650651 123.584257 
L 48.928795 125.595254 
L 46.541249 127.594042 
L 44.493367 129.560888 
L 42.789741 131.472233 
L 41.434192 133.301569 
L 40.429761 135.021113 
L 39.778698 136.604191 
L 39.482466 138.02808 
L 39.482466 138.862582 
L 39.640479 139.598569 
L 39.956349 140.253761 
L 40.429761 140.829509 
L 41.060241 141.328691 
L 42.29905 141.943168 
L 43.887036 142.412303 
L 45.820639 142.755902 
L 48.928795 143.053192 
L 53.647965 143.225118 
L 60.494587 143.218017 
L 70.0355 142.986339 
L 82.843308 142.462461 
L 101.4059 141.45379 
L 162.025335 137.93009 
L 179.272738 137.239769 
L 191.744594 136.939326 
L 204.255406 136.871573 
L 214.239743 137.029861 
L 224.159343 137.410402 
L 233.974665 138.035554 
L 243.646581 138.914797 
L 253.136537 140.040491 
L 262.406702 141.38468 
L 271.420123 142.897501 
L 284.380577 145.321707 
L 300.437398 148.3375 
L 307.868916 149.511506 
L 313.156692 150.161733 
L 318.186216 150.574948 
L 322.946208 150.724861 
L 327.425994 150.596257 
L 331.615528 150.186796 
L 335.505413 149.508165 
L 339.086926 148.58646 
L 342.352035 147.461659 
L 345.293418 146.186163 
L 347.904479 144.822423 
L 350.862045 142.987147 
L 353.70095 140.905821 
L 356.458273 138.55437 
L 356.53729 138.481885 
L 356.53729 138.481885 
" clip-path="url(#p14f1861d07)" style="fill: none; stroke: #1e90ff; stroke-opacity: 0.7; stroke-width: 1.5; stroke-linecap: round"/>
   </g>
   <g id="text_1">
    <!-- Top- and Bottom-Surface Modes (16) -->
    <g style="fill: #262626" transform="translate(99.297188 47.638125) scale(0.12 -0.12)">
     <defs>
      <path id="ArialMT-54" d="M 1659 0 
L 1659 4041 
L 150 4041 
L 150 4581 
L 3781 4581 
L 3781 4041 
L 2266 4041 
L 2266 0 
L 1659 0 
z
" transform="scale(0.015625)"/>
      <path id="ArialMT-6f" d="M 213 1659 
Q 213 2581 725 3025 
Q 1153 3394 1769 3394 
Q 2453 3394 2887 2945 
Q 3322 2497 3322 1706 
Q 3322 1066 3130 698 
Q 2938 331 2570 128 
Q 2203 -75 1769 -75 
Q 1072 -75 642 372 
Q 213 819 213 1659 
z
M 791 1659 
Q 791 1022 1069 705 
Q 1347 388 1769 388 
Q 2188 388 2466 706 
Q 2744 1025 2744 1678 
Q 2744 2294 2464 2611 
Q 2184 2928 1769 2928 
Q 1347 2928 1069 2612 
Q 791 2297 791 1659 
z
" transform="scale(0.015625)"/>
      <path id="ArialMT-70" d="M 422 -1272 
L 422 3319 
L 934 3319 
L 934 2888 
Q 1116 3141 1344 3267 
Q 1572 3394 1897 3394 
Q 2322 3394 2647 3175 
Q 2972 2956 3137 2557 
Q 3303 2159 3303 1684 
Q 3303 1175 3120 767 
Q 2938 359 2589 142 
Q 2241 -75 1856 -75 
Q 1575 -75 1351 44 
Q 1128 163 984 344 
L 984 -1272 
L 422 -1272 
z
M 931 1641 
Q 931 1000 1190 694 
Q 1450 388 1819 388 
Q 2194 388 2461 705 
Q 2728 1022 2728 1688 
Q 2728 2322 2467 2637 
Q 2206 2953 1844 2953 
Q 1484 2953 1207 2617 
Q 931 2281 931 1641 
z
" transform="scale(0.015625)"/>
      <path id="ArialMT-2d" d="M 203 1375 
L 203 1941 
L 1931 1941 
L 1931 1375 
L 203 1375 
z
" transform="scale(0.015625)"/>
      <path id="ArialMT-20" transform="scale(0.015625)"/>
      <path id="ArialMT-61" d="M 2588 409 
Q 2275 144 1986 34 
Q 1697 -75 1366 -75 
Q 819 -75 525 192 
Q 231 459 231 875 
Q 231 1119 342 1320 
Q 453 1522 633 1644 
Q 813 1766 1038 1828 
Q 1203 1872 1538 1913 
Q 2219 1994 2541 2106 
Q 2544 2222 2544 2253 
Q 2544 2597 2384 2738 
Q 2169 2928 1744 2928 
Q 1347 2928 1158 2789 
Q 969 2650 878 2297 
L 328 2372 
Q 403 2725 575 2942 
Q 747 3159 1072 3276 
Q 1397 3394 1825 3394 
Q 2250 3394 2515 3294 
Q 2781 3194 2906 3042 
Q 3031 2891 3081 2659 
Q 3109 2516 3109 2141 
L 3109 1391 
Q 3109 606 3145 398 
Q 3181 191 3288 0 
L 2700 0 
Q 2613 175 2588 409 
z
M 2541 1666 
Q 2234 1541 1622 1453 
Q 1275 1403 1131 1340 
Q 988 1278 909 1158 
Q 831 1038 831 891 
Q 831 666 1001 516 
Q 1172 366 1500 366 
Q 1825 366 2078 508 
Q 2331 650 2450 897 
Q 2541 1088 2541 1459 
L 2541 1666 
z
" transform="scale(0.015625)"/>
      <path id="ArialMT-6e" d="M 422 0 
L 422 3319 
L 928 3319 
L 928 2847 
Q 1294 3394 1984 3394 
Q 2284 3394 2536 3286 
Q 2788 3178 2913 3003 
Q 3038 2828 3088 2588 
Q 3119 2431 3119 2041 
L 3119 0 
L 2556 0 
L 2556 2019 
Q 2556 2363 2490 2533 
Q 2425 2703 2258 2804 
Q 2091 2906 1866 2906 
Q 1506 2906 1245 2678 
Q 984 2450 984 1813 
L 984 0 
L 422 0 
z
" transform="scale(0.015625)"/>
      <path id="ArialMT-64" d="M 2575 0 
L 2575 419 
Q 2259 -75 1647 -75 
Q 1250 -75 917 144 
Q 584 363 401 755 
Q 219 1147 219 1656 
Q 219 2153 384 2558 
Q 550 2963 881 3178 
Q 1213 3394 1622 3394 
Q 1922 3394 2156 3267 
Q 2391 3141 2538 2938 
L 2538 4581 
L 3097 4581 
L 3097 0 
L 2575 0 
z
M 797 1656 
Q 797 1019 1065 703 
Q 1334 388 1700 388 
Q 2069 388 2326 689 
Q 2584 991 2584 1609 
Q 2584 2291 2321 2609 
Q 2059 2928 1675 2928 
Q 1300 2928 1048 2622 
Q 797 2316 797 1656 
z
" transform="scale(0.015625)"/>
      <path id="ArialMT-42" d="M 469 0 
L 469 4581 
L 2188 4581 
Q 2713 4581 3030 4442 
Q 3347 4303 3526 4014 
Q 3706 3725 3706 3409 
Q 3706 3116 3547 2856 
Q 3388 2597 3066 2438 
Q 3481 2316 3704 2022 
Q 3928 1728 3928 1328 
Q 3928 1006 3792 729 
Q 3656 453 3456 303 
Q 3256 153 2954 76 
Q 2653 0 2216 0 
L 469 0 
z
M 1075 2656 
L 2066 2656 
Q 2469 2656 2644 2709 
Q 2875 2778 2992 2937 
Q 3109 3097 3109 3338 
Q 3109 3566 3000 3739 
Q 2891 3913 2687 3977 
Q 2484 4041 1991 4041 
L 1075 4041 
L 1075 2656 
z
M 1075 541 
L 2216 541 
Q 2509 541 2628 563 
Q 2838 600 2978 687 
Q 3119 775 3209 942 
Q 3300 1109 3300 1328 
Q 3300 1584 3169 1773 
Q 3038 1963 2805 2039 
Q 2572 2116 2134 2116 
L 1075 2116 
L 1075 541 
z
" transform="scale(0.015625)"/>
      <path id="ArialMT-74" d="M 1650 503 
L 1731 6 
Q 1494 -44 1306 -44 
Q 1000 -44 831 53 
Q 663 150 594 308 
Q 525 466 525 972 
L 525 2881 
L 113 2881 
L 113 3319 
L 525 3319 
L 525 4141 
L 1084 4478 
L 1084 3319 
L 1650 3319 
L 1650 2881 
L 1084 2881 
L 1084 941 
Q 1084 700 1114 631 
Q 1144 563 1211 522 
Q 1278 481 1403 481 
Q 1497 481 1650 503 
z
" transform="scale(0.015625)"/>
      <path id="ArialMT-6d" d="M 422 0 
L 422 3319 
L 925 3319 
L 925 2853 
Q 1081 3097 1340 3245 
Q 1600 3394 1931 3394 
Q 2300 3394 2536 3241 
Q 2772 3088 2869 2813 
Q 3263 3394 3894 3394 
Q 4388 3394 4653 3120 
Q 4919 2847 4919 2278 
L 4919 0 
L 4359 0 
L 4359 2091 
Q 4359 2428 4304 2576 
Q 4250 2725 4106 2815 
Q 3963 2906 3769 2906 
Q 3419 2906 3187 2673 
Q 2956 2441 2956 1928 
L 2956 0 
L 2394 0 
L 2394 2156 
Q 2394 2531 2256 2718 
Q 2119 2906 1806 2906 
Q 1569 2906 1367 2781 
Q 1166 2656 1075 2415 
Q 984 2175 984 1722 
L 984 0 
L 422 0 
z
" transform="scale(0.015625)"/>
      <path id="ArialMT-53" d="M 288 1472 
L 859 1522 
Q 900 1178 1048 958 
Q 1197 738 1509 602 
Q 1822 466 2213 466 
Q 2559 466 2825 569 
Q 3091 672 3220 851 
Q 3350 1031 3350 1244 
Q 3350 1459 3225 1620 
Q 3100 1781 2813 1891 
Q 2628 1963 1997 2114 
Q 1366 2266 1113 2400 
Q 784 2572 623 2826 
Q 463 3081 463 3397 
Q 463 3744 659 4045 
Q 856 4347 1234 4503 
Q 1613 4659 2075 4659 
Q 2584 4659 2973 4495 
Q 3363 4331 3572 4012 
Q 3781 3694 3797 3291 
L 3216 3247 
Q 3169 3681 2898 3903 
Q 2628 4125 2100 4125 
Q 1550 4125 1298 3923 
Q 1047 3722 1047 3438 
Q 1047 3191 1225 3031 
Q 1400 2872 2139 2705 
Q 2878 2538 3153 2413 
Q 3553 2228 3743 1945 
Q 3934 1663 3934 1294 
Q 3934 928 3725 604 
Q 3516 281 3123 101 
Q 2731 -78 2241 -78 
Q 1619 -78 1198 103 
Q 778 284 539 648 
Q 300 1013 288 1472 
z
" transform="scale(0.015625)"/>
      <path id="ArialMT-75" d="M 2597 0 
L 2597 488 
Q 2209 -75 1544 -75 
Q 1250 -75 995 37 
Q 741 150 617 320 
Q 494 491 444 738 
Q 409 903 409 1263 
L 409 3319 
L 972 3319 
L 972 1478 
Q 972 1038 1006 884 
Q 1059 663 1231 536 
Q 1403 409 1656 409 
Q 1909 409 2131 539 
Q 2353 669 2445 892 
Q 2538 1116 2538 1541 
L 2538 3319 
L 3100 3319 
L 3100 0 
L 2597 0 
z
" transform="scale(0.015625)"/>
      <path id="ArialMT-72" d="M 416 0 
L 416 3319 
L 922 3319 
L 922 2816 
Q 1116 3169 1280 3281 
Q 1444 3394 1641 3394 
Q 1925 3394 2219 3213 
L 2025 2691 
Q 1819 2813 1613 2813 
Q 1428 2813 1281 2702 
Q 1134 2591 1072 2394 
Q 978 2094 978 1738 
L 978 0 
L 416 0 
z
" transform="scale(0.015625)"/>
      <path id="ArialMT-66" d="M 556 0 
L 556 2881 
L 59 2881 
L 59 3319 
L 556 3319 
L 556 3672 
Q 556 4006 616 4169 
Q 697 4388 901 4523 
Q 1106 4659 1475 4659 
Q 1713 4659 2000 4603 
L 1916 4113 
Q 1741 4144 1584 4144 
Q 1328 4144 1222 4034 
Q 1116 3925 1116 3625 
L 1116 3319 
L 1763 3319 
L 1763 2881 
L 1116 2881 
L 1116 0 
L 556 0 
z
" transform="scale(0.015625)"/>
      <path id="ArialMT-63" d="M 2588 1216 
L 3141 1144 
Q 3050 572 2676 248 
Q 2303 -75 1759 -75 
Q 1078 -75 664 370 
Q 250 816 250 1647 
Q 250 2184 428 2587 
Q 606 2991 970 3192 
Q 1334 3394 1763 3394 
Q 2303 3394 2647 3120 
Q 2991 2847 3088 2344 
L 2541 2259 
Q 2463 2594 2264 2762 
Q 2066 2931 1784 2931 
Q 1359 2931 1093 2626 
Q 828 2322 828 1663 
Q 828 994 1084 691 
Q 1341 388 1753 388 
Q 2084 388 2306 591 
Q 2528 794 2588 1216 
z
" transform="scale(0.015625)"/>
      <path id="ArialMT-65" d="M 2694 1069 
L 3275 997 
Q 3138 488 2766 206 
Q 2394 -75 1816 -75 
Q 1088 -75 661 373 
Q 234 822 234 1631 
Q 234 2469 665 2931 
Q 1097 3394 1784 3394 
Q 2450 3394 2872 2941 
Q 3294 2488 3294 1666 
Q 3294 1616 3291 1516 
L 816 1516 
Q 847 969 1125 678 
Q 1403 388 1819 388 
Q 2128 388 2347 550 
Q 2566 713 2694 1069 
z
M 847 1978 
L 2700 1978 
Q 2663 2397 2488 2606 
Q 2219 2931 1791 2931 
Q 1403 2931 1139 2672 
Q 875 2413 847 1978 
z
" transform="scale(0.015625)"/>
      <path id="ArialMT-4d" d="M 475 0 
L 475 4581 
L 1388 4581 
L 2472 1338 
Q 2622 884 2691 659 
Q 2769 909 2934 1394 
L 4031 4581 
L 4847 4581 
L 4847 0 
L 4263 0 
L 4263 3834 
L 2931 0 
L 2384 0 
L 1059 3900 
L 1059 0 
L 475 0 
z
" transform="scale(0.015625)"/>
      <path id="ArialMT-73" d="M 197 991 
L 753 1078 
Q 800 744 1014 566 
Q 1228 388 1613 388 
Q 2000 388 2187 545 
Q 2375 703 2375 916 
Q 2375 1106 2209 1216 
Q 2094 1291 1634 1406 
Q 1016 1563 777 1677 
Q 538 1791 414 1992 
Q 291 2194 291 2438 
Q 291 2659 392 2848 
Q 494 3038 669 3163 
Q 800 3259 1026 3326 
Q 1253 3394 1513 3394 
Q 1903 3394 2198 3281 
Q 2494 3169 2634 2976 
Q 2775 2784 2828 2463 
L 2278 2388 
Q 2241 2644 2061 2787 
Q 1881 2931 1553 2931 
Q 1166 2931 1000 2803 
Q 834 2675 834 2503 
Q 834 2394 903 2306 
Q 972 2216 1119 2156 
Q 1203 2125 1616 2013 
Q 2213 1853 2448 1751 
Q 2684 1650 2818 1456 
Q 2953 1263 2953 975 
Q 2953 694 2789 445 
Q 2625 197 2315 61 
Q 2006 -75 1616 -75 
Q 969 -75 630 194 
Q 291 463 197 991 
z
" transform="scale(0.015625)"/>
      <path id="ArialMT-28" d="M 1497 -1347 
Q 1031 -759 709 28 
Q 388 816 388 1659 
Q 388 2403 628 3084 
Q 909 3875 1497 4659 
L 1900 4659 
Q 1522 4009 1400 3731 
Q 1209 3300 1100 2831 
Q 966 2247 966 1656 
Q 966 153 1900 -1347 
L 1497 -1347 
z
" transform="scale(0.015625)"/>
      <path id="ArialMT-31" d="M 2384 0 
L 1822 0 
L 1822 3584 
Q 1619 3391 1289 3197 
Q 959 3003 697 2906 
L 697 3450 
Q 1169 3672 1522 3987 
Q 1875 4303 2022 4600 
L 2384 4600 
L 2384 0 
z
" transform="scale(0.015625)"/>
      <path id="ArialMT-36" d="M 3184 3459 
L 2625 3416 
Q 2550 3747 2413 3897 
Q 2184 4138 1850 4138 
Q 1581 4138 1378 3988 
Q 1113 3794 959 3422 
Q 806 3050 800 2363 
Q 1003 2672 1297 2822 
Q 1591 2972 1913 2972 
Q 2475 2972 2870 2558 
Q 3266 2144 3266 1488 
Q 3266 1056 3080 686 
Q 2894 316 2569 119 
Q 2244 -78 1831 -78 
Q 1128 -78 684 439 
Q 241 956 241 2144 
Q 241 3472 731 4075 
Q 1159 4600 1884 4600 
Q 2425 4600 2770 4297 
Q 3116 3994 3184 3459 
z
M 888 1484 
Q 888 1194 1011 928 
Q 1134 663 1356 523 
Q 1578 384 1822 384 
Q 2178 384 2434 671 
Q 2691 959 2691 1453 
Q 2691 1928 2437 2201 
Q 2184 2475 1800 2475 
Q 1419 2475 1153 2201 
Q 888 1928 888 1484 
z
" transform="scale(0.015625)"/>
      <path id="ArialMT-29" d="M 791 -1347 
L 388 -1347 
Q 1322 153 1322 1656 
Q 1322 2244 1188 2822 
Q 1081 3291 891 3722 
Q 769 4003 388 4659 
L 791 4659 
Q 1378 3875 1659 3084 
Q 1900 2403 1900 1659 
Q 1900 816 1576 28 
Q 1253 -759 791 -1347 
z
" transform="scale(0.015625)"/>
     </defs>
     <use xlink:href="#ArialMT-54"/>
     <use xlink:href="#ArialMT-6f" x="49.958984"/>
     <use xlink:href="#ArialMT-70" x="105.574219"/>
     <use xlink:href="#ArialMT-2d" x="161.189453"/>
     <use xlink:href="#ArialMT-20" x="194.490234"/>
     <use xlink:href="#ArialMT-61" x="222.273438"/>
     <use xlink:href="#ArialMT-6e" x="277.888672"/>
     <use xlink:href="#ArialMT-64" x="333.503906"/>
     <use xlink:href="#ArialMT-20" x="389.119141"/>
     <use xlink:href="#ArialMT-42" x="416.902344"/>
     <use xlink:href="#ArialMT-6f" x="483.601562"/>
     <use xlink:href="#ArialMT-74" x="539.216797"/>
     <use xlink:href="#ArialMT-74" x="567"/>
     <use xlink:href="#ArialMT-6f" x="594.783203"/>
     <use xlink:href="#ArialMT-6d" x="650.398438"/>
     <use xlink:href="#ArialMT-2d" x="733.699219"/>
     <use xlink:href="#ArialMT-53" x="767"/>
     <use xlink:href="#ArialMT-75" x="833.699219"/>
     <use xlink:href="#ArialMT-72" x="889.314453"/>
     <use xlink:href="#ArialMT-66" x="922.615234"/>
     <use xlink:href="#ArialMT-61" x="950.398438"/>
     <use xlink:href="#ArialMT-63" x="1006.013672"/>
     <use xlink:href="#ArialMT-65" x="1056.013672"/>
     <use xlink:href="#ArialMT-20" x="1111.628906"/>
     <use xlink:href="#ArialMT-4d" x="1139.412109"/>
     <use xlink:href="#ArialMT-6f" x="1222.712891"/>
     <use xlink:href="#ArialMT-64" x="1278.328125"/>
     <use xlink:href="#ArialMT-65" x="1333.943359"/>
     <use xlink:href="#ArialMT-73" x="1389.558594"/>
     <use xlink:href="#ArialMT-20" x="1439.558594"/>
     <use xlink:href="#ArialMT-28" x="1467.341797"/>
     <use xlink:href="#ArialMT-31" x="1500.642578"/>
     <use xlink:href="#ArialMT-36" x="1556.257812"/>
     <use xlink:href="#ArialMT-29" x="1611.873047"/>
    </g>
   </g>
   <g id="line2d_17">
    <path d="M 356.53729 138.464352 
L 352.25152 137.659649 
L 347.027431 136.683947 
L 340.009714 135.279465 
L 330.730114 133.270734 
L 321.014442 130.992775 
L 311.497321 128.594328 
L 301.98464 126.050312 
L 292.418342 123.369953 
L 282.770269 120.576051 
L 273.021019 117.695238 
L 263.207402 114.766896 
L 253.558696 111.918741 
L 244.114502 109.228554 
L 234.865025 106.759716 
L 225.769614 104.566765 
L 216.752235 102.686196 
L 207.728197 101.121147 
L 198.648925 99.851644 
L 189.509726 98.865605 
L 180.330575 98.161224 
L 171.129515 97.741259 
L 161.911618 97.609229 
L 152.687379 97.757842 
L 143.480897 98.182373 
L 134.315285 98.892906 
L 125.207698 99.88982 
L 116.175575 101.181011 
L 107.250338 102.775072 
L 98.475997 104.679897 
L 89.907786 106.902812 
L 81.612575 109.443467 
L 73.679813 112.300309 
L 66.226214 115.455899 
L 59.400169 118.867716 
L 53.40337 122.439435 
L 48.456214 126.003258 
L 44.693172 129.355624 
L 42.092083 132.333842 
L 40.506393 134.828204 
L 39.702736 136.833606 
L 39.46271 138.464352 
L 39.618679 139.569674 
L 40.100537 140.502634 
L 40.862531 141.251691 
L 42.026639 141.857114 
L 43.938186 142.388055 
L 47.254216 142.86484 
L 52.605832 143.185371 
L 60.039297 143.241525 
L 68.826258 143.050043 
L 78.331139 142.679161 
L 88.190256 142.189027 
L 98.243137 141.624698 
L 108.410482 141.017563 
L 118.648567 140.388551 
L 128.93231 139.751929 
L 139.217956 139.120094 
L 149.476333 138.502179 
L 159.709947 137.908679 
L 169.917909 137.343113 
L 180.102377 136.815564 
L 190.264966 136.329267 
L 200.401903 135.891165 
L 210.51468 135.514259 
L 220.611318 135.203303 
L 230.694289 134.962105 
L 240.76778 134.795768 
L 250.835849 134.70204 
L 260.900145 134.681272 
L 270.959336 134.731496 
L 281.006764 134.851826 
L 291.036467 135.048254 
L 301.048731 135.32525 
L 311.056841 135.687223 
L 321.129318 136.139878 
L 331.176143 136.6842 
L 340.047382 137.237939 
L 346.914457 137.719322 
L 352.188073 138.122926 
L 356.53729 138.464352 
" clip-path="url(#p14f1861d07)" style="fill: none; stroke: #000000; stroke-width: 1.5; stroke-linecap: round"/>
   </g>
  </g>
  <g id="axes_2">
   <g id="patch_3">
    <path d="M 366.218182 287.461293 
L 361.670706 286.607452 
L 356.127614 285.57217 
L 348.681369 284.081925 
L 338.835122 281.950533 
L 328.526173 279.533473 
L 318.427901 276.988568 
L 308.334339 274.289204 
L 298.183886 271.445173 
L 287.946666 268.480664 
L 277.602088 265.423938 
L 267.189215 262.31678 
L 256.951322 259.294706 
L 246.93043 256.440246 
L 237.116144 253.820651 
L 227.465332 251.49379 
L 217.897318 249.498386 
L 208.322238 247.83777 
L 198.688551 246.490746 
L 188.991277 245.444496 
L 179.251613 244.697103 
L 169.4887 244.251493 
L 159.707923 244.111401 
L 149.920418 244.269088 
L 140.151752 244.719543 
L 130.426454 245.473463 
L 120.762723 246.531253 
L 111.179064 247.901289 
L 101.708818 249.592689 
L 92.398681 251.613831 
L 83.307262 253.972485 
L 74.505515 256.668282 
L 66.088348 259.699574 
L 58.179604 263.047856 
L 50.936735 266.668012 
L 44.573748 270.457833 
L 39.324499 274.239277 
L 35.331672 277.796351 
L 32.57175 280.956431 
L 30.889232 283.603108 
L 30.036501 285.730968 
L 29.781818 287.461293 
L 29.947311 288.634111 
L 30.458594 289.624041 
L 31.267117 290.418838 
L 32.50231 291.06123 
L 34.530584 291.624592 
L 38.049103 292.130492 
L 43.727509 292.470595 
L 51.61489 292.530178 
L 60.938416 292.327004 
L 71.023702 291.933475 
L 81.484854 291.413411 
L 92.151602 290.814622 
L 102.939805 290.170414 
L 113.803066 289.502991 
L 124.714773 288.827494 
L 135.6285 288.157077 
L 146.513293 287.50143 
L 157.37181 286.871689 
L 168.20311 286.271587 
L 179.009479 285.711824 
L 189.792635 285.195832 
L 200.548573 284.730978 
L 211.278874 284.331056 
L 221.992051 284.001113 
L 232.690727 283.745186 
L 243.379344 283.568691 
L 254.062208 283.46924 
L 264.741068 283.447204 
L 275.414512 283.500495 
L 286.075474 283.628173 
L 296.717629 283.836595 
L 307.34128 284.130506 
L 317.960524 284.514582 
L 328.648064 284.994878 
L 339.308387 285.572439 
L 348.721338 286.159991 
L 356.007742 286.670769 
L 361.603385 287.099019 
z
" clip-path="url(#paa86dbb96c)" style="opacity: 0.2; stroke: #ffffff; stroke-linejoin: miter"/>
   </g>
   <g id="line2d_18">
    <path d="M 366.218182 287.44269 
L 359.472014 286.254663 
L 350.049689 284.367793 
L 338.327664 281.79378 
L 325.525245 278.763315 
L 312.648972 275.478291 
L 300.492505 272.149258 
L 285.156705 267.680673 
L 248.970981 256.947693 
L 238.75292 254.193756 
L 228.372407 251.643725 
L 220.505285 249.904357 
L 212.587692 248.334438 
L 204.637385 246.943455 
L 196.672192 245.731956 
L 186.059655 244.381514 
L 175.494715 243.299724 
L 165.019488 242.438538 
L 152.11518 241.597743 
L 137.014144 240.841767 
L 122.459874 240.332044 
L 110.843295 240.155381 
L 101.937458 240.254568 
L 95.507495 240.51918 
L 89.307384 240.987305 
L 83.351028 241.69647 
L 77.651786 242.68278 
L 74.001468 243.510433 
L 70.474755 244.483753 
L 67.075162 245.609145 
L 63.806078 246.89102 
L 60.67076 248.331452 
L 57.672336 249.929849 
L 54.813794 251.682653 
L 52.097982 253.583092 
L 49.527609 255.620987 
L 47.105236 257.782638 
L 44.833279 260.050801 
L 42.714001 262.404776 
L 40.749516 264.820611 
L 38.097265 268.50089 
L 35.803615 272.158923 
L 33.873709 275.68676 
L 32.311875 278.974903 
L 31.121616 281.919245 
L 30.305601 284.428435 
L 29.86566 286.431091 
L 29.80278 287.86289 
L 29.970443 288.477043 
L 30.305601 288.843079 
L 30.80792 288.971072 
L 31.476901 288.876694 
L 32.791356 288.364303 
L 35.119666 287.126208 
L 39.825939 284.567417 
L 42.714001 283.196057 
L 45.950311 281.888722 
L 49.527609 280.722229 
L 53.437874 279.755376 
L 57.672336 279.027284 
L 62.2215 278.557312 
L 67.075162 278.346364 
L 72.222439 278.379294 
L 77.651786 278.628083 
L 85.30856 279.230236 
L 97.625979 280.502386 
L 115.428775 282.35502 
L 127.242377 283.342625 
L 137.014144 283.957149 
L 147.029019 284.392416 
L 157.24708 284.648375 
L 170.243267 284.741951 
L 186.059655 284.598877 
L 212.587692 284.05917 
L 238.75292 283.576474 
L 258.985856 283.427734 
L 278.24733 283.524597 
L 296.230522 283.835433 
L 314.577931 284.384354 
L 330.575901 285.081376 
L 346.472391 286.008954 
L 362.68799 287.197093 
L 366.218182 287.479897 
L 366.218182 287.479897 
" clip-path="url(#paa86dbb96c)" style="fill: none; stroke: #1e90ff; stroke-opacity: 0.7; stroke-width: 1.5; stroke-linecap: round"/>
   </g>
   <g id="line2d_19">
    <path d="M 366.218182 253.799053 
L 359.472014 253.285644 
L 350.049689 252.341006 
L 338.327664 250.939196 
L 325.525245 249.188978 
L 312.648972 247.191622 
L 300.492505 245.078443 
L 287.417147 242.591316 
L 248.970981 235.056929 
L 238.75292 233.351252 
L 228.372407 231.885621 
L 220.505285 230.987415 
L 212.587692 230.287397 
L 204.637385 229.800917 
L 196.672192 229.535752 
L 188.709977 229.49267 
L 180.768597 229.666598 
L 172.865859 230.048214 
L 165.019488 230.625718 
L 157.24708 231.386531 
L 149.566064 232.318691 
L 141.993668 233.411791 
L 134.546872 234.657371 
L 127.242377 236.048766 
L 120.096564 237.58053 
L 113.125459 239.247568 
L 106.344695 241.044206 
L 99.769478 242.96337 
L 93.414555 244.996059 
L 87.294177 247.131198 
L 79.522164 250.114942 
L 72.222439 253.224185 
L 65.424099 256.424873 
L 59.154247 259.685507 
L 53.437874 262.978603 
L 49.527609 265.455005 
L 45.950311 267.92573 
L 42.714001 270.379345 
L 39.825939 272.801947 
L 37.2926 275.176122 
L 35.119666 277.480365 
L 33.31201 279.68919 
L 31.873687 281.774064 
L 30.80792 283.705187 
L 30.117102 285.454016 
L 29.80278 286.996285 
L 29.80278 287.885937 
L 29.970443 288.683632 
L 30.305601 289.412349 
L 30.80792 290.073486 
L 31.476901 290.670048 
L 32.791356 291.453492 
L 34.476311 292.11977 
L 36.527986 292.689518 
L 39.825939 293.334757 
L 44.833279 294.017916 
L 52.097982 294.736851 
L 62.2215 295.503371 
L 75.811401 296.306404 
L 93.414555 297.118743 
L 132.095413 298.59676 
L 165.019488 299.966615 
L 191.362615 301.287006 
L 212.587692 302.573304 
L 230.980512 303.900091 
L 248.970981 305.418112 
L 266.339621 307.099828 
L 285.156705 309.157442 
L 302.585445 311.278384 
L 320.188599 313.644459 
L 336.845753 316.124238 
L 352.245581 318.652831 
L 366.218182 321.123533 
L 366.218182 321.123533 
" clip-path="url(#paa86dbb96c)" style="fill: none; stroke: #ffa500; stroke-opacity: 0.7; stroke-width: 1.5; stroke-linecap: round"/>
   </g>
   <g id="text_2">
    <!-- Leading-Edge-Modification (LEM) and Trailing Edge (TE) Modes -->
    <g style="fill: #262626" transform="translate(27.259688 218.900516) scale(0.12 -0.12)">
     <defs>
      <path id="ArialMT-4c" d="M 469 0 
L 469 4581 
L 1075 4581 
L 1075 541 
L 3331 541 
L 3331 0 
L 469 0 
z
" transform="scale(0.015625)"/>
      <path id="ArialMT-69" d="M 425 3934 
L 425 4581 
L 988 4581 
L 988 3934 
L 425 3934 
z
M 425 0 
L 425 3319 
L 988 3319 
L 988 0 
L 425 0 
z
" transform="scale(0.015625)"/>
      <path id="ArialMT-67" d="M 319 -275 
L 866 -356 
Q 900 -609 1056 -725 
Q 1266 -881 1628 -881 
Q 2019 -881 2231 -725 
Q 2444 -569 2519 -288 
Q 2563 -116 2559 434 
Q 2191 0 1641 0 
Q 956 0 581 494 
Q 206 988 206 1678 
Q 206 2153 378 2554 
Q 550 2956 876 3175 
Q 1203 3394 1644 3394 
Q 2231 3394 2613 2919 
L 2613 3319 
L 3131 3319 
L 3131 450 
Q 3131 -325 2973 -648 
Q 2816 -972 2473 -1159 
Q 2131 -1347 1631 -1347 
Q 1038 -1347 672 -1080 
Q 306 -813 319 -275 
z
M 784 1719 
Q 784 1066 1043 766 
Q 1303 466 1694 466 
Q 2081 466 2343 764 
Q 2606 1063 2606 1700 
Q 2606 2309 2336 2618 
Q 2066 2928 1684 2928 
Q 1309 2928 1046 2623 
Q 784 2319 784 1719 
z
" transform="scale(0.015625)"/>
      <path id="ArialMT-45" d="M 506 0 
L 506 4581 
L 3819 4581 
L 3819 4041 
L 1113 4041 
L 1113 2638 
L 3647 2638 
L 3647 2100 
L 1113 2100 
L 1113 541 
L 3925 541 
L 3925 0 
L 506 0 
z
" transform="scale(0.015625)"/>
      <path id="ArialMT-6c" d="M 409 0 
L 409 4581 
L 972 4581 
L 972 0 
L 409 0 
z
" transform="scale(0.015625)"/>
     </defs>
     <use xlink:href="#ArialMT-4c"/>
     <use xlink:href="#ArialMT-65" x="55.615234"/>
     <use xlink:href="#ArialMT-61" x="111.230469"/>
     <use xlink:href="#ArialMT-64" x="166.845703"/>
     <use xlink:href="#ArialMT-69" x="222.460938"/>
     <use xlink:href="#ArialMT-6e" x="244.677734"/>
     <use xlink:href="#ArialMT-67" x="300.292969"/>
     <use xlink:href="#ArialMT-2d" x="355.908203"/>
     <use xlink:href="#ArialMT-45" x="389.208984"/>
     <use xlink:href="#ArialMT-64" x="455.908203"/>
     <use xlink:href="#ArialMT-67" x="511.523438"/>
     <use xlink:href="#ArialMT-65" x="567.138672"/>
     <use xlink:href="#ArialMT-2d" x="622.753906"/>
     <use xlink:href="#ArialMT-4d" x="656.054688"/>
     <use xlink:href="#ArialMT-6f" x="739.355469"/>
     <use xlink:href="#ArialMT-64" x="794.970703"/>
     <use xlink:href="#ArialMT-69" x="850.585938"/>
     <use xlink:href="#ArialMT-66" x="872.802734"/>
     <use xlink:href="#ArialMT-69" x="900.585938"/>
     <use xlink:href="#ArialMT-63" x="922.802734"/>
     <use xlink:href="#ArialMT-61" x="972.802734"/>
     <use xlink:href="#ArialMT-74" x="1028.417969"/>
     <use xlink:href="#ArialMT-69" x="1056.201172"/>
     <use xlink:href="#ArialMT-6f" x="1078.417969"/>
     <use xlink:href="#ArialMT-6e" x="1134.033203"/>
     <use xlink:href="#ArialMT-20" x="1189.648438"/>
     <use xlink:href="#ArialMT-28" x="1217.431641"/>
     <use xlink:href="#ArialMT-4c" x="1250.732422"/>
     <use xlink:href="#ArialMT-45" x="1306.347656"/>
     <use xlink:href="#ArialMT-4d" x="1373.046875"/>
     <use xlink:href="#ArialMT-29" x="1456.347656"/>
     <use xlink:href="#ArialMT-20" x="1489.648438"/>
     <use xlink:href="#ArialMT-61" x="1517.431641"/>
     <use xlink:href="#ArialMT-6e" x="1573.046875"/>
     <use xlink:href="#ArialMT-64" x="1628.662109"/>
     <use xlink:href="#ArialMT-20" x="1684.277344"/>
     <use xlink:href="#ArialMT-54" x="1710.310547"/>
     <use xlink:href="#ArialMT-72" x="1767.644531"/>
     <use xlink:href="#ArialMT-61" x="1800.945312"/>
     <use xlink:href="#ArialMT-69" x="1856.560547"/>
     <use xlink:href="#ArialMT-6c" x="1878.777344"/>
     <use xlink:href="#ArialMT-69" x="1900.994141"/>
     <use xlink:href="#ArialMT-6e" x="1923.210938"/>
     <use xlink:href="#ArialMT-67" x="1978.826172"/>
     <use xlink:href="#ArialMT-20" x="2034.441406"/>
     <use xlink:href="#ArialMT-45" x="2062.224609"/>
     <use xlink:href="#ArialMT-64" x="2128.923828"/>
     <use xlink:href="#ArialMT-67" x="2184.539062"/>
     <use xlink:href="#ArialMT-65" x="2240.154297"/>
     <use xlink:href="#ArialMT-20" x="2295.769531"/>
     <use xlink:href="#ArialMT-28" x="2323.552734"/>
     <use xlink:href="#ArialMT-54" x="2356.853516"/>
     <use xlink:href="#ArialMT-45" x="2417.9375"/>
     <use xlink:href="#ArialMT-29" x="2484.636719"/>
     <use xlink:href="#ArialMT-20" x="2517.9375"/>
     <use xlink:href="#ArialMT-4d" x="2545.720703"/>
     <use xlink:href="#ArialMT-6f" x="2629.021484"/>
     <use xlink:href="#ArialMT-64" x="2684.636719"/>
     <use xlink:href="#ArialMT-65" x="2740.251953"/>
     <use xlink:href="#ArialMT-73" x="2795.867188"/>
    </g>
   </g>
   <g id="line2d_20">
    <path d="M 366.218182 287.461293 
L 361.670706 286.607452 
L 356.127614 285.57217 
L 348.681369 284.081925 
L 338.835122 281.950533 
L 328.526173 279.533473 
L 318.427901 276.988568 
L 308.334339 274.289204 
L 298.183886 271.445173 
L 287.946666 268.480664 
L 277.602088 265.423938 
L 267.189215 262.31678 
L 256.951322 259.294706 
L 246.93043 256.440246 
L 237.116144 253.820651 
L 227.465332 251.49379 
L 217.897318 249.498386 
L 208.322238 247.83777 
L 198.688551 246.490746 
L 188.991277 245.444496 
L 179.251613 244.697103 
L 169.4887 244.251493 
L 159.707923 244.111401 
L 149.920418 244.269088 
L 140.151752 244.719543 
L 130.426454 245.473463 
L 120.762723 246.531253 
L 111.179064 247.901289 
L 101.708818 249.592689 
L 92.398681 251.613831 
L 83.307262 253.972485 
L 74.505515 256.668282 
L 66.088348 259.699574 
L 58.179604 263.047856 
L 50.936735 266.668012 
L 44.573748 270.457833 
L 39.324499 274.239277 
L 35.331672 277.796351 
L 32.57175 280.956431 
L 30.889232 283.603108 
L 30.036501 285.730968 
L 29.781818 287.461293 
L 29.947311 288.634111 
L 30.458594 289.624041 
L 31.267117 290.418838 
L 32.50231 291.06123 
L 34.530584 291.624592 
L 38.049103 292.130492 
L 43.727509 292.470595 
L 51.61489 292.530178 
L 60.938416 292.327004 
L 71.023702 291.933475 
L 81.484854 291.413411 
L 92.151602 290.814622 
L 102.939805 290.170414 
L 113.803066 289.502991 
L 124.714773 288.827494 
L 135.6285 288.157077 
L 146.513293 287.50143 
L 157.37181 286.871689 
L 168.20311 286.271587 
L 179.009479 285.711824 
L 189.792635 285.195832 
L 200.548573 284.730978 
L 211.278874 284.331056 
L 221.992051 284.001113 
L 232.690727 283.745186 
L 243.379344 283.568691 
L 254.062208 283.46924 
L 264.741068 283.447204 
L 275.414512 283.500495 
L 286.075474 283.628173 
L 296.717629 283.836595 
L 307.34128 284.130506 
L 317.960524 284.514582 
L 328.648064 284.994878 
L 339.308387 285.572439 
L 348.721338 286.159991 
L 356.007742 286.670769 
L 361.603385 287.099019 
L 366.218182 287.461293 
" clip-path="url(#paa86dbb96c)" style="fill: none; stroke: #000000; stroke-width: 1.5; stroke-linecap: round"/>
   </g>
  </g>
  <g id="text_3">
   <!-- NeuralFoil Airfoil Shape Parameterization (18 parameters) -->
   <g style="fill: #262626" transform="translate(13.127625 17.68275) scale(0.144 -0.144)">
    <defs>
     <path id="ArialMT-4e" d="M 488 0 
L 488 4581 
L 1109 4581 
L 3516 984 
L 3516 4581 
L 4097 4581 
L 4097 0 
L 3475 0 
L 1069 3600 
L 1069 0 
L 488 0 
z
" transform="scale(0.015625)"/>
     <path id="ArialMT-46" d="M 525 0 
L 525 4581 
L 3616 4581 
L 3616 4041 
L 1131 4041 
L 1131 2622 
L 3281 2622 
L 3281 2081 
L 1131 2081 
L 1131 0 
L 525 0 
z
" transform="scale(0.015625)"/>
     <path id="ArialMT-41" d="M -9 0 
L 1750 4581 
L 2403 4581 
L 4278 0 
L 3588 0 
L 3053 1388 
L 1138 1388 
L 634 0 
L -9 0 
z
M 1313 1881 
L 2866 1881 
L 2388 3150 
Q 2169 3728 2063 4100 
Q 1975 3659 1816 3225 
L 1313 1881 
z
" transform="scale(0.015625)"/>
     <path id="ArialMT-68" d="M 422 0 
L 422 4581 
L 984 4581 
L 984 2938 
Q 1378 3394 1978 3394 
Q 2347 3394 2619 3248 
Q 2891 3103 3008 2847 
Q 3125 2591 3125 2103 
L 3125 0 
L 2563 0 
L 2563 2103 
Q 2563 2525 2380 2717 
Q 2197 2909 1863 2909 
Q 1613 2909 1392 2779 
Q 1172 2650 1078 2428 
Q 984 2206 984 1816 
L 984 0 
L 422 0 
z
" transform="scale(0.015625)"/>
     <path id="ArialMT-50" d="M 494 0 
L 494 4581 
L 2222 4581 
Q 2678 4581 2919 4538 
Q 3256 4481 3484 4323 
Q 3713 4166 3852 3881 
Q 3991 3597 3991 3256 
Q 3991 2672 3619 2267 
Q 3247 1863 2275 1863 
L 1100 1863 
L 1100 0 
L 494 0 
z
M 1100 2403 
L 2284 2403 
Q 2872 2403 3119 2622 
Q 3366 2841 3366 3238 
Q 3366 3525 3220 3729 
Q 3075 3934 2838 4000 
Q 2684 4041 2272 4041 
L 1100 4041 
L 1100 2403 
z
" transform="scale(0.015625)"/>
     <path id="ArialMT-7a" d="M 125 0 
L 125 456 
L 2238 2881 
Q 1878 2863 1603 2863 
L 250 2863 
L 250 3319 
L 2963 3319 
L 2963 2947 
L 1166 841 
L 819 456 
Q 1197 484 1528 484 
L 3063 484 
L 3063 0 
L 125 0 
z
" transform="scale(0.015625)"/>
     <path id="ArialMT-38" d="M 1131 2484 
Q 781 2613 612 2850 
Q 444 3088 444 3419 
Q 444 3919 803 4259 
Q 1163 4600 1759 4600 
Q 2359 4600 2725 4251 
Q 3091 3903 3091 3403 
Q 3091 3084 2923 2848 
Q 2756 2613 2416 2484 
Q 2838 2347 3058 2040 
Q 3278 1734 3278 1309 
Q 3278 722 2862 322 
Q 2447 -78 1769 -78 
Q 1091 -78 675 323 
Q 259 725 259 1325 
Q 259 1772 486 2073 
Q 713 2375 1131 2484 
z
M 1019 3438 
Q 1019 3113 1228 2906 
Q 1438 2700 1772 2700 
Q 2097 2700 2305 2904 
Q 2513 3109 2513 3406 
Q 2513 3716 2298 3927 
Q 2084 4138 1766 4138 
Q 1444 4138 1231 3931 
Q 1019 3725 1019 3438 
z
M 838 1322 
Q 838 1081 952 856 
Q 1066 631 1291 507 
Q 1516 384 1775 384 
Q 2178 384 2440 643 
Q 2703 903 2703 1303 
Q 2703 1709 2433 1975 
Q 2163 2241 1756 2241 
Q 1359 2241 1098 1978 
Q 838 1716 838 1322 
z
" transform="scale(0.015625)"/>
    </defs>
    <use xlink:href="#ArialMT-4e"/>
    <use xlink:href="#ArialMT-65" x="72.216797"/>
    <use xlink:href="#ArialMT-75" x="127.832031"/>
    <use xlink:href="#ArialMT-72" x="183.447266"/>
    <use xlink:href="#ArialMT-61" x="216.748047"/>
    <use xlink:href="#ArialMT-6c" x="272.363281"/>
    <use xlink:href="#ArialMT-46" x="294.580078"/>
    <use xlink:href="#ArialMT-6f" x="355.664062"/>
    <use xlink:href="#ArialMT-69" x="411.279297"/>
    <use xlink:href="#ArialMT-6c" x="433.496094"/>
    <use xlink:href="#ArialMT-20" x="455.712891"/>
    <use xlink:href="#ArialMT-41" x="477.996094"/>
    <use xlink:href="#ArialMT-69" x="544.695312"/>
    <use xlink:href="#ArialMT-72" x="566.912109"/>
    <use xlink:href="#ArialMT-66" x="600.212891"/>
    <use xlink:href="#ArialMT-6f" x="627.996094"/>
    <use xlink:href="#ArialMT-69" x="683.611328"/>
    <use xlink:href="#ArialMT-6c" x="705.828125"/>
    <use xlink:href="#ArialMT-20" x="728.044922"/>
    <use xlink:href="#ArialMT-53" x="755.828125"/>
    <use xlink:href="#ArialMT-68" x="822.527344"/>
    <use xlink:href="#ArialMT-61" x="878.142578"/>
    <use xlink:href="#ArialMT-70" x="933.757812"/>
    <use xlink:href="#ArialMT-65" x="989.373047"/>
    <use xlink:href="#ArialMT-20" x="1044.988281"/>
    <use xlink:href="#ArialMT-50" x="1072.771484"/>
    <use xlink:href="#ArialMT-61" x="1139.470703"/>
    <use xlink:href="#ArialMT-72" x="1195.085938"/>
    <use xlink:href="#ArialMT-61" x="1228.386719"/>
    <use xlink:href="#ArialMT-6d" x="1284.001953"/>
    <use xlink:href="#ArialMT-65" x="1367.302734"/>
    <use xlink:href="#ArialMT-74" x="1422.917969"/>
    <use xlink:href="#ArialMT-65" x="1450.701172"/>
    <use xlink:href="#ArialMT-72" x="1506.316406"/>
    <use xlink:href="#ArialMT-69" x="1539.617188"/>
    <use xlink:href="#ArialMT-7a" x="1561.833984"/>
    <use xlink:href="#ArialMT-61" x="1611.833984"/>
    <use xlink:href="#ArialMT-74" x="1667.449219"/>
    <use xlink:href="#ArialMT-69" x="1695.232422"/>
    <use xlink:href="#ArialMT-6f" x="1717.449219"/>
    <use xlink:href="#ArialMT-6e" x="1773.064453"/>
    <use xlink:href="#ArialMT-20" x="1828.679688"/>
    <use xlink:href="#ArialMT-28" x="1856.462891"/>
    <use xlink:href="#ArialMT-31" x="1889.763672"/>
    <use xlink:href="#ArialMT-38" x="1945.378906"/>
    <use xlink:href="#ArialMT-20" x="2000.994141"/>
    <use xlink:href="#ArialMT-70" x="2028.777344"/>
    <use xlink:href="#ArialMT-61" x="2084.392578"/>
    <use xlink:href="#ArialMT-72" x="2140.007812"/>
    <use xlink:href="#ArialMT-61" x="2173.308594"/>
    <use xlink:href="#ArialMT-6d" x="2228.923828"/>
    <use xlink:href="#ArialMT-65" x="2312.224609"/>
    <use xlink:href="#ArialMT-74" x="2367.839844"/>
    <use xlink:href="#ArialMT-65" x="2395.623047"/>
    <use xlink:href="#ArialMT-72" x="2451.238281"/>
    <use xlink:href="#ArialMT-73" x="2484.539062"/>
    <use xlink:href="#ArialMT-29" x="2534.539062"/>
   </g>
  </g>
 </g>
 <defs>
  <clipPath id="p14f1861d07">
   <rect x="23.608981" y="53.638125" width="348.782038" height="143.473902"/>
  </clipPath>
  <clipPath id="paa86dbb96c">
   <rect x="12.96" y="224.900516" width="370.08" height="100.805066"/>
  </clipPath>
 </defs>
</svg>
