<?xml version="1.0" encoding="utf-8" standalone="no"?>
<!DOCTYPE svg PUBLIC "-//W3C//DTD SVG 1.1//EN"
  "http://www.w3.org/Graphics/SVG/1.1/DTD/svg11.dtd">
<svg xmlns:xlink="http://www.w3.org/1999/xlink" width="381.6pt" height="360pt" viewBox="0 0 381.6 360" xmlns="http://www.w3.org/2000/svg" version="1.1">
 <metadata>
  <rdf:RDF xmlns:dc="http://purl.org/dc/elements/1.1/" xmlns:cc="http://creativecommons.org/ns#" xmlns:rdf="http://www.w3.org/1999/02/22-rdf-syntax-ns#">
   <cc:Work>
    <dc:type rdf:resource="http://purl.org/dc/dcmitype/StillImage"/>
    <dc:date>2023-07-26T13:24:18.253925</dc:date>
    <dc:format>image/svg+xml</dc:format>
    <dc:creator>
     <cc:Agent>
      <dc:title>Matplotlib v3.7.2, https://matplotlib.org/</dc:title>
     </cc:Agent>
    </dc:creator>
   </cc:Work>
  </rdf:RDF>
 </metadata>
 <defs>
  <style type="text/css">*{stroke-linejoin: round; stroke-linecap: butt}</style>
 </defs>
 <g id="figure_1">
  <g id="patch_1">
   <path d="M 0 360 
L 381.6 360 
L 381.6 0 
L 0 0 
z
" style="fill: #ffffff"/>
  </g>
  <g id="axes_1">
   <g id="patch_2">
    <path d="M 65.027891 177.948062 
L 347.807109 177.948062 
L 347.807109 64.836375 
L 65.027891 64.836375 
z
" style="fill: #eaeaf2"/>
   </g>
   <g id="matplotlib.axis_1">
    <g id="xtick_1">
     <g id="line2d_1">
      <path d="M 77.881491 177.948062 
L 77.881491 64.836375 
" clip-path="url(#p010b2b0c07)" style="fill: none; stroke: #ffffff; stroke-width: 1.6; stroke-linecap: round"/>
     </g>
     <g id="text_1">
      <!-- 0.0 -->
      <g style="fill: #262626" transform="translate(70.236491 195.321656) scale(0.11 -0.11)">
       <defs>
        <path id="ArialMT-30" d="M 266 2259 
Q 266 3072 433 3567 
Q 600 4063 929 4331 
Q 1259 4600 1759 4600 
Q 2128 4600 2406 4451 
Q 2684 4303 2865 4023 
Q 3047 3744 3150 3342 
Q 3253 2941 3253 2259 
Q 3253 1453 3087 958 
Q 2922 463 2592 192 
Q 2263 -78 1759 -78 
Q 1097 -78 719 397 
Q 266 969 266 2259 
z
M 844 2259 
Q 844 1131 1108 757 
Q 1372 384 1759 384 
Q 2147 384 2411 759 
Q 2675 1134 2675 2259 
Q 2675 3391 2411 3762 
Q 2147 4134 1753 4134 
Q 1366 4134 1134 3806 
Q 844 3388 844 2259 
z
" transform="scale(0.015625)"/>
        <path id="ArialMT-2e" d="M 581 0 
L 581 641 
L 1222 641 
L 1222 0 
L 581 0 
z
" transform="scale(0.015625)"/>
       </defs>
       <use xlink:href="#ArialMT-30"/>
       <use xlink:href="#ArialMT-2e" x="55.615234"/>
       <use xlink:href="#ArialMT-30" x="83.398438"/>
      </g>
     </g>
    </g>
    <g id="xtick_2">
     <g id="line2d_2">
      <path d="M 129.295895 177.948062 
L 129.295895 64.836375 
" clip-path="url(#p010b2b0c07)" style="fill: none; stroke: #ffffff; stroke-width: 1.6; stroke-linecap: round"/>
     </g>
     <g id="text_2">
      <!-- 0.2 -->
      <g style="fill: #262626" transform="translate(121.650895 195.321656) scale(0.11 -0.11)">
       <defs>
        <path id="ArialMT-32" d="M 3222 541 
L 3222 0 
L 194 0 
Q 188 203 259 391 
Q 375 700 629 1000 
Q 884 1300 1366 1694 
Q 2113 2306 2375 2664 
Q 2638 3022 2638 3341 
Q 2638 3675 2398 3904 
Q 2159 4134 1775 4134 
Q 1369 4134 1125 3890 
Q 881 3647 878 3216 
L 300 3275 
Q 359 3922 746 4261 
Q 1134 4600 1788 4600 
Q 2447 4600 2831 4234 
Q 3216 3869 3216 3328 
Q 3216 3053 3103 2787 
Q 2991 2522 2730 2228 
Q 2469 1934 1863 1422 
Q 1356 997 1212 845 
Q 1069 694 975 541 
L 3222 541 
z
" transform="scale(0.015625)"/>
       </defs>
       <use xlink:href="#ArialMT-30"/>
       <use xlink:href="#ArialMT-2e" x="55.615234"/>
       <use xlink:href="#ArialMT-32" x="83.398438"/>
      </g>
     </g>
    </g>
    <g id="xtick_3">
     <g id="line2d_3">
      <path d="M 180.710298 177.948062 
L 180.710298 64.836375 
" clip-path="url(#p010b2b0c07)" style="fill: none; stroke: #ffffff; stroke-width: 1.6; stroke-linecap: round"/>
     </g>
     <g id="text_3">
      <!-- 0.4 -->
      <g style="fill: #262626" transform="translate(173.065298 195.321656) scale(0.11 -0.11)">
       <defs>
        <path id="ArialMT-34" d="M 2069 0 
L 2069 1097 
L 81 1097 
L 81 1613 
L 2172 4581 
L 2631 4581 
L 2631 1613 
L 3250 1613 
L 3250 1097 
L 2631 1097 
L 2631 0 
L 2069 0 
z
M 2069 1613 
L 2069 3678 
L 634 1613 
L 2069 1613 
z
" transform="scale(0.015625)"/>
       </defs>
       <use xlink:href="#ArialMT-30"/>
       <use xlink:href="#ArialMT-2e" x="55.615234"/>
       <use xlink:href="#ArialMT-34" x="83.398438"/>
      </g>
     </g>
    </g>
    <g id="xtick_4">
     <g id="line2d_4">
      <path d="M 232.124702 177.948062 
L 232.124702 64.836375 
" clip-path="url(#p010b2b0c07)" style="fill: none; stroke: #ffffff; stroke-width: 1.6; stroke-linecap: round"/>
     </g>
     <g id="text_4">
      <!-- 0.6 -->
      <g style="fill: #262626" transform="translate(224.479702 195.321656) scale(0.11 -0.11)">
       <defs>
        <path id="ArialMT-36" d="M 3184 3459 
L 2625 3416 
Q 2550 3747 2413 3897 
Q 2184 4138 1850 4138 
Q 1581 4138 1378 3988 
Q 1113 3794 959 3422 
Q 806 3050 800 2363 
Q 1003 2672 1297 2822 
Q 1591 2972 1913 2972 
Q 2475 2972 2870 2558 
Q 3266 2144 3266 1488 
Q 3266 1056 3080 686 
Q 2894 316 2569 119 
Q 2244 -78 1831 -78 
Q 1128 -78 684 439 
Q 241 956 241 2144 
Q 241 3472 731 4075 
Q 1159 4600 1884 4600 
Q 2425 4600 2770 4297 
Q 3116 3994 3184 3459 
z
M 888 1484 
Q 888 1194 1011 928 
Q 1134 663 1356 523 
Q 1578 384 1822 384 
Q 2178 384 2434 671 
Q 2691 959 2691 1453 
Q 2691 1928 2437 2201 
Q 2184 2475 1800 2475 
Q 1419 2475 1153 2201 
Q 888 1928 888 1484 
z
" transform="scale(0.015625)"/>
       </defs>
       <use xlink:href="#ArialMT-30"/>
       <use xlink:href="#ArialMT-2e" x="55.615234"/>
       <use xlink:href="#ArialMT-36" x="83.398438"/>
      </g>
     </g>
    </g>
    <g id="xtick_5">
     <g id="line2d_5">
      <path d="M 283.539105 177.948062 
L 283.539105 64.836375 
" clip-path="url(#p010b2b0c07)" style="fill: none; stroke: #ffffff; stroke-width: 1.6; stroke-linecap: round"/>
     </g>
     <g id="text_5">
      <!-- 0.8 -->
      <g style="fill: #262626" transform="translate(275.894105 195.321656) scale(0.11 -0.11)">
       <defs>
        <path id="ArialMT-38" d="M 1131 2484 
Q 781 2613 612 2850 
Q 444 3088 444 3419 
Q 444 3919 803 4259 
Q 1163 4600 1759 4600 
Q 2359 4600 2725 4251 
Q 3091 3903 3091 3403 
Q 3091 3084 2923 2848 
Q 2756 2613 2416 2484 
Q 2838 2347 3058 2040 
Q 3278 1734 3278 1309 
Q 3278 722 2862 322 
Q 2447 -78 1769 -78 
Q 1091 -78 675 323 
Q 259 725 259 1325 
Q 259 1772 486 2073 
Q 713 2375 1131 2484 
z
M 1019 3438 
Q 1019 3113 1228 2906 
Q 1438 2700 1772 2700 
Q 2097 2700 2305 2904 
Q 2513 3109 2513 3406 
Q 2513 3716 2298 3927 
Q 2084 4138 1766 4138 
Q 1444 4138 1231 3931 
Q 1019 3725 1019 3438 
z
M 838 1322 
Q 838 1081 952 856 
Q 1066 631 1291 507 
Q 1516 384 1775 384 
Q 2178 384 2440 643 
Q 2703 903 2703 1303 
Q 2703 1709 2433 1975 
Q 2163 2241 1756 2241 
Q 1359 2241 1098 1978 
Q 838 1716 838 1322 
z
" transform="scale(0.015625)"/>
       </defs>
       <use xlink:href="#ArialMT-30"/>
       <use xlink:href="#ArialMT-2e" x="55.615234"/>
       <use xlink:href="#ArialMT-38" x="83.398438"/>
      </g>
     </g>
    </g>
    <g id="xtick_6">
     <g id="line2d_6">
      <path d="M 334.953509 177.948062 
L 334.953509 64.836375 
" clip-path="url(#p010b2b0c07)" style="fill: none; stroke: #ffffff; stroke-width: 1.6; stroke-linecap: round"/>
     </g>
     <g id="text_6">
      <!-- 1.0 -->
      <g style="fill: #262626" transform="translate(327.308509 195.321656) scale(0.11 -0.11)">
       <defs>
        <path id="ArialMT-31" d="M 2384 0 
L 1822 0 
L 1822 3584 
Q 1619 3391 1289 3197 
Q 959 3003 697 2906 
L 697 3450 
Q 1169 3672 1522 3987 
Q 1875 4303 2022 4600 
L 2384 4600 
L 2384 0 
z
" transform="scale(0.015625)"/>
       </defs>
       <use xlink:href="#ArialMT-31"/>
       <use xlink:href="#ArialMT-2e" x="55.615234"/>
       <use xlink:href="#ArialMT-30" x="83.398438"/>
      </g>
     </g>
    </g>
    <g id="xtick_7">
     <g id="line2d_7">
      <path d="M 90.735092 177.948062 
L 90.735092 64.836375 
" clip-path="url(#p010b2b0c07)" style="fill: none; stroke: #ffffff; stroke-width: 0.7; stroke-linecap: round"/>
     </g>
    </g>
    <g id="xtick_8">
     <g id="line2d_8">
      <path d="M 103.588693 177.948062 
L 103.588693 64.836375 
" clip-path="url(#p010b2b0c07)" style="fill: none; stroke: #ffffff; stroke-width: 0.7; stroke-linecap: round"/>
     </g>
    </g>
    <g id="xtick_9">
     <g id="line2d_9">
      <path d="M 116.442294 177.948062 
L 116.442294 64.836375 
" clip-path="url(#p010b2b0c07)" style="fill: none; stroke: #ffffff; stroke-width: 0.7; stroke-linecap: round"/>
     </g>
    </g>
    <g id="xtick_10">
     <g id="line2d_10">
      <path d="M 142.149496 177.948062 
L 142.149496 64.836375 
" clip-path="url(#p010b2b0c07)" style="fill: none; stroke: #ffffff; stroke-width: 0.7; stroke-linecap: round"/>
     </g>
    </g>
    <g id="xtick_11">
     <g id="line2d_11">
      <path d="M 155.003097 177.948062 
L 155.003097 64.836375 
" clip-path="url(#p010b2b0c07)" style="fill: none; stroke: #ffffff; stroke-width: 0.7; stroke-linecap: round"/>
     </g>
    </g>
    <g id="xtick_12">
     <g id="line2d_12">
      <path d="M 167.856697 177.948062 
L 167.856697 64.836375 
" clip-path="url(#p010b2b0c07)" style="fill: none; stroke: #ffffff; stroke-width: 0.7; stroke-linecap: round"/>
     </g>
    </g>
    <g id="xtick_13">
     <g id="line2d_13">
      <path d="M 193.563899 177.948062 
L 193.563899 64.836375 
" clip-path="url(#p010b2b0c07)" style="fill: none; stroke: #ffffff; stroke-width: 0.7; stroke-linecap: round"/>
     </g>
    </g>
    <g id="xtick_14">
     <g id="line2d_14">
      <path d="M 206.4175 177.948062 
L 206.4175 64.836375 
" clip-path="url(#p010b2b0c07)" style="fill: none; stroke: #ffffff; stroke-width: 0.7; stroke-linecap: round"/>
     </g>
    </g>
    <g id="xtick_15">
     <g id="line2d_15">
      <path d="M 219.271101 177.948062 
L 219.271101 64.836375 
" clip-path="url(#p010b2b0c07)" style="fill: none; stroke: #ffffff; stroke-width: 0.7; stroke-linecap: round"/>
     </g>
    </g>
    <g id="xtick_16">
     <g id="line2d_16">
      <path d="M 244.978303 177.948062 
L 244.978303 64.836375 
" clip-path="url(#p010b2b0c07)" style="fill: none; stroke: #ffffff; stroke-width: 0.7; stroke-linecap: round"/>
     </g>
    </g>
    <g id="xtick_17">
     <g id="line2d_17">
      <path d="M 257.831903 177.948062 
L 257.831903 64.836375 
" clip-path="url(#p010b2b0c07)" style="fill: none; stroke: #ffffff; stroke-width: 0.7; stroke-linecap: round"/>
     </g>
    </g>
    <g id="xtick_18">
     <g id="line2d_18">
      <path d="M 270.685504 177.948062 
L 270.685504 64.836375 
" clip-path="url(#p010b2b0c07)" style="fill: none; stroke: #ffffff; stroke-width: 0.7; stroke-linecap: round"/>
     </g>
    </g>
    <g id="xtick_19">
     <g id="line2d_19">
      <path d="M 296.392706 177.948062 
L 296.392706 64.836375 
" clip-path="url(#p010b2b0c07)" style="fill: none; stroke: #ffffff; stroke-width: 0.7; stroke-linecap: round"/>
     </g>
    </g>
    <g id="xtick_20">
     <g id="line2d_20">
      <path d="M 309.246307 177.948062 
L 309.246307 64.836375 
" clip-path="url(#p010b2b0c07)" style="fill: none; stroke: #ffffff; stroke-width: 0.7; stroke-linecap: round"/>
     </g>
    </g>
    <g id="xtick_21">
     <g id="line2d_21">
      <path d="M 322.099908 177.948062 
L 322.099908 64.836375 
" clip-path="url(#p010b2b0c07)" style="fill: none; stroke: #ffffff; stroke-width: 0.7; stroke-linecap: round"/>
     </g>
    </g>
   </g>
   <g id="matplotlib.axis_2">
    <g id="ytick_1">
     <g id="line2d_22">
      <path d="M 65.027891 157.382301 
L 347.807109 157.382301 
" clip-path="url(#p010b2b0c07)" style="fill: none; stroke: #ffffff; stroke-width: 1.6; stroke-linecap: round"/>
     </g>
     <g id="text_7">
      <!-- −0.1 -->
      <g style="fill: #262626" transform="translate(33.813203 161.319098) scale(0.11 -0.11)">
       <defs>
        <path id="ArialMT-2212" d="M 3381 1997 
L 356 1997 
L 356 2522 
L 3381 2522 
L 3381 1997 
z
" transform="scale(0.015625)"/>
       </defs>
       <use xlink:href="#ArialMT-2212"/>
       <use xlink:href="#ArialMT-30" x="58.398438"/>
       <use xlink:href="#ArialMT-2e" x="114.013672"/>
       <use xlink:href="#ArialMT-31" x="141.796875"/>
      </g>
     </g>
    </g>
    <g id="ytick_2">
     <g id="line2d_23">
      <path d="M 65.027891 131.675099 
L 347.807109 131.675099 
" clip-path="url(#p010b2b0c07)" style="fill: none; stroke: #ffffff; stroke-width: 1.6; stroke-linecap: round"/>
     </g>
     <g id="text_8">
      <!-- 0.0 -->
      <g style="fill: #262626" transform="translate(40.237891 135.611896) scale(0.11 -0.11)">
       <use xlink:href="#ArialMT-30"/>
       <use xlink:href="#ArialMT-2e" x="55.615234"/>
       <use xlink:href="#ArialMT-30" x="83.398438"/>
      </g>
     </g>
    </g>
    <g id="ytick_3">
     <g id="line2d_24">
      <path d="M 65.027891 105.967898 
L 347.807109 105.967898 
" clip-path="url(#p010b2b0c07)" style="fill: none; stroke: #ffffff; stroke-width: 1.6; stroke-linecap: round"/>
     </g>
     <g id="text_9">
      <!-- 0.1 -->
      <g style="fill: #262626" transform="translate(40.237891 109.904695) scale(0.11 -0.11)">
       <use xlink:href="#ArialMT-30"/>
       <use xlink:href="#ArialMT-2e" x="55.615234"/>
       <use xlink:href="#ArialMT-31" x="83.398438"/>
      </g>
     </g>
    </g>
    <g id="ytick_4">
     <g id="line2d_25">
      <path d="M 65.027891 80.260696 
L 347.807109 80.260696 
" clip-path="url(#p010b2b0c07)" style="fill: none; stroke: #ffffff; stroke-width: 1.6; stroke-linecap: round"/>
     </g>
     <g id="text_10">
      <!-- 0.2 -->
      <g style="fill: #262626" transform="translate(40.237891 84.197493) scale(0.11 -0.11)">
       <use xlink:href="#ArialMT-30"/>
       <use xlink:href="#ArialMT-2e" x="55.615234"/>
       <use xlink:href="#ArialMT-32" x="83.398438"/>
      </g>
     </g>
    </g>
    <g id="ytick_5">
     <g id="line2d_26">
      <path d="M 65.027891 172.806622 
L 347.807109 172.806622 
" clip-path="url(#p010b2b0c07)" style="fill: none; stroke: #ffffff; stroke-width: 0.7; stroke-linecap: round"/>
     </g>
    </g>
    <g id="ytick_6">
     <g id="line2d_27">
      <path d="M 65.027891 167.665182 
L 347.807109 167.665182 
" clip-path="url(#p010b2b0c07)" style="fill: none; stroke: #ffffff; stroke-width: 0.7; stroke-linecap: round"/>
     </g>
    </g>
    <g id="ytick_7">
     <g id="line2d_28">
      <path d="M 65.027891 162.523741 
L 347.807109 162.523741 
" clip-path="url(#p010b2b0c07)" style="fill: none; stroke: #ffffff; stroke-width: 0.7; stroke-linecap: round"/>
     </g>
    </g>
    <g id="ytick_8">
     <g id="line2d_29">
      <path d="M 65.027891 152.240861 
L 347.807109 152.240861 
" clip-path="url(#p010b2b0c07)" style="fill: none; stroke: #ffffff; stroke-width: 0.7; stroke-linecap: round"/>
     </g>
    </g>
    <g id="ytick_9">
     <g id="line2d_30">
      <path d="M 65.027891 147.09942 
L 347.807109 147.09942 
" clip-path="url(#p010b2b0c07)" style="fill: none; stroke: #ffffff; stroke-width: 0.7; stroke-linecap: round"/>
     </g>
    </g>
    <g id="ytick_10">
     <g id="line2d_31">
      <path d="M 65.027891 141.95798 
L 347.807109 141.95798 
" clip-path="url(#p010b2b0c07)" style="fill: none; stroke: #ffffff; stroke-width: 0.7; stroke-linecap: round"/>
     </g>
    </g>
    <g id="ytick_11">
     <g id="line2d_32">
      <path d="M 65.027891 136.81654 
L 347.807109 136.81654 
" clip-path="url(#p010b2b0c07)" style="fill: none; stroke: #ffffff; stroke-width: 0.7; stroke-linecap: round"/>
     </g>
    </g>
    <g id="ytick_12">
     <g id="line2d_33">
      <path d="M 65.027891 126.533659 
L 347.807109 126.533659 
" clip-path="url(#p010b2b0c07)" style="fill: none; stroke: #ffffff; stroke-width: 0.7; stroke-linecap: round"/>
     </g>
    </g>
    <g id="ytick_13">
     <g id="line2d_34">
      <path d="M 65.027891 121.392219 
L 347.807109 121.392219 
" clip-path="url(#p010b2b0c07)" style="fill: none; stroke: #ffffff; stroke-width: 0.7; stroke-linecap: round"/>
     </g>
    </g>
    <g id="ytick_14">
     <g id="line2d_35">
      <path d="M 65.027891 116.250778 
L 347.807109 116.250778 
" clip-path="url(#p010b2b0c07)" style="fill: none; stroke: #ffffff; stroke-width: 0.7; stroke-linecap: round"/>
     </g>
    </g>
    <g id="ytick_15">
     <g id="line2d_36">
      <path d="M 65.027891 111.109338 
L 347.807109 111.109338 
" clip-path="url(#p010b2b0c07)" style="fill: none; stroke: #ffffff; stroke-width: 0.7; stroke-linecap: round"/>
     </g>
    </g>
    <g id="ytick_16">
     <g id="line2d_37">
      <path d="M 65.027891 100.826457 
L 347.807109 100.826457 
" clip-path="url(#p010b2b0c07)" style="fill: none; stroke: #ffffff; stroke-width: 0.7; stroke-linecap: round"/>
     </g>
    </g>
    <g id="ytick_17">
     <g id="line2d_38">
      <path d="M 65.027891 95.685017 
L 347.807109 95.685017 
" clip-path="url(#p010b2b0c07)" style="fill: none; stroke: #ffffff; stroke-width: 0.7; stroke-linecap: round"/>
     </g>
    </g>
    <g id="ytick_18">
     <g id="line2d_39">
      <path d="M 65.027891 90.543577 
L 347.807109 90.543577 
" clip-path="url(#p010b2b0c07)" style="fill: none; stroke: #ffffff; stroke-width: 0.7; stroke-linecap: round"/>
     </g>
    </g>
    <g id="ytick_19">
     <g id="line2d_40">
      <path d="M 65.027891 85.402136 
L 347.807109 85.402136 
" clip-path="url(#p010b2b0c07)" style="fill: none; stroke: #ffffff; stroke-width: 0.7; stroke-linecap: round"/>
     </g>
    </g>
    <g id="ytick_20">
     <g id="line2d_41">
      <path d="M 65.027891 75.119256 
L 347.807109 75.119256 
" clip-path="url(#p010b2b0c07)" style="fill: none; stroke: #ffffff; stroke-width: 0.7; stroke-linecap: round"/>
     </g>
    </g>
    <g id="ytick_21">
     <g id="line2d_42">
      <path d="M 65.027891 69.977815 
L 347.807109 69.977815 
" clip-path="url(#p010b2b0c07)" style="fill: none; stroke: #ffffff; stroke-width: 0.7; stroke-linecap: round"/>
     </g>
    </g>
    <g id="ytick_22">
     <g id="line2d_43">
      <path d="M 65.027891 64.836375 
L 347.807109 64.836375 
" clip-path="url(#p010b2b0c07)" style="fill: none; stroke: #ffffff; stroke-width: 0.7; stroke-linecap: round"/>
     </g>
    </g>
   </g>
   <g id="patch_3">
    <path d="M 334.953509 131.675099 
L 331.478769 131.022676 
L 327.243276 130.231614 
L 321.553578 129.092914 
L 314.030031 127.464311 
L 306.152934 125.617429 
L 298.436814 123.672859 
L 290.724294 121.610267 
L 282.968302 119.437135 
L 275.146012 117.171945 
L 267.24169 114.836291 
L 259.285183 112.462102 
L 251.462379 110.152927 
L 243.805386 107.971826 
L 236.306261 105.970186 
L 228.932047 104.192224 
L 221.621099 102.66753 
L 214.304752 101.398648 
L 206.943624 100.369383 
L 199.533908 99.569941 
L 192.091802 98.998855 
L 184.631932 98.658363 
L 177.158411 98.551319 
L 169.679749 98.671808 
L 162.215483 99.016002 
L 154.784354 99.592075 
L 147.400269 100.400335 
L 140.077367 101.447183 
L 132.841124 102.739587 
L 125.727221 104.283947 
L 118.780441 106.086202 
L 112.055 108.146069 
L 105.623418 110.462288 
L 99.580323 113.02072 
L 94.046026 115.786892 
L 89.184048 118.682705 
L 85.173082 121.572118 
L 82.122151 124.290089 
L 80.013287 126.704715 
L 78.72767 128.727049 
L 78.076095 130.352952 
L 77.881491 131.675099 
L 78.007945 132.571252 
L 78.398618 133.327661 
L 79.016413 133.934968 
L 79.960227 134.425821 
L 81.510037 134.856289 
L 84.198548 135.242848 
L 88.537435 135.502722 
L 94.564206 135.548249 
L 101.68834 135.393003 
L 109.394536 135.092306 
L 117.387933 134.694924 
L 125.538427 134.237388 
L 133.781724 133.745146 
L 142.082374 133.235167 
L 150.420042 132.719017 
L 158.759253 132.20675 
L 167.076355 131.705768 
L 175.37338 131.224581 
L 183.649608 130.766041 
L 191.906787 130.338325 
L 200.146228 129.944054 
L 208.364872 129.588857 
L 216.563927 129.283276 
L 224.749897 129.031165 
L 232.924787 128.83561 
L 241.091991 128.70075 
L 249.254798 128.62476 
L 257.414547 128.607922 
L 265.570157 128.648642 
L 273.716229 128.746201 
L 281.847931 128.905457 
L 289.965494 129.130035 
L 298.07969 129.423508 
L 306.246071 129.790504 
L 314.391655 130.23182 
L 321.584118 130.680771 
L 327.151681 131.071057 
L 331.427329 131.398284 
z
" clip-path="url(#p010b2b0c07)" style="opacity: 0.2; stroke: #ffffff; stroke-linejoin: miter"/>
   </g>
   <g id="line2d_44">
    <path d="M 334.953509 131.660884 
L 332.653912 129.122927 
L 330.352236 126.838289 
L 327.954353 124.709187 
L 325.071989 122.459207 
L 322.599116 120.77249 
L 319.865692 119.142487 
L 316.877847 117.610792 
L 313.642282 116.208407 
L 310.166252 114.954267 
L 306.457555 113.854674 
L 302.524505 112.903701 
L 296.946764 111.836582 
L 291.008146 110.940288 
L 279.819171 109.548791 
L 264.137933 107.57314 
L 251.120108 105.672395 
L 223.613854 101.519198 
L 213.516034 100.281418 
L 205.402918 99.491789 
L 197.293847 98.910723 
L 189.221146 98.551094 
L 181.216994 98.415133 
L 173.313299 98.499002 
L 165.541566 98.797042 
L 157.932778 99.304549 
L 150.517263 100.018533 
L 143.324584 100.93663 
L 136.383411 102.054864 
L 129.721415 103.365323 
L 123.365152 104.854701 
L 117.339959 106.504327 
L 111.669856 108.291711 
L 106.377445 110.19306 
L 101.483823 112.18581 
L 97.008498 114.250154 
L 92.969308 116.368811 
L 89.382357 118.524872 
L 86.261942 120.698248 
L 83.620502 122.861865 
L 81.468567 124.97908 
L 80.181088 126.509036 
L 79.176709 127.965022 
L 78.457682 129.324578 
L 78.02562 130.566874 
L 77.881491 131.675099 
L 78.02562 132.594679 
L 78.457682 133.367213 
L 79.176709 133.997397 
L 80.181088 134.495591 
L 81.468567 134.875948 
L 83.620502 135.227597 
L 86.997595 135.470095 
L 92.029583 135.552223 
L 100.325051 135.413048 
L 111.669856 134.981495 
L 126.503453 134.192189 
L 199.318966 129.984703 
L 217.563998 129.25398 
L 233.604586 128.820726 
L 249.212103 128.618723 
L 264.137933 128.63515 
L 279.819171 128.867554 
L 295.495041 129.324028 
L 310.166252 129.98433 
L 323.452643 130.810536 
L 334.953509 131.689314 
L 334.953509 131.689314 
" clip-path="url(#p010b2b0c07)" style="fill: none; stroke: #ffa500; stroke-opacity: 0.7; stroke-width: 1.5; stroke-linecap: round"/>
   </g>
   <g id="line2d_45">
    <path d="M 334.953509 131.660884 
L 333.020285 131.239594 
L 330.874843 130.544987 
L 328.599651 129.590364 
L 325.837405 128.189624 
L 322.599116 126.293801 
L 317.901662 123.231279 
L 301.165144 111.921048 
L 296.946764 109.381259 
L 292.525362 106.944284 
L 287.910853 104.665022 
L 283.113585 102.587642 
L 278.144318 100.743987 
L 273.014195 99.153103 
L 267.734721 97.821798 
L 262.317737 96.746021 
L 256.775389 95.912815 
L 251.120108 95.302554 
L 245.364576 94.891235 
L 237.556926 94.606795 
L 229.625146 94.566537 
L 219.584066 94.771378 
L 207.432082 95.268851 
L 191.234148 96.184371 
L 175.278074 97.304011 
L 163.622897 98.314385 
L 154.198994 99.324051 
L 145.100279 100.535846 
L 138.093594 101.676251 
L 131.359269 102.980163 
L 124.924147 104.447845 
L 118.813883 106.070036 
L 113.052831 107.830076 
L 107.663959 109.707178 
L 102.668748 111.679828 
L 98.087109 113.728231 
L 93.937307 115.834932 
L 90.235884 117.983352 
L 86.997595 120.15461 
L 84.235349 122.323705 
L 81.960157 124.456509 
L 80.181088 126.509036 
L 79.176709 127.965022 
L 78.457682 129.324578 
L 78.02562 130.566874 
L 77.881491 131.675099 
L 78.02562 132.594679 
L 78.457682 133.367213 
L 79.176709 133.997397 
L 80.181088 134.495591 
L 81.468567 134.875948 
L 83.620502 135.227597 
L 86.997595 135.470095 
L 92.029583 135.552223 
L 100.325051 135.413048 
L 111.669856 134.981495 
L 126.503453 134.192189 
L 199.318966 129.984703 
L 217.563998 129.25398 
L 233.604586 128.820726 
L 249.212103 128.618723 
L 264.137933 128.63515 
L 279.819171 128.867554 
L 295.495041 129.324028 
L 310.166252 129.98433 
L 323.452643 130.810536 
L 334.953509 131.689314 
L 334.953509 131.689314 
" clip-path="url(#p010b2b0c07)" style="fill: none; stroke: #f1a812; stroke-opacity: 0.7; stroke-width: 1.5; stroke-linecap: round"/>
   </g>
   <g id="line2d_46">
    <path d="M 334.953509 131.660884 
L 329.798742 130.714173 
L 325.837405 129.781779 
L 321.716634 128.573786 
L 317.901662 127.219168 
L 313.642282 125.433683 
L 310.166252 123.7705 
L 306.457555 121.807426 
L 301.165144 118.713151 
L 295.495041 115.099741 
L 287.910853 109.979232 
L 276.451589 102.205694 
L 271.270387 98.890495 
L 265.943745 95.720677 
L 260.483608 92.789005 
L 256.775389 91.009118 
L 253.016972 89.394818 
L 249.212103 87.964664 
L 245.364576 86.733388 
L 241.478226 85.711513 
L 237.556926 84.905118 
L 233.604586 84.315766 
L 229.625146 83.940572 
L 225.622571 83.772439 
L 221.600852 83.80042 
L 217.563998 84.010212 
L 213.516034 84.384745 
L 207.432082 85.213112 
L 201.345855 86.298932 
L 193.250934 88.024367 
L 181.216994 90.897754 
L 161.714892 95.583981 
L 126.503453 103.78652 
L 118.813883 105.947275 
L 113.052831 107.771765 
L 107.663959 109.68183 
L 102.668748 111.669888 
L 98.087109 113.72478 
L 93.937307 115.833899 
L 90.235884 117.983095 
L 86.997595 120.154559 
L 84.235349 122.323698 
L 81.960157 124.456508 
L 80.181088 126.509036 
L 79.176709 127.965022 
L 78.457682 129.324578 
L 78.02562 130.566874 
L 77.881491 131.675099 
L 78.02562 132.594679 
L 78.457682 133.367213 
L 79.176709 133.997397 
L 80.181088 134.495591 
L 81.468567 134.875948 
L 83.620502 135.227597 
L 86.997595 135.470095 
L 92.029583 135.552223 
L 100.325051 135.413048 
L 111.669856 134.981495 
L 126.503453 134.192189 
L 199.318966 129.984703 
L 217.563998 129.25398 
L 233.604586 128.820726 
L 249.212103 128.618723 
L 264.137933 128.63515 
L 279.819171 128.867554 
L 295.495041 129.324028 
L 310.166252 129.98433 
L 323.452643 130.810536 
L 334.953509 131.689314 
L 334.953509 131.689314 
" clip-path="url(#p010b2b0c07)" style="fill: none; stroke: #e3ab24; stroke-opacity: 0.7; stroke-width: 1.5; stroke-linecap: round"/>
   </g>
   <g id="line2d_47">
    <path d="M 334.953509 131.660884 
L 328.599651 130.521628 
L 321.716634 129.074982 
L 315.826502 127.643577 
L 310.166252 126.048523 
L 305.171041 124.418029 
L 299.782169 122.385578 
L 295.495041 120.547636 
L 291.008146 118.406955 
L 286.331547 115.942549 
L 281.475731 113.147213 
L 276.451589 110.031695 
L 269.510416 105.437857 
L 247.293434 90.295333 
L 241.478226 86.742456 
L 237.556926 84.5498 
L 233.604586 82.536841 
L 229.625146 80.733678 
L 225.622571 79.166433 
L 221.600852 77.856442 
L 217.563998 76.819618 
L 213.516034 76.066011 
L 209.460993 75.599587 
L 205.402918 75.418239 
L 201.345855 75.514006 
L 197.293847 75.873519 
L 193.250934 76.478609 
L 189.221146 77.307089 
L 185.208499 78.333629 
L 181.216994 79.53072 
L 175.278074 81.583234 
L 169.408987 83.857854 
L 161.714892 87.079336 
L 134.690682 98.652446 
L 121.826854 103.752512 
L 107.663959 109.371205 
L 101.483823 112.054026 
L 97.008498 114.19495 
L 92.969308 116.348505 
L 89.382357 118.518524 
L 86.261942 120.696641 
L 83.620502 122.86156 
L 81.468567 124.979042 
L 80.181088 126.509031 
L 79.176709 127.965022 
L 78.457682 129.324578 
L 78.02562 130.566874 
L 77.881491 131.675099 
L 78.02562 132.594679 
L 78.457682 133.367213 
L 79.176709 133.997397 
L 80.181088 134.495591 
L 81.468567 134.875948 
L 83.620502 135.227597 
L 86.997595 135.470095 
L 92.029583 135.552223 
L 100.325051 135.413048 
L 111.669856 134.981495 
L 126.503453 134.192189 
L 199.318966 129.984703 
L 217.563998 129.25398 
L 233.604586 128.820726 
L 249.212103 128.618723 
L 264.137933 128.63515 
L 279.819171 128.867554 
L 295.495041 129.324028 
L 310.166252 129.98433 
L 323.452643 130.810536 
L 334.953509 131.689314 
L 334.953509 131.689314 
" clip-path="url(#p010b2b0c07)" style="fill: none; stroke: #d5ae36; stroke-opacity: 0.7; stroke-width: 1.5; stroke-linecap: round"/>
   </g>
   <g id="line2d_48">
    <path d="M 334.953509 131.660884 
L 328.599651 130.524552 
L 319.865692 128.722986 
L 310.166252 126.488729 
L 302.524505 124.519997 
L 295.495041 122.479235 
L 289.469848 120.504057 
L 283.113585 118.151739 
L 278.144318 116.100521 
L 273.014195 113.777918 
L 267.734721 111.169667 
L 262.317737 108.273056 
L 256.775389 105.099948 
L 249.212103 100.491385 
L 237.556926 93.031948 
L 227.626501 86.723304 
L 221.600852 83.105544 
L 215.541153 79.748019 
L 211.489145 77.708558 
L 207.432082 75.864344 
L 203.374007 74.243765 
L 199.318966 72.872036 
L 195.271002 71.77048 
L 191.234148 70.955911 
L 187.212429 70.440146 
L 183.209854 70.229652 
L 179.230414 70.325362 
L 175.278074 70.722653 
L 171.356774 71.411489 
L 167.470424 72.376738 
L 163.622897 73.598633 
L 159.818028 75.053373 
L 156.059611 76.713844 
L 152.351392 78.550416 
L 146.891255 81.566812 
L 141.564613 84.801046 
L 134.690682 89.27175 
L 110.310495 105.488518 
L 101.483823 110.882192 
L 92.029583 116.639894 
L 87.763011 119.528527 
L 84.880647 121.757226 
L 82.482764 123.922652 
L 80.578922 126.005145 
L 79.479894 127.489145 
L 78.665539 128.883438 
L 78.137683 130.166951 
L 77.897508 131.321387 
L 77.945555 132.304526 
L 78.281715 133.125884 
L 78.905235 133.802609 
L 79.814715 134.343375 
L 81.008117 134.761283 
L 83.036258 135.154525 
L 85.556234 135.395556 
L 89.382357 135.534948 
L 95.957153 135.513432 
L 105.115864 135.255694 
L 118.813883 134.624399 
L 139.820805 133.379479 
L 181.216994 130.896902 
L 203.374007 129.803525 
L 221.600852 129.124734 
L 237.556926 128.748422 
L 253.016972 128.603576 
L 269.510416 128.690218 
L 284.732325 128.985588 
L 299.782169 129.491666 
L 313.642282 130.178697 
L 327.278766 131.088888 
L 334.953509 131.689314 
L 334.953509 131.689314 
" clip-path="url(#p010b2b0c07)" style="fill: none; stroke: #c7b148; stroke-opacity: 0.7; stroke-width: 1.5; stroke-linecap: round"/>
   </g>
   <g id="line2d_49">
    <path d="M 334.953509 131.660884 
L 328.599651 130.524627 
L 319.865692 128.727867 
L 308.955472 126.252095 
L 298.375925 123.622769 
L 289.469848 121.191417 
L 281.475731 118.802231 
L 273.014195 116.031567 
L 265.943745 113.511314 
L 258.636006 110.702597 
L 251.120108 107.595313 
L 243.426013 104.188256 
L 235.584391 100.492415 
L 225.622571 95.511336 
L 213.516034 89.155675 
L 197.293847 80.629988 
L 191.234148 77.648883 
L 185.208499 74.917517 
L 181.216994 73.281945 
L 177.250609 71.827841 
L 173.313299 70.583108 
L 169.408987 69.574249 
L 165.541566 68.825493 
L 161.714892 68.357923 
L 157.932778 68.188636 
L 154.198994 68.329987 
L 150.517263 68.788941 
L 146.891255 69.566595 
L 143.324584 70.65787 
L 139.820805 72.051428 
L 136.383411 73.729811 
L 133.015829 75.669805 
L 129.721415 77.84304 
L 126.503453 80.216785 
L 123.365152 82.754925 
L 118.813883 86.786078 
L 114.459075 90.967739 
L 108.975085 96.556402 
L 91.118366 115.078199 
L 82.482764 123.721338 
L 80.578922 125.949004 
L 79.176709 127.955585 
L 78.457682 129.323311 
L 78.02562 130.566834 
L 77.881491 131.675099 
L 78.02562 132.594679 
L 78.457682 133.367213 
L 79.176709 133.997397 
L 80.181088 134.495591 
L 81.468567 134.875948 
L 83.620502 135.227597 
L 86.997595 135.470095 
L 92.029583 135.552223 
L 100.325051 135.413048 
L 111.669856 134.981495 
L 126.503453 134.192189 
L 199.318966 129.984703 
L 217.563998 129.25398 
L 233.604586 128.820726 
L 249.212103 128.618723 
L 264.137933 128.63515 
L 279.819171 128.867554 
L 295.495041 129.324028 
L 310.166252 129.98433 
L 323.452643 130.810536 
L 334.953509 131.689314 
L 334.953509 131.689314 
" clip-path="url(#p010b2b0c07)" style="fill: none; stroke: #b9b35a; stroke-opacity: 0.7; stroke-width: 1.5; stroke-linecap: round"/>
   </g>
   <g id="line2d_50">
    <path d="M 334.953509 131.660884 
L 328.599651 130.524628 
L 319.865692 128.728053 
L 308.955472 126.256354 
L 298.375925 123.651602 
L 287.910853 120.854984 
L 276.451589 117.54313 
L 262.317737 113.184245 
L 213.516034 97.665359 
L 201.345855 93.584758 
L 191.234148 89.935489 
L 181.216994 86.034556 
L 169.408987 81.137527 
L 157.932778 76.375952 
L 152.351392 74.240052 
L 146.891255 72.397088 
L 143.324584 71.382939 
L 139.820805 70.576439 
L 136.383411 70.00704 
L 133.015829 69.701795 
L 129.721415 69.684373 
L 126.503453 69.974136 
L 123.365152 70.585313 
L 120.309638 71.526304 
L 117.339959 72.799147 
L 114.459075 74.399176 
L 111.669856 76.314874 
L 108.975085 78.52795 
L 106.377445 81.01363 
L 103.879528 83.741157 
L 101.483823 86.674499 
L 99.192718 89.773227 
L 95.957153 94.635009 
L 92.969308 99.614148 
L 89.382357 106.164709 
L 85.556234 113.733318 
L 81.008117 123.280338 
L 78.665539 128.586765 
L 78.02562 130.543079 
L 77.881491 131.675099 
L 78.02562 132.594679 
L 78.457682 133.367213 
L 79.176709 133.997397 
L 80.181088 134.495591 
L 81.468567 134.875948 
L 83.620502 135.227597 
L 86.997595 135.470095 
L 92.029583 135.552223 
L 100.325051 135.413048 
L 111.669856 134.981495 
L 126.503453 134.192189 
L 199.318966 129.984703 
L 217.563998 129.25398 
L 233.604586 128.820726 
L 249.212103 128.618723 
L 264.137933 128.63515 
L 279.819171 128.867554 
L 295.495041 129.324028 
L 310.166252 129.98433 
L 323.452643 130.810536 
L 334.953509 131.689314 
L 334.953509 131.689314 
" clip-path="url(#p010b2b0c07)" style="fill: none; stroke: #abb66c; stroke-opacity: 0.7; stroke-width: 1.5; stroke-linecap: round"/>
   </g>
   <g id="line2d_51">
    <path d="M 334.953509 131.660884 
L 328.599651 130.524628 
L 319.865692 128.728057 
L 308.955472 126.256517 
L 298.375925 123.65325 
L 287.910853 120.863824 
L 276.451589 117.580119 
L 239.521701 106.730985 
L 231.618006 104.70728 
L 223.613854 102.856835 
L 215.541153 101.204133 
L 207.432082 99.748618 
L 197.293847 98.163925 
L 165.541566 93.510066 
L 157.932778 92.080456 
L 150.517263 90.440071 
L 143.324584 88.577895 
L 136.383411 86.516649 
L 129.721415 84.317084 
L 110.310495 77.711793 
L 106.377445 76.756134 
L 103.879528 76.340174 
L 101.483823 76.135389 
L 99.192718 76.170598 
L 97.008498 76.473345 
L 94.933338 77.069119 
L 92.969308 77.980567 
L 91.118366 79.226698 
L 89.382357 80.822125 
L 87.763011 82.776366 
L 86.261942 85.093239 
L 84.880647 87.770378 
L 83.620502 90.7989 
L 82.482764 94.163236 
L 81.468567 97.841161 
L 80.578922 101.804011 
L 79.814715 106.017106 
L 79.176709 110.440366 
L 78.457682 117.370544 
L 78.02562 124.507137 
L 77.881491 131.675099 
L 78.02562 132.594679 
L 78.457682 133.367213 
L 79.176709 133.997397 
L 80.181088 134.495591 
L 81.468567 134.875948 
L 83.620502 135.227597 
L 86.997595 135.470095 
L 92.029583 135.552223 
L 100.325051 135.413048 
L 111.669856 134.981495 
L 126.503453 134.192189 
L 199.318966 129.984703 
L 217.563998 129.25398 
L 233.604586 128.820726 
L 249.212103 128.618723 
L 264.137933 128.63515 
L 279.819171 128.867554 
L 295.495041 129.324028 
L 310.166252 129.98433 
L 323.452643 130.810536 
L 334.953509 131.689314 
L 334.953509 131.689314 
" clip-path="url(#p010b2b0c07)" style="fill: none; stroke: #9db97e; stroke-opacity: 0.7; stroke-width: 1.5; stroke-linecap: round"/>
   </g>
   <g id="line2d_52">
    <path d="M 334.953509 131.660884 
L 328.599651 130.524628 
L 319.865692 128.728057 
L 308.955472 126.25652 
L 298.375925 123.65329 
L 287.910853 120.864116 
L 276.451589 117.581744 
L 241.478226 107.321728 
L 233.604586 105.315186 
L 225.622571 103.510044 
L 217.563998 101.956608 
L 209.460993 100.688126 
L 203.374007 99.933557 
L 195.271002 99.190617 
L 187.212429 98.73869 
L 179.230414 98.560448 
L 171.356774 98.636553 
L 163.622897 98.949856 
L 156.059611 99.487508 
L 148.697067 100.240797 
L 141.564613 101.203162 
L 134.690682 102.367303 
L 128.102675 103.722532 
L 121.826854 105.253291 
L 115.888236 106.939317 
L 110.310495 108.757324 
L 105.115864 110.683516 
L 100.325051 112.695895 
L 95.957153 114.77537 
L 92.029583 116.905019 
L 88.557997 119.067504 
L 85.556234 121.241324 
L 83.036258 123.397174 
L 81.008117 125.495896 
L 79.814715 127.003702 
L 78.905235 128.430006 
L 78.281715 129.752642 
L 77.945555 130.951847 
L 77.881491 131.675099 
L 78.02562 138.654417 
L 78.457682 145.321247 
L 78.905235 149.515616 
L 79.479894 153.461637 
L 80.181088 157.122962 
L 81.008117 160.468176 
L 81.960157 163.471167 
L 83.036258 166.111373 
L 84.235349 168.373929 
L 85.556234 170.249705 
L 86.997595 171.735234 
L 88.557997 172.832546 
L 90.235884 173.548906 
L 92.029583 173.896471 
L 93.937307 173.891863 
L 95.957153 173.55569 
L 98.087109 172.912001 
L 100.325051 171.987709 
L 102.668748 170.811982 
L 106.377445 168.644624 
L 111.669856 165.169051 
L 126.503453 155.086176 
L 131.359269 152.04898 
L 136.383411 149.134815 
L 141.564613 146.393951 
L 146.891255 143.86225 
L 152.351392 141.561948 
L 157.932778 139.503053 
L 163.622897 137.685189 
L 169.408987 136.099721 
L 175.278074 134.731966 
L 181.216994 133.563331 
L 187.212429 132.573242 
L 195.271002 131.494748 
L 203.374007 130.64959 
L 213.516034 129.859251 
L 223.613854 129.304838 
L 235.584391 128.883089 
L 249.212103 128.650862 
L 264.137933 128.642405 
L 279.819171 128.868573 
L 295.495041 129.3241 
L 310.166252 129.984331 
L 323.452643 130.810536 
L 334.953509 131.689314 
L 334.953509 131.689314 
" clip-path="url(#p010b2b0c07)" style="fill: none; stroke: #80b69d; stroke-opacity: 0.7; stroke-width: 1.5; stroke-linecap: round"/>
   </g>
   <g id="line2d_53">
    <path d="M 334.953509 131.660884 
L 328.599651 130.524628 
L 319.865692 128.728057 
L 308.955472 126.25652 
L 298.375925 123.65329 
L 287.910853 120.864116 
L 276.451589 117.581744 
L 241.478226 107.321728 
L 233.604586 105.315186 
L 225.622571 103.510044 
L 217.563998 101.956608 
L 209.460993 100.688126 
L 203.374007 99.933557 
L 195.271002 99.190617 
L 187.212429 98.73869 
L 179.230414 98.560448 
L 171.356774 98.636553 
L 163.622897 98.949856 
L 156.059611 99.487508 
L 148.697067 100.240797 
L 141.564613 101.203162 
L 134.690682 102.367303 
L 128.102675 103.722532 
L 121.826854 105.253291 
L 115.888236 106.939317 
L 110.310495 108.757324 
L 105.115864 110.683516 
L 100.325051 112.695895 
L 95.957153 114.77537 
L 92.029583 116.905019 
L 88.557997 119.067504 
L 85.556234 121.241324 
L 83.036258 123.397174 
L 81.008117 125.495896 
L 79.814715 127.003702 
L 78.905235 128.430006 
L 78.281715 129.752642 
L 77.945555 130.951847 
L 77.897508 131.998854 
L 78.137683 132.924653 
L 78.665539 133.889365 
L 80.181088 135.925246 
L 86.261942 143.835006 
L 91.118366 150.073675 
L 93.937307 153.424784 
L 97.008498 156.750449 
L 99.192718 158.880524 
L 101.483823 160.89027 
L 103.879528 162.738426 
L 106.377445 164.387128 
L 108.975085 165.803057 
L 111.669856 166.958387 
L 114.459075 167.831508 
L 117.339959 168.407512 
L 120.309638 168.678427 
L 123.365152 168.643214 
L 126.503453 168.307538 
L 129.721415 167.683321 
L 133.015829 166.788133 
L 136.383411 165.644424 
L 139.820805 164.278663 
L 145.100279 161.878917 
L 150.517263 159.15418 
L 161.714892 153.171601 
L 171.356774 148.128894 
L 177.250609 145.255276 
L 183.209854 142.572934 
L 189.221146 140.125322 
L 195.271002 137.939559 
L 201.345855 136.02799 
L 207.432082 134.390348 
L 213.516034 133.01626 
L 219.584066 131.887846 
L 225.622571 130.982198 
L 231.618006 130.273617 
L 239.521701 129.589467 
L 247.293434 129.147512 
L 256.775389 128.852969 
L 267.734721 128.764624 
L 279.819171 128.893703 
L 294.021117 129.274481 
L 307.719136 129.856826 
L 320.805417 130.628052 
L 334.953509 131.689314 
L 334.953509 131.689314 
" clip-path="url(#p010b2b0c07)" style="fill: none; stroke: #72b1ac; stroke-opacity: 0.7; stroke-width: 1.5; stroke-linecap: round"/>
   </g>
   <g id="line2d_54">
    <path d="M 334.953509 131.660884 
L 328.599651 130.524628 
L 319.865692 128.728057 
L 308.955472 126.25652 
L 298.375925 123.65329 
L 287.910853 120.864116 
L 276.451589 117.581744 
L 241.478226 107.321728 
L 233.604586 105.315186 
L 225.622571 103.510044 
L 217.563998 101.956608 
L 209.460993 100.688126 
L 203.374007 99.933557 
L 195.271002 99.190617 
L 187.212429 98.73869 
L 179.230414 98.560448 
L 171.356774 98.636553 
L 163.622897 98.949856 
L 156.059611 99.487508 
L 148.697067 100.240797 
L 141.564613 101.203162 
L 134.690682 102.367303 
L 128.102675 103.722532 
L 121.826854 105.253291 
L 115.888236 106.939317 
L 110.310495 108.757324 
L 105.115864 110.683516 
L 100.325051 112.695895 
L 95.957153 114.77537 
L 92.029583 116.905019 
L 88.557997 119.067504 
L 85.556234 121.241324 
L 83.036258 123.397174 
L 81.008117 125.495896 
L 79.814715 127.003702 
L 78.905235 128.430006 
L 78.281715 129.752642 
L 77.945555 130.951847 
L 77.897508 131.997969 
L 78.137683 132.868601 
L 78.665539 133.595401 
L 79.479894 134.19334 
L 80.578922 134.691849 
L 82.482764 135.279579 
L 88.557997 136.990277 
L 92.029583 138.283556 
L 94.933338 139.581692 
L 98.087109 141.192041 
L 102.668748 143.823455 
L 108.975085 147.774605 
L 117.339959 153.036886 
L 121.826854 155.639482 
L 126.503453 158.064889 
L 129.721415 159.524654 
L 133.015829 160.820122 
L 136.383411 161.921654 
L 139.820805 162.803674 
L 143.324584 163.445468 
L 146.891255 163.83179 
L 150.517263 163.953283 
L 154.198994 163.806693 
L 157.932778 163.394872 
L 161.714892 162.726575 
L 165.541566 161.816073 
L 169.408987 160.682589 
L 173.313299 159.349604 
L 179.230414 157.035678 
L 185.208499 154.434727 
L 195.271002 149.751287 
L 207.432082 144.133566 
L 213.516034 141.525944 
L 219.584066 139.137099 
L 225.622571 137.007846 
L 231.618006 135.161042 
L 237.556926 133.603161 
L 243.426013 132.326774 
L 249.212103 131.313601 
L 254.902222 130.537779 
L 260.483608 129.969039 
L 267.734721 129.477898 
L 274.741406 129.225827 
L 283.113585 129.150994 
L 292.525362 129.288728 
L 303.859915 129.682217 
L 316.877847 130.374057 
L 330.352236 131.32364 
L 334.953509 131.689314 
L 334.953509 131.689314 
" clip-path="url(#p010b2b0c07)" style="fill: none; stroke: #64abba; stroke-opacity: 0.7; stroke-width: 1.5; stroke-linecap: round"/>
   </g>
   <g id="line2d_55">
    <path d="M 334.953509 131.660884 
L 328.599651 130.524628 
L 319.865692 128.728057 
L 308.955472 126.25652 
L 298.375925 123.65329 
L 287.910853 120.864116 
L 276.451589 117.581744 
L 241.478226 107.321728 
L 233.604586 105.315186 
L 225.622571 103.510044 
L 217.563998 101.956608 
L 209.460993 100.688126 
L 203.374007 99.933557 
L 195.271002 99.190617 
L 187.212429 98.73869 
L 179.230414 98.560448 
L 171.356774 98.636553 
L 163.622897 98.949856 
L 156.059611 99.487508 
L 148.697067 100.240797 
L 141.564613 101.203162 
L 134.690682 102.367303 
L 128.102675 103.722532 
L 121.826854 105.253291 
L 115.888236 106.939317 
L 110.310495 108.757324 
L 105.115864 110.683516 
L 100.325051 112.695895 
L 95.957153 114.77537 
L 92.029583 116.905019 
L 88.557997 119.067504 
L 85.556234 121.241324 
L 83.036258 123.397174 
L 81.008117 125.495896 
L 79.814715 127.003702 
L 78.905235 128.430006 
L 78.281715 129.752642 
L 77.945555 130.951847 
L 77.897508 131.997969 
L 78.137683 132.868433 
L 78.665539 133.592692 
L 79.479894 134.177653 
L 80.578922 134.635708 
L 81.960157 134.983481 
L 84.235349 135.310602 
L 88.557997 135.625305 
L 97.008498 136.180612 
L 101.483823 136.682577 
L 106.377445 137.475206 
L 110.310495 138.311923 
L 114.459075 139.386645 
L 118.813883 140.713651 
L 123.365152 142.291239 
L 129.721415 144.746175 
L 152.351392 153.882599 
L 157.932778 155.723813 
L 161.714892 156.785975 
L 165.541566 157.68456 
L 169.408987 158.396143 
L 173.313299 158.901254 
L 177.250609 159.185068 
L 181.216994 159.237931 
L 185.208499 159.055693 
L 189.221146 158.63985 
L 193.250934 157.997466 
L 197.293847 157.140907 
L 201.345855 156.087386 
L 205.402918 154.858334 
L 211.489145 152.740849 
L 217.563998 150.379166 
L 227.626501 146.172743 
L 239.521701 141.22168 
L 247.293434 138.269064 
L 253.016972 136.327794 
L 258.636006 134.653204 
L 264.137933 133.255666 
L 269.510416 132.130467 
L 274.741406 131.260868 
L 279.819171 130.621549 
L 286.331547 130.074309 
L 292.525362 129.805281 
L 299.782169 129.749391 
L 307.719136 129.937735 
L 316.877847 130.385495 
L 329.214498 131.23574 
L 334.953509 131.689314 
L 334.953509 131.689314 
" clip-path="url(#p010b2b0c07)" style="fill: none; stroke: #56a6c8; stroke-opacity: 0.7; stroke-width: 1.5; stroke-linecap: round"/>
   </g>
   <g id="line2d_56">
    <path d="M 334.953509 131.660884 
L 328.599651 130.524628 
L 319.865692 128.728057 
L 308.955472 126.25652 
L 298.375925 123.65329 
L 287.910853 120.864116 
L 276.451589 117.581744 
L 241.478226 107.321728 
L 233.604586 105.315186 
L 225.622571 103.510044 
L 217.563998 101.956608 
L 209.460993 100.688126 
L 203.374007 99.933557 
L 195.271002 99.190617 
L 187.212429 98.73869 
L 179.230414 98.560448 
L 171.356774 98.636553 
L 163.622897 98.949856 
L 156.059611 99.487508 
L 148.697067 100.240797 
L 141.564613 101.203162 
L 134.690682 102.367303 
L 128.102675 103.722532 
L 121.826854 105.253291 
L 115.888236 106.939317 
L 110.310495 108.757324 
L 105.115864 110.683516 
L 100.325051 112.695895 
L 95.957153 114.77537 
L 92.029583 116.905019 
L 88.557997 119.067504 
L 85.556234 121.241324 
L 83.036258 123.397174 
L 81.008117 125.495896 
L 79.814715 127.003702 
L 78.905235 128.430006 
L 78.281715 129.752642 
L 77.945555 130.951847 
L 77.897508 131.997969 
L 78.137683 132.868433 
L 78.665539 133.592678 
L 79.479894 134.177489 
L 80.578922 134.634709 
L 81.960157 134.97937 
L 84.235349 135.292234 
L 87.763011 135.500856 
L 93.937307 135.567444 
L 113.052831 135.563895 
L 120.309638 135.861792 
L 126.503453 136.356956 
L 131.359269 136.925625 
L 136.383411 137.691663 
L 141.564613 138.671569 
L 146.891255 139.869982 
L 154.198994 141.788063 
L 161.714892 144.005162 
L 181.216994 149.946602 
L 187.212429 151.519524 
L 193.250934 152.845318 
L 197.293847 153.553712 
L 201.345855 154.098742 
L 205.402918 154.464537 
L 209.460993 154.639272 
L 213.516034 154.615609 
L 217.563998 154.39097 
L 221.600852 153.967649 
L 225.622571 153.352748 
L 229.625146 152.55794 
L 233.604586 151.599071 
L 239.521701 149.896603 
L 245.364576 147.947045 
L 253.016972 145.113727 
L 273.014195 137.510086 
L 279.819171 135.291823 
L 284.732325 133.913495 
L 289.469848 132.791694 
L 294.021117 131.920786 
L 298.375925 131.282939 
L 303.859915 130.748029 
L 308.955472 130.502707 
L 314.747891 130.481332 
L 320.805417 130.692033 
L 329.214498 131.237713 
L 334.953509 131.689314 
L 334.953509 131.689314 
" clip-path="url(#p010b2b0c07)" style="fill: none; stroke: #48a0d6; stroke-opacity: 0.7; stroke-width: 1.5; stroke-linecap: round"/>
   </g>
   <g id="line2d_57">
    <path d="M 334.953509 131.660884 
L 328.599651 130.524628 
L 319.865692 128.728057 
L 308.955472 126.25652 
L 298.375925 123.65329 
L 287.910853 120.864116 
L 276.451589 117.581744 
L 241.478226 107.321728 
L 233.604586 105.315186 
L 225.622571 103.510044 
L 217.563998 101.956608 
L 209.460993 100.688126 
L 203.374007 99.933557 
L 195.271002 99.190617 
L 187.212429 98.73869 
L 179.230414 98.560448 
L 171.356774 98.636553 
L 163.622897 98.949856 
L 156.059611 99.487508 
L 148.697067 100.240797 
L 141.564613 101.203162 
L 134.690682 102.367303 
L 128.102675 103.722532 
L 121.826854 105.253291 
L 115.888236 106.939317 
L 110.310495 108.757324 
L 105.115864 110.683516 
L 100.325051 112.695895 
L 95.957153 114.77537 
L 92.029583 116.905019 
L 88.557997 119.067504 
L 85.556234 121.241324 
L 83.036258 123.397174 
L 81.008117 125.495896 
L 79.814715 127.003702 
L 78.905235 128.430006 
L 78.281715 129.752642 
L 77.945555 130.951847 
L 77.897508 131.997969 
L 78.137683 132.868433 
L 78.665539 133.592678 
L 79.479894 134.177488 
L 80.578922 134.634698 
L 81.960157 134.979303 
L 84.235349 135.291764 
L 87.763011 135.497642 
L 92.969308 135.549503 
L 101.483823 135.386949 
L 117.339959 134.811465 
L 131.359269 134.378696 
L 139.820805 134.320531 
L 146.891255 134.462933 
L 154.198994 134.838602 
L 161.714892 135.500517 
L 167.470424 136.207544 
L 173.313299 137.102622 
L 181.216994 138.579567 
L 189.221146 140.338675 
L 199.318966 142.803852 
L 213.516034 146.296874 
L 221.600852 148.023671 
L 227.626501 149.064824 
L 233.604586 149.820147 
L 237.556926 150.140305 
L 241.478226 150.300996 
L 245.364576 150.295339 
L 249.212103 150.120401 
L 253.016972 149.777377 
L 256.775389 149.271622 
L 260.483608 148.612538 
L 265.943745 147.366185 
L 271.270387 145.863455 
L 276.451589 144.175291 
L 283.113585 141.772008 
L 298.375925 136.120092 
L 303.859915 134.370961 
L 308.955472 133.026627 
L 313.642282 132.08955 
L 317.901662 131.518117 
L 321.716634 131.240945 
L 325.837405 131.179474 
L 330.352236 131.351669 
L 334.953509 131.689314 
L 334.953509 131.689314 
" clip-path="url(#p010b2b0c07)" style="fill: none; stroke: #399be4; stroke-opacity: 0.7; stroke-width: 1.5; stroke-linecap: round"/>
   </g>
   <g id="line2d_58">
    <path d="M 334.953509 131.660884 
L 328.599651 130.524628 
L 319.865692 128.728057 
L 308.955472 126.25652 
L 298.375925 123.65329 
L 287.910853 120.864116 
L 276.451589 117.581744 
L 241.478226 107.321728 
L 233.604586 105.315186 
L 225.622571 103.510044 
L 217.563998 101.956608 
L 209.460993 100.688126 
L 203.374007 99.933557 
L 195.271002 99.190617 
L 187.212429 98.73869 
L 179.230414 98.560448 
L 171.356774 98.636553 
L 163.622897 98.949856 
L 156.059611 99.487508 
L 148.697067 100.240797 
L 141.564613 101.203162 
L 134.690682 102.367303 
L 128.102675 103.722532 
L 121.826854 105.253291 
L 115.888236 106.939317 
L 110.310495 108.757324 
L 105.115864 110.683516 
L 100.325051 112.695895 
L 95.957153 114.77537 
L 92.029583 116.905019 
L 88.557997 119.067504 
L 85.556234 121.241324 
L 83.036258 123.397174 
L 81.008117 125.495896 
L 79.814715 127.003702 
L 78.905235 128.430006 
L 78.281715 129.752642 
L 77.945555 130.951847 
L 77.897508 131.997969 
L 78.137683 132.868433 
L 78.665539 133.592678 
L 79.479894 134.177488 
L 80.578922 134.634698 
L 81.960157 134.979303 
L 84.235349 135.291757 
L 87.763011 135.497564 
L 92.969308 135.548759 
L 101.483823 135.379224 
L 113.052831 134.919793 
L 131.359269 133.943922 
L 150.517263 132.960125 
L 161.714892 132.582151 
L 171.356774 132.466185 
L 179.230414 132.562418 
L 187.212429 132.871724 
L 195.271002 133.42993 
L 203.374007 134.260902 
L 211.489145 135.369587 
L 219.584066 136.735549 
L 227.626501 138.308423 
L 241.478226 141.297895 
L 251.120108 143.322815 
L 258.636006 144.67547 
L 264.137933 145.449033 
L 269.510416 145.964959 
L 274.741406 146.189575 
L 279.819171 146.103859 
L 284.732325 145.705469 
L 289.469848 145.00955 
L 294.021117 144.048171 
L 298.375925 142.868379 
L 302.524505 141.528992 
L 307.719136 139.610072 
L 323.452643 133.485394 
L 326.573058 132.578088 
L 329.214498 132.010125 
L 331.826883 131.685099 
L 334.169461 131.642505 
L 334.953509 131.689314 
L 334.953509 131.689314 
" clip-path="url(#p010b2b0c07)" style="fill: none; stroke: #2b95f2; stroke-opacity: 0.7; stroke-width: 1.5; stroke-linecap: round"/>
   </g>
   <g id="line2d_59">
    <path d="M 334.953509 131.660884 
L 328.599651 130.524628 
L 319.865692 128.728057 
L 308.955472 126.25652 
L 298.375925 123.65329 
L 287.910853 120.864116 
L 276.451589 117.581744 
L 241.478226 107.321728 
L 233.604586 105.315186 
L 225.622571 103.510044 
L 217.563998 101.956608 
L 209.460993 100.688126 
L 203.374007 99.933557 
L 195.271002 99.190617 
L 187.212429 98.73869 
L 179.230414 98.560448 
L 171.356774 98.636553 
L 163.622897 98.949856 
L 156.059611 99.487508 
L 148.697067 100.240797 
L 141.564613 101.203162 
L 134.690682 102.367303 
L 128.102675 103.722532 
L 121.826854 105.253291 
L 115.888236 106.939317 
L 110.310495 108.757324 
L 105.115864 110.683516 
L 100.325051 112.695895 
L 95.957153 114.77537 
L 92.029583 116.905019 
L 88.557997 119.067504 
L 85.556234 121.241324 
L 83.036258 123.397174 
L 81.008117 125.495896 
L 79.814715 127.003702 
L 78.905235 128.430006 
L 78.281715 129.752642 
L 77.945555 130.951847 
L 77.897508 131.997969 
L 78.137683 132.868433 
L 78.665539 133.592678 
L 79.479894 134.177488 
L 80.578922 134.634698 
L 81.960157 134.979303 
L 84.235349 135.291757 
L 87.763011 135.497563 
L 92.969308 135.548744 
L 101.483823 135.378959 
L 113.052831 134.916614 
L 129.721415 134.002371 
L 177.250609 131.24194 
L 191.234148 130.682254 
L 203.374007 130.410836 
L 213.516034 130.400201 
L 223.613854 130.642475 
L 231.618006 131.048463 
L 239.521701 131.65815 
L 247.293434 132.47267 
L 254.902222 133.477844 
L 264.137933 134.952755 
L 274.741406 136.905196 
L 291.008146 139.940841 
L 296.946764 140.827157 
L 302.524505 141.405073 
L 306.457555 141.599623 
L 310.166252 141.571378 
L 313.642282 141.314826 
L 316.877847 140.835587 
L 319.865692 140.150932 
L 322.599116 139.289618 
L 325.071989 138.29095 
L 327.278766 137.203101 
L 329.798742 135.708962 
L 332.256078 133.965476 
L 334.697317 131.922909 
L 334.953509 131.689314 
L 334.953509 131.689314 
" clip-path="url(#p010b2b0c07)" style="fill: none; stroke: #1e90ff; stroke-opacity: 0.7; stroke-width: 1.5; stroke-linecap: round"/>
   </g>
   <g id="patch_4">
    <path d="M 65.027891 177.948062 
L 65.027891 64.836375 
" style="fill: none; stroke: #ffffff; stroke-width: 1.25; stroke-linejoin: miter; stroke-linecap: square"/>
   </g>
   <g id="patch_5">
    <path d="M 347.807109 177.948062 
L 347.807109 64.836375 
" style="fill: none; stroke: #ffffff; stroke-width: 1.25; stroke-linejoin: miter; stroke-linecap: square"/>
   </g>
   <g id="patch_6">
    <path d="M 65.027891 177.948062 
L 347.807109 177.948062 
" style="fill: none; stroke: #ffffff; stroke-width: 1.25; stroke-linejoin: miter; stroke-linecap: square"/>
   </g>
   <g id="patch_7">
    <path d="M 65.027891 64.836375 
L 347.807109 64.836375 
" style="fill: none; stroke: #ffffff; stroke-width: 1.25; stroke-linejoin: miter; stroke-linecap: square"/>
   </g>
   <g id="text_11">
    <!-- Top- and Bottom-Surface Modes (16) -->
    <g style="fill: #262626" transform="translate(107.714687 58.836375) scale(0.12 -0.12)">
     <defs>
      <path id="ArialMT-54" d="M 1659 0 
L 1659 4041 
L 150 4041 
L 150 4581 
L 3781 4581 
L 3781 4041 
L 2266 4041 
L 2266 0 
L 1659 0 
z
" transform="scale(0.015625)"/>
      <path id="ArialMT-6f" d="M 213 1659 
Q 213 2581 725 3025 
Q 1153 3394 1769 3394 
Q 2453 3394 2887 2945 
Q 3322 2497 3322 1706 
Q 3322 1066 3130 698 
Q 2938 331 2570 128 
Q 2203 -75 1769 -75 
Q 1072 -75 642 372 
Q 213 819 213 1659 
z
M 791 1659 
Q 791 1022 1069 705 
Q 1347 388 1769 388 
Q 2188 388 2466 706 
Q 2744 1025 2744 1678 
Q 2744 2294 2464 2611 
Q 2184 2928 1769 2928 
Q 1347 2928 1069 2612 
Q 791 2297 791 1659 
z
" transform="scale(0.015625)"/>
      <path id="ArialMT-70" d="M 422 -1272 
L 422 3319 
L 934 3319 
L 934 2888 
Q 1116 3141 1344 3267 
Q 1572 3394 1897 3394 
Q 2322 3394 2647 3175 
Q 2972 2956 3137 2557 
Q 3303 2159 3303 1684 
Q 3303 1175 3120 767 
Q 2938 359 2589 142 
Q 2241 -75 1856 -75 
Q 1575 -75 1351 44 
Q 1128 163 984 344 
L 984 -1272 
L 422 -1272 
z
M 931 1641 
Q 931 1000 1190 694 
Q 1450 388 1819 388 
Q 2194 388 2461 705 
Q 2728 1022 2728 1688 
Q 2728 2322 2467 2637 
Q 2206 2953 1844 2953 
Q 1484 2953 1207 2617 
Q 931 2281 931 1641 
z
" transform="scale(0.015625)"/>
      <path id="ArialMT-2d" d="M 203 1375 
L 203 1941 
L 1931 1941 
L 1931 1375 
L 203 1375 
z
" transform="scale(0.015625)"/>
      <path id="ArialMT-20" transform="scale(0.015625)"/>
      <path id="ArialMT-61" d="M 2588 409 
Q 2275 144 1986 34 
Q 1697 -75 1366 -75 
Q 819 -75 525 192 
Q 231 459 231 875 
Q 231 1119 342 1320 
Q 453 1522 633 1644 
Q 813 1766 1038 1828 
Q 1203 1872 1538 1913 
Q 2219 1994 2541 2106 
Q 2544 2222 2544 2253 
Q 2544 2597 2384 2738 
Q 2169 2928 1744 2928 
Q 1347 2928 1158 2789 
Q 969 2650 878 2297 
L 328 2372 
Q 403 2725 575 2942 
Q 747 3159 1072 3276 
Q 1397 3394 1825 3394 
Q 2250 3394 2515 3294 
Q 2781 3194 2906 3042 
Q 3031 2891 3081 2659 
Q 3109 2516 3109 2141 
L 3109 1391 
Q 3109 606 3145 398 
Q 3181 191 3288 0 
L 2700 0 
Q 2613 175 2588 409 
z
M 2541 1666 
Q 2234 1541 1622 1453 
Q 1275 1403 1131 1340 
Q 988 1278 909 1158 
Q 831 1038 831 891 
Q 831 666 1001 516 
Q 1172 366 1500 366 
Q 1825 366 2078 508 
Q 2331 650 2450 897 
Q 2541 1088 2541 1459 
L 2541 1666 
z
" transform="scale(0.015625)"/>
      <path id="ArialMT-6e" d="M 422 0 
L 422 3319 
L 928 3319 
L 928 2847 
Q 1294 3394 1984 3394 
Q 2284 3394 2536 3286 
Q 2788 3178 2913 3003 
Q 3038 2828 3088 2588 
Q 3119 2431 3119 2041 
L 3119 0 
L 2556 0 
L 2556 2019 
Q 2556 2363 2490 2533 
Q 2425 2703 2258 2804 
Q 2091 2906 1866 2906 
Q 1506 2906 1245 2678 
Q 984 2450 984 1813 
L 984 0 
L 422 0 
z
" transform="scale(0.015625)"/>
      <path id="ArialMT-64" d="M 2575 0 
L 2575 419 
Q 2259 -75 1647 -75 
Q 1250 -75 917 144 
Q 584 363 401 755 
Q 219 1147 219 1656 
Q 219 2153 384 2558 
Q 550 2963 881 3178 
Q 1213 3394 1622 3394 
Q 1922 3394 2156 3267 
Q 2391 3141 2538 2938 
L 2538 4581 
L 3097 4581 
L 3097 0 
L 2575 0 
z
M 797 1656 
Q 797 1019 1065 703 
Q 1334 388 1700 388 
Q 2069 388 2326 689 
Q 2584 991 2584 1609 
Q 2584 2291 2321 2609 
Q 2059 2928 1675 2928 
Q 1300 2928 1048 2622 
Q 797 2316 797 1656 
z
" transform="scale(0.015625)"/>
      <path id="ArialMT-42" d="M 469 0 
L 469 4581 
L 2188 4581 
Q 2713 4581 3030 4442 
Q 3347 4303 3526 4014 
Q 3706 3725 3706 3409 
Q 3706 3116 3547 2856 
Q 3388 2597 3066 2438 
Q 3481 2316 3704 2022 
Q 3928 1728 3928 1328 
Q 3928 1006 3792 729 
Q 3656 453 3456 303 
Q 3256 153 2954 76 
Q 2653 0 2216 0 
L 469 0 
z
M 1075 2656 
L 2066 2656 
Q 2469 2656 2644 2709 
Q 2875 2778 2992 2937 
Q 3109 3097 3109 3338 
Q 3109 3566 3000 3739 
Q 2891 3913 2687 3977 
Q 2484 4041 1991 4041 
L 1075 4041 
L 1075 2656 
z
M 1075 541 
L 2216 541 
Q 2509 541 2628 563 
Q 2838 600 2978 687 
Q 3119 775 3209 942 
Q 3300 1109 3300 1328 
Q 3300 1584 3169 1773 
Q 3038 1963 2805 2039 
Q 2572 2116 2134 2116 
L 1075 2116 
L 1075 541 
z
" transform="scale(0.015625)"/>
      <path id="ArialMT-74" d="M 1650 503 
L 1731 6 
Q 1494 -44 1306 -44 
Q 1000 -44 831 53 
Q 663 150 594 308 
Q 525 466 525 972 
L 525 2881 
L 113 2881 
L 113 3319 
L 525 3319 
L 525 4141 
L 1084 4478 
L 1084 3319 
L 1650 3319 
L 1650 2881 
L 1084 2881 
L 1084 941 
Q 1084 700 1114 631 
Q 1144 563 1211 522 
Q 1278 481 1403 481 
Q 1497 481 1650 503 
z
" transform="scale(0.015625)"/>
      <path id="ArialMT-6d" d="M 422 0 
L 422 3319 
L 925 3319 
L 925 2853 
Q 1081 3097 1340 3245 
Q 1600 3394 1931 3394 
Q 2300 3394 2536 3241 
Q 2772 3088 2869 2813 
Q 3263 3394 3894 3394 
Q 4388 3394 4653 3120 
Q 4919 2847 4919 2278 
L 4919 0 
L 4359 0 
L 4359 2091 
Q 4359 2428 4304 2576 
Q 4250 2725 4106 2815 
Q 3963 2906 3769 2906 
Q 3419 2906 3187 2673 
Q 2956 2441 2956 1928 
L 2956 0 
L 2394 0 
L 2394 2156 
Q 2394 2531 2256 2718 
Q 2119 2906 1806 2906 
Q 1569 2906 1367 2781 
Q 1166 2656 1075 2415 
Q 984 2175 984 1722 
L 984 0 
L 422 0 
z
" transform="scale(0.015625)"/>
      <path id="ArialMT-53" d="M 288 1472 
L 859 1522 
Q 900 1178 1048 958 
Q 1197 738 1509 602 
Q 1822 466 2213 466 
Q 2559 466 2825 569 
Q 3091 672 3220 851 
Q 3350 1031 3350 1244 
Q 3350 1459 3225 1620 
Q 3100 1781 2813 1891 
Q 2628 1963 1997 2114 
Q 1366 2266 1113 2400 
Q 784 2572 623 2826 
Q 463 3081 463 3397 
Q 463 3744 659 4045 
Q 856 4347 1234 4503 
Q 1613 4659 2075 4659 
Q 2584 4659 2973 4495 
Q 3363 4331 3572 4012 
Q 3781 3694 3797 3291 
L 3216 3247 
Q 3169 3681 2898 3903 
Q 2628 4125 2100 4125 
Q 1550 4125 1298 3923 
Q 1047 3722 1047 3438 
Q 1047 3191 1225 3031 
Q 1400 2872 2139 2705 
Q 2878 2538 3153 2413 
Q 3553 2228 3743 1945 
Q 3934 1663 3934 1294 
Q 3934 928 3725 604 
Q 3516 281 3123 101 
Q 2731 -78 2241 -78 
Q 1619 -78 1198 103 
Q 778 284 539 648 
Q 300 1013 288 1472 
z
" transform="scale(0.015625)"/>
      <path id="ArialMT-75" d="M 2597 0 
L 2597 488 
Q 2209 -75 1544 -75 
Q 1250 -75 995 37 
Q 741 150 617 320 
Q 494 491 444 738 
Q 409 903 409 1263 
L 409 3319 
L 972 3319 
L 972 1478 
Q 972 1038 1006 884 
Q 1059 663 1231 536 
Q 1403 409 1656 409 
Q 1909 409 2131 539 
Q 2353 669 2445 892 
Q 2538 1116 2538 1541 
L 2538 3319 
L 3100 3319 
L 3100 0 
L 2597 0 
z
" transform="scale(0.015625)"/>
      <path id="ArialMT-72" d="M 416 0 
L 416 3319 
L 922 3319 
L 922 2816 
Q 1116 3169 1280 3281 
Q 1444 3394 1641 3394 
Q 1925 3394 2219 3213 
L 2025 2691 
Q 1819 2813 1613 2813 
Q 1428 2813 1281 2702 
Q 1134 2591 1072 2394 
Q 978 2094 978 1738 
L 978 0 
L 416 0 
z
" transform="scale(0.015625)"/>
      <path id="ArialMT-66" d="M 556 0 
L 556 2881 
L 59 2881 
L 59 3319 
L 556 3319 
L 556 3672 
Q 556 4006 616 4169 
Q 697 4388 901 4523 
Q 1106 4659 1475 4659 
Q 1713 4659 2000 4603 
L 1916 4113 
Q 1741 4144 1584 4144 
Q 1328 4144 1222 4034 
Q 1116 3925 1116 3625 
L 1116 3319 
L 1763 3319 
L 1763 2881 
L 1116 2881 
L 1116 0 
L 556 0 
z
" transform="scale(0.015625)"/>
      <path id="ArialMT-63" d="M 2588 1216 
L 3141 1144 
Q 3050 572 2676 248 
Q 2303 -75 1759 -75 
Q 1078 -75 664 370 
Q 250 816 250 1647 
Q 250 2184 428 2587 
Q 606 2991 970 3192 
Q 1334 3394 1763 3394 
Q 2303 3394 2647 3120 
Q 2991 2847 3088 2344 
L 2541 2259 
Q 2463 2594 2264 2762 
Q 2066 2931 1784 2931 
Q 1359 2931 1093 2626 
Q 828 2322 828 1663 
Q 828 994 1084 691 
Q 1341 388 1753 388 
Q 2084 388 2306 591 
Q 2528 794 2588 1216 
z
" transform="scale(0.015625)"/>
      <path id="ArialMT-65" d="M 2694 1069 
L 3275 997 
Q 3138 488 2766 206 
Q 2394 -75 1816 -75 
Q 1088 -75 661 373 
Q 234 822 234 1631 
Q 234 2469 665 2931 
Q 1097 3394 1784 3394 
Q 2450 3394 2872 2941 
Q 3294 2488 3294 1666 
Q 3294 1616 3291 1516 
L 816 1516 
Q 847 969 1125 678 
Q 1403 388 1819 388 
Q 2128 388 2347 550 
Q 2566 713 2694 1069 
z
M 847 1978 
L 2700 1978 
Q 2663 2397 2488 2606 
Q 2219 2931 1791 2931 
Q 1403 2931 1139 2672 
Q 875 2413 847 1978 
z
" transform="scale(0.015625)"/>
      <path id="ArialMT-4d" d="M 475 0 
L 475 4581 
L 1388 4581 
L 2472 1338 
Q 2622 884 2691 659 
Q 2769 909 2934 1394 
L 4031 4581 
L 4847 4581 
L 4847 0 
L 4263 0 
L 4263 3834 
L 2931 0 
L 2384 0 
L 1059 3900 
L 1059 0 
L 475 0 
z
" transform="scale(0.015625)"/>
      <path id="ArialMT-73" d="M 197 991 
L 753 1078 
Q 800 744 1014 566 
Q 1228 388 1613 388 
Q 2000 388 2187 545 
Q 2375 703 2375 916 
Q 2375 1106 2209 1216 
Q 2094 1291 1634 1406 
Q 1016 1563 777 1677 
Q 538 1791 414 1992 
Q 291 2194 291 2438 
Q 291 2659 392 2848 
Q 494 3038 669 3163 
Q 800 3259 1026 3326 
Q 1253 3394 1513 3394 
Q 1903 3394 2198 3281 
Q 2494 3169 2634 2976 
Q 2775 2784 2828 2463 
L 2278 2388 
Q 2241 2644 2061 2787 
Q 1881 2931 1553 2931 
Q 1166 2931 1000 2803 
Q 834 2675 834 2503 
Q 834 2394 903 2306 
Q 972 2216 1119 2156 
Q 1203 2125 1616 2013 
Q 2213 1853 2448 1751 
Q 2684 1650 2818 1456 
Q 2953 1263 2953 975 
Q 2953 694 2789 445 
Q 2625 197 2315 61 
Q 2006 -75 1616 -75 
Q 969 -75 630 194 
Q 291 463 197 991 
z
" transform="scale(0.015625)"/>
      <path id="ArialMT-28" d="M 1497 -1347 
Q 1031 -759 709 28 
Q 388 816 388 1659 
Q 388 2403 628 3084 
Q 909 3875 1497 4659 
L 1900 4659 
Q 1522 4009 1400 3731 
Q 1209 3300 1100 2831 
Q 966 2247 966 1656 
Q 966 153 1900 -1347 
L 1497 -1347 
z
" transform="scale(0.015625)"/>
      <path id="ArialMT-29" d="M 791 -1347 
L 388 -1347 
Q 1322 153 1322 1656 
Q 1322 2244 1188 2822 
Q 1081 3291 891 3722 
Q 769 4003 388 4659 
L 791 4659 
Q 1378 3875 1659 3084 
Q 1900 2403 1900 1659 
Q 1900 816 1576 28 
Q 1253 -759 791 -1347 
z
" transform="scale(0.015625)"/>
     </defs>
     <use xlink:href="#ArialMT-54"/>
     <use xlink:href="#ArialMT-6f" x="49.958984"/>
     <use xlink:href="#ArialMT-70" x="105.574219"/>
     <use xlink:href="#ArialMT-2d" x="161.189453"/>
     <use xlink:href="#ArialMT-20" x="194.490234"/>
     <use xlink:href="#ArialMT-61" x="222.273438"/>
     <use xlink:href="#ArialMT-6e" x="277.888672"/>
     <use xlink:href="#ArialMT-64" x="333.503906"/>
     <use xlink:href="#ArialMT-20" x="389.119141"/>
     <use xlink:href="#ArialMT-42" x="416.902344"/>
     <use xlink:href="#ArialMT-6f" x="483.601562"/>
     <use xlink:href="#ArialMT-74" x="539.216797"/>
     <use xlink:href="#ArialMT-74" x="567"/>
     <use xlink:href="#ArialMT-6f" x="594.783203"/>
     <use xlink:href="#ArialMT-6d" x="650.398438"/>
     <use xlink:href="#ArialMT-2d" x="733.699219"/>
     <use xlink:href="#ArialMT-53" x="767"/>
     <use xlink:href="#ArialMT-75" x="833.699219"/>
     <use xlink:href="#ArialMT-72" x="889.314453"/>
     <use xlink:href="#ArialMT-66" x="922.615234"/>
     <use xlink:href="#ArialMT-61" x="950.398438"/>
     <use xlink:href="#ArialMT-63" x="1006.013672"/>
     <use xlink:href="#ArialMT-65" x="1056.013672"/>
     <use xlink:href="#ArialMT-20" x="1111.628906"/>
     <use xlink:href="#ArialMT-4d" x="1139.412109"/>
     <use xlink:href="#ArialMT-6f" x="1222.712891"/>
     <use xlink:href="#ArialMT-64" x="1278.328125"/>
     <use xlink:href="#ArialMT-65" x="1333.943359"/>
     <use xlink:href="#ArialMT-73" x="1389.558594"/>
     <use xlink:href="#ArialMT-20" x="1439.558594"/>
     <use xlink:href="#ArialMT-28" x="1467.341797"/>
     <use xlink:href="#ArialMT-31" x="1500.642578"/>
     <use xlink:href="#ArialMT-36" x="1556.257812"/>
     <use xlink:href="#ArialMT-29" x="1611.873047"/>
    </g>
   </g>
   <g id="line2d_60">
    <path d="M 334.953509 131.675099 
L 331.478769 131.022676 
L 327.243276 130.231614 
L 321.553578 129.092914 
L 314.030031 127.464311 
L 306.152934 125.617429 
L 298.436814 123.672859 
L 290.724294 121.610267 
L 282.968302 119.437135 
L 275.146012 117.171945 
L 267.24169 114.836291 
L 259.285183 112.462102 
L 251.462379 110.152927 
L 243.805386 107.971826 
L 236.306261 105.970186 
L 228.932047 104.192224 
L 221.621099 102.66753 
L 214.304752 101.398648 
L 206.943624 100.369383 
L 199.533908 99.569941 
L 192.091802 98.998855 
L 184.631932 98.658363 
L 177.158411 98.551319 
L 169.679749 98.671808 
L 162.215483 99.016002 
L 154.784354 99.592075 
L 147.400269 100.400335 
L 140.077367 101.447183 
L 132.841124 102.739587 
L 125.727221 104.283947 
L 118.780441 106.086202 
L 112.055 108.146069 
L 105.623418 110.462288 
L 99.580323 113.02072 
L 94.046026 115.786892 
L 89.184048 118.682705 
L 85.173082 121.572118 
L 82.122151 124.290089 
L 80.013287 126.704715 
L 78.72767 128.727049 
L 78.076095 130.352952 
L 77.881491 131.675099 
L 78.007945 132.571252 
L 78.398618 133.327661 
L 79.016413 133.934968 
L 79.960227 134.425821 
L 81.510037 134.856289 
L 84.198548 135.242848 
L 88.537435 135.502722 
L 94.564206 135.548249 
L 101.68834 135.393003 
L 109.394536 135.092306 
L 117.387933 134.694924 
L 125.538427 134.237388 
L 133.781724 133.745146 
L 142.082374 133.235167 
L 150.420042 132.719017 
L 158.759253 132.20675 
L 167.076355 131.705768 
L 175.37338 131.224581 
L 183.649608 130.766041 
L 191.906787 130.338325 
L 200.146228 129.944054 
L 208.364872 129.588857 
L 216.563927 129.283276 
L 224.749897 129.031165 
L 232.924787 128.83561 
L 241.091991 128.70075 
L 249.254798 128.62476 
L 257.414547 128.607922 
L 265.570157 128.648642 
L 273.716229 128.746201 
L 281.847931 128.905457 
L 289.965494 129.130035 
L 298.07969 129.423508 
L 306.246071 129.790504 
L 314.391655 130.23182 
L 321.584118 130.680771 
L 327.151681 131.071057 
L 331.427329 131.398284 
L 334.953509 131.675099 
" clip-path="url(#p010b2b0c07)" style="fill: none; stroke: #000000; stroke-width: 1.5; stroke-linecap: round"/>
   </g>
  </g>
  <g id="axes_2">
   <g id="patch_8">
    <path d="M 65.027891 330.952 
L 347.807109 330.952 
L 347.807109 217.840312 
L 65.027891 217.840312 
z
" style="fill: #eaeaf2"/>
   </g>
   <g id="matplotlib.axis_3">
    <g id="xtick_22">
     <g id="line2d_61">
      <path d="M 77.881491 330.952 
L 77.881491 217.840312 
" clip-path="url(#p13b28a3590)" style="fill: none; stroke: #ffffff; stroke-width: 1.6; stroke-linecap: round"/>
     </g>
     <g id="text_12">
      <!-- 0.0 -->
      <g style="fill: #262626" transform="translate(70.236491 348.325594) scale(0.11 -0.11)">
       <use xlink:href="#ArialMT-30"/>
       <use xlink:href="#ArialMT-2e" x="55.615234"/>
       <use xlink:href="#ArialMT-30" x="83.398438"/>
      </g>
     </g>
    </g>
    <g id="xtick_23">
     <g id="line2d_62">
      <path d="M 129.295895 330.952 
L 129.295895 217.840312 
" clip-path="url(#p13b28a3590)" style="fill: none; stroke: #ffffff; stroke-width: 1.6; stroke-linecap: round"/>
     </g>
     <g id="text_13">
      <!-- 0.2 -->
      <g style="fill: #262626" transform="translate(121.650895 348.325594) scale(0.11 -0.11)">
       <use xlink:href="#ArialMT-30"/>
       <use xlink:href="#ArialMT-2e" x="55.615234"/>
       <use xlink:href="#ArialMT-32" x="83.398438"/>
      </g>
     </g>
    </g>
    <g id="xtick_24">
     <g id="line2d_63">
      <path d="M 180.710298 330.952 
L 180.710298 217.840312 
" clip-path="url(#p13b28a3590)" style="fill: none; stroke: #ffffff; stroke-width: 1.6; stroke-linecap: round"/>
     </g>
     <g id="text_14">
      <!-- 0.4 -->
      <g style="fill: #262626" transform="translate(173.065298 348.325594) scale(0.11 -0.11)">
       <use xlink:href="#ArialMT-30"/>
       <use xlink:href="#ArialMT-2e" x="55.615234"/>
       <use xlink:href="#ArialMT-34" x="83.398438"/>
      </g>
     </g>
    </g>
    <g id="xtick_25">
     <g id="line2d_64">
      <path d="M 232.124702 330.952 
L 232.124702 217.840312 
" clip-path="url(#p13b28a3590)" style="fill: none; stroke: #ffffff; stroke-width: 1.6; stroke-linecap: round"/>
     </g>
     <g id="text_15">
      <!-- 0.6 -->
      <g style="fill: #262626" transform="translate(224.479702 348.325594) scale(0.11 -0.11)">
       <use xlink:href="#ArialMT-30"/>
       <use xlink:href="#ArialMT-2e" x="55.615234"/>
       <use xlink:href="#ArialMT-36" x="83.398438"/>
      </g>
     </g>
    </g>
    <g id="xtick_26">
     <g id="line2d_65">
      <path d="M 283.539105 330.952 
L 283.539105 217.840312 
" clip-path="url(#p13b28a3590)" style="fill: none; stroke: #ffffff; stroke-width: 1.6; stroke-linecap: round"/>
     </g>
     <g id="text_16">
      <!-- 0.8 -->
      <g style="fill: #262626" transform="translate(275.894105 348.325594) scale(0.11 -0.11)">
       <use xlink:href="#ArialMT-30"/>
       <use xlink:href="#ArialMT-2e" x="55.615234"/>
       <use xlink:href="#ArialMT-38" x="83.398438"/>
      </g>
     </g>
    </g>
    <g id="xtick_27">
     <g id="line2d_66">
      <path d="M 334.953509 330.952 
L 334.953509 217.840312 
" clip-path="url(#p13b28a3590)" style="fill: none; stroke: #ffffff; stroke-width: 1.6; stroke-linecap: round"/>
     </g>
     <g id="text_17">
      <!-- 1.0 -->
      <g style="fill: #262626" transform="translate(327.308509 348.325594) scale(0.11 -0.11)">
       <use xlink:href="#ArialMT-31"/>
       <use xlink:href="#ArialMT-2e" x="55.615234"/>
       <use xlink:href="#ArialMT-30" x="83.398438"/>
      </g>
     </g>
    </g>
    <g id="xtick_28">
     <g id="line2d_67">
      <path d="M 90.735092 330.952 
L 90.735092 217.840312 
" clip-path="url(#p13b28a3590)" style="fill: none; stroke: #ffffff; stroke-width: 0.7; stroke-linecap: round"/>
     </g>
    </g>
    <g id="xtick_29">
     <g id="line2d_68">
      <path d="M 103.588693 330.952 
L 103.588693 217.840312 
" clip-path="url(#p13b28a3590)" style="fill: none; stroke: #ffffff; stroke-width: 0.7; stroke-linecap: round"/>
     </g>
    </g>
    <g id="xtick_30">
     <g id="line2d_69">
      <path d="M 116.442294 330.952 
L 116.442294 217.840312 
" clip-path="url(#p13b28a3590)" style="fill: none; stroke: #ffffff; stroke-width: 0.7; stroke-linecap: round"/>
     </g>
    </g>
    <g id="xtick_31">
     <g id="line2d_70">
      <path d="M 142.149496 330.952 
L 142.149496 217.840312 
" clip-path="url(#p13b28a3590)" style="fill: none; stroke: #ffffff; stroke-width: 0.7; stroke-linecap: round"/>
     </g>
    </g>
    <g id="xtick_32">
     <g id="line2d_71">
      <path d="M 155.003097 330.952 
L 155.003097 217.840312 
" clip-path="url(#p13b28a3590)" style="fill: none; stroke: #ffffff; stroke-width: 0.7; stroke-linecap: round"/>
     </g>
    </g>
    <g id="xtick_33">
     <g id="line2d_72">
      <path d="M 167.856697 330.952 
L 167.856697 217.840312 
" clip-path="url(#p13b28a3590)" style="fill: none; stroke: #ffffff; stroke-width: 0.7; stroke-linecap: round"/>
     </g>
    </g>
    <g id="xtick_34">
     <g id="line2d_73">
      <path d="M 193.563899 330.952 
L 193.563899 217.840312 
" clip-path="url(#p13b28a3590)" style="fill: none; stroke: #ffffff; stroke-width: 0.7; stroke-linecap: round"/>
     </g>
    </g>
    <g id="xtick_35">
     <g id="line2d_74">
      <path d="M 206.4175 330.952 
L 206.4175 217.840312 
" clip-path="url(#p13b28a3590)" style="fill: none; stroke: #ffffff; stroke-width: 0.7; stroke-linecap: round"/>
     </g>
    </g>
    <g id="xtick_36">
     <g id="line2d_75">
      <path d="M 219.271101 330.952 
L 219.271101 217.840312 
" clip-path="url(#p13b28a3590)" style="fill: none; stroke: #ffffff; stroke-width: 0.7; stroke-linecap: round"/>
     </g>
    </g>
    <g id="xtick_37">
     <g id="line2d_76">
      <path d="M 244.978303 330.952 
L 244.978303 217.840312 
" clip-path="url(#p13b28a3590)" style="fill: none; stroke: #ffffff; stroke-width: 0.7; stroke-linecap: round"/>
     </g>
    </g>
    <g id="xtick_38">
     <g id="line2d_77">
      <path d="M 257.831903 330.952 
L 257.831903 217.840312 
" clip-path="url(#p13b28a3590)" style="fill: none; stroke: #ffffff; stroke-width: 0.7; stroke-linecap: round"/>
     </g>
    </g>
    <g id="xtick_39">
     <g id="line2d_78">
      <path d="M 270.685504 330.952 
L 270.685504 217.840312 
" clip-path="url(#p13b28a3590)" style="fill: none; stroke: #ffffff; stroke-width: 0.7; stroke-linecap: round"/>
     </g>
    </g>
    <g id="xtick_40">
     <g id="line2d_79">
      <path d="M 296.392706 330.952 
L 296.392706 217.840312 
" clip-path="url(#p13b28a3590)" style="fill: none; stroke: #ffffff; stroke-width: 0.7; stroke-linecap: round"/>
     </g>
    </g>
    <g id="xtick_41">
     <g id="line2d_80">
      <path d="M 309.246307 330.952 
L 309.246307 217.840312 
" clip-path="url(#p13b28a3590)" style="fill: none; stroke: #ffffff; stroke-width: 0.7; stroke-linecap: round"/>
     </g>
    </g>
    <g id="xtick_42">
     <g id="line2d_81">
      <path d="M 322.099908 330.952 
L 322.099908 217.840312 
" clip-path="url(#p13b28a3590)" style="fill: none; stroke: #ffffff; stroke-width: 0.7; stroke-linecap: round"/>
     </g>
    </g>
   </g>
   <g id="matplotlib.axis_4">
    <g id="ytick_23">
     <g id="line2d_82">
      <path d="M 65.027891 310.386239 
L 347.807109 310.386239 
" clip-path="url(#p13b28a3590)" style="fill: none; stroke: #ffffff; stroke-width: 1.6; stroke-linecap: round"/>
     </g>
     <g id="text_18">
      <!-- −0.1 -->
      <g style="fill: #262626" transform="translate(33.813203 314.323036) scale(0.11 -0.11)">
       <use xlink:href="#ArialMT-2212"/>
       <use xlink:href="#ArialMT-30" x="58.398438"/>
       <use xlink:href="#ArialMT-2e" x="114.013672"/>
       <use xlink:href="#ArialMT-31" x="141.796875"/>
      </g>
     </g>
    </g>
    <g id="ytick_24">
     <g id="line2d_83">
      <path d="M 65.027891 284.679037 
L 347.807109 284.679037 
" clip-path="url(#p13b28a3590)" style="fill: none; stroke: #ffffff; stroke-width: 1.6; stroke-linecap: round"/>
     </g>
     <g id="text_19">
      <!-- 0.0 -->
      <g style="fill: #262626" transform="translate(40.237891 288.615834) scale(0.11 -0.11)">
       <use xlink:href="#ArialMT-30"/>
       <use xlink:href="#ArialMT-2e" x="55.615234"/>
       <use xlink:href="#ArialMT-30" x="83.398438"/>
      </g>
     </g>
    </g>
    <g id="ytick_25">
     <g id="line2d_84">
      <path d="M 65.027891 258.971835 
L 347.807109 258.971835 
" clip-path="url(#p13b28a3590)" style="fill: none; stroke: #ffffff; stroke-width: 1.6; stroke-linecap: round"/>
     </g>
     <g id="text_20">
      <!-- 0.1 -->
      <g style="fill: #262626" transform="translate(40.237891 262.908632) scale(0.11 -0.11)">
       <use xlink:href="#ArialMT-30"/>
       <use xlink:href="#ArialMT-2e" x="55.615234"/>
       <use xlink:href="#ArialMT-31" x="83.398438"/>
      </g>
     </g>
    </g>
    <g id="ytick_26">
     <g id="line2d_85">
      <path d="M 65.027891 233.264634 
L 347.807109 233.264634 
" clip-path="url(#p13b28a3590)" style="fill: none; stroke: #ffffff; stroke-width: 1.6; stroke-linecap: round"/>
     </g>
     <g id="text_21">
      <!-- 0.2 -->
      <g style="fill: #262626" transform="translate(40.237891 237.20143) scale(0.11 -0.11)">
       <use xlink:href="#ArialMT-30"/>
       <use xlink:href="#ArialMT-2e" x="55.615234"/>
       <use xlink:href="#ArialMT-32" x="83.398438"/>
      </g>
     </g>
    </g>
    <g id="ytick_27">
     <g id="line2d_86">
      <path d="M 65.027891 325.81056 
L 347.807109 325.81056 
" clip-path="url(#p13b28a3590)" style="fill: none; stroke: #ffffff; stroke-width: 0.7; stroke-linecap: round"/>
     </g>
    </g>
    <g id="ytick_28">
     <g id="line2d_87">
      <path d="M 65.027891 320.669119 
L 347.807109 320.669119 
" clip-path="url(#p13b28a3590)" style="fill: none; stroke: #ffffff; stroke-width: 0.7; stroke-linecap: round"/>
     </g>
    </g>
    <g id="ytick_29">
     <g id="line2d_88">
      <path d="M 65.027891 315.527679 
L 347.807109 315.527679 
" clip-path="url(#p13b28a3590)" style="fill: none; stroke: #ffffff; stroke-width: 0.7; stroke-linecap: round"/>
     </g>
    </g>
    <g id="ytick_30">
     <g id="line2d_89">
      <path d="M 65.027891 305.244798 
L 347.807109 305.244798 
" clip-path="url(#p13b28a3590)" style="fill: none; stroke: #ffffff; stroke-width: 0.7; stroke-linecap: round"/>
     </g>
    </g>
    <g id="ytick_31">
     <g id="line2d_90">
      <path d="M 65.027891 300.103358 
L 347.807109 300.103358 
" clip-path="url(#p13b28a3590)" style="fill: none; stroke: #ffffff; stroke-width: 0.7; stroke-linecap: round"/>
     </g>
    </g>
    <g id="ytick_32">
     <g id="line2d_91">
      <path d="M 65.027891 294.961918 
L 347.807109 294.961918 
" clip-path="url(#p13b28a3590)" style="fill: none; stroke: #ffffff; stroke-width: 0.7; stroke-linecap: round"/>
     </g>
    </g>
    <g id="ytick_33">
     <g id="line2d_92">
      <path d="M 65.027891 289.820477 
L 347.807109 289.820477 
" clip-path="url(#p13b28a3590)" style="fill: none; stroke: #ffffff; stroke-width: 0.7; stroke-linecap: round"/>
     </g>
    </g>
    <g id="ytick_34">
     <g id="line2d_93">
      <path d="M 65.027891 279.537597 
L 347.807109 279.537597 
" clip-path="url(#p13b28a3590)" style="fill: none; stroke: #ffffff; stroke-width: 0.7; stroke-linecap: round"/>
     </g>
    </g>
    <g id="ytick_35">
     <g id="line2d_94">
      <path d="M 65.027891 274.396156 
L 347.807109 274.396156 
" clip-path="url(#p13b28a3590)" style="fill: none; stroke: #ffffff; stroke-width: 0.7; stroke-linecap: round"/>
     </g>
    </g>
    <g id="ytick_36">
     <g id="line2d_95">
      <path d="M 65.027891 269.254716 
L 347.807109 269.254716 
" clip-path="url(#p13b28a3590)" style="fill: none; stroke: #ffffff; stroke-width: 0.7; stroke-linecap: round"/>
     </g>
    </g>
    <g id="ytick_37">
     <g id="line2d_96">
      <path d="M 65.027891 264.113276 
L 347.807109 264.113276 
" clip-path="url(#p13b28a3590)" style="fill: none; stroke: #ffffff; stroke-width: 0.7; stroke-linecap: round"/>
     </g>
    </g>
    <g id="ytick_38">
     <g id="line2d_97">
      <path d="M 65.027891 253.830395 
L 347.807109 253.830395 
" clip-path="url(#p13b28a3590)" style="fill: none; stroke: #ffffff; stroke-width: 0.7; stroke-linecap: round"/>
     </g>
    </g>
    <g id="ytick_39">
     <g id="line2d_98">
      <path d="M 65.027891 248.688955 
L 347.807109 248.688955 
" clip-path="url(#p13b28a3590)" style="fill: none; stroke: #ffffff; stroke-width: 0.7; stroke-linecap: round"/>
     </g>
    </g>
    <g id="ytick_40">
     <g id="line2d_99">
      <path d="M 65.027891 243.547514 
L 347.807109 243.547514 
" clip-path="url(#p13b28a3590)" style="fill: none; stroke: #ffffff; stroke-width: 0.7; stroke-linecap: round"/>
     </g>
    </g>
    <g id="ytick_41">
     <g id="line2d_100">
      <path d="M 65.027891 238.406074 
L 347.807109 238.406074 
" clip-path="url(#p13b28a3590)" style="fill: none; stroke: #ffffff; stroke-width: 0.7; stroke-linecap: round"/>
     </g>
    </g>
    <g id="ytick_42">
     <g id="line2d_101">
      <path d="M 65.027891 228.123193 
L 347.807109 228.123193 
" clip-path="url(#p13b28a3590)" style="fill: none; stroke: #ffffff; stroke-width: 0.7; stroke-linecap: round"/>
     </g>
    </g>
    <g id="ytick_43">
     <g id="line2d_102">
      <path d="M 65.027891 222.981753 
L 347.807109 222.981753 
" clip-path="url(#p13b28a3590)" style="fill: none; stroke: #ffffff; stroke-width: 0.7; stroke-linecap: round"/>
     </g>
    </g>
    <g id="ytick_44">
     <g id="line2d_103">
      <path d="M 65.027891 217.840312 
L 347.807109 217.840312 
" clip-path="url(#p13b28a3590)" style="fill: none; stroke: #ffffff; stroke-width: 0.7; stroke-linecap: round"/>
     </g>
    </g>
   </g>
   <g id="patch_9">
    <path d="M 334.953509 284.679037 
L 331.478769 284.026614 
L 327.243276 283.235552 
L 321.553578 282.096851 
L 314.030031 280.468249 
L 306.152934 278.621366 
L 298.436814 276.676796 
L 290.724294 274.614205 
L 282.968302 272.441072 
L 275.146012 270.175882 
L 267.24169 267.840229 
L 259.285183 265.46604 
L 251.462379 263.156865 
L 243.805386 260.975763 
L 236.306261 258.974123 
L 228.932047 257.196162 
L 221.621099 255.671468 
L 214.304752 254.402586 
L 206.943624 253.373321 
L 199.533908 252.573878 
L 192.091802 252.002793 
L 184.631932 251.662301 
L 177.158411 251.555256 
L 169.679749 251.675746 
L 162.215483 252.019939 
L 154.784354 252.596012 
L 147.400269 253.404272 
L 140.077367 254.451121 
L 132.841124 255.743525 
L 125.727221 257.287885 
L 118.780441 259.09014 
L 112.055 261.150006 
L 105.623418 263.466225 
L 99.580323 266.024657 
L 94.046026 268.790829 
L 89.184048 271.686643 
L 85.173082 274.576055 
L 82.122151 277.294026 
L 80.013287 279.708652 
L 78.72767 281.730986 
L 78.076095 283.35689 
L 77.881491 284.679037 
L 78.007945 285.57519 
L 78.398618 286.331599 
L 79.016413 286.938906 
L 79.960227 287.429759 
L 81.510037 287.860226 
L 84.198548 288.246785 
L 88.537435 288.506659 
L 94.564206 288.552187 
L 101.68834 288.396941 
L 109.394536 288.096244 
L 117.387933 287.698862 
L 125.538427 287.241325 
L 133.781724 286.749084 
L 142.082374 286.239104 
L 150.420042 285.722955 
L 158.759253 285.210688 
L 167.076355 284.709706 
L 175.37338 284.228518 
L 183.649608 283.769979 
L 191.906787 283.342262 
L 200.146228 282.947991 
L 208.364872 282.592795 
L 216.563927 282.287213 
L 224.749897 282.035103 
L 232.924787 281.839548 
L 241.091991 281.704688 
L 249.254798 281.628697 
L 257.414547 281.611859 
L 265.570157 281.652579 
L 273.716229 281.750138 
L 281.847931 281.909394 
L 289.965494 282.133973 
L 298.07969 282.427446 
L 306.246071 282.794442 
L 314.391655 283.235758 
L 321.584118 283.684708 
L 327.151681 284.074995 
L 331.427329 284.402222 
z
" clip-path="url(#p13b28a3590)" style="opacity: 0.2; stroke: #ffffff; stroke-linejoin: miter"/>
   </g>
   <g id="line2d_104">
    <path d="M 334.953509 284.664822 
L 328.599651 283.528566 
L 319.865692 281.731994 
L 308.955472 279.260456 
L 298.375925 276.657214 
L 287.910853 273.867941 
L 276.451589 270.585 
L 241.478226 260.295519 
L 233.604586 258.262061 
L 225.622571 256.41086 
L 217.563998 254.782092 
L 209.460993 253.395598 
L 201.345855 252.249904 
L 193.250934 251.324863 
L 183.209854 250.427849 
L 171.356774 249.634563 
L 157.932778 248.978325 
L 146.891255 248.624155 
L 138.093594 248.533552 
L 131.359269 248.660119 
L 124.924147 249.029841 
L 120.309638 249.507165 
L 115.888236 250.187297 
L 111.669856 251.096055 
L 107.663959 252.254955 
L 103.879528 253.679172 
L 101.483823 254.77981 
L 99.192718 256.00115 
L 97.008498 257.340472 
L 94.933338 258.792603 
L 92.029583 261.164567 
L 89.382357 263.734599 
L 86.997595 266.451577 
L 84.880647 269.251908 
L 83.036258 272.061654 
L 81.468567 274.799787 
L 79.814715 278.194561 
L 78.665539 281.123437 
L 78.02562 283.427369 
L 77.881491 284.679037 
L 78.02562 285.455174 
L 78.281715 285.734863 
L 78.665539 285.832663 
L 79.176709 285.760549 
L 80.181088 285.369029 
L 82.482764 284.129451 
L 86.261942 282.117217 
L 89.382357 280.744675 
L 92.029583 279.811771 
L 94.933338 279.018071 
L 98.087109 278.398543 
L 101.483823 277.972951 
L 105.115864 277.746517 
L 108.975085 277.711511 
L 114.459075 277.929555 
L 120.309638 278.389662 
L 131.359269 279.540437 
L 145.100279 280.940724 
L 154.198994 281.661627 
L 163.622897 282.185256 
L 173.313299 282.493134 
L 183.209854 282.600583 
L 195.271002 282.521328 
L 215.541153 282.124107 
L 239.521701 281.686192 
L 256.775389 281.598398 
L 273.014195 281.742769 
L 289.469848 282.124486 
L 303.859915 282.673905 
L 317.901662 283.441902 
L 331.826883 284.443197 
L 334.953509 284.693252 
L 334.953509 284.693252 
" clip-path="url(#p13b28a3590)" style="fill: none; stroke: #1e90ff; stroke-opacity: 0.7; stroke-width: 1.5; stroke-linecap: round"/>
   </g>
   <g id="line2d_105">
    <path d="M 334.953509 258.95762 
L 328.599651 258.45675 
L 319.865692 257.533574 
L 308.955472 256.153059 
L 298.375925 254.607784 
L 287.910853 252.865118 
L 276.451589 250.728672 
L 241.478226 243.965992 
L 233.604586 242.746814 
L 225.622571 241.739874 
L 217.563998 240.992295 
L 211.489145 240.620573 
L 205.402918 240.41796 
L 199.318966 240.385041 
L 191.234148 240.597925 
L 183.209854 241.087679 
L 175.278074 241.832146 
L 167.470424 242.809512 
L 159.818028 244.001547 
L 152.351392 245.394574 
L 145.100279 246.978308 
L 138.093594 248.743301 
L 131.359269 250.678043 
L 124.924147 252.766812 
L 118.813883 254.989006 
L 113.052831 257.320132 
L 107.663959 259.734026 
L 102.668748 262.205407 
L 98.087109 264.711708 
L 93.937307 267.233312 
L 90.235884 269.751855 
L 86.997595 272.246938 
L 84.235349 274.692257 
L 81.960157 277.05258 
L 80.181088 279.283014 
L 79.176709 280.839438 
L 78.457682 282.270896 
L 78.02562 283.556399 
L 77.881491 284.679037 
L 78.02562 285.61303 
L 78.457682 286.42877 
L 79.176709 287.130856 
L 80.181088 287.729488 
L 81.468567 288.238593 
L 83.620502 288.805436 
L 86.997595 289.385643 
L 92.029583 289.97097 
L 100.325051 290.661341 
L 111.669856 291.364269 
L 126.503453 292.058323 
L 199.318966 295.132388 
L 217.563998 296.226168 
L 233.604586 297.396973 
L 249.212103 298.755721 
L 264.137933 300.264731 
L 279.819171 302.065259 
L 295.495041 304.08932 
L 310.166252 306.216743 
L 323.452643 308.371589 
L 334.953509 310.400454 
L 334.953509 310.400454 
" clip-path="url(#p13b28a3590)" style="fill: none; stroke: #ffa500; stroke-opacity: 0.7; stroke-width: 1.5; stroke-linecap: round"/>
   </g>
   <g id="patch_10">
    <path d="M 65.027891 330.952 
L 65.027891 217.840312 
" style="fill: none; stroke: #ffffff; stroke-width: 1.25; stroke-linejoin: miter; stroke-linecap: square"/>
   </g>
   <g id="patch_11">
    <path d="M 347.807109 330.952 
L 347.807109 217.840312 
" style="fill: none; stroke: #ffffff; stroke-width: 1.25; stroke-linejoin: miter; stroke-linecap: square"/>
   </g>
   <g id="patch_12">
    <path d="M 65.027891 330.952 
L 347.807109 330.952 
" style="fill: none; stroke: #ffffff; stroke-width: 1.25; stroke-linejoin: miter; stroke-linecap: square"/>
   </g>
   <g id="patch_13">
    <path d="M 65.027891 217.840312 
L 347.807109 217.840312 
" style="fill: none; stroke: #ffffff; stroke-width: 1.25; stroke-linejoin: miter; stroke-linecap: square"/>
   </g>
   <g id="text_22">
    <!-- Leading-Edge-Modification (LEM) and Trailing Edge (TE) Modes -->
    <g style="fill: #262626" transform="translate(35.677187 211.840312) scale(0.12 -0.12)">
     <defs>
      <path id="ArialMT-4c" d="M 469 0 
L 469 4581 
L 1075 4581 
L 1075 541 
L 3331 541 
L 3331 0 
L 469 0 
z
" transform="scale(0.015625)"/>
      <path id="ArialMT-69" d="M 425 3934 
L 425 4581 
L 988 4581 
L 988 3934 
L 425 3934 
z
M 425 0 
L 425 3319 
L 988 3319 
L 988 0 
L 425 0 
z
" transform="scale(0.015625)"/>
      <path id="ArialMT-67" d="M 319 -275 
L 866 -356 
Q 900 -609 1056 -725 
Q 1266 -881 1628 -881 
Q 2019 -881 2231 -725 
Q 2444 -569 2519 -288 
Q 2563 -116 2559 434 
Q 2191 0 1641 0 
Q 956 0 581 494 
Q 206 988 206 1678 
Q 206 2153 378 2554 
Q 550 2956 876 3175 
Q 1203 3394 1644 3394 
Q 2231 3394 2613 2919 
L 2613 3319 
L 3131 3319 
L 3131 450 
Q 3131 -325 2973 -648 
Q 2816 -972 2473 -1159 
Q 2131 -1347 1631 -1347 
Q 1038 -1347 672 -1080 
Q 306 -813 319 -275 
z
M 784 1719 
Q 784 1066 1043 766 
Q 1303 466 1694 466 
Q 2081 466 2343 764 
Q 2606 1063 2606 1700 
Q 2606 2309 2336 2618 
Q 2066 2928 1684 2928 
Q 1309 2928 1046 2623 
Q 784 2319 784 1719 
z
" transform="scale(0.015625)"/>
      <path id="ArialMT-45" d="M 506 0 
L 506 4581 
L 3819 4581 
L 3819 4041 
L 1113 4041 
L 1113 2638 
L 3647 2638 
L 3647 2100 
L 1113 2100 
L 1113 541 
L 3925 541 
L 3925 0 
L 506 0 
z
" transform="scale(0.015625)"/>
      <path id="ArialMT-6c" d="M 409 0 
L 409 4581 
L 972 4581 
L 972 0 
L 409 0 
z
" transform="scale(0.015625)"/>
     </defs>
     <use xlink:href="#ArialMT-4c"/>
     <use xlink:href="#ArialMT-65" x="55.615234"/>
     <use xlink:href="#ArialMT-61" x="111.230469"/>
     <use xlink:href="#ArialMT-64" x="166.845703"/>
     <use xlink:href="#ArialMT-69" x="222.460938"/>
     <use xlink:href="#ArialMT-6e" x="244.677734"/>
     <use xlink:href="#ArialMT-67" x="300.292969"/>
     <use xlink:href="#ArialMT-2d" x="355.908203"/>
     <use xlink:href="#ArialMT-45" x="389.208984"/>
     <use xlink:href="#ArialMT-64" x="455.908203"/>
     <use xlink:href="#ArialMT-67" x="511.523438"/>
     <use xlink:href="#ArialMT-65" x="567.138672"/>
     <use xlink:href="#ArialMT-2d" x="622.753906"/>
     <use xlink:href="#ArialMT-4d" x="656.054688"/>
     <use xlink:href="#ArialMT-6f" x="739.355469"/>
     <use xlink:href="#ArialMT-64" x="794.970703"/>
     <use xlink:href="#ArialMT-69" x="850.585938"/>
     <use xlink:href="#ArialMT-66" x="872.802734"/>
     <use xlink:href="#ArialMT-69" x="900.585938"/>
     <use xlink:href="#ArialMT-63" x="922.802734"/>
     <use xlink:href="#ArialMT-61" x="972.802734"/>
     <use xlink:href="#ArialMT-74" x="1028.417969"/>
     <use xlink:href="#ArialMT-69" x="1056.201172"/>
     <use xlink:href="#ArialMT-6f" x="1078.417969"/>
     <use xlink:href="#ArialMT-6e" x="1134.033203"/>
     <use xlink:href="#ArialMT-20" x="1189.648438"/>
     <use xlink:href="#ArialMT-28" x="1217.431641"/>
     <use xlink:href="#ArialMT-4c" x="1250.732422"/>
     <use xlink:href="#ArialMT-45" x="1306.347656"/>
     <use xlink:href="#ArialMT-4d" x="1373.046875"/>
     <use xlink:href="#ArialMT-29" x="1456.347656"/>
     <use xlink:href="#ArialMT-20" x="1489.648438"/>
     <use xlink:href="#ArialMT-61" x="1517.431641"/>
     <use xlink:href="#ArialMT-6e" x="1573.046875"/>
     <use xlink:href="#ArialMT-64" x="1628.662109"/>
     <use xlink:href="#ArialMT-20" x="1684.277344"/>
     <use xlink:href="#ArialMT-54" x="1710.310547"/>
     <use xlink:href="#ArialMT-72" x="1767.644531"/>
     <use xlink:href="#ArialMT-61" x="1800.945312"/>
     <use xlink:href="#ArialMT-69" x="1856.560547"/>
     <use xlink:href="#ArialMT-6c" x="1878.777344"/>
     <use xlink:href="#ArialMT-69" x="1900.994141"/>
     <use xlink:href="#ArialMT-6e" x="1923.210938"/>
     <use xlink:href="#ArialMT-67" x="1978.826172"/>
     <use xlink:href="#ArialMT-20" x="2034.441406"/>
     <use xlink:href="#ArialMT-45" x="2062.224609"/>
     <use xlink:href="#ArialMT-64" x="2128.923828"/>
     <use xlink:href="#ArialMT-67" x="2184.539062"/>
     <use xlink:href="#ArialMT-65" x="2240.154297"/>
     <use xlink:href="#ArialMT-20" x="2295.769531"/>
     <use xlink:href="#ArialMT-28" x="2323.552734"/>
     <use xlink:href="#ArialMT-54" x="2356.853516"/>
     <use xlink:href="#ArialMT-45" x="2417.9375"/>
     <use xlink:href="#ArialMT-29" x="2484.636719"/>
     <use xlink:href="#ArialMT-20" x="2517.9375"/>
     <use xlink:href="#ArialMT-4d" x="2545.720703"/>
     <use xlink:href="#ArialMT-6f" x="2629.021484"/>
     <use xlink:href="#ArialMT-64" x="2684.636719"/>
     <use xlink:href="#ArialMT-65" x="2740.251953"/>
     <use xlink:href="#ArialMT-73" x="2795.867188"/>
    </g>
   </g>
   <g id="line2d_106">
    <path d="M 334.953509 284.679037 
L 331.478769 284.026614 
L 327.243276 283.235552 
L 321.553578 282.096851 
L 314.030031 280.468249 
L 306.152934 278.621366 
L 298.436814 276.676796 
L 290.724294 274.614205 
L 282.968302 272.441072 
L 275.146012 270.175882 
L 267.24169 267.840229 
L 259.285183 265.46604 
L 251.462379 263.156865 
L 243.805386 260.975763 
L 236.306261 258.974123 
L 228.932047 257.196162 
L 221.621099 255.671468 
L 214.304752 254.402586 
L 206.943624 253.373321 
L 199.533908 252.573878 
L 192.091802 252.002793 
L 184.631932 251.662301 
L 177.158411 251.555256 
L 169.679749 251.675746 
L 162.215483 252.019939 
L 154.784354 252.596012 
L 147.400269 253.404272 
L 140.077367 254.451121 
L 132.841124 255.743525 
L 125.727221 257.287885 
L 118.780441 259.09014 
L 112.055 261.150006 
L 105.623418 263.466225 
L 99.580323 266.024657 
L 94.046026 268.790829 
L 89.184048 271.686643 
L 85.173082 274.576055 
L 82.122151 277.294026 
L 80.013287 279.708652 
L 78.72767 281.730986 
L 78.076095 283.35689 
L 77.881491 284.679037 
L 78.007945 285.57519 
L 78.398618 286.331599 
L 79.016413 286.938906 
L 79.960227 287.429759 
L 81.510037 287.860226 
L 84.198548 288.246785 
L 88.537435 288.506659 
L 94.564206 288.552187 
L 101.68834 288.396941 
L 109.394536 288.096244 
L 117.387933 287.698862 
L 125.538427 287.241325 
L 133.781724 286.749084 
L 142.082374 286.239104 
L 150.420042 285.722955 
L 158.759253 285.210688 
L 167.076355 284.709706 
L 175.37338 284.228518 
L 183.649608 283.769979 
L 191.906787 283.342262 
L 200.146228 282.947991 
L 208.364872 282.592795 
L 216.563927 282.287213 
L 224.749897 282.035103 
L 232.924787 281.839548 
L 241.091991 281.704688 
L 249.254798 281.628697 
L 257.414547 281.611859 
L 265.570157 281.652579 
L 273.716229 281.750138 
L 281.847931 281.909394 
L 289.965494 282.133973 
L 298.07969 282.427446 
L 306.246071 282.794442 
L 314.391655 283.235758 
L 321.584118 283.684708 
L 327.151681 284.074995 
L 331.427329 284.402222 
L 334.953509 284.679037 
" clip-path="url(#p13b28a3590)" style="fill: none; stroke: #000000; stroke-width: 1.5; stroke-linecap: round"/>
   </g>
  </g>
  <g id="text_23">
   <!-- NeuralFoil Airfoil Shape Parameterization -->
   <g style="fill: #262626" transform="translate(59.142375 17.68275) scale(0.144 -0.144)">
    <defs>
     <path id="ArialMT-4e" d="M 488 0 
L 488 4581 
L 1109 4581 
L 3516 984 
L 3516 4581 
L 4097 4581 
L 4097 0 
L 3475 0 
L 1069 3600 
L 1069 0 
L 488 0 
z
" transform="scale(0.015625)"/>
     <path id="ArialMT-46" d="M 525 0 
L 525 4581 
L 3616 4581 
L 3616 4041 
L 1131 4041 
L 1131 2622 
L 3281 2622 
L 3281 2081 
L 1131 2081 
L 1131 0 
L 525 0 
z
" transform="scale(0.015625)"/>
     <path id="ArialMT-41" d="M -9 0 
L 1750 4581 
L 2403 4581 
L 4278 0 
L 3588 0 
L 3053 1388 
L 1138 1388 
L 634 0 
L -9 0 
z
M 1313 1881 
L 2866 1881 
L 2388 3150 
Q 2169 3728 2063 4100 
Q 1975 3659 1816 3225 
L 1313 1881 
z
" transform="scale(0.015625)"/>
     <path id="ArialMT-68" d="M 422 0 
L 422 4581 
L 984 4581 
L 984 2938 
Q 1378 3394 1978 3394 
Q 2347 3394 2619 3248 
Q 2891 3103 3008 2847 
Q 3125 2591 3125 2103 
L 3125 0 
L 2563 0 
L 2563 2103 
Q 2563 2525 2380 2717 
Q 2197 2909 1863 2909 
Q 1613 2909 1392 2779 
Q 1172 2650 1078 2428 
Q 984 2206 984 1816 
L 984 0 
L 422 0 
z
" transform="scale(0.015625)"/>
     <path id="ArialMT-50" d="M 494 0 
L 494 4581 
L 2222 4581 
Q 2678 4581 2919 4538 
Q 3256 4481 3484 4323 
Q 3713 4166 3852 3881 
Q 3991 3597 3991 3256 
Q 3991 2672 3619 2267 
Q 3247 1863 2275 1863 
L 1100 1863 
L 1100 0 
L 494 0 
z
M 1100 2403 
L 2284 2403 
Q 2872 2403 3119 2622 
Q 3366 2841 3366 3238 
Q 3366 3525 3220 3729 
Q 3075 3934 2838 4000 
Q 2684 4041 2272 4041 
L 1100 4041 
L 1100 2403 
z
" transform="scale(0.015625)"/>
     <path id="ArialMT-7a" d="M 125 0 
L 125 456 
L 2238 2881 
Q 1878 2863 1603 2863 
L 250 2863 
L 250 3319 
L 2963 3319 
L 2963 2947 
L 1166 841 
L 819 456 
Q 1197 484 1528 484 
L 3063 484 
L 3063 0 
L 125 0 
z
" transform="scale(0.015625)"/>
    </defs>
    <use xlink:href="#ArialMT-4e"/>
    <use xlink:href="#ArialMT-65" x="72.216797"/>
    <use xlink:href="#ArialMT-75" x="127.832031"/>
    <use xlink:href="#ArialMT-72" x="183.447266"/>
    <use xlink:href="#ArialMT-61" x="216.748047"/>
    <use xlink:href="#ArialMT-6c" x="272.363281"/>
    <use xlink:href="#ArialMT-46" x="294.580078"/>
    <use xlink:href="#ArialMT-6f" x="355.664062"/>
    <use xlink:href="#ArialMT-69" x="411.279297"/>
    <use xlink:href="#ArialMT-6c" x="433.496094"/>
    <use xlink:href="#ArialMT-20" x="455.712891"/>
    <use xlink:href="#ArialMT-41" x="477.996094"/>
    <use xlink:href="#ArialMT-69" x="544.695312"/>
    <use xlink:href="#ArialMT-72" x="566.912109"/>
    <use xlink:href="#ArialMT-66" x="600.212891"/>
    <use xlink:href="#ArialMT-6f" x="627.996094"/>
    <use xlink:href="#ArialMT-69" x="683.611328"/>
    <use xlink:href="#ArialMT-6c" x="705.828125"/>
    <use xlink:href="#ArialMT-20" x="728.044922"/>
    <use xlink:href="#ArialMT-53" x="755.828125"/>
    <use xlink:href="#ArialMT-68" x="822.527344"/>
    <use xlink:href="#ArialMT-61" x="878.142578"/>
    <use xlink:href="#ArialMT-70" x="933.757812"/>
    <use xlink:href="#ArialMT-65" x="989.373047"/>
    <use xlink:href="#ArialMT-20" x="1044.988281"/>
    <use xlink:href="#ArialMT-50" x="1072.771484"/>
    <use xlink:href="#ArialMT-61" x="1139.470703"/>
    <use xlink:href="#ArialMT-72" x="1195.085938"/>
    <use xlink:href="#ArialMT-61" x="1228.386719"/>
    <use xlink:href="#ArialMT-6d" x="1284.001953"/>
    <use xlink:href="#ArialMT-65" x="1367.302734"/>
    <use xlink:href="#ArialMT-74" x="1422.917969"/>
    <use xlink:href="#ArialMT-65" x="1450.701172"/>
    <use xlink:href="#ArialMT-72" x="1506.316406"/>
    <use xlink:href="#ArialMT-69" x="1539.617188"/>
    <use xlink:href="#ArialMT-7a" x="1561.833984"/>
    <use xlink:href="#ArialMT-61" x="1611.833984"/>
    <use xlink:href="#ArialMT-74" x="1667.449219"/>
    <use xlink:href="#ArialMT-69" x="1695.232422"/>
    <use xlink:href="#ArialMT-6f" x="1717.449219"/>
    <use xlink:href="#ArialMT-6e" x="1773.064453"/>
   </g>
   <!-- (18 parameters) -->
   <g style="fill: #262626" transform="translate(139.5855 33.12405) scale(0.144 -0.144)">
    <use xlink:href="#ArialMT-28"/>
    <use xlink:href="#ArialMT-31" x="33.300781"/>
    <use xlink:href="#ArialMT-38" x="88.916016"/>
    <use xlink:href="#ArialMT-20" x="144.53125"/>
    <use xlink:href="#ArialMT-70" x="172.314453"/>
    <use xlink:href="#ArialMT-61" x="227.929688"/>
    <use xlink:href="#ArialMT-72" x="283.544922"/>
    <use xlink:href="#ArialMT-61" x="316.845703"/>
    <use xlink:href="#ArialMT-6d" x="372.460938"/>
    <use xlink:href="#ArialMT-65" x="455.761719"/>
    <use xlink:href="#ArialMT-74" x="511.376953"/>
    <use xlink:href="#ArialMT-65" x="539.160156"/>
    <use xlink:href="#ArialMT-72" x="594.775391"/>
    <use xlink:href="#ArialMT-73" x="628.076172"/>
    <use xlink:href="#ArialMT-29" x="678.076172"/>
   </g>
  </g>
 </g>
 <defs>
  <clipPath id="p010b2b0c07">
   <rect x="65.027891" y="64.836375" width="282.779219" height="113.111688"/>
  </clipPath>
  <clipPath id="p13b28a3590">
   <rect x="65.027891" y="217.840312" width="282.779219" height="113.111688"/>
  </clipPath>
 </defs>
</svg>
