<?xml version="1.0" encoding="utf-8" standalone="no"?>
<!DOCTYPE svg PUBLIC "-//W3C//DTD SVG 1.1//EN"
  "http://www.w3.org/Graphics/SVG/1.1/DTD/svg11.dtd">
<svg xmlns:xlink="http://www.w3.org/1999/xlink" width="288pt" height="93.6pt" viewBox="0 0 288 93.6" xmlns="http://www.w3.org/2000/svg" version="1.1">
 <metadata>
  <rdf:RDF xmlns:dc="http://purl.org/dc/elements/1.1/" xmlns:cc="http://creativecommons.org/ns#" xmlns:rdf="http://www.w3.org/1999/02/22-rdf-syntax-ns#">
   <cc:Work>
    <dc:type rdf:resource="http://purl.org/dc/dcmitype/StillImage"/>
    <dc:date>2024-04-03T11:18:57.120269</dc:date>
    <dc:format>image/svg+xml</dc:format>
    <dc:creator>
     <cc:Agent>
      <dc:title>Matplotlib v3.8.3, https://matplotlib.org/</dc:title>
     </cc:Agent>
    </dc:creator>
   </cc:Work>
  </rdf:RDF>
 </metadata>
 <defs>
  <style type="text/css">*{stroke-linejoin: round; stroke-linecap: butt}</style>
 </defs>
 <g id="figure_1">
  <g id="patch_1">
   <path d="M 0 93.6 
L 288 93.6 
L 288 0 
L 0 0 
z
" style="fill: #ffffff"/>
  </g>
  <g id="axes_1">
   <g id="patch_2">
    <path d="M 263.127273 61.152601 
L 263.112428 61.150553 
L 263.067898 61.144412 
L 262.993694 61.134178 
L 262.889835 61.119857 
L 262.756345 61.101454 
L 262.593259 61.078975 
L 262.400617 61.05243 
L 262.178467 61.02183 
L 261.926864 60.987188 
L 261.645872 60.948519 
L 261.33556 60.905841 
L 260.996005 60.859173 
L 260.627292 60.808539 
L 260.229514 60.753963 
L 259.802768 60.695475 
L 259.347162 60.633105 
L 258.86281 60.566889 
L 258.349831 60.496864 
L 257.808353 60.423072 
L 257.238513 60.345557 
L 256.64045 60.264368 
L 256.014316 60.179556 
L 255.360265 60.091176 
L 254.678461 59.999287 
L 253.969073 59.90395 
L 253.232279 59.805231 
L 252.468262 59.703197 
L 251.677212 59.597918 
L 250.859327 59.489468 
L 250.01481 59.377923 
L 249.143872 59.263361 
L 248.24673 59.145861 
L 247.323608 59.025504 
L 246.374735 58.902374 
L 245.400349 58.776554 
L 244.400691 58.648129 
L 243.376011 58.517184 
L 242.326565 58.383804 
L 241.252613 58.248075 
L 240.154424 58.110082 
L 239.032272 57.969909 
L 237.886435 57.827641 
L 236.7172 57.68336 
L 235.524858 57.537149 
L 234.309706 57.389089 
L 233.072047 57.239259 
L 231.81219 57.08774 
L 230.530447 56.934608 
L 229.22714 56.779939 
L 227.902592 56.62381 
L 226.557134 56.466295 
L 225.191101 56.307468 
L 223.804833 56.147402 
L 222.398676 55.986169 
L 220.972981 55.823842 
L 219.528103 55.660493 
L 218.064401 55.496194 
L 216.582241 55.331018 
L 215.081991 55.16504 
L 213.564027 54.998332 
L 212.028726 54.830971 
L 210.476471 54.663033 
L 208.907648 54.494597 
L 207.322649 54.325742 
L 205.721869 54.156552 
L 204.105706 53.987109 
L 202.474564 53.8175 
L 200.828848 53.647813 
L 199.16897 53.478138 
L 197.495342 53.308569 
L 195.808383 53.1392 
L 194.108511 52.970128 
L 192.396152 52.801453 
L 190.671731 52.633276 
L 188.935678 52.4657 
L 187.188427 52.298829 
L 185.430412 52.132769 
L 183.662072 51.967628 
L 181.883847 51.803514 
L 180.096181 51.640535 
L 178.299519 51.478802 
L 176.494308 51.318424 
L 174.681 51.159511 
L 172.860045 51.002172 
L 171.031897 50.846517 
L 169.197013 50.692654 
L 167.355849 50.54069 
L 165.508864 50.390734 
L 163.656519 50.242889 
L 161.799275 50.097261 
L 159.937595 49.953953 
L 158.071943 49.813068 
L 156.202784 49.674705 
L 154.330583 49.538964 
L 152.455809 49.405943 
L 150.578926 49.27574 
L 148.700405 49.14845 
L 146.820711 49.024169 
L 144.940315 48.902992 
L 143.059685 48.785012 
L 141.179289 48.670323 
L 139.299595 48.559018 
L 137.421074 48.451192 
L 135.544191 48.346936 
L 133.669417 48.246346 
L 131.797216 48.149516 
L 129.928057 48.05654 
L 128.062405 47.967515 
L 126.200725 47.882537 
L 124.343481 47.801703 
L 122.491136 47.725111 
L 120.644151 47.652861 
L 118.802987 47.585051 
L 116.968103 47.521781 
L 115.139955 47.463152 
L 113.319 47.409263 
L 111.505692 47.360216 
L 109.700481 47.316108 
L 107.903819 47.27704 
L 106.116153 47.243108 
L 104.337928 47.214407 
L 102.569588 47.191032 
L 100.811573 47.173072 
L 99.064322 47.160615 
L 97.328269 47.153745 
L 95.603848 47.152542 
L 93.891489 47.157081 
L 92.191617 47.167431 
L 90.504658 47.183658 
L 88.83103 47.205819 
L 87.171152 47.233966 
L 85.525436 47.268146 
L 83.894294 47.308396 
L 82.278131 47.354747 
L 80.677351 47.407224 
L 79.092352 47.465843 
L 77.523529 47.530613 
L 75.971274 47.601535 
L 74.435973 47.678604 
L 72.918009 47.761806 
L 71.417759 47.851122 
L 69.935599 47.946525 
L 68.471897 48.047981 
L 67.027019 48.155453 
L 65.601324 48.268896 
L 64.195167 48.388262 
L 62.808899 48.513496 
L 61.442866 48.644542 
L 60.097408 48.781339 
L 58.77286 48.923824 
L 57.469553 49.071934 
L 56.18781 49.225601 
L 54.927953 49.384758 
L 53.690294 49.549338 
L 52.475142 49.719274 
L 51.2828 49.8945 
L 50.113565 50.074948 
L 48.967728 50.260556 
L 47.845576 50.45126 
L 46.747387 50.647 
L 45.673435 50.847716 
L 44.623989 51.053351 
L 43.599309 51.263849 
L 42.599651 51.479156 
L 41.625265 51.699221 
L 40.676392 51.92399 
L 39.75327 52.153414 
L 38.856128 52.387442 
L 37.98519 52.626021 
L 37.140673 52.869101 
L 36.322788 53.116627 
L 35.531738 53.368543 
L 34.767721 53.624791 
L 34.030927 53.885306 
L 33.321539 54.150023 
L 32.639735 54.418868 
L 31.985684 54.691763 
L 31.35955 54.968623 
L 30.761487 55.249355 
L 30.191647 55.533859 
L 29.650169 55.822026 
L 29.13719 56.113739 
L 28.652838 56.408871 
L 28.197232 56.707285 
L 27.770486 57.008836 
L 27.372708 57.313368 
L 27.003995 57.620714 
L 26.66444 57.9307 
L 26.354128 58.243141 
L 26.073136 58.557843 
L 25.821533 58.874603 
L 25.599383 59.193211 
L 25.406741 59.513448 
L 25.243655 59.83509 
L 25.110165 60.157905 
L 25.006306 60.481658 
L 24.932102 60.806108 
L 24.887572 61.131012 
L 24.872727 61.456125 
L 24.887572 61.781238 
L 24.932102 62.106142 
L 25.006306 62.430592 
L 25.110165 62.754345 
L 25.243655 63.07716 
L 25.406741 63.398802 
L 25.599383 63.719039 
L 25.821533 64.037647 
L 26.073136 64.354407 
L 26.354128 64.669109 
L 26.66444 64.98155 
L 27.003995 65.291536 
L 27.372708 65.598882 
L 27.770486 65.903414 
L 28.197232 66.204965 
L 28.652838 66.503379 
L 29.13719 66.798511 
L 29.650169 67.090224 
L 30.191647 67.378391 
L 30.761487 67.662895 
L 31.35955 67.943627 
L 31.985684 68.220487 
L 32.639735 68.493382 
L 33.321539 68.762227 
L 34.030927 69.026944 
L 34.767721 69.287459 
L 35.531738 69.543707 
L 36.322788 69.795623 
L 37.140673 70.043149 
L 37.98519 70.286229 
L 38.856128 70.524808 
L 39.75327 70.758836 
L 40.676392 70.98826 
L 41.625265 71.213029 
L 42.599651 71.433094 
L 43.599309 71.648401 
L 44.623989 71.858899 
L 45.673435 72.064534 
L 46.747387 72.26525 
L 47.845576 72.46099 
L 48.967728 72.651694 
L 50.113565 72.837302 
L 51.2828 73.01775 
L 52.475142 73.192976 
L 53.690294 73.362912 
L 54.927953 73.527492 
L 56.18781 73.686649 
L 57.469553 73.840316 
L 58.77286 73.988426 
L 60.097408 74.130911 
L 61.442866 74.267708 
L 62.808899 74.398754 
L 64.195167 74.523988 
L 65.601324 74.643354 
L 67.027019 74.756797 
L 68.471897 74.864269 
L 69.935599 74.965725 
L 71.417759 75.061128 
L 72.918009 75.150444 
L 74.435973 75.233646 
L 75.971274 75.310715 
L 77.523529 75.381637 
L 79.092352 75.446407 
L 80.677351 75.505026 
L 82.278131 75.557503 
L 83.894294 75.603854 
L 85.525436 75.644104 
L 87.171152 75.678284 
L 88.83103 75.706431 
L 90.504658 75.728592 
L 92.191617 75.744819 
L 93.891489 75.755169 
L 95.603848 75.759708 
L 97.328269 75.758505 
L 99.064322 75.751635 
L 100.811573 75.739178 
L 102.569588 75.721218 
L 104.337928 75.697843 
L 106.116153 75.669142 
L 107.903819 75.63521 
L 109.700481 75.596142 
L 111.505692 75.552034 
L 113.319 75.502987 
L 115.139955 75.449098 
L 116.968103 75.390469 
L 118.802987 75.327199 
L 120.644151 75.259389 
L 122.491136 75.187139 
L 124.343481 75.110547 
L 126.200725 75.029713 
L 128.062405 74.944735 
L 129.928057 74.85571 
L 131.797216 74.762734 
L 133.669417 74.665904 
L 135.544191 74.565314 
L 137.421074 74.461058 
L 139.299595 74.353232 
L 141.179289 74.241927 
L 143.059685 74.127238 
L 144.940315 74.009258 
L 146.820711 73.888081 
L 148.700405 73.7638 
L 150.578926 73.63651 
L 152.455809 73.506307 
L 154.330583 73.373286 
L 156.202784 73.237545 
L 158.071943 73.099182 
L 159.937595 72.958297 
L 161.799275 72.814989 
L 163.656519 72.669361 
L 165.508864 72.521516 
L 167.355849 72.37156 
L 169.197013 72.219596 
L 171.031897 72.065733 
L 172.860045 71.910078 
L 174.681 71.752739 
L 176.494308 71.593826 
L 178.299519 71.433448 
L 180.096181 71.271715 
L 181.883847 71.108736 
L 183.662072 70.944622 
L 185.430412 70.779481 
L 187.188427 70.613421 
L 188.935678 70.44655 
L 190.671731 70.278974 
L 192.396152 70.110797 
L 194.108511 69.942122 
L 195.808383 69.77305 
L 197.495342 69.603681 
L 199.16897 69.434112 
L 200.828848 69.264437 
L 202.474564 69.09475 
L 204.105706 68.925141 
L 205.721869 68.755698 
L 207.322649 68.586508 
L 208.907648 68.417653 
L 210.476471 68.249217 
L 212.028726 68.081279 
L 213.564027 67.913918 
L 215.081991 67.74721 
L 216.582241 67.581232 
L 218.064401 67.416056 
L 219.528103 67.251757 
L 220.972981 67.088408 
L 222.398676 66.926081 
L 223.804833 66.764848 
L 225.191101 66.604782 
L 226.557134 66.445955 
L 227.902592 66.28844 
L 229.22714 66.132311 
L 230.530447 65.977642 
L 231.81219 65.82451 
L 233.072047 65.672991 
L 234.309706 65.523161 
L 235.524858 65.375101 
L 236.7172 65.22889 
L 237.886435 65.084609 
L 239.032272 64.942341 
L 240.154424 64.802168 
L 241.252613 64.664175 
L 242.326565 64.528446 
L 243.376011 64.395066 
L 244.400691 64.264121 
L 245.400349 64.135696 
L 246.374735 64.009876 
L 247.323608 63.886746 
L 248.24673 63.766389 
L 249.143872 63.648889 
L 250.01481 63.534327 
L 250.859327 63.422782 
L 251.677212 63.314332 
L 252.468262 63.209053 
L 253.232279 63.107019 
L 253.969073 63.0083 
L 254.678461 62.912963 
L 255.360265 62.821074 
L 256.014316 62.732694 
L 256.64045 62.647882 
L 257.238513 62.566693 
L 257.808353 62.489178 
L 258.349831 62.415386 
L 258.86281 62.345361 
L 259.347162 62.279145 
L 259.802768 62.216775 
L 260.229514 62.158287 
L 260.627292 62.103711 
L 260.996005 62.053077 
L 261.33556 62.006409 
L 261.645872 61.963731 
L 261.926864 61.925062 
L 262.178467 61.89042 
L 262.400617 61.85982 
L 262.593259 61.833275 
L 262.756345 61.810796 
L 262.889835 61.792393 
L 262.993694 61.778072 
L 263.067898 61.767838 
L 263.112428 61.761697 
L 263.127273 61.759649 
z
" clip-path="url(#pe24e122c90)" style="fill-opacity: 0.2; stroke: #000000; stroke-opacity: 0.7; stroke-linejoin: miter"/>
   </g>
   <g id="line2d_1">
    <defs>
     <path id="me963e454fc" d="M 0 2.25 
C 0.596707 2.25 1.169055 2.012926 1.59099 1.59099 
C 2.012926 1.169055 2.25 0.596707 2.25 0 
C 2.25 -0.596707 2.012926 -1.169055 1.59099 -1.59099 
C 1.169055 -2.012926 0.596707 -2.25 0 -2.25 
C -0.596707 -2.25 -1.169055 -2.012926 -1.59099 -1.59099 
C -2.012926 -1.169055 -2.25 -0.596707 -2.25 0 
C -2.25 0.596707 -2.012926 1.169055 -1.59099 1.59099 
C -1.169055 2.012926 -0.596707 2.25 0 2.25 
z
"/>
    </defs>
    <g clip-path="url(#pe24e122c90)">
     <use xlink:href="#me963e454fc" x="24.872727" y="61.456125" style="fill-opacity: 0.9"/>
    </g>
   </g>
   <g id="line2d_2">
    <g clip-path="url(#pe24e122c90)">
     <use xlink:href="#me963e454fc" x="26.069986" y="58.56158" style="fill-opacity: 0.9"/>
    </g>
   </g>
   <g id="line2d_3">
    <g clip-path="url(#pe24e122c90)">
     <use xlink:href="#me963e454fc" x="27.267245" y="57.398567" style="fill-opacity: 0.9"/>
    </g>
   </g>
   <g id="line2d_4">
    <g clip-path="url(#pe24e122c90)">
     <use xlink:href="#me963e454fc" x="29.661763" y="55.815655" style="fill-opacity: 0.9"/>
    </g>
   </g>
   <g id="line2d_5">
    <g clip-path="url(#pe24e122c90)">
     <use xlink:href="#me963e454fc" x="32.056281" y="54.661543" style="fill-opacity: 0.9"/>
    </g>
   </g>
   <g id="line2d_6">
    <g clip-path="url(#pe24e122c90)">
     <use xlink:href="#me963e454fc" x="35.648058" y="53.330679" style="fill-opacity: 0.9"/>
    </g>
   </g>
   <g id="line2d_7">
    <g clip-path="url(#pe24e122c90)">
     <use xlink:href="#me963e454fc" x="39.239836" y="52.285952" style="fill-opacity: 0.9"/>
    </g>
   </g>
   <g id="line2d_8">
    <g clip-path="url(#pe24e122c90)">
     <use xlink:href="#me963e454fc" x="45.226131" y="50.934177" style="fill-opacity: 0.9"/>
    </g>
   </g>
   <g id="line2d_9">
    <g clip-path="url(#pe24e122c90)">
     <use xlink:href="#me963e454fc" x="50.015167" y="50.090539" style="fill-opacity: 0.9"/>
    </g>
   </g>
   <g id="line2d_10">
    <g clip-path="url(#pe24e122c90)">
     <use xlink:href="#me963e454fc" x="54.804203" y="49.40084" style="fill-opacity: 0.9"/>
    </g>
   </g>
   <g id="line2d_11">
    <g clip-path="url(#pe24e122c90)">
     <use xlink:href="#me963e454fc" x="61.987757" y="48.59134" style="fill-opacity: 0.9"/>
    </g>
   </g>
   <g id="line2d_12">
    <g clip-path="url(#pe24e122c90)">
     <use xlink:href="#me963e454fc" x="69.171311" y="47.998587" style="fill-opacity: 0.9"/>
    </g>
   </g>
   <g id="line2d_13">
    <g clip-path="url(#pe24e122c90)">
     <use xlink:href="#me963e454fc" x="76.354865" y="47.583364" style="fill-opacity: 0.9"/>
    </g>
   </g>
   <g id="line2d_14">
    <g clip-path="url(#pe24e122c90)">
     <use xlink:href="#me963e454fc" x="83.538419" y="47.318041" style="fill-opacity: 0.9"/>
    </g>
   </g>
   <g id="line2d_15">
    <g clip-path="url(#pe24e122c90)">
     <use xlink:href="#me963e454fc" x="91.919233" y="47.169644" style="fill-opacity: 0.9"/>
    </g>
   </g>
   <g id="line2d_16">
    <g clip-path="url(#pe24e122c90)">
     <use xlink:href="#me963e454fc" x="102.694564" y="47.192511" style="fill-opacity: 0.9"/>
    </g>
   </g>
   <g id="line2d_17">
    <g clip-path="url(#pe24e122c90)">
     <use xlink:href="#me963e454fc" x="109.878118" y="47.320235" style="fill-opacity: 0.9"/>
    </g>
   </g>
   <g id="line2d_18">
    <g clip-path="url(#pe24e122c90)">
     <use xlink:href="#me963e454fc" x="117.061672" y="47.524901" style="fill-opacity: 0.9"/>
    </g>
   </g>
   <g id="line2d_19">
    <g clip-path="url(#pe24e122c90)">
     <use xlink:href="#me963e454fc" x="129.034262" y="48.013413" style="fill-opacity: 0.9"/>
    </g>
   </g>
   <g id="line2d_20">
    <g clip-path="url(#pe24e122c90)">
     <use xlink:href="#me963e454fc" x="135.020557" y="48.31848" style="fill-opacity: 0.9"/>
    </g>
   </g>
   <g id="line2d_21">
    <g clip-path="url(#pe24e122c90)">
     <use xlink:href="#me963e454fc" x="141.006852" y="48.659972" style="fill-opacity: 0.9"/>
    </g>
   </g>
   <g id="line2d_22">
    <g clip-path="url(#pe24e122c90)">
     <use xlink:href="#me963e454fc" x="155.373961" y="49.614257" style="fill-opacity: 0.9"/>
    </g>
   </g>
   <g id="line2d_23">
    <g clip-path="url(#pe24e122c90)">
     <use xlink:href="#me963e454fc" x="163.754774" y="50.250666" style="fill-opacity: 0.9"/>
    </g>
   </g>
   <g id="line2d_24">
    <g clip-path="url(#pe24e122c90)">
     <use xlink:href="#me963e454fc" x="169.741069" y="50.738025" style="fill-opacity: 0.9"/>
    </g>
   </g>
   <g id="line2d_25">
    <g clip-path="url(#pe24e122c90)">
     <use xlink:href="#me963e454fc" x="182.910918" y="51.898063" style="fill-opacity: 0.9"/>
    </g>
   </g>
   <g id="line2d_26">
    <g clip-path="url(#pe24e122c90)">
     <use xlink:href="#me963e454fc" x="194.883508" y="53.047011" style="fill-opacity: 0.9"/>
    </g>
   </g>
   <g id="line2d_27">
    <g clip-path="url(#pe24e122c90)">
     <use xlink:href="#me963e454fc" x="200.869804" y="53.652018" style="fill-opacity: 0.9"/>
    </g>
   </g>
   <g id="line2d_28">
    <g clip-path="url(#pe24e122c90)">
     <use xlink:href="#me963e454fc" x="211.645135" y="54.789351" style="fill-opacity: 0.9"/>
    </g>
   </g>
   <g id="line2d_29">
    <g clip-path="url(#pe24e122c90)">
     <use xlink:href="#me963e454fc" x="227.209502" y="56.542534" style="fill-opacity: 0.9"/>
    </g>
   </g>
   <g id="line2d_30">
    <g clip-path="url(#pe24e122c90)">
     <use xlink:href="#me963e454fc" x="240.379351" y="58.13828" style="fill-opacity: 0.9"/>
    </g>
   </g>
   <g id="line2d_31">
    <g clip-path="url(#pe24e122c90)">
     <use xlink:href="#me963e454fc" x="252.351942" y="59.687692" style="fill-opacity: 0.9"/>
    </g>
   </g>
   <g id="line2d_32">
    <g clip-path="url(#pe24e122c90)">
     <use xlink:href="#me963e454fc" x="263.127273" y="61.152601" style="fill-opacity: 0.9"/>
    </g>
   </g>
   <g id="line2d_33">
    <g clip-path="url(#pe24e122c90)">
     <use xlink:href="#me963e454fc" x="24.872727" y="61.456125" style="fill-opacity: 0.9"/>
    </g>
   </g>
   <g id="line2d_34">
    <g clip-path="url(#pe24e122c90)">
     <use xlink:href="#me963e454fc" x="26.069986" y="64.35067" style="fill-opacity: 0.9"/>
    </g>
   </g>
   <g id="line2d_35">
    <g clip-path="url(#pe24e122c90)">
     <use xlink:href="#me963e454fc" x="27.267245" y="65.513683" style="fill-opacity: 0.9"/>
    </g>
   </g>
   <g id="line2d_36">
    <g clip-path="url(#pe24e122c90)">
     <use xlink:href="#me963e454fc" x="29.661763" y="67.096595" style="fill-opacity: 0.9"/>
    </g>
   </g>
   <g id="line2d_37">
    <g clip-path="url(#pe24e122c90)">
     <use xlink:href="#me963e454fc" x="32.056281" y="68.250707" style="fill-opacity: 0.9"/>
    </g>
   </g>
   <g id="line2d_38">
    <g clip-path="url(#pe24e122c90)">
     <use xlink:href="#me963e454fc" x="35.648058" y="69.581571" style="fill-opacity: 0.9"/>
    </g>
   </g>
   <g id="line2d_39">
    <g clip-path="url(#pe24e122c90)">
     <use xlink:href="#me963e454fc" x="39.239836" y="70.626298" style="fill-opacity: 0.9"/>
    </g>
   </g>
   <g id="line2d_40">
    <g clip-path="url(#pe24e122c90)">
     <use xlink:href="#me963e454fc" x="45.226131" y="71.978073" style="fill-opacity: 0.9"/>
    </g>
   </g>
   <g id="line2d_41">
    <g clip-path="url(#pe24e122c90)">
     <use xlink:href="#me963e454fc" x="50.015167" y="72.821711" style="fill-opacity: 0.9"/>
    </g>
   </g>
   <g id="line2d_42">
    <g clip-path="url(#pe24e122c90)">
     <use xlink:href="#me963e454fc" x="54.804203" y="73.51141" style="fill-opacity: 0.9"/>
    </g>
   </g>
   <g id="line2d_43">
    <g clip-path="url(#pe24e122c90)">
     <use xlink:href="#me963e454fc" x="61.987757" y="74.32091" style="fill-opacity: 0.9"/>
    </g>
   </g>
   <g id="line2d_44">
    <g clip-path="url(#pe24e122c90)">
     <use xlink:href="#me963e454fc" x="69.171311" y="74.913663" style="fill-opacity: 0.9"/>
    </g>
   </g>
   <g id="line2d_45">
    <g clip-path="url(#pe24e122c90)">
     <use xlink:href="#me963e454fc" x="76.354865" y="75.328886" style="fill-opacity: 0.9"/>
    </g>
   </g>
   <g id="line2d_46">
    <g clip-path="url(#pe24e122c90)">
     <use xlink:href="#me963e454fc" x="83.538419" y="75.594209" style="fill-opacity: 0.9"/>
    </g>
   </g>
   <g id="line2d_47">
    <g clip-path="url(#pe24e122c90)">
     <use xlink:href="#me963e454fc" x="91.919233" y="75.742606" style="fill-opacity: 0.9"/>
    </g>
   </g>
   <g id="line2d_48">
    <g clip-path="url(#pe24e122c90)">
     <use xlink:href="#me963e454fc" x="102.694564" y="75.719739" style="fill-opacity: 0.9"/>
    </g>
   </g>
   <g id="line2d_49">
    <g clip-path="url(#pe24e122c90)">
     <use xlink:href="#me963e454fc" x="109.878118" y="75.592015" style="fill-opacity: 0.9"/>
    </g>
   </g>
   <g id="line2d_50">
    <g clip-path="url(#pe24e122c90)">
     <use xlink:href="#me963e454fc" x="117.061672" y="75.387349" style="fill-opacity: 0.9"/>
    </g>
   </g>
   <g id="line2d_51">
    <g clip-path="url(#pe24e122c90)">
     <use xlink:href="#me963e454fc" x="129.034262" y="74.898837" style="fill-opacity: 0.9"/>
    </g>
   </g>
   <g id="line2d_52">
    <g clip-path="url(#pe24e122c90)">
     <use xlink:href="#me963e454fc" x="135.020557" y="74.59377" style="fill-opacity: 0.9"/>
    </g>
   </g>
   <g id="line2d_53">
    <g clip-path="url(#pe24e122c90)">
     <use xlink:href="#me963e454fc" x="141.006852" y="74.252278" style="fill-opacity: 0.9"/>
    </g>
   </g>
   <g id="line2d_54">
    <g clip-path="url(#pe24e122c90)">
     <use xlink:href="#me963e454fc" x="155.373961" y="73.297993" style="fill-opacity: 0.9"/>
    </g>
   </g>
   <g id="line2d_55">
    <g clip-path="url(#pe24e122c90)">
     <use xlink:href="#me963e454fc" x="163.754774" y="72.661584" style="fill-opacity: 0.9"/>
    </g>
   </g>
   <g id="line2d_56">
    <g clip-path="url(#pe24e122c90)">
     <use xlink:href="#me963e454fc" x="169.741069" y="72.174225" style="fill-opacity: 0.9"/>
    </g>
   </g>
   <g id="line2d_57">
    <g clip-path="url(#pe24e122c90)">
     <use xlink:href="#me963e454fc" x="182.910918" y="71.014187" style="fill-opacity: 0.9"/>
    </g>
   </g>
   <g id="line2d_58">
    <g clip-path="url(#pe24e122c90)">
     <use xlink:href="#me963e454fc" x="194.883508" y="69.865239" style="fill-opacity: 0.9"/>
    </g>
   </g>
   <g id="line2d_59">
    <g clip-path="url(#pe24e122c90)">
     <use xlink:href="#me963e454fc" x="200.869804" y="69.260232" style="fill-opacity: 0.9"/>
    </g>
   </g>
   <g id="line2d_60">
    <g clip-path="url(#pe24e122c90)">
     <use xlink:href="#me963e454fc" x="211.645135" y="68.122899" style="fill-opacity: 0.9"/>
    </g>
   </g>
   <g id="line2d_61">
    <g clip-path="url(#pe24e122c90)">
     <use xlink:href="#me963e454fc" x="227.209502" y="66.369716" style="fill-opacity: 0.9"/>
    </g>
   </g>
   <g id="line2d_62">
    <g clip-path="url(#pe24e122c90)">
     <use xlink:href="#me963e454fc" x="240.379351" y="64.77397" style="fill-opacity: 0.9"/>
    </g>
   </g>
   <g id="line2d_63">
    <g clip-path="url(#pe24e122c90)">
     <use xlink:href="#me963e454fc" x="252.351942" y="63.224558" style="fill-opacity: 0.9"/>
    </g>
   </g>
   <g id="line2d_64">
    <g clip-path="url(#pe24e122c90)">
     <use xlink:href="#me963e454fc" x="263.127273" y="61.759649" style="fill-opacity: 0.9"/>
    </g>
   </g>
   <g id="text_1">
    <!-- Optimal Sensor Locations for Compressed -->
    <g style="fill: #262626" transform="translate(30.95625 22.94325) scale(0.12 -0.12)">
     <defs>
      <path id="ArialMT-4f" d="M 309 2231 
Q 309 3372 921 4017 
Q 1534 4663 2503 4663 
Q 3138 4663 3647 4359 
Q 4156 4056 4423 3514 
Q 4691 2972 4691 2284 
Q 4691 1588 4409 1038 
Q 4128 488 3612 205 
Q 3097 -78 2500 -78 
Q 1853 -78 1343 234 
Q 834 547 571 1087 
Q 309 1628 309 2231 
z
M 934 2222 
Q 934 1394 1379 917 
Q 1825 441 2497 441 
Q 3181 441 3623 922 
Q 4066 1403 4066 2288 
Q 4066 2847 3877 3264 
Q 3688 3681 3323 3911 
Q 2959 4141 2506 4141 
Q 1863 4141 1398 3698 
Q 934 3256 934 2222 
z
" transform="scale(0.015625)"/>
      <path id="ArialMT-70" d="M 422 -1272 
L 422 3319 
L 934 3319 
L 934 2888 
Q 1116 3141 1344 3267 
Q 1572 3394 1897 3394 
Q 2322 3394 2647 3175 
Q 2972 2956 3137 2557 
Q 3303 2159 3303 1684 
Q 3303 1175 3120 767 
Q 2938 359 2589 142 
Q 2241 -75 1856 -75 
Q 1575 -75 1351 44 
Q 1128 163 984 344 
L 984 -1272 
L 422 -1272 
z
M 931 1641 
Q 931 1000 1190 694 
Q 1450 388 1819 388 
Q 2194 388 2461 705 
Q 2728 1022 2728 1688 
Q 2728 2322 2467 2637 
Q 2206 2953 1844 2953 
Q 1484 2953 1207 2617 
Q 931 2281 931 1641 
z
" transform="scale(0.015625)"/>
      <path id="ArialMT-74" d="M 1650 503 
L 1731 6 
Q 1494 -44 1306 -44 
Q 1000 -44 831 53 
Q 663 150 594 308 
Q 525 466 525 972 
L 525 2881 
L 113 2881 
L 113 3319 
L 525 3319 
L 525 4141 
L 1084 4478 
L 1084 3319 
L 1650 3319 
L 1650 2881 
L 1084 2881 
L 1084 941 
Q 1084 700 1114 631 
Q 1144 563 1211 522 
Q 1278 481 1403 481 
Q 1497 481 1650 503 
z
" transform="scale(0.015625)"/>
      <path id="ArialMT-69" d="M 425 3934 
L 425 4581 
L 988 4581 
L 988 3934 
L 425 3934 
z
M 425 0 
L 425 3319 
L 988 3319 
L 988 0 
L 425 0 
z
" transform="scale(0.015625)"/>
      <path id="ArialMT-6d" d="M 422 0 
L 422 3319 
L 925 3319 
L 925 2853 
Q 1081 3097 1340 3245 
Q 1600 3394 1931 3394 
Q 2300 3394 2536 3241 
Q 2772 3088 2869 2813 
Q 3263 3394 3894 3394 
Q 4388 3394 4653 3120 
Q 4919 2847 4919 2278 
L 4919 0 
L 4359 0 
L 4359 2091 
Q 4359 2428 4304 2576 
Q 4250 2725 4106 2815 
Q 3963 2906 3769 2906 
Q 3419 2906 3187 2673 
Q 2956 2441 2956 1928 
L 2956 0 
L 2394 0 
L 2394 2156 
Q 2394 2531 2256 2718 
Q 2119 2906 1806 2906 
Q 1569 2906 1367 2781 
Q 1166 2656 1075 2415 
Q 984 2175 984 1722 
L 984 0 
L 422 0 
z
" transform="scale(0.015625)"/>
      <path id="ArialMT-61" d="M 2588 409 
Q 2275 144 1986 34 
Q 1697 -75 1366 -75 
Q 819 -75 525 192 
Q 231 459 231 875 
Q 231 1119 342 1320 
Q 453 1522 633 1644 
Q 813 1766 1038 1828 
Q 1203 1872 1538 1913 
Q 2219 1994 2541 2106 
Q 2544 2222 2544 2253 
Q 2544 2597 2384 2738 
Q 2169 2928 1744 2928 
Q 1347 2928 1158 2789 
Q 969 2650 878 2297 
L 328 2372 
Q 403 2725 575 2942 
Q 747 3159 1072 3276 
Q 1397 3394 1825 3394 
Q 2250 3394 2515 3294 
Q 2781 3194 2906 3042 
Q 3031 2891 3081 2659 
Q 3109 2516 3109 2141 
L 3109 1391 
Q 3109 606 3145 398 
Q 3181 191 3288 0 
L 2700 0 
Q 2613 175 2588 409 
z
M 2541 1666 
Q 2234 1541 1622 1453 
Q 1275 1403 1131 1340 
Q 988 1278 909 1158 
Q 831 1038 831 891 
Q 831 666 1001 516 
Q 1172 366 1500 366 
Q 1825 366 2078 508 
Q 2331 650 2450 897 
Q 2541 1088 2541 1459 
L 2541 1666 
z
" transform="scale(0.015625)"/>
      <path id="ArialMT-6c" d="M 409 0 
L 409 4581 
L 972 4581 
L 972 0 
L 409 0 
z
" transform="scale(0.015625)"/>
      <path id="ArialMT-20" transform="scale(0.015625)"/>
      <path id="ArialMT-53" d="M 288 1472 
L 859 1522 
Q 900 1178 1048 958 
Q 1197 738 1509 602 
Q 1822 466 2213 466 
Q 2559 466 2825 569 
Q 3091 672 3220 851 
Q 3350 1031 3350 1244 
Q 3350 1459 3225 1620 
Q 3100 1781 2813 1891 
Q 2628 1963 1997 2114 
Q 1366 2266 1113 2400 
Q 784 2572 623 2826 
Q 463 3081 463 3397 
Q 463 3744 659 4045 
Q 856 4347 1234 4503 
Q 1613 4659 2075 4659 
Q 2584 4659 2973 4495 
Q 3363 4331 3572 4012 
Q 3781 3694 3797 3291 
L 3216 3247 
Q 3169 3681 2898 3903 
Q 2628 4125 2100 4125 
Q 1550 4125 1298 3923 
Q 1047 3722 1047 3438 
Q 1047 3191 1225 3031 
Q 1400 2872 2139 2705 
Q 2878 2538 3153 2413 
Q 3553 2228 3743 1945 
Q 3934 1663 3934 1294 
Q 3934 928 3725 604 
Q 3516 281 3123 101 
Q 2731 -78 2241 -78 
Q 1619 -78 1198 103 
Q 778 284 539 648 
Q 300 1013 288 1472 
z
" transform="scale(0.015625)"/>
      <path id="ArialMT-65" d="M 2694 1069 
L 3275 997 
Q 3138 488 2766 206 
Q 2394 -75 1816 -75 
Q 1088 -75 661 373 
Q 234 822 234 1631 
Q 234 2469 665 2931 
Q 1097 3394 1784 3394 
Q 2450 3394 2872 2941 
Q 3294 2488 3294 1666 
Q 3294 1616 3291 1516 
L 816 1516 
Q 847 969 1125 678 
Q 1403 388 1819 388 
Q 2128 388 2347 550 
Q 2566 713 2694 1069 
z
M 847 1978 
L 2700 1978 
Q 2663 2397 2488 2606 
Q 2219 2931 1791 2931 
Q 1403 2931 1139 2672 
Q 875 2413 847 1978 
z
" transform="scale(0.015625)"/>
      <path id="ArialMT-6e" d="M 422 0 
L 422 3319 
L 928 3319 
L 928 2847 
Q 1294 3394 1984 3394 
Q 2284 3394 2536 3286 
Q 2788 3178 2913 3003 
Q 3038 2828 3088 2588 
Q 3119 2431 3119 2041 
L 3119 0 
L 2556 0 
L 2556 2019 
Q 2556 2363 2490 2533 
Q 2425 2703 2258 2804 
Q 2091 2906 1866 2906 
Q 1506 2906 1245 2678 
Q 984 2450 984 1813 
L 984 0 
L 422 0 
z
" transform="scale(0.015625)"/>
      <path id="ArialMT-73" d="M 197 991 
L 753 1078 
Q 800 744 1014 566 
Q 1228 388 1613 388 
Q 2000 388 2187 545 
Q 2375 703 2375 916 
Q 2375 1106 2209 1216 
Q 2094 1291 1634 1406 
Q 1016 1563 777 1677 
Q 538 1791 414 1992 
Q 291 2194 291 2438 
Q 291 2659 392 2848 
Q 494 3038 669 3163 
Q 800 3259 1026 3326 
Q 1253 3394 1513 3394 
Q 1903 3394 2198 3281 
Q 2494 3169 2634 2976 
Q 2775 2784 2828 2463 
L 2278 2388 
Q 2241 2644 2061 2787 
Q 1881 2931 1553 2931 
Q 1166 2931 1000 2803 
Q 834 2675 834 2503 
Q 834 2394 903 2306 
Q 972 2216 1119 2156 
Q 1203 2125 1616 2013 
Q 2213 1853 2448 1751 
Q 2684 1650 2818 1456 
Q 2953 1263 2953 975 
Q 2953 694 2789 445 
Q 2625 197 2315 61 
Q 2006 -75 1616 -75 
Q 969 -75 630 194 
Q 291 463 197 991 
z
" transform="scale(0.015625)"/>
      <path id="ArialMT-6f" d="M 213 1659 
Q 213 2581 725 3025 
Q 1153 3394 1769 3394 
Q 2453 3394 2887 2945 
Q 3322 2497 3322 1706 
Q 3322 1066 3130 698 
Q 2938 331 2570 128 
Q 2203 -75 1769 -75 
Q 1072 -75 642 372 
Q 213 819 213 1659 
z
M 791 1659 
Q 791 1022 1069 705 
Q 1347 388 1769 388 
Q 2188 388 2466 706 
Q 2744 1025 2744 1678 
Q 2744 2294 2464 2611 
Q 2184 2928 1769 2928 
Q 1347 2928 1069 2612 
Q 791 2297 791 1659 
z
" transform="scale(0.015625)"/>
      <path id="ArialMT-72" d="M 416 0 
L 416 3319 
L 922 3319 
L 922 2816 
Q 1116 3169 1280 3281 
Q 1444 3394 1641 3394 
Q 1925 3394 2219 3213 
L 2025 2691 
Q 1819 2813 1613 2813 
Q 1428 2813 1281 2702 
Q 1134 2591 1072 2394 
Q 978 2094 978 1738 
L 978 0 
L 416 0 
z
" transform="scale(0.015625)"/>
      <path id="ArialMT-4c" d="M 469 0 
L 469 4581 
L 1075 4581 
L 1075 541 
L 3331 541 
L 3331 0 
L 469 0 
z
" transform="scale(0.015625)"/>
      <path id="ArialMT-63" d="M 2588 1216 
L 3141 1144 
Q 3050 572 2676 248 
Q 2303 -75 1759 -75 
Q 1078 -75 664 370 
Q 250 816 250 1647 
Q 250 2184 428 2587 
Q 606 2991 970 3192 
Q 1334 3394 1763 3394 
Q 2303 3394 2647 3120 
Q 2991 2847 3088 2344 
L 2541 2259 
Q 2463 2594 2264 2762 
Q 2066 2931 1784 2931 
Q 1359 2931 1093 2626 
Q 828 2322 828 1663 
Q 828 994 1084 691 
Q 1341 388 1753 388 
Q 2084 388 2306 591 
Q 2528 794 2588 1216 
z
" transform="scale(0.015625)"/>
      <path id="ArialMT-66" d="M 556 0 
L 556 2881 
L 59 2881 
L 59 3319 
L 556 3319 
L 556 3672 
Q 556 4006 616 4169 
Q 697 4388 901 4523 
Q 1106 4659 1475 4659 
Q 1713 4659 2000 4603 
L 1916 4113 
Q 1741 4144 1584 4144 
Q 1328 4144 1222 4034 
Q 1116 3925 1116 3625 
L 1116 3319 
L 1763 3319 
L 1763 2881 
L 1116 2881 
L 1116 0 
L 556 0 
z
" transform="scale(0.015625)"/>
      <path id="ArialMT-43" d="M 3763 1606 
L 4369 1453 
Q 4178 706 3683 314 
Q 3188 -78 2472 -78 
Q 1731 -78 1267 223 
Q 803 525 561 1097 
Q 319 1669 319 2325 
Q 319 3041 592 3573 
Q 866 4106 1370 4382 
Q 1875 4659 2481 4659 
Q 3169 4659 3637 4309 
Q 4106 3959 4291 3325 
L 3694 3184 
Q 3534 3684 3231 3912 
Q 2928 4141 2469 4141 
Q 1941 4141 1586 3887 
Q 1231 3634 1087 3207 
Q 944 2781 944 2328 
Q 944 1744 1114 1308 
Q 1284 872 1643 656 
Q 2003 441 2422 441 
Q 2931 441 3284 734 
Q 3638 1028 3763 1606 
z
" transform="scale(0.015625)"/>
      <path id="ArialMT-64" d="M 2575 0 
L 2575 419 
Q 2259 -75 1647 -75 
Q 1250 -75 917 144 
Q 584 363 401 755 
Q 219 1147 219 1656 
Q 219 2153 384 2558 
Q 550 2963 881 3178 
Q 1213 3394 1622 3394 
Q 1922 3394 2156 3267 
Q 2391 3141 2538 2938 
L 2538 4581 
L 3097 4581 
L 3097 0 
L 2575 0 
z
M 797 1656 
Q 797 1019 1065 703 
Q 1334 388 1700 388 
Q 2069 388 2326 689 
Q 2584 991 2584 1609 
Q 2584 2291 2321 2609 
Q 2059 2928 1675 2928 
Q 1300 2928 1048 2622 
Q 797 2316 797 1656 
z
" transform="scale(0.015625)"/>
     </defs>
     <use xlink:href="#ArialMT-4f"/>
     <use xlink:href="#ArialMT-70" x="77.783203"/>
     <use xlink:href="#ArialMT-74" x="133.398438"/>
     <use xlink:href="#ArialMT-69" x="161.181641"/>
     <use xlink:href="#ArialMT-6d" x="183.398438"/>
     <use xlink:href="#ArialMT-61" x="266.699219"/>
     <use xlink:href="#ArialMT-6c" x="322.314453"/>
     <use xlink:href="#ArialMT-20" x="344.53125"/>
     <use xlink:href="#ArialMT-53" x="372.314453"/>
     <use xlink:href="#ArialMT-65" x="439.013672"/>
     <use xlink:href="#ArialMT-6e" x="494.628906"/>
     <use xlink:href="#ArialMT-73" x="550.244141"/>
     <use xlink:href="#ArialMT-6f" x="600.244141"/>
     <use xlink:href="#ArialMT-72" x="655.859375"/>
     <use xlink:href="#ArialMT-20" x="689.160156"/>
     <use xlink:href="#ArialMT-4c" x="716.943359"/>
     <use xlink:href="#ArialMT-6f" x="772.558594"/>
     <use xlink:href="#ArialMT-63" x="828.173828"/>
     <use xlink:href="#ArialMT-61" x="878.173828"/>
     <use xlink:href="#ArialMT-74" x="933.789062"/>
     <use xlink:href="#ArialMT-69" x="961.572266"/>
     <use xlink:href="#ArialMT-6f" x="983.789062"/>
     <use xlink:href="#ArialMT-6e" x="1039.404297"/>
     <use xlink:href="#ArialMT-73" x="1095.019531"/>
     <use xlink:href="#ArialMT-20" x="1145.019531"/>
     <use xlink:href="#ArialMT-66" x="1172.802734"/>
     <use xlink:href="#ArialMT-6f" x="1200.585938"/>
     <use xlink:href="#ArialMT-72" x="1256.201172"/>
     <use xlink:href="#ArialMT-20" x="1289.501953"/>
     <use xlink:href="#ArialMT-43" x="1317.285156"/>
     <use xlink:href="#ArialMT-6f" x="1389.501953"/>
     <use xlink:href="#ArialMT-6d" x="1445.117188"/>
     <use xlink:href="#ArialMT-70" x="1528.417969"/>
     <use xlink:href="#ArialMT-72" x="1584.033203"/>
     <use xlink:href="#ArialMT-65" x="1617.333984"/>
     <use xlink:href="#ArialMT-73" x="1672.949219"/>
     <use xlink:href="#ArialMT-73" x="1722.949219"/>
     <use xlink:href="#ArialMT-65" x="1772.949219"/>
     <use xlink:href="#ArialMT-64" x="1828.564453"/>
    </g>
    <!-- Sensing of Shape Factor $H(s)$ -->
    <g style="fill: #262626" transform="translate(63.96 36.27225) scale(0.12 -0.12)">
     <defs>
      <path id="ArialMT-67" d="M 319 -275 
L 866 -356 
Q 900 -609 1056 -725 
Q 1266 -881 1628 -881 
Q 2019 -881 2231 -725 
Q 2444 -569 2519 -288 
Q 2563 -116 2559 434 
Q 2191 0 1641 0 
Q 956 0 581 494 
Q 206 988 206 1678 
Q 206 2153 378 2554 
Q 550 2956 876 3175 
Q 1203 3394 1644 3394 
Q 2231 3394 2613 2919 
L 2613 3319 
L 3131 3319 
L 3131 450 
Q 3131 -325 2973 -648 
Q 2816 -972 2473 -1159 
Q 2131 -1347 1631 -1347 
Q 1038 -1347 672 -1080 
Q 306 -813 319 -275 
z
M 784 1719 
Q 784 1066 1043 766 
Q 1303 466 1694 466 
Q 2081 466 2343 764 
Q 2606 1063 2606 1700 
Q 2606 2309 2336 2618 
Q 2066 2928 1684 2928 
Q 1309 2928 1046 2623 
Q 784 2319 784 1719 
z
" transform="scale(0.015625)"/>
      <path id="ArialMT-68" d="M 422 0 
L 422 4581 
L 984 4581 
L 984 2938 
Q 1378 3394 1978 3394 
Q 2347 3394 2619 3248 
Q 2891 3103 3008 2847 
Q 3125 2591 3125 2103 
L 3125 0 
L 2563 0 
L 2563 2103 
Q 2563 2525 2380 2717 
Q 2197 2909 1863 2909 
Q 1613 2909 1392 2779 
Q 1172 2650 1078 2428 
Q 984 2206 984 1816 
L 984 0 
L 422 0 
z
" transform="scale(0.015625)"/>
      <path id="ArialMT-46" d="M 525 0 
L 525 4581 
L 3616 4581 
L 3616 4041 
L 1131 4041 
L 1131 2622 
L 3281 2622 
L 3281 2081 
L 1131 2081 
L 1131 0 
L 525 0 
z
" transform="scale(0.015625)"/>
      <path id="DejaVuSans-Oblique-48" d="M 1081 4666 
L 1716 4666 
L 1344 2753 
L 3634 2753 
L 4006 4666 
L 4641 4666 
L 3731 0 
L 3097 0 
L 3531 2222 
L 1241 2222 
L 806 0 
L 172 0 
L 1081 4666 
z
" transform="scale(0.015625)"/>
      <path id="DejaVuSans-28" d="M 1984 4856 
Q 1566 4138 1362 3434 
Q 1159 2731 1159 2009 
Q 1159 1288 1364 580 
Q 1569 -128 1984 -844 
L 1484 -844 
Q 1016 -109 783 600 
Q 550 1309 550 2009 
Q 550 2706 781 3412 
Q 1013 4119 1484 4856 
L 1984 4856 
z
" transform="scale(0.015625)"/>
      <path id="DejaVuSans-Oblique-73" d="M 3200 3397 
L 3091 2853 
Q 2863 2978 2609 3040 
Q 2356 3103 2088 3103 
Q 1634 3103 1373 2948 
Q 1113 2794 1113 2528 
Q 1113 2219 1719 2053 
Q 1766 2041 1788 2034 
L 1972 1978 
Q 2547 1819 2739 1644 
Q 2931 1469 2931 1166 
Q 2931 609 2489 259 
Q 2047 -91 1331 -91 
Q 1053 -91 747 -37 
Q 441 16 72 128 
L 184 722 
Q 500 559 806 475 
Q 1113 391 1394 391 
Q 1816 391 2080 572 
Q 2344 753 2344 1031 
Q 2344 1331 1650 1516 
L 1591 1531 
L 1394 1581 
Q 956 1697 753 1886 
Q 550 2075 550 2369 
Q 550 2928 970 3256 
Q 1391 3584 2113 3584 
Q 2397 3584 2667 3537 
Q 2938 3491 3200 3397 
z
" transform="scale(0.015625)"/>
      <path id="DejaVuSans-29" d="M 513 4856 
L 1013 4856 
Q 1481 4119 1714 3412 
Q 1947 2706 1947 2009 
Q 1947 1309 1714 600 
Q 1481 -109 1013 -844 
L 513 -844 
Q 928 -128 1133 580 
Q 1338 1288 1338 2009 
Q 1338 2731 1133 3434 
Q 928 4138 513 4856 
z
" transform="scale(0.015625)"/>
     </defs>
     <use xlink:href="#ArialMT-53" transform="translate(0 0.125)"/>
     <use xlink:href="#ArialMT-65" transform="translate(66.699219 0.125)"/>
     <use xlink:href="#ArialMT-6e" transform="translate(122.314453 0.125)"/>
     <use xlink:href="#ArialMT-73" transform="translate(177.929688 0.125)"/>
     <use xlink:href="#ArialMT-69" transform="translate(227.929688 0.125)"/>
     <use xlink:href="#ArialMT-6e" transform="translate(250.146484 0.125)"/>
     <use xlink:href="#ArialMT-67" transform="translate(305.761719 0.125)"/>
     <use xlink:href="#ArialMT-20" transform="translate(361.376953 0.125)"/>
     <use xlink:href="#ArialMT-6f" transform="translate(389.160156 0.125)"/>
     <use xlink:href="#ArialMT-66" transform="translate(444.775391 0.125)"/>
     <use xlink:href="#ArialMT-20" transform="translate(472.558594 0.125)"/>
     <use xlink:href="#ArialMT-53" transform="translate(500.341797 0.125)"/>
     <use xlink:href="#ArialMT-68" transform="translate(567.041016 0.125)"/>
     <use xlink:href="#ArialMT-61" transform="translate(622.65625 0.125)"/>
     <use xlink:href="#ArialMT-70" transform="translate(678.271484 0.125)"/>
     <use xlink:href="#ArialMT-65" transform="translate(733.886719 0.125)"/>
     <use xlink:href="#ArialMT-20" transform="translate(789.501953 0.125)"/>
     <use xlink:href="#ArialMT-46" transform="translate(817.285156 0.125)"/>
     <use xlink:href="#ArialMT-61" transform="translate(878.369141 0.125)"/>
     <use xlink:href="#ArialMT-63" transform="translate(933.984375 0.125)"/>
     <use xlink:href="#ArialMT-74" transform="translate(983.984375 0.125)"/>
     <use xlink:href="#ArialMT-6f" transform="translate(1011.767578 0.125)"/>
     <use xlink:href="#ArialMT-72" transform="translate(1067.382812 0.125)"/>
     <use xlink:href="#ArialMT-20" transform="translate(1100.683594 0.125)"/>
     <use xlink:href="#DejaVuSans-Oblique-48" transform="translate(1128.466797 0.125)"/>
     <use xlink:href="#DejaVuSans-28" transform="translate(1203.662109 0.125)"/>
     <use xlink:href="#DejaVuSans-Oblique-73" transform="translate(1242.675781 0.125)"/>
     <use xlink:href="#DejaVuSans-29" transform="translate(1294.775391 0.125)"/>
    </g>
   </g>
  </g>
 </g>
 <defs>
  <clipPath id="pe24e122c90">
   <rect x="12.96" y="42.27225" width="262.08" height="38.36775"/>
  </clipPath>
 </defs>
</svg>
