<?xml version="1.0" encoding="utf-8" standalone="no"?>
<!DOCTYPE svg PUBLIC "-//W3C//DTD SVG 1.1//EN"
  "http://www.w3.org/Graphics/SVG/1.1/DTD/svg11.dtd">
<svg xmlns:xlink="http://www.w3.org/1999/xlink" width="468pt" height="324pt" viewBox="0 0 468 324" xmlns="http://www.w3.org/2000/svg" version="1.1">
 <metadata>
  <rdf:RDF xmlns:dc="http://purl.org/dc/elements/1.1/" xmlns:cc="http://creativecommons.org/ns#" xmlns:rdf="http://www.w3.org/1999/02/22-rdf-syntax-ns#">
   <cc:Work>
    <dc:type rdf:resource="http://purl.org/dc/dcmitype/StillImage"/>
    <dc:date>2025-02-17T10:15:31.548133</dc:date>
    <dc:format>image/svg+xml</dc:format>
    <dc:creator>
     <cc:Agent>
      <dc:title>Matplotlib v3.10.0, https://matplotlib.org/</dc:title>
     </cc:Agent>
    </dc:creator>
   </cc:Work>
  </rdf:RDF>
 </metadata>
 <defs>
  <style type="text/css">*{stroke-linejoin: round; stroke-linecap: butt}</style>
 </defs>
 <g id="figure_1">
  <g id="patch_1">
   <path d="M 0 324 
L 468 324 
L 468 0 
L 0 0 
z
" style="fill: #ffffff"/>
  </g>
  <g id="axes_1">
   <g id="patch_2">
    <path d="M 103.435767 284.1 
L 465 284.1 
L 465 17.64 
L 103.435767 17.64 
z
" style="fill: #eaeaf2"/>
   </g>
   <g id="matplotlib.axis_1">
    <g id="xtick_1">
     <g id="line2d_1">
      <path d="M 128.993649 284.1 
L 128.993649 17.64 
" clip-path="url(#p21eda4824d)" style="fill: none; stroke: #ffffff; stroke-width: 1.6; stroke-linecap: round"/>
     </g>
     <g id="text_1">
      <!-- 0.1% -->
      <g style="fill: #262626" transform="translate(116.457945 301.473594) scale(0.11 -0.11)">
       <defs>
        <path id="ArialMT-30" d="M 266 2259 
Q 266 3072 433 3567 
Q 600 4063 929 4331 
Q 1259 4600 1759 4600 
Q 2128 4600 2406 4451 
Q 2684 4303 2865 4023 
Q 3047 3744 3150 3342 
Q 3253 2941 3253 2259 
Q 3253 1453 3087 958 
Q 2922 463 2592 192 
Q 2263 -78 1759 -78 
Q 1097 -78 719 397 
Q 266 969 266 2259 
z
M 844 2259 
Q 844 1131 1108 757 
Q 1372 384 1759 384 
Q 2147 384 2411 759 
Q 2675 1134 2675 2259 
Q 2675 3391 2411 3762 
Q 2147 4134 1753 4134 
Q 1366 4134 1134 3806 
Q 844 3388 844 2259 
z
" transform="scale(0.015625)"/>
        <path id="ArialMT-2e" d="M 581 0 
L 581 641 
L 1222 641 
L 1222 0 
L 581 0 
z
" transform="scale(0.015625)"/>
        <path id="ArialMT-31" d="M 2384 0 
L 1822 0 
L 1822 3584 
Q 1619 3391 1289 3197 
Q 959 3003 697 2906 
L 697 3450 
Q 1169 3672 1522 3987 
Q 1875 4303 2022 4600 
L 2384 4600 
L 2384 0 
z
" transform="scale(0.015625)"/>
        <path id="ArialMT-25" d="M 372 3481 
Q 372 3972 619 4315 
Q 866 4659 1334 4659 
Q 1766 4659 2048 4351 
Q 2331 4044 2331 3447 
Q 2331 2866 2045 2552 
Q 1759 2238 1341 2238 
Q 925 2238 648 2547 
Q 372 2856 372 3481 
z
M 1350 4272 
Q 1141 4272 1002 4090 
Q 863 3909 863 3425 
Q 863 2984 1003 2804 
Q 1144 2625 1350 2625 
Q 1563 2625 1702 2806 
Q 1841 2988 1841 3469 
Q 1841 3913 1700 4092 
Q 1559 4272 1350 4272 
z
M 1353 -169 
L 3859 4659 
L 4316 4659 
L 1819 -169 
L 1353 -169 
z
M 3334 1075 
Q 3334 1569 3581 1911 
Q 3828 2253 4300 2253 
Q 4731 2253 5014 1945 
Q 5297 1638 5297 1041 
Q 5297 459 5011 145 
Q 4725 -169 4303 -169 
Q 3888 -169 3611 142 
Q 3334 453 3334 1075 
z
M 4316 1866 
Q 4103 1866 3964 1684 
Q 3825 1503 3825 1019 
Q 3825 581 3965 400 
Q 4106 219 4313 219 
Q 4528 219 4667 400 
Q 4806 581 4806 1063 
Q 4806 1506 4665 1686 
Q 4525 1866 4316 1866 
z
" transform="scale(0.015625)"/>
       </defs>
       <use xlink:href="#ArialMT-30"/>
       <use xlink:href="#ArialMT-2e" transform="translate(55.615234 0)"/>
       <use xlink:href="#ArialMT-31" transform="translate(83.398438 0)"/>
       <use xlink:href="#ArialMT-25" transform="translate(139.013672 0)"/>
      </g>
     </g>
    </g>
    <g id="xtick_2">
     <g id="line2d_2">
      <path d="M 258.770563 284.1 
L 258.770563 17.64 
" clip-path="url(#p21eda4824d)" style="fill: none; stroke: #ffffff; stroke-width: 1.6; stroke-linecap: round"/>
     </g>
     <g id="text_2">
      <!-- 1.0% -->
      <g style="fill: #262626" transform="translate(246.23486 301.473594) scale(0.11 -0.11)">
       <use xlink:href="#ArialMT-31"/>
       <use xlink:href="#ArialMT-2e" transform="translate(55.615234 0)"/>
       <use xlink:href="#ArialMT-30" transform="translate(83.398438 0)"/>
       <use xlink:href="#ArialMT-25" transform="translate(139.013672 0)"/>
      </g>
     </g>
    </g>
    <g id="xtick_3">
     <g id="line2d_3">
      <path d="M 388.547477 284.1 
L 388.547477 17.64 
" clip-path="url(#p21eda4824d)" style="fill: none; stroke: #ffffff; stroke-width: 1.6; stroke-linecap: round"/>
     </g>
     <g id="text_3">
      <!-- 10.0% -->
      <g style="fill: #262626" transform="translate(372.953259 301.473594) scale(0.11 -0.11)">
       <use xlink:href="#ArialMT-31"/>
       <use xlink:href="#ArialMT-30" transform="translate(55.615234 0)"/>
       <use xlink:href="#ArialMT-2e" transform="translate(111.230469 0)"/>
       <use xlink:href="#ArialMT-30" transform="translate(139.013672 0)"/>
       <use xlink:href="#ArialMT-25" transform="translate(194.628906 0)"/>
      </g>
     </g>
    </g>
    <g id="xtick_4">
     <g id="line2d_4">
      <path d="M 108.89095 284.1 
L 108.89095 17.64 
" clip-path="url(#p21eda4824d)" style="fill: none; stroke: #ffffff; stroke-width: 0.7; stroke-linecap: round"/>
     </g>
    </g>
    <g id="xtick_5">
     <g id="line2d_5">
      <path d="M 116.416966 284.1 
L 116.416966 17.64 
" clip-path="url(#p21eda4824d)" style="fill: none; stroke: #ffffff; stroke-width: 0.7; stroke-linecap: round"/>
     </g>
    </g>
    <g id="xtick_6">
     <g id="line2d_6">
      <path d="M 123.055383 284.1 
L 123.055383 17.64 
" clip-path="url(#p21eda4824d)" style="fill: none; stroke: #ffffff; stroke-width: 0.7; stroke-linecap: round"/>
     </g>
    </g>
    <g id="xtick_7">
     <g id="line2d_7">
      <path d="M 168.060393 284.1 
L 168.060393 17.64 
" clip-path="url(#p21eda4824d)" style="fill: none; stroke: #ffffff; stroke-width: 0.7; stroke-linecap: round"/>
     </g>
    </g>
    <g id="xtick_8">
     <g id="line2d_8">
      <path d="M 190.912973 284.1 
L 190.912973 17.64 
" clip-path="url(#p21eda4824d)" style="fill: none; stroke: #ffffff; stroke-width: 0.7; stroke-linecap: round"/>
     </g>
    </g>
    <g id="xtick_9">
     <g id="line2d_9">
      <path d="M 207.127137 284.1 
L 207.127137 17.64 
" clip-path="url(#p21eda4824d)" style="fill: none; stroke: #ffffff; stroke-width: 0.7; stroke-linecap: round"/>
     </g>
    </g>
    <g id="xtick_10">
     <g id="line2d_10">
      <path d="M 219.703819 284.1 
L 219.703819 17.64 
" clip-path="url(#p21eda4824d)" style="fill: none; stroke: #ffffff; stroke-width: 0.7; stroke-linecap: round"/>
     </g>
    </g>
    <g id="xtick_11">
     <g id="line2d_11">
      <path d="M 229.979717 284.1 
L 229.979717 17.64 
" clip-path="url(#p21eda4824d)" style="fill: none; stroke: #ffffff; stroke-width: 0.7; stroke-linecap: round"/>
     </g>
    </g>
    <g id="xtick_12">
     <g id="line2d_12">
      <path d="M 238.667865 284.1 
L 238.667865 17.64 
" clip-path="url(#p21eda4824d)" style="fill: none; stroke: #ffffff; stroke-width: 0.7; stroke-linecap: round"/>
     </g>
    </g>
    <g id="xtick_13">
     <g id="line2d_13">
      <path d="M 246.193881 284.1 
L 246.193881 17.64 
" clip-path="url(#p21eda4824d)" style="fill: none; stroke: #ffffff; stroke-width: 0.7; stroke-linecap: round"/>
     </g>
    </g>
    <g id="xtick_14">
     <g id="line2d_14">
      <path d="M 252.832297 284.1 
L 252.832297 17.64 
" clip-path="url(#p21eda4824d)" style="fill: none; stroke: #ffffff; stroke-width: 0.7; stroke-linecap: round"/>
     </g>
    </g>
    <g id="xtick_15">
     <g id="line2d_15">
      <path d="M 297.837307 284.1 
L 297.837307 17.64 
" clip-path="url(#p21eda4824d)" style="fill: none; stroke: #ffffff; stroke-width: 0.7; stroke-linecap: round"/>
     </g>
    </g>
    <g id="xtick_16">
     <g id="line2d_16">
      <path d="M 320.689887 284.1 
L 320.689887 17.64 
" clip-path="url(#p21eda4824d)" style="fill: none; stroke: #ffffff; stroke-width: 0.7; stroke-linecap: round"/>
     </g>
    </g>
    <g id="xtick_17">
     <g id="line2d_17">
      <path d="M 336.904051 284.1 
L 336.904051 17.64 
" clip-path="url(#p21eda4824d)" style="fill: none; stroke: #ffffff; stroke-width: 0.7; stroke-linecap: round"/>
     </g>
    </g>
    <g id="xtick_18">
     <g id="line2d_18">
      <path d="M 349.480733 284.1 
L 349.480733 17.64 
" clip-path="url(#p21eda4824d)" style="fill: none; stroke: #ffffff; stroke-width: 0.7; stroke-linecap: round"/>
     </g>
    </g>
    <g id="xtick_19">
     <g id="line2d_19">
      <path d="M 359.756631 284.1 
L 359.756631 17.64 
" clip-path="url(#p21eda4824d)" style="fill: none; stroke: #ffffff; stroke-width: 0.7; stroke-linecap: round"/>
     </g>
    </g>
    <g id="xtick_20">
     <g id="line2d_20">
      <path d="M 368.444779 284.1 
L 368.444779 17.64 
" clip-path="url(#p21eda4824d)" style="fill: none; stroke: #ffffff; stroke-width: 0.7; stroke-linecap: round"/>
     </g>
    </g>
    <g id="xtick_21">
     <g id="line2d_21">
      <path d="M 375.970795 284.1 
L 375.970795 17.64 
" clip-path="url(#p21eda4824d)" style="fill: none; stroke: #ffffff; stroke-width: 0.7; stroke-linecap: round"/>
     </g>
    </g>
    <g id="xtick_22">
     <g id="line2d_22">
      <path d="M 382.609212 284.1 
L 382.609212 17.64 
" clip-path="url(#p21eda4824d)" style="fill: none; stroke: #ffffff; stroke-width: 0.7; stroke-linecap: round"/>
     </g>
    </g>
    <g id="xtick_23">
     <g id="line2d_23">
      <path d="M 427.614221 284.1 
L 427.614221 17.64 
" clip-path="url(#p21eda4824d)" style="fill: none; stroke: #ffffff; stroke-width: 0.7; stroke-linecap: round"/>
     </g>
    </g>
    <g id="xtick_24">
     <g id="line2d_24">
      <path d="M 450.466802 284.1 
L 450.466802 17.64 
" clip-path="url(#p21eda4824d)" style="fill: none; stroke: #ffffff; stroke-width: 0.7; stroke-linecap: round"/>
     </g>
    </g>
    <g id="text_4">
     <!-- Mean Relative Error of Drag Coefficient $C_D$ [%] -->
     <g style="fill: #262626" transform="translate(159.897884 316.659844) scale(0.12 -0.12)">
      <defs>
       <path id="ArialMT-4d" d="M 475 0 
L 475 4581 
L 1388 4581 
L 2472 1338 
Q 2622 884 2691 659 
Q 2769 909 2934 1394 
L 4031 4581 
L 4847 4581 
L 4847 0 
L 4263 0 
L 4263 3834 
L 2931 0 
L 2384 0 
L 1059 3900 
L 1059 0 
L 475 0 
z
" transform="scale(0.015625)"/>
       <path id="ArialMT-65" d="M 2694 1069 
L 3275 997 
Q 3138 488 2766 206 
Q 2394 -75 1816 -75 
Q 1088 -75 661 373 
Q 234 822 234 1631 
Q 234 2469 665 2931 
Q 1097 3394 1784 3394 
Q 2450 3394 2872 2941 
Q 3294 2488 3294 1666 
Q 3294 1616 3291 1516 
L 816 1516 
Q 847 969 1125 678 
Q 1403 388 1819 388 
Q 2128 388 2347 550 
Q 2566 713 2694 1069 
z
M 847 1978 
L 2700 1978 
Q 2663 2397 2488 2606 
Q 2219 2931 1791 2931 
Q 1403 2931 1139 2672 
Q 875 2413 847 1978 
z
" transform="scale(0.015625)"/>
       <path id="ArialMT-61" d="M 2588 409 
Q 2275 144 1986 34 
Q 1697 -75 1366 -75 
Q 819 -75 525 192 
Q 231 459 231 875 
Q 231 1119 342 1320 
Q 453 1522 633 1644 
Q 813 1766 1038 1828 
Q 1203 1872 1538 1913 
Q 2219 1994 2541 2106 
Q 2544 2222 2544 2253 
Q 2544 2597 2384 2738 
Q 2169 2928 1744 2928 
Q 1347 2928 1158 2789 
Q 969 2650 878 2297 
L 328 2372 
Q 403 2725 575 2942 
Q 747 3159 1072 3276 
Q 1397 3394 1825 3394 
Q 2250 3394 2515 3294 
Q 2781 3194 2906 3042 
Q 3031 2891 3081 2659 
Q 3109 2516 3109 2141 
L 3109 1391 
Q 3109 606 3145 398 
Q 3181 191 3288 0 
L 2700 0 
Q 2613 175 2588 409 
z
M 2541 1666 
Q 2234 1541 1622 1453 
Q 1275 1403 1131 1340 
Q 988 1278 909 1158 
Q 831 1038 831 891 
Q 831 666 1001 516 
Q 1172 366 1500 366 
Q 1825 366 2078 508 
Q 2331 650 2450 897 
Q 2541 1088 2541 1459 
L 2541 1666 
z
" transform="scale(0.015625)"/>
       <path id="ArialMT-6e" d="M 422 0 
L 422 3319 
L 928 3319 
L 928 2847 
Q 1294 3394 1984 3394 
Q 2284 3394 2536 3286 
Q 2788 3178 2913 3003 
Q 3038 2828 3088 2588 
Q 3119 2431 3119 2041 
L 3119 0 
L 2556 0 
L 2556 2019 
Q 2556 2363 2490 2533 
Q 2425 2703 2258 2804 
Q 2091 2906 1866 2906 
Q 1506 2906 1245 2678 
Q 984 2450 984 1813 
L 984 0 
L 422 0 
z
" transform="scale(0.015625)"/>
       <path id="ArialMT-20" transform="scale(0.015625)"/>
       <path id="ArialMT-52" d="M 503 0 
L 503 4581 
L 2534 4581 
Q 3147 4581 3465 4457 
Q 3784 4334 3975 4021 
Q 4166 3709 4166 3331 
Q 4166 2844 3850 2509 
Q 3534 2175 2875 2084 
Q 3116 1969 3241 1856 
Q 3506 1613 3744 1247 
L 4541 0 
L 3778 0 
L 3172 953 
Q 2906 1366 2734 1584 
Q 2563 1803 2427 1890 
Q 2291 1978 2150 2013 
Q 2047 2034 1813 2034 
L 1109 2034 
L 1109 0 
L 503 0 
z
M 1109 2559 
L 2413 2559 
Q 2828 2559 3062 2645 
Q 3297 2731 3419 2920 
Q 3541 3109 3541 3331 
Q 3541 3656 3305 3865 
Q 3069 4075 2559 4075 
L 1109 4075 
L 1109 2559 
z
" transform="scale(0.015625)"/>
       <path id="ArialMT-6c" d="M 409 0 
L 409 4581 
L 972 4581 
L 972 0 
L 409 0 
z
" transform="scale(0.015625)"/>
       <path id="ArialMT-74" d="M 1650 503 
L 1731 6 
Q 1494 -44 1306 -44 
Q 1000 -44 831 53 
Q 663 150 594 308 
Q 525 466 525 972 
L 525 2881 
L 113 2881 
L 113 3319 
L 525 3319 
L 525 4141 
L 1084 4478 
L 1084 3319 
L 1650 3319 
L 1650 2881 
L 1084 2881 
L 1084 941 
Q 1084 700 1114 631 
Q 1144 563 1211 522 
Q 1278 481 1403 481 
Q 1497 481 1650 503 
z
" transform="scale(0.015625)"/>
       <path id="ArialMT-69" d="M 425 3934 
L 425 4581 
L 988 4581 
L 988 3934 
L 425 3934 
z
M 425 0 
L 425 3319 
L 988 3319 
L 988 0 
L 425 0 
z
" transform="scale(0.015625)"/>
       <path id="ArialMT-76" d="M 1344 0 
L 81 3319 
L 675 3319 
L 1388 1331 
Q 1503 1009 1600 663 
Q 1675 925 1809 1294 
L 2547 3319 
L 3125 3319 
L 1869 0 
L 1344 0 
z
" transform="scale(0.015625)"/>
       <path id="ArialMT-45" d="M 506 0 
L 506 4581 
L 3819 4581 
L 3819 4041 
L 1113 4041 
L 1113 2638 
L 3647 2638 
L 3647 2100 
L 1113 2100 
L 1113 541 
L 3925 541 
L 3925 0 
L 506 0 
z
" transform="scale(0.015625)"/>
       <path id="ArialMT-72" d="M 416 0 
L 416 3319 
L 922 3319 
L 922 2816 
Q 1116 3169 1280 3281 
Q 1444 3394 1641 3394 
Q 1925 3394 2219 3213 
L 2025 2691 
Q 1819 2813 1613 2813 
Q 1428 2813 1281 2702 
Q 1134 2591 1072 2394 
Q 978 2094 978 1738 
L 978 0 
L 416 0 
z
" transform="scale(0.015625)"/>
       <path id="ArialMT-6f" d="M 213 1659 
Q 213 2581 725 3025 
Q 1153 3394 1769 3394 
Q 2453 3394 2887 2945 
Q 3322 2497 3322 1706 
Q 3322 1066 3130 698 
Q 2938 331 2570 128 
Q 2203 -75 1769 -75 
Q 1072 -75 642 372 
Q 213 819 213 1659 
z
M 791 1659 
Q 791 1022 1069 705 
Q 1347 388 1769 388 
Q 2188 388 2466 706 
Q 2744 1025 2744 1678 
Q 2744 2294 2464 2611 
Q 2184 2928 1769 2928 
Q 1347 2928 1069 2612 
Q 791 2297 791 1659 
z
" transform="scale(0.015625)"/>
       <path id="ArialMT-66" d="M 556 0 
L 556 2881 
L 59 2881 
L 59 3319 
L 556 3319 
L 556 3672 
Q 556 4006 616 4169 
Q 697 4388 901 4523 
Q 1106 4659 1475 4659 
Q 1713 4659 2000 4603 
L 1916 4113 
Q 1741 4144 1584 4144 
Q 1328 4144 1222 4034 
Q 1116 3925 1116 3625 
L 1116 3319 
L 1763 3319 
L 1763 2881 
L 1116 2881 
L 1116 0 
L 556 0 
z
" transform="scale(0.015625)"/>
       <path id="ArialMT-44" d="M 494 0 
L 494 4581 
L 2072 4581 
Q 2606 4581 2888 4516 
Q 3281 4425 3559 4188 
Q 3922 3881 4101 3404 
Q 4281 2928 4281 2316 
Q 4281 1794 4159 1391 
Q 4038 988 3847 723 
Q 3656 459 3429 307 
Q 3203 156 2883 78 
Q 2563 0 2147 0 
L 494 0 
z
M 1100 541 
L 2078 541 
Q 2531 541 2789 625 
Q 3047 709 3200 863 
Q 3416 1078 3536 1442 
Q 3656 1806 3656 2325 
Q 3656 3044 3420 3430 
Q 3184 3816 2847 3947 
Q 2603 4041 2063 4041 
L 1100 4041 
L 1100 541 
z
" transform="scale(0.015625)"/>
       <path id="ArialMT-67" d="M 319 -275 
L 866 -356 
Q 900 -609 1056 -725 
Q 1266 -881 1628 -881 
Q 2019 -881 2231 -725 
Q 2444 -569 2519 -288 
Q 2563 -116 2559 434 
Q 2191 0 1641 0 
Q 956 0 581 494 
Q 206 988 206 1678 
Q 206 2153 378 2554 
Q 550 2956 876 3175 
Q 1203 3394 1644 3394 
Q 2231 3394 2613 2919 
L 2613 3319 
L 3131 3319 
L 3131 450 
Q 3131 -325 2973 -648 
Q 2816 -972 2473 -1159 
Q 2131 -1347 1631 -1347 
Q 1038 -1347 672 -1080 
Q 306 -813 319 -275 
z
M 784 1719 
Q 784 1066 1043 766 
Q 1303 466 1694 466 
Q 2081 466 2343 764 
Q 2606 1063 2606 1700 
Q 2606 2309 2336 2618 
Q 2066 2928 1684 2928 
Q 1309 2928 1046 2623 
Q 784 2319 784 1719 
z
" transform="scale(0.015625)"/>
       <path id="ArialMT-43" d="M 3763 1606 
L 4369 1453 
Q 4178 706 3683 314 
Q 3188 -78 2472 -78 
Q 1731 -78 1267 223 
Q 803 525 561 1097 
Q 319 1669 319 2325 
Q 319 3041 592 3573 
Q 866 4106 1370 4382 
Q 1875 4659 2481 4659 
Q 3169 4659 3637 4309 
Q 4106 3959 4291 3325 
L 3694 3184 
Q 3534 3684 3231 3912 
Q 2928 4141 2469 4141 
Q 1941 4141 1586 3887 
Q 1231 3634 1087 3207 
Q 944 2781 944 2328 
Q 944 1744 1114 1308 
Q 1284 872 1643 656 
Q 2003 441 2422 441 
Q 2931 441 3284 734 
Q 3638 1028 3763 1606 
z
" transform="scale(0.015625)"/>
       <path id="ArialMT-63" d="M 2588 1216 
L 3141 1144 
Q 3050 572 2676 248 
Q 2303 -75 1759 -75 
Q 1078 -75 664 370 
Q 250 816 250 1647 
Q 250 2184 428 2587 
Q 606 2991 970 3192 
Q 1334 3394 1763 3394 
Q 2303 3394 2647 3120 
Q 2991 2847 3088 2344 
L 2541 2259 
Q 2463 2594 2264 2762 
Q 2066 2931 1784 2931 
Q 1359 2931 1093 2626 
Q 828 2322 828 1663 
Q 828 994 1084 691 
Q 1341 388 1753 388 
Q 2084 388 2306 591 
Q 2528 794 2588 1216 
z
" transform="scale(0.015625)"/>
       <path id="DejaVuSans-Oblique-43" d="M 4447 4306 
L 4319 3641 
Q 4019 3944 3683 4091 
Q 3347 4238 2956 4238 
Q 2422 4238 2017 3981 
Q 1613 3725 1319 3200 
Q 1131 2863 1032 2486 
Q 934 2109 934 1728 
Q 934 1091 1264 756 
Q 1594 422 2222 422 
Q 2656 422 3056 561 
Q 3456 700 3834 978 
L 3688 231 
Q 3316 72 2936 -9 
Q 2556 -91 2175 -91 
Q 1278 -91 773 396 
Q 269 884 269 1753 
Q 269 2309 461 2846 
Q 653 3384 1013 3828 
Q 1394 4300 1883 4525 
Q 2372 4750 3022 4750 
Q 3422 4750 3780 4639 
Q 4138 4528 4447 4306 
z
" transform="scale(0.015625)"/>
       <path id="DejaVuSans-Oblique-44" d="M 1081 4666 
L 2438 4666 
Q 3519 4666 4070 4208 
Q 4622 3750 4622 2847 
Q 4622 2250 4412 1698 
Q 4203 1147 3834 769 
Q 3463 381 2891 190 
Q 2319 0 1538 0 
L 172 0 
L 1081 4666 
z
M 1613 4147 
L 909 519 
L 1734 519 
Q 2794 519 3375 1128 
Q 3956 1738 3956 2847 
Q 3956 3519 3581 3833 
Q 3206 4147 2406 4147 
L 1613 4147 
z
" transform="scale(0.015625)"/>
       <path id="ArialMT-5b" d="M 434 -1272 
L 434 4581 
L 1675 4581 
L 1675 4116 
L 997 4116 
L 997 -806 
L 1675 -806 
L 1675 -1272 
L 434 -1272 
z
" transform="scale(0.015625)"/>
       <path id="ArialMT-5d" d="M 1363 -1272 
L 122 -1272 
L 122 -806 
L 800 -806 
L 800 4116 
L 122 4116 
L 122 4581 
L 1363 4581 
L 1363 -1272 
z
" transform="scale(0.015625)"/>
      </defs>
      <use xlink:href="#ArialMT-4d" transform="translate(0 0.78125)"/>
      <use xlink:href="#ArialMT-65" transform="translate(83.300781 0.78125)"/>
      <use xlink:href="#ArialMT-61" transform="translate(138.916016 0.78125)"/>
      <use xlink:href="#ArialMT-6e" transform="translate(194.53125 0.78125)"/>
      <use xlink:href="#ArialMT-20" transform="translate(250.146484 0.78125)"/>
      <use xlink:href="#ArialMT-52" transform="translate(277.929688 0.78125)"/>
      <use xlink:href="#ArialMT-65" transform="translate(350.146484 0.78125)"/>
      <use xlink:href="#ArialMT-6c" transform="translate(405.761719 0.78125)"/>
      <use xlink:href="#ArialMT-61" transform="translate(427.978516 0.78125)"/>
      <use xlink:href="#ArialMT-74" transform="translate(483.59375 0.78125)"/>
      <use xlink:href="#ArialMT-69" transform="translate(511.376953 0.78125)"/>
      <use xlink:href="#ArialMT-76" transform="translate(533.59375 0.78125)"/>
      <use xlink:href="#ArialMT-65" transform="translate(583.59375 0.78125)"/>
      <use xlink:href="#ArialMT-20" transform="translate(639.208984 0.78125)"/>
      <use xlink:href="#ArialMT-45" transform="translate(666.992188 0.78125)"/>
      <use xlink:href="#ArialMT-72" transform="translate(733.691406 0.78125)"/>
      <use xlink:href="#ArialMT-72" transform="translate(766.992188 0.78125)"/>
      <use xlink:href="#ArialMT-6f" transform="translate(800.292969 0.78125)"/>
      <use xlink:href="#ArialMT-72" transform="translate(855.908203 0.78125)"/>
      <use xlink:href="#ArialMT-20" transform="translate(889.208984 0.78125)"/>
      <use xlink:href="#ArialMT-6f" transform="translate(916.992188 0.78125)"/>
      <use xlink:href="#ArialMT-66" transform="translate(972.607422 0.78125)"/>
      <use xlink:href="#ArialMT-20" transform="translate(1000.390625 0.78125)"/>
      <use xlink:href="#ArialMT-44" transform="translate(1028.173828 0.78125)"/>
      <use xlink:href="#ArialMT-72" transform="translate(1100.390625 0.78125)"/>
      <use xlink:href="#ArialMT-61" transform="translate(1133.691406 0.78125)"/>
      <use xlink:href="#ArialMT-67" transform="translate(1189.306641 0.78125)"/>
      <use xlink:href="#ArialMT-20" transform="translate(1244.921875 0.78125)"/>
      <use xlink:href="#ArialMT-43" transform="translate(1272.705078 0.78125)"/>
      <use xlink:href="#ArialMT-6f" transform="translate(1344.921875 0.78125)"/>
      <use xlink:href="#ArialMT-65" transform="translate(1400.537109 0.78125)"/>
      <use xlink:href="#ArialMT-66" transform="translate(1456.152344 0.78125)"/>
      <use xlink:href="#ArialMT-66" transform="translate(1483.935547 0.78125)"/>
      <use xlink:href="#ArialMT-69" transform="translate(1511.71875 0.78125)"/>
      <use xlink:href="#ArialMT-63" transform="translate(1533.935547 0.78125)"/>
      <use xlink:href="#ArialMT-69" transform="translate(1583.935547 0.78125)"/>
      <use xlink:href="#ArialMT-65" transform="translate(1606.152344 0.78125)"/>
      <use xlink:href="#ArialMT-6e" transform="translate(1661.767578 0.78125)"/>
      <use xlink:href="#ArialMT-74" transform="translate(1717.382812 0.78125)"/>
      <use xlink:href="#ArialMT-20" transform="translate(1745.166016 0.78125)"/>
      <use xlink:href="#DejaVuSans-Oblique-43" transform="translate(1772.949219 0.78125)"/>
      <use xlink:href="#DejaVuSans-Oblique-44" transform="translate(1842.773438 -15.625) scale(0.7)"/>
      <use xlink:href="#ArialMT-20" transform="translate(1899.40918 0.78125)"/>
      <use xlink:href="#ArialMT-5b" transform="translate(1927.192383 0.78125)"/>
      <use xlink:href="#ArialMT-25" transform="translate(1954.975586 0.78125)"/>
      <use xlink:href="#ArialMT-5d" transform="translate(2043.891602 0.78125)"/>
     </g>
    </g>
   </g>
   <g id="matplotlib.axis_2">
    <g id="ytick_1">
     <g id="line2d_25">
      <path d="M 103.435767 283.616129 
L 465 283.616129 
" clip-path="url(#p21eda4824d)" style="fill: none; stroke: #ffffff; stroke-width: 1.6; stroke-linecap: round"/>
     </g>
     <g id="text_5">
      <!-- $\mathdefault{10^{-5}}$ -->
      <g style="fill: #262626" transform="translate(72.155767 289.233004) scale(0.11 -0.11)">
       <defs>
        <path id="ArialMT-2212" d="M 3381 1997 
L 356 1997 
L 356 2522 
L 3381 2522 
L 3381 1997 
z
" transform="scale(0.015625)"/>
        <path id="ArialMT-35" d="M 266 1200 
L 856 1250 
Q 922 819 1161 601 
Q 1400 384 1738 384 
Q 2144 384 2425 690 
Q 2706 997 2706 1503 
Q 2706 1984 2436 2262 
Q 2166 2541 1728 2541 
Q 1456 2541 1237 2417 
Q 1019 2294 894 2097 
L 366 2166 
L 809 4519 
L 3088 4519 
L 3088 3981 
L 1259 3981 
L 1013 2750 
Q 1425 3038 1878 3038 
Q 2478 3038 2890 2622 
Q 3303 2206 3303 1553 
Q 3303 931 2941 478 
Q 2500 -78 1738 -78 
Q 1113 -78 717 272 
Q 322 622 266 1200 
z
" transform="scale(0.015625)"/>
       </defs>
       <use xlink:href="#ArialMT-31" transform="translate(0 0.879688)"/>
       <use xlink:href="#ArialMT-30" transform="translate(55.615234 0.879688)"/>
       <use xlink:href="#ArialMT-2212" transform="translate(112.972813 70.573438) scale(0.7)"/>
       <use xlink:href="#ArialMT-35" transform="translate(153.851719 70.573438) scale(0.7)"/>
      </g>
     </g>
    </g>
    <g id="ytick_2">
     <g id="line2d_26">
      <path d="M 103.435767 230.420903 
L 465 230.420903 
" clip-path="url(#p21eda4824d)" style="fill: none; stroke: #ffffff; stroke-width: 1.6; stroke-linecap: round"/>
     </g>
     <g id="text_6">
      <!-- $\mathdefault{10^{-4}}$ -->
      <g style="fill: #262626" transform="translate(72.155767 236.037778) scale(0.11 -0.11)">
       <defs>
        <path id="ArialMT-34" d="M 2069 0 
L 2069 1097 
L 81 1097 
L 81 1613 
L 2172 4581 
L 2631 4581 
L 2631 1613 
L 3250 1613 
L 3250 1097 
L 2631 1097 
L 2631 0 
L 2069 0 
z
M 2069 1613 
L 2069 3678 
L 634 1613 
L 2069 1613 
z
" transform="scale(0.015625)"/>
       </defs>
       <use xlink:href="#ArialMT-31" transform="translate(0 0.201563)"/>
       <use xlink:href="#ArialMT-30" transform="translate(55.615234 0.201563)"/>
       <use xlink:href="#ArialMT-2212" transform="translate(112.972813 69.895313) scale(0.7)"/>
       <use xlink:href="#ArialMT-34" transform="translate(153.851719 69.895313) scale(0.7)"/>
      </g>
     </g>
    </g>
    <g id="ytick_3">
     <g id="line2d_27">
      <path d="M 103.435767 177.225677 
L 465 177.225677 
" clip-path="url(#p21eda4824d)" style="fill: none; stroke: #ffffff; stroke-width: 1.6; stroke-linecap: round"/>
     </g>
     <g id="text_7">
      <!-- $\mathdefault{10^{-3}}$ -->
      <g style="fill: #262626" transform="translate(72.155767 182.897552) scale(0.11 -0.11)">
       <defs>
        <path id="ArialMT-33" d="M 269 1209 
L 831 1284 
Q 928 806 1161 595 
Q 1394 384 1728 384 
Q 2125 384 2398 659 
Q 2672 934 2672 1341 
Q 2672 1728 2419 1979 
Q 2166 2231 1775 2231 
Q 1616 2231 1378 2169 
L 1441 2663 
Q 1497 2656 1531 2656 
Q 1891 2656 2178 2843 
Q 2466 3031 2466 3422 
Q 2466 3731 2256 3934 
Q 2047 4138 1716 4138 
Q 1388 4138 1169 3931 
Q 950 3725 888 3313 
L 325 3413 
Q 428 3978 793 4289 
Q 1159 4600 1703 4600 
Q 2078 4600 2393 4439 
Q 2709 4278 2876 4000 
Q 3044 3722 3044 3409 
Q 3044 3113 2884 2869 
Q 2725 2625 2413 2481 
Q 2819 2388 3044 2092 
Q 3269 1797 3269 1353 
Q 3269 753 2831 336 
Q 2394 -81 1725 -81 
Q 1122 -81 723 278 
Q 325 638 269 1209 
z
" transform="scale(0.015625)"/>
       </defs>
       <use xlink:href="#ArialMT-31" transform="translate(0 0.99375)"/>
       <use xlink:href="#ArialMT-30" transform="translate(55.615234 0.99375)"/>
       <use xlink:href="#ArialMT-2212" transform="translate(112.972813 70.6875) scale(0.7)"/>
       <use xlink:href="#ArialMT-33" transform="translate(153.851719 70.6875) scale(0.7)"/>
      </g>
     </g>
    </g>
    <g id="ytick_4">
     <g id="line2d_28">
      <path d="M 103.435767 124.030451 
L 465 124.030451 
" clip-path="url(#p21eda4824d)" style="fill: none; stroke: #ffffff; stroke-width: 1.6; stroke-linecap: round"/>
     </g>
     <g id="text_8">
      <!-- $\mathdefault{10^{-2}}$ -->
      <g style="fill: #262626" transform="translate(72.155767 129.702326) scale(0.11 -0.11)">
       <defs>
        <path id="ArialMT-32" d="M 3222 541 
L 3222 0 
L 194 0 
Q 188 203 259 391 
Q 375 700 629 1000 
Q 884 1300 1366 1694 
Q 2113 2306 2375 2664 
Q 2638 3022 2638 3341 
Q 2638 3675 2398 3904 
Q 2159 4134 1775 4134 
Q 1369 4134 1125 3890 
Q 881 3647 878 3216 
L 300 3275 
Q 359 3922 746 4261 
Q 1134 4600 1788 4600 
Q 2447 4600 2831 4234 
Q 3216 3869 3216 3328 
Q 3216 3053 3103 2787 
Q 2991 2522 2730 2228 
Q 2469 1934 1863 1422 
Q 1356 997 1212 845 
Q 1069 694 975 541 
L 3222 541 
z
" transform="scale(0.015625)"/>
       </defs>
       <use xlink:href="#ArialMT-31" transform="translate(0 0.99375)"/>
       <use xlink:href="#ArialMT-30" transform="translate(55.615234 0.99375)"/>
       <use xlink:href="#ArialMT-2212" transform="translate(112.972813 70.6875) scale(0.7)"/>
       <use xlink:href="#ArialMT-32" transform="translate(153.851719 70.6875) scale(0.7)"/>
      </g>
     </g>
    </g>
    <g id="ytick_5">
     <g id="line2d_29">
      <path d="M 103.435767 70.835226 
L 465 70.835226 
" clip-path="url(#p21eda4824d)" style="fill: none; stroke: #ffffff; stroke-width: 1.6; stroke-linecap: round"/>
     </g>
     <g id="text_9">
      <!-- $\mathdefault{10^{-1}}$ -->
      <g style="fill: #262626" transform="translate(72.155767 76.507101) scale(0.11 -0.11)">
       <use xlink:href="#ArialMT-31" transform="translate(0 0.99375)"/>
       <use xlink:href="#ArialMT-30" transform="translate(55.615234 0.99375)"/>
       <use xlink:href="#ArialMT-2212" transform="translate(112.972813 70.6875) scale(0.7)"/>
       <use xlink:href="#ArialMT-31" transform="translate(153.851719 70.6875) scale(0.7)"/>
      </g>
     </g>
    </g>
    <g id="ytick_6">
     <g id="line2d_30">
      <path d="M 103.435767 17.64 
L 465 17.64 
" clip-path="url(#p21eda4824d)" style="fill: none; stroke: #ffffff; stroke-width: 1.6; stroke-linecap: round"/>
     </g>
     <g id="text_10">
      <!-- $\mathdefault{10^{0}}$ -->
      <g style="fill: #262626" transform="translate(76.665767 23.311875) scale(0.11 -0.11)">
       <use xlink:href="#ArialMT-31" transform="translate(0 0.99375)"/>
       <use xlink:href="#ArialMT-30" transform="translate(55.615234 0.99375)"/>
       <use xlink:href="#ArialMT-30" transform="translate(112.972813 70.6875) scale(0.7)"/>
      </g>
     </g>
    </g>
    <g id="ytick_7">
     <g id="line2d_31">
      <path d="M 103.435767 267.60277 
L 465 267.60277 
" clip-path="url(#p21eda4824d)" style="fill: none; stroke: #ffffff; stroke-width: 0.7; stroke-linecap: round"/>
     </g>
    </g>
    <g id="ytick_8">
     <g id="line2d_32">
      <path d="M 103.435767 258.235556 
L 465 258.235556 
" clip-path="url(#p21eda4824d)" style="fill: none; stroke: #ffffff; stroke-width: 0.7; stroke-linecap: round"/>
     </g>
    </g>
    <g id="ytick_9">
     <g id="line2d_33">
      <path d="M 103.435767 251.589411 
L 465 251.589411 
" clip-path="url(#p21eda4824d)" style="fill: none; stroke: #ffffff; stroke-width: 0.7; stroke-linecap: round"/>
     </g>
    </g>
    <g id="ytick_10">
     <g id="line2d_34">
      <path d="M 103.435767 246.434261 
L 465 246.434261 
" clip-path="url(#p21eda4824d)" style="fill: none; stroke: #ffffff; stroke-width: 0.7; stroke-linecap: round"/>
     </g>
    </g>
    <g id="ytick_11">
     <g id="line2d_35">
      <path d="M 103.435767 242.222197 
L 465 242.222197 
" clip-path="url(#p21eda4824d)" style="fill: none; stroke: #ffffff; stroke-width: 0.7; stroke-linecap: round"/>
     </g>
    </g>
    <g id="ytick_12">
     <g id="line2d_36">
      <path d="M 103.435767 238.660948 
L 465 238.660948 
" clip-path="url(#p21eda4824d)" style="fill: none; stroke: #ffffff; stroke-width: 0.7; stroke-linecap: round"/>
     </g>
    </g>
    <g id="ytick_13">
     <g id="line2d_37">
      <path d="M 103.435767 235.576053 
L 465 235.576053 
" clip-path="url(#p21eda4824d)" style="fill: none; stroke: #ffffff; stroke-width: 0.7; stroke-linecap: round"/>
     </g>
    </g>
    <g id="ytick_14">
     <g id="line2d_38">
      <path d="M 103.435767 232.854983 
L 465 232.854983 
" clip-path="url(#p21eda4824d)" style="fill: none; stroke: #ffffff; stroke-width: 0.7; stroke-linecap: round"/>
     </g>
    </g>
    <g id="ytick_15">
     <g id="line2d_39">
      <path d="M 103.435767 214.407544 
L 465 214.407544 
" clip-path="url(#p21eda4824d)" style="fill: none; stroke: #ffffff; stroke-width: 0.7; stroke-linecap: round"/>
     </g>
    </g>
    <g id="ytick_16">
     <g id="line2d_40">
      <path d="M 103.435767 205.04033 
L 465 205.04033 
" clip-path="url(#p21eda4824d)" style="fill: none; stroke: #ffffff; stroke-width: 0.7; stroke-linecap: round"/>
     </g>
    </g>
    <g id="ytick_17">
     <g id="line2d_41">
      <path d="M 103.435767 198.394186 
L 465 198.394186 
" clip-path="url(#p21eda4824d)" style="fill: none; stroke: #ffffff; stroke-width: 0.7; stroke-linecap: round"/>
     </g>
    </g>
    <g id="ytick_18">
     <g id="line2d_42">
      <path d="M 103.435767 193.239036 
L 465 193.239036 
" clip-path="url(#p21eda4824d)" style="fill: none; stroke: #ffffff; stroke-width: 0.7; stroke-linecap: round"/>
     </g>
    </g>
    <g id="ytick_19">
     <g id="line2d_43">
      <path d="M 103.435767 189.026971 
L 465 189.026971 
" clip-path="url(#p21eda4824d)" style="fill: none; stroke: #ffffff; stroke-width: 0.7; stroke-linecap: round"/>
     </g>
    </g>
    <g id="ytick_20">
     <g id="line2d_44">
      <path d="M 103.435767 185.465722 
L 465 185.465722 
" clip-path="url(#p21eda4824d)" style="fill: none; stroke: #ffffff; stroke-width: 0.7; stroke-linecap: round"/>
     </g>
    </g>
    <g id="ytick_21">
     <g id="line2d_45">
      <path d="M 103.435767 182.380827 
L 465 182.380827 
" clip-path="url(#p21eda4824d)" style="fill: none; stroke: #ffffff; stroke-width: 0.7; stroke-linecap: round"/>
     </g>
    </g>
    <g id="ytick_22">
     <g id="line2d_46">
      <path d="M 103.435767 179.659757 
L 465 179.659757 
" clip-path="url(#p21eda4824d)" style="fill: none; stroke: #ffffff; stroke-width: 0.7; stroke-linecap: round"/>
     </g>
    </g>
    <g id="ytick_23">
     <g id="line2d_47">
      <path d="M 103.435767 161.212319 
L 465 161.212319 
" clip-path="url(#p21eda4824d)" style="fill: none; stroke: #ffffff; stroke-width: 0.7; stroke-linecap: round"/>
     </g>
    </g>
    <g id="ytick_24">
     <g id="line2d_48">
      <path d="M 103.435767 151.845104 
L 465 151.845104 
" clip-path="url(#p21eda4824d)" style="fill: none; stroke: #ffffff; stroke-width: 0.7; stroke-linecap: round"/>
     </g>
    </g>
    <g id="ytick_25">
     <g id="line2d_49">
      <path d="M 103.435767 145.19896 
L 465 145.19896 
" clip-path="url(#p21eda4824d)" style="fill: none; stroke: #ffffff; stroke-width: 0.7; stroke-linecap: round"/>
     </g>
    </g>
    <g id="ytick_26">
     <g id="line2d_50">
      <path d="M 103.435767 140.04381 
L 465 140.04381 
" clip-path="url(#p21eda4824d)" style="fill: none; stroke: #ffffff; stroke-width: 0.7; stroke-linecap: round"/>
     </g>
    </g>
    <g id="ytick_27">
     <g id="line2d_51">
      <path d="M 103.435767 135.831746 
L 465 135.831746 
" clip-path="url(#p21eda4824d)" style="fill: none; stroke: #ffffff; stroke-width: 0.7; stroke-linecap: round"/>
     </g>
    </g>
    <g id="ytick_28">
     <g id="line2d_52">
      <path d="M 103.435767 132.270496 
L 465 132.270496 
" clip-path="url(#p21eda4824d)" style="fill: none; stroke: #ffffff; stroke-width: 0.7; stroke-linecap: round"/>
     </g>
    </g>
    <g id="ytick_29">
     <g id="line2d_53">
      <path d="M 103.435767 129.185601 
L 465 129.185601 
" clip-path="url(#p21eda4824d)" style="fill: none; stroke: #ffffff; stroke-width: 0.7; stroke-linecap: round"/>
     </g>
    </g>
    <g id="ytick_30">
     <g id="line2d_54">
      <path d="M 103.435767 126.464531 
L 465 126.464531 
" clip-path="url(#p21eda4824d)" style="fill: none; stroke: #ffffff; stroke-width: 0.7; stroke-linecap: round"/>
     </g>
    </g>
    <g id="ytick_31">
     <g id="line2d_55">
      <path d="M 103.435767 108.017093 
L 465 108.017093 
" clip-path="url(#p21eda4824d)" style="fill: none; stroke: #ffffff; stroke-width: 0.7; stroke-linecap: round"/>
     </g>
    </g>
    <g id="ytick_32">
     <g id="line2d_56">
      <path d="M 103.435767 98.649879 
L 465 98.649879 
" clip-path="url(#p21eda4824d)" style="fill: none; stroke: #ffffff; stroke-width: 0.7; stroke-linecap: round"/>
     </g>
    </g>
    <g id="ytick_33">
     <g id="line2d_57">
      <path d="M 103.435767 92.003734 
L 465 92.003734 
" clip-path="url(#p21eda4824d)" style="fill: none; stroke: #ffffff; stroke-width: 0.7; stroke-linecap: round"/>
     </g>
    </g>
    <g id="ytick_34">
     <g id="line2d_58">
      <path d="M 103.435767 86.848584 
L 465 86.848584 
" clip-path="url(#p21eda4824d)" style="fill: none; stroke: #ffffff; stroke-width: 0.7; stroke-linecap: round"/>
     </g>
    </g>
    <g id="ytick_35">
     <g id="line2d_59">
      <path d="M 103.435767 82.63652 
L 465 82.63652 
" clip-path="url(#p21eda4824d)" style="fill: none; stroke: #ffffff; stroke-width: 0.7; stroke-linecap: round"/>
     </g>
    </g>
    <g id="ytick_36">
     <g id="line2d_60">
      <path d="M 103.435767 79.07527 
L 465 79.07527 
" clip-path="url(#p21eda4824d)" style="fill: none; stroke: #ffffff; stroke-width: 0.7; stroke-linecap: round"/>
     </g>
    </g>
    <g id="ytick_37">
     <g id="line2d_61">
      <path d="M 103.435767 75.990376 
L 465 75.990376 
" clip-path="url(#p21eda4824d)" style="fill: none; stroke: #ffffff; stroke-width: 0.7; stroke-linecap: round"/>
     </g>
    </g>
    <g id="ytick_38">
     <g id="line2d_62">
      <path d="M 103.435767 73.269306 
L 465 73.269306 
" clip-path="url(#p21eda4824d)" style="fill: none; stroke: #ffffff; stroke-width: 0.7; stroke-linecap: round"/>
     </g>
    </g>
    <g id="ytick_39">
     <g id="line2d_63">
      <path d="M 103.435767 54.821867 
L 465 54.821867 
" clip-path="url(#p21eda4824d)" style="fill: none; stroke: #ffffff; stroke-width: 0.7; stroke-linecap: round"/>
     </g>
    </g>
    <g id="ytick_40">
     <g id="line2d_64">
      <path d="M 103.435767 45.454653 
L 465 45.454653 
" clip-path="url(#p21eda4824d)" style="fill: none; stroke: #ffffff; stroke-width: 0.7; stroke-linecap: round"/>
     </g>
    </g>
    <g id="ytick_41">
     <g id="line2d_65">
      <path d="M 103.435767 38.808509 
L 465 38.808509 
" clip-path="url(#p21eda4824d)" style="fill: none; stroke: #ffffff; stroke-width: 0.7; stroke-linecap: round"/>
     </g>
    </g>
    <g id="ytick_42">
     <g id="line2d_66">
      <path d="M 103.435767 33.653359 
L 465 33.653359 
" clip-path="url(#p21eda4824d)" style="fill: none; stroke: #ffffff; stroke-width: 0.7; stroke-linecap: round"/>
     </g>
    </g>
    <g id="ytick_43">
     <g id="line2d_67">
      <path d="M 103.435767 29.441294 
L 465 29.441294 
" clip-path="url(#p21eda4824d)" style="fill: none; stroke: #ffffff; stroke-width: 0.7; stroke-linecap: round"/>
     </g>
    </g>
    <g id="ytick_44">
     <g id="line2d_68">
      <path d="M 103.435767 25.880045 
L 465 25.880045 
" clip-path="url(#p21eda4824d)" style="fill: none; stroke: #ffffff; stroke-width: 0.7; stroke-linecap: round"/>
     </g>
    </g>
    <g id="ytick_45">
     <g id="line2d_69">
      <path d="M 103.435767 22.79515 
L 465 22.79515 
" clip-path="url(#p21eda4824d)" style="fill: none; stroke: #ffffff; stroke-width: 0.7; stroke-linecap: round"/>
     </g>
    </g>
    <g id="ytick_46">
     <g id="line2d_70">
      <path d="M 103.435767 20.07408 
L 465 20.07408 
" clip-path="url(#p21eda4824d)" style="fill: none; stroke: #ffffff; stroke-width: 0.7; stroke-linecap: round"/>
     </g>
    </g>
    <g id="text_11">
     <!-- Runtime per -->
     <g style="fill: #262626" transform="translate(2.798892 147.538313) scale(0.12 -0.12)">
      <defs>
       <path id="ArialMT-75" d="M 2597 0 
L 2597 488 
Q 2209 -75 1544 -75 
Q 1250 -75 995 37 
Q 741 150 617 320 
Q 494 491 444 738 
Q 409 903 409 1263 
L 409 3319 
L 972 3319 
L 972 1478 
Q 972 1038 1006 884 
Q 1059 663 1231 536 
Q 1403 409 1656 409 
Q 1909 409 2131 539 
Q 2353 669 2445 892 
Q 2538 1116 2538 1541 
L 2538 3319 
L 3100 3319 
L 3100 0 
L 2597 0 
z
" transform="scale(0.015625)"/>
       <path id="ArialMT-6d" d="M 422 0 
L 422 3319 
L 925 3319 
L 925 2853 
Q 1081 3097 1340 3245 
Q 1600 3394 1931 3394 
Q 2300 3394 2536 3241 
Q 2772 3088 2869 2813 
Q 3263 3394 3894 3394 
Q 4388 3394 4653 3120 
Q 4919 2847 4919 2278 
L 4919 0 
L 4359 0 
L 4359 2091 
Q 4359 2428 4304 2576 
Q 4250 2725 4106 2815 
Q 3963 2906 3769 2906 
Q 3419 2906 3187 2673 
Q 2956 2441 2956 1928 
L 2956 0 
L 2394 0 
L 2394 2156 
Q 2394 2531 2256 2718 
Q 2119 2906 1806 2906 
Q 1569 2906 1367 2781 
Q 1166 2656 1075 2415 
Q 984 2175 984 1722 
L 984 0 
L 422 0 
z
" transform="scale(0.015625)"/>
       <path id="ArialMT-70" d="M 422 -1272 
L 422 3319 
L 934 3319 
L 934 2888 
Q 1116 3141 1344 3267 
Q 1572 3394 1897 3394 
Q 2322 3394 2647 3175 
Q 2972 2956 3137 2557 
Q 3303 2159 3303 1684 
Q 3303 1175 3120 767 
Q 2938 359 2589 142 
Q 2241 -75 1856 -75 
Q 1575 -75 1351 44 
Q 1128 163 984 344 
L 984 -1272 
L 422 -1272 
z
M 931 1641 
Q 931 1000 1190 694 
Q 1450 388 1819 388 
Q 2194 388 2461 705 
Q 2728 1022 2728 1688 
Q 2728 2322 2467 2637 
Q 2206 2953 1844 2953 
Q 1484 2953 1207 2617 
Q 931 2281 931 1641 
z
" transform="scale(0.015625)"/>
      </defs>
      <use xlink:href="#ArialMT-52"/>
      <use xlink:href="#ArialMT-75" transform="translate(72.216797 0)"/>
      <use xlink:href="#ArialMT-6e" transform="translate(127.832031 0)"/>
      <use xlink:href="#ArialMT-74" transform="translate(183.447266 0)"/>
      <use xlink:href="#ArialMT-69" transform="translate(211.230469 0)"/>
      <use xlink:href="#ArialMT-6d" transform="translate(233.447266 0)"/>
      <use xlink:href="#ArialMT-65" transform="translate(316.748047 0)"/>
      <use xlink:href="#ArialMT-20" transform="translate(372.363281 0)"/>
      <use xlink:href="#ArialMT-70" transform="translate(400.146484 0)"/>
      <use xlink:href="#ArialMT-65" transform="translate(455.761719 0)"/>
      <use xlink:href="#ArialMT-72" transform="translate(511.376953 0)"/>
     </g>
     <!-- Case [sec] -->
     <g style="fill: #262626" transform="translate(11.468892 160.406063) scale(0.12 -0.12)">
      <defs>
       <path id="ArialMT-73" d="M 197 991 
L 753 1078 
Q 800 744 1014 566 
Q 1228 388 1613 388 
Q 2000 388 2187 545 
Q 2375 703 2375 916 
Q 2375 1106 2209 1216 
Q 2094 1291 1634 1406 
Q 1016 1563 777 1677 
Q 538 1791 414 1992 
Q 291 2194 291 2438 
Q 291 2659 392 2848 
Q 494 3038 669 3163 
Q 800 3259 1026 3326 
Q 1253 3394 1513 3394 
Q 1903 3394 2198 3281 
Q 2494 3169 2634 2976 
Q 2775 2784 2828 2463 
L 2278 2388 
Q 2241 2644 2061 2787 
Q 1881 2931 1553 2931 
Q 1166 2931 1000 2803 
Q 834 2675 834 2503 
Q 834 2394 903 2306 
Q 972 2216 1119 2156 
Q 1203 2125 1616 2013 
Q 2213 1853 2448 1751 
Q 2684 1650 2818 1456 
Q 2953 1263 2953 975 
Q 2953 694 2789 445 
Q 2625 197 2315 61 
Q 2006 -75 1616 -75 
Q 969 -75 630 194 
Q 291 463 197 991 
z
" transform="scale(0.015625)"/>
      </defs>
      <use xlink:href="#ArialMT-43"/>
      <use xlink:href="#ArialMT-61" transform="translate(72.216797 0)"/>
      <use xlink:href="#ArialMT-73" transform="translate(127.832031 0)"/>
      <use xlink:href="#ArialMT-65" transform="translate(177.832031 0)"/>
      <use xlink:href="#ArialMT-20" transform="translate(233.447266 0)"/>
      <use xlink:href="#ArialMT-5b" transform="translate(261.230469 0)"/>
      <use xlink:href="#ArialMT-73" transform="translate(289.013672 0)"/>
      <use xlink:href="#ArialMT-65" transform="translate(339.013672 0)"/>
      <use xlink:href="#ArialMT-63" transform="translate(394.628906 0)"/>
      <use xlink:href="#ArialMT-5d" transform="translate(444.628906 0)"/>
     </g>
    </g>
   </g>
   <g id="line2d_71">
    <path d="M 448.565262 91.723762 
L 350.229923 96.146134 
L 303.600103 93.982654 
L 277.122957 91.096809 
L 255.619122 87.489284 
L 237.758258 83.691014 
L 219.247614 79.635813 
L 198.871745 75.233933 
L 180.133167 70.773486 
L 163.928718 65.633548 
L 147.370763 61.576864 
L 128.406097 57.070526 
L 119.870505 52.695242 
" clip-path="url(#p21eda4824d)" style="fill: none; stroke: #000000; stroke-width: 1.5; stroke-linecap: round"/>
    <defs>
     <path id="m6006e7e29f" d="M 0 3 
C 0.795609 3 1.55874 2.683901 2.12132 2.12132 
C 2.683901 1.55874 3 0.795609 3 0 
C 3 -0.795609 2.683901 -1.55874 2.12132 -2.12132 
C 1.55874 -2.683901 0.795609 -3 0 -3 
C -0.795609 -3 -1.55874 -2.683901 -2.12132 -2.12132 
C -2.683901 -1.55874 -3 -0.795609 -3 0 
C -3 0.795609 -2.683901 1.55874 -2.12132 2.12132 
C -1.55874 2.683901 -0.795609 3 0 3 
z
" style="stroke: #000000"/>
    </defs>
    <g clip-path="url(#p21eda4824d)">
     <use xlink:href="#m6006e7e29f" x="448.565262" y="91.723762" style="stroke: #000000"/>
     <use xlink:href="#m6006e7e29f" x="350.229923" y="96.146134" style="stroke: #000000"/>
     <use xlink:href="#m6006e7e29f" x="303.600103" y="93.982654" style="stroke: #000000"/>
     <use xlink:href="#m6006e7e29f" x="277.122957" y="91.096809" style="stroke: #000000"/>
     <use xlink:href="#m6006e7e29f" x="255.619122" y="87.489284" style="stroke: #000000"/>
     <use xlink:href="#m6006e7e29f" x="237.758258" y="83.691014" style="stroke: #000000"/>
     <use xlink:href="#m6006e7e29f" x="219.247614" y="79.635813" style="stroke: #000000"/>
     <use xlink:href="#m6006e7e29f" x="198.871745" y="75.233933" style="stroke: #000000"/>
     <use xlink:href="#m6006e7e29f" x="180.133167" y="70.773486" style="stroke: #000000"/>
     <use xlink:href="#m6006e7e29f" x="163.928718" y="65.633548" style="stroke: #000000"/>
     <use xlink:href="#m6006e7e29f" x="147.370763" y="61.576864" style="stroke: #000000"/>
     <use xlink:href="#m6006e7e29f" x="128.406097" y="57.070526" style="stroke: #000000"/>
     <use xlink:href="#m6006e7e29f" x="119.870505" y="52.695242" style="stroke: #000000"/>
    </g>
   </g>
   <g id="line2d_72">
    <path d="M 362.987721 181.627962 
L 329.343542 182.927257 
L 303.759476 183.099398 
L 271.293804 182.429972 
L 240.943354 180.95852 
L 227.110438 179.855672 
L 219.154897 174.752356 
L 202.993469 138.158265 
" clip-path="url(#p21eda4824d)" style="fill: none; stroke: #4285f4; stroke-width: 1.5; stroke-linecap: round"/>
    <defs>
     <path id="me1d5274106" d="M -3 3 
L 3 3 
L 3 -3 
L -3 -3 
z
" style="stroke: #4285f4; stroke-linejoin: miter"/>
    </defs>
    <g clip-path="url(#p21eda4824d)">
     <use xlink:href="#me1d5274106" x="362.987721" y="181.627962" style="fill: #4285f4; stroke: #4285f4; stroke-linejoin: miter"/>
     <use xlink:href="#me1d5274106" x="329.343542" y="182.927257" style="fill: #4285f4; stroke: #4285f4; stroke-linejoin: miter"/>
     <use xlink:href="#me1d5274106" x="303.759476" y="183.099398" style="fill: #4285f4; stroke: #4285f4; stroke-linejoin: miter"/>
     <use xlink:href="#me1d5274106" x="271.293804" y="182.429972" style="fill: #4285f4; stroke: #4285f4; stroke-linejoin: miter"/>
     <use xlink:href="#me1d5274106" x="240.943354" y="180.95852" style="fill: #4285f4; stroke: #4285f4; stroke-linejoin: miter"/>
     <use xlink:href="#me1d5274106" x="227.110438" y="179.855672" style="fill: #4285f4; stroke: #4285f4; stroke-linejoin: miter"/>
     <use xlink:href="#me1d5274106" x="219.154897" y="174.752356" style="fill: #4285f4; stroke: #4285f4; stroke-linejoin: miter"/>
     <use xlink:href="#me1d5274106" x="202.993469" y="138.158265" style="fill: #4285f4; stroke: #4285f4; stroke-linejoin: miter"/>
    </g>
   </g>
   <g id="line2d_73">
    <path d="M 362.987721 273.080726 
L 329.343542 266.476939 
L 303.759476 267.42281 
L 271.293804 266.426468 
L 240.943354 261.148935 
L 227.110438 259.087823 
L 219.154897 244.3114 
L 202.993469 220.339564 
" clip-path="url(#p21eda4824d)" style="fill: none; stroke: #ea4335; stroke-width: 1.5; stroke-linecap: round"/>
    <defs>
     <path id="mece4765f95" d="M 0 -3 
L -3 3 
L 3 3 
z
" style="stroke: #ea4335; stroke-linejoin: miter"/>
    </defs>
    <g clip-path="url(#p21eda4824d)">
     <use xlink:href="#mece4765f95" x="362.987721" y="273.080726" style="fill: #ea4335; stroke: #ea4335; stroke-linejoin: miter"/>
     <use xlink:href="#mece4765f95" x="329.343542" y="266.476939" style="fill: #ea4335; stroke: #ea4335; stroke-linejoin: miter"/>
     <use xlink:href="#mece4765f95" x="303.759476" y="267.42281" style="fill: #ea4335; stroke: #ea4335; stroke-linejoin: miter"/>
     <use xlink:href="#mece4765f95" x="271.293804" y="266.426468" style="fill: #ea4335; stroke: #ea4335; stroke-linejoin: miter"/>
     <use xlink:href="#mece4765f95" x="240.943354" y="261.148935" style="fill: #ea4335; stroke: #ea4335; stroke-linejoin: miter"/>
     <use xlink:href="#mece4765f95" x="227.110438" y="259.087823" style="fill: #ea4335; stroke: #ea4335; stroke-linejoin: miter"/>
     <use xlink:href="#mece4765f95" x="219.154897" y="244.3114" style="fill: #ea4335; stroke: #ea4335; stroke-linejoin: miter"/>
     <use xlink:href="#mece4765f95" x="202.993469" y="220.339564" style="fill: #ea4335; stroke: #ea4335; stroke-linejoin: miter"/>
    </g>
   </g>
   <g id="patch_3">
    <path d="M 103.435767 284.1 
L 103.435767 17.64 
" style="fill: none; stroke: #ffffff; stroke-width: 1.25; stroke-linejoin: miter; stroke-linecap: square"/>
   </g>
   <g id="patch_4">
    <path d="M 465 284.1 
L 465 17.64 
" style="fill: none; stroke: #ffffff; stroke-width: 1.25; stroke-linejoin: miter; stroke-linecap: square"/>
   </g>
   <g id="patch_5">
    <path d="M 103.435767 284.1 
L 465 284.1 
" style="fill: none; stroke: #ffffff; stroke-width: 1.25; stroke-linejoin: miter; stroke-linecap: square"/>
   </g>
   <g id="patch_6">
    <path d="M 103.435767 17.64 
L 465 17.64 
" style="fill: none; stroke: #ffffff; stroke-width: 1.25; stroke-linejoin: miter; stroke-linecap: square"/>
   </g>
   <g id="patch_7">
    <path d="M 126.773581 37.674148 
Q 124.3661 42.912828 122.425481 47.135615 
" style="fill: none; opacity: 0.35; stroke: #000000; stroke-linecap: round"/>
    <path d="M 125.215548 44.896078 
L 122.425481 47.135615 
L 122.307892 43.559839 
" style="fill: none; opacity: 0.35; stroke: #000000; stroke-linecap: round"/>
   </g>
   <g id="text_12">
    <!-- $N_{\rm points}=260$ -->
    <g style="fill: #262626; opacity: 0.6" transform="translate(105.590505 32.695242) scale(0.08 -0.08)">
     <defs>
      <path id="DejaVuSans-Oblique-4e" d="M 1081 4666 
L 1931 4666 
L 3219 666 
L 4000 4666 
L 4616 4666 
L 3706 0 
L 2853 0 
L 1569 4025 
L 788 0 
L 172 0 
L 1081 4666 
z
" transform="scale(0.015625)"/>
      <path id="DejaVuSans-70" d="M 1159 525 
L 1159 -1331 
L 581 -1331 
L 581 3500 
L 1159 3500 
L 1159 2969 
Q 1341 3281 1617 3432 
Q 1894 3584 2278 3584 
Q 2916 3584 3314 3078 
Q 3713 2572 3713 1747 
Q 3713 922 3314 415 
Q 2916 -91 2278 -91 
Q 1894 -91 1617 61 
Q 1341 213 1159 525 
z
M 3116 1747 
Q 3116 2381 2855 2742 
Q 2594 3103 2138 3103 
Q 1681 3103 1420 2742 
Q 1159 2381 1159 1747 
Q 1159 1113 1420 752 
Q 1681 391 2138 391 
Q 2594 391 2855 752 
Q 3116 1113 3116 1747 
z
" transform="scale(0.015625)"/>
      <path id="DejaVuSans-6f" d="M 1959 3097 
Q 1497 3097 1228 2736 
Q 959 2375 959 1747 
Q 959 1119 1226 758 
Q 1494 397 1959 397 
Q 2419 397 2687 759 
Q 2956 1122 2956 1747 
Q 2956 2369 2687 2733 
Q 2419 3097 1959 3097 
z
M 1959 3584 
Q 2709 3584 3137 3096 
Q 3566 2609 3566 1747 
Q 3566 888 3137 398 
Q 2709 -91 1959 -91 
Q 1206 -91 779 398 
Q 353 888 353 1747 
Q 353 2609 779 3096 
Q 1206 3584 1959 3584 
z
" transform="scale(0.015625)"/>
      <path id="DejaVuSans-69" d="M 603 3500 
L 1178 3500 
L 1178 0 
L 603 0 
L 603 3500 
z
M 603 4863 
L 1178 4863 
L 1178 4134 
L 603 4134 
L 603 4863 
z
" transform="scale(0.015625)"/>
      <path id="DejaVuSans-6e" d="M 3513 2113 
L 3513 0 
L 2938 0 
L 2938 2094 
Q 2938 2591 2744 2837 
Q 2550 3084 2163 3084 
Q 1697 3084 1428 2787 
Q 1159 2491 1159 1978 
L 1159 0 
L 581 0 
L 581 3500 
L 1159 3500 
L 1159 2956 
Q 1366 3272 1645 3428 
Q 1925 3584 2291 3584 
Q 2894 3584 3203 3211 
Q 3513 2838 3513 2113 
z
" transform="scale(0.015625)"/>
      <path id="DejaVuSans-74" d="M 1172 4494 
L 1172 3500 
L 2356 3500 
L 2356 3053 
L 1172 3053 
L 1172 1153 
Q 1172 725 1289 603 
Q 1406 481 1766 481 
L 2356 481 
L 2356 0 
L 1766 0 
Q 1100 0 847 248 
Q 594 497 594 1153 
L 594 3053 
L 172 3053 
L 172 3500 
L 594 3500 
L 594 4494 
L 1172 4494 
z
" transform="scale(0.015625)"/>
      <path id="DejaVuSans-73" d="M 2834 3397 
L 2834 2853 
Q 2591 2978 2328 3040 
Q 2066 3103 1784 3103 
Q 1356 3103 1142 2972 
Q 928 2841 928 2578 
Q 928 2378 1081 2264 
Q 1234 2150 1697 2047 
L 1894 2003 
Q 2506 1872 2764 1633 
Q 3022 1394 3022 966 
Q 3022 478 2636 193 
Q 2250 -91 1575 -91 
Q 1294 -91 989 -36 
Q 684 19 347 128 
L 347 722 
Q 666 556 975 473 
Q 1284 391 1588 391 
Q 1994 391 2212 530 
Q 2431 669 2431 922 
Q 2431 1156 2273 1281 
Q 2116 1406 1581 1522 
L 1381 1569 
Q 847 1681 609 1914 
Q 372 2147 372 2553 
Q 372 3047 722 3315 
Q 1072 3584 1716 3584 
Q 2034 3584 2315 3537 
Q 2597 3491 2834 3397 
z
" transform="scale(0.015625)"/>
      <path id="DejaVuSans-3d" d="M 678 2906 
L 4684 2906 
L 4684 2381 
L 678 2381 
L 678 2906 
z
M 678 1631 
L 4684 1631 
L 4684 1100 
L 678 1100 
L 678 1631 
z
" transform="scale(0.015625)"/>
      <path id="DejaVuSans-32" d="M 1228 531 
L 3431 531 
L 3431 0 
L 469 0 
L 469 531 
Q 828 903 1448 1529 
Q 2069 2156 2228 2338 
Q 2531 2678 2651 2914 
Q 2772 3150 2772 3378 
Q 2772 3750 2511 3984 
Q 2250 4219 1831 4219 
Q 1534 4219 1204 4116 
Q 875 4013 500 3803 
L 500 4441 
Q 881 4594 1212 4672 
Q 1544 4750 1819 4750 
Q 2544 4750 2975 4387 
Q 3406 4025 3406 3419 
Q 3406 3131 3298 2873 
Q 3191 2616 2906 2266 
Q 2828 2175 2409 1742 
Q 1991 1309 1228 531 
z
" transform="scale(0.015625)"/>
      <path id="DejaVuSans-36" d="M 2113 2584 
Q 1688 2584 1439 2293 
Q 1191 2003 1191 1497 
Q 1191 994 1439 701 
Q 1688 409 2113 409 
Q 2538 409 2786 701 
Q 3034 994 3034 1497 
Q 3034 2003 2786 2293 
Q 2538 2584 2113 2584 
z
M 3366 4563 
L 3366 3988 
Q 3128 4100 2886 4159 
Q 2644 4219 2406 4219 
Q 1781 4219 1451 3797 
Q 1122 3375 1075 2522 
Q 1259 2794 1537 2939 
Q 1816 3084 2150 3084 
Q 2853 3084 3261 2657 
Q 3669 2231 3669 1497 
Q 3669 778 3244 343 
Q 2819 -91 2113 -91 
Q 1303 -91 875 529 
Q 447 1150 447 2328 
Q 447 3434 972 4092 
Q 1497 4750 2381 4750 
Q 2619 4750 2861 4703 
Q 3103 4656 3366 4563 
z
" transform="scale(0.015625)"/>
      <path id="DejaVuSans-30" d="M 2034 4250 
Q 1547 4250 1301 3770 
Q 1056 3291 1056 2328 
Q 1056 1369 1301 889 
Q 1547 409 2034 409 
Q 2525 409 2770 889 
Q 3016 1369 3016 2328 
Q 3016 3291 2770 3770 
Q 2525 4250 2034 4250 
z
M 2034 4750 
Q 2819 4750 3233 4129 
Q 3647 3509 3647 2328 
Q 3647 1150 3233 529 
Q 2819 -91 2034 -91 
Q 1250 -91 836 529 
Q 422 1150 422 2328 
Q 422 3509 836 4129 
Q 1250 4750 2034 4750 
z
" transform="scale(0.015625)"/>
     </defs>
     <use xlink:href="#DejaVuSans-Oblique-4e" transform="translate(0 0.78125)"/>
     <use xlink:href="#DejaVuSans-70" transform="translate(74.804688 -15.625) scale(0.7)"/>
     <use xlink:href="#DejaVuSans-6f" transform="translate(119.238281 -15.625) scale(0.7)"/>
     <use xlink:href="#DejaVuSans-69" transform="translate(162.06543 -15.625) scale(0.7)"/>
     <use xlink:href="#DejaVuSans-6e" transform="translate(181.513672 -15.625) scale(0.7)"/>
     <use xlink:href="#DejaVuSans-74" transform="translate(225.878906 -15.625) scale(0.7)"/>
     <use xlink:href="#DejaVuSans-73" transform="translate(253.325195 -15.625) scale(0.7)"/>
     <use xlink:href="#DejaVuSans-3d" transform="translate(312.011719 0.78125)"/>
     <use xlink:href="#DejaVuSans-32" transform="translate(415.283203 0.78125)"/>
     <use xlink:href="#DejaVuSans-36" transform="translate(478.90625 0.78125)"/>
     <use xlink:href="#DejaVuSans-30" transform="translate(542.529297 0.78125)"/>
    </g>
   </g>
   <g id="patch_8">
    <path d="M 441.344803 109.226154 
Q 444.002235 102.784539 446.23329 97.376462 
" style="fill: none; opacity: 0.35; stroke: #000000; stroke-linecap: round"/>
    <path d="M 443.533847 99.724441 
L 446.23329 97.376462 
L 446.492007 100.944804 
" style="fill: none; opacity: 0.35; stroke: #000000; stroke-linecap: round"/>
   </g>
   <g id="text_13">
    <!-- $N_{\rm points}=20$ -->
    <g style="fill: #262626; opacity: 0.6" transform="translate(416.845262 117.723762) scale(0.08 -0.08)">
     <use xlink:href="#DejaVuSans-Oblique-4e" transform="translate(0 0.78125)"/>
     <use xlink:href="#DejaVuSans-70" transform="translate(74.804688 -15.625) scale(0.7)"/>
     <use xlink:href="#DejaVuSans-6f" transform="translate(119.238281 -15.625) scale(0.7)"/>
     <use xlink:href="#DejaVuSans-69" transform="translate(162.06543 -15.625) scale(0.7)"/>
     <use xlink:href="#DejaVuSans-6e" transform="translate(181.513672 -15.625) scale(0.7)"/>
     <use xlink:href="#DejaVuSans-74" transform="translate(225.878906 -15.625) scale(0.7)"/>
     <use xlink:href="#DejaVuSans-73" transform="translate(253.325195 -15.625) scale(0.7)"/>
     <use xlink:href="#DejaVuSans-3d" transform="translate(312.011719 0.78125)"/>
     <use xlink:href="#DejaVuSans-32" transform="translate(415.283203 0.78125)"/>
     <use xlink:href="#DejaVuSans-30" transform="translate(478.90625 0.78125)"/>
    </g>
   </g>
   <g id="patch_9">
    <path d="M 184.458034 150.659471 
Q 191.652054 145.807471 197.919157 141.58063 
" style="fill: none; opacity: 0.35; stroke: #000000; stroke-linecap: round"/>
    <path d="M 194.371509 142.043442 
L 197.919157 141.58063 
L 196.160818 144.696435 
" style="fill: none; opacity: 0.35; stroke: #000000; stroke-linecap: round"/>
   </g>
   <g id="text_14">
    <!-- "xxxlarge" -->
    <g style="fill: #262626; opacity: 0.6" transform="translate(157.525969 158.884515) scale(0.08 -0.08)">
     <defs>
      <path id="ArialMT-22" d="M 450 2959 
L 294 3831 
L 294 4581 
L 934 4581 
L 934 3831 
L 794 2959 
L 450 2959 
z
M 1484 2959 
L 1331 3831 
L 1331 4581 
L 1972 4581 
L 1972 3831 
L 1822 2959 
L 1484 2959 
z
" transform="scale(0.015625)"/>
      <path id="ArialMT-78" d="M 47 0 
L 1259 1725 
L 138 3319 
L 841 3319 
L 1350 2541 
Q 1494 2319 1581 2169 
Q 1719 2375 1834 2534 
L 2394 3319 
L 3066 3319 
L 1919 1756 
L 3153 0 
L 2463 0 
L 1781 1031 
L 1600 1309 
L 728 0 
L 47 0 
z
" transform="scale(0.015625)"/>
     </defs>
     <use xlink:href="#ArialMT-22"/>
     <use xlink:href="#ArialMT-78" transform="translate(35.498047 0)"/>
     <use xlink:href="#ArialMT-78" transform="translate(85.498047 0)"/>
     <use xlink:href="#ArialMT-78" transform="translate(135.498047 0)"/>
     <use xlink:href="#ArialMT-6c" transform="translate(185.498047 0)"/>
     <use xlink:href="#ArialMT-61" transform="translate(207.714844 0)"/>
     <use xlink:href="#ArialMT-72" transform="translate(263.330078 0)"/>
     <use xlink:href="#ArialMT-67" transform="translate(296.630859 0)"/>
     <use xlink:href="#ArialMT-65" transform="translate(352.246094 0)"/>
     <use xlink:href="#ArialMT-22" transform="translate(407.861328 0)"/>
    </g>
   </g>
   <g id="patch_10">
    <path d="M 362.987721 199.12608 
Q 362.987721 192.878278 362.987721 187.74851 
" style="fill: none; opacity: 0.35; stroke: #000000; stroke-linecap: round"/>
    <path d="M 361.387721 190.94851 
L 362.987721 187.74851 
L 364.587721 190.94851 
" style="fill: none; opacity: 0.35; stroke: #000000; stroke-linecap: round"/>
   </g>
   <g id="text_15">
    <!-- "xxsmall" -->
    <g style="fill: #262626; opacity: 0.6" transform="translate(346.813971 207.354212) scale(0.08 -0.08)">
     <use xlink:href="#ArialMT-22"/>
     <use xlink:href="#ArialMT-78" transform="translate(35.498047 0)"/>
     <use xlink:href="#ArialMT-78" transform="translate(85.498047 0)"/>
     <use xlink:href="#ArialMT-73" transform="translate(135.498047 0)"/>
     <use xlink:href="#ArialMT-6d" transform="translate(185.498047 0)"/>
     <use xlink:href="#ArialMT-61" transform="translate(268.798828 0)"/>
     <use xlink:href="#ArialMT-6c" transform="translate(324.414062 0)"/>
     <use xlink:href="#ArialMT-6c" transform="translate(346.630859 0)"/>
     <use xlink:href="#ArialMT-22" transform="translate(368.847656 0)"/>
    </g>
   </g>
   <g id="patch_11">
    <path d="M 184.458034 232.840769 
Q 191.652054 227.988769 197.919157 223.761928 
" style="fill: none; opacity: 0.35; stroke: #000000; stroke-linecap: round"/>
    <path d="M 194.371509 224.22474 
L 197.919157 223.761928 
L 196.160818 226.877734 
" style="fill: none; opacity: 0.35; stroke: #000000; stroke-linecap: round"/>
   </g>
   <g id="text_16">
    <!-- "xxxlarge" -->
    <g style="fill: #262626; opacity: 0.6" transform="translate(157.525969 241.065814) scale(0.08 -0.08)">
     <use xlink:href="#ArialMT-22"/>
     <use xlink:href="#ArialMT-78" transform="translate(35.498047 0)"/>
     <use xlink:href="#ArialMT-78" transform="translate(85.498047 0)"/>
     <use xlink:href="#ArialMT-78" transform="translate(135.498047 0)"/>
     <use xlink:href="#ArialMT-6c" transform="translate(185.498047 0)"/>
     <use xlink:href="#ArialMT-61" transform="translate(207.714844 0)"/>
     <use xlink:href="#ArialMT-72" transform="translate(263.330078 0)"/>
     <use xlink:href="#ArialMT-67" transform="translate(296.630859 0)"/>
     <use xlink:href="#ArialMT-65" transform="translate(352.246094 0)"/>
     <use xlink:href="#ArialMT-22" transform="translate(407.861328 0)"/>
    </g>
   </g>
   <g id="patch_12">
    <path d="M 362.987721 255.582608 
Q 362.987721 261.83041 362.987721 266.960178 
" style="fill: none; opacity: 0.35; stroke: #000000; stroke-linecap: round"/>
    <path d="M 364.587721 263.760178 
L 362.987721 266.960178 
L 361.387721 263.760178 
" style="fill: none; opacity: 0.35; stroke: #000000; stroke-linecap: round"/>
   </g>
   <g id="text_17">
    <!-- "xxsmall" -->
    <g style="fill: #262626; opacity: 0.6" transform="translate(346.813971 251.490726) scale(0.08 -0.08)">
     <use xlink:href="#ArialMT-22"/>
     <use xlink:href="#ArialMT-78" transform="translate(35.498047 0)"/>
     <use xlink:href="#ArialMT-78" transform="translate(85.498047 0)"/>
     <use xlink:href="#ArialMT-73" transform="translate(135.498047 0)"/>
     <use xlink:href="#ArialMT-6d" transform="translate(185.498047 0)"/>
     <use xlink:href="#ArialMT-61" transform="translate(268.798828 0)"/>
     <use xlink:href="#ArialMT-6c" transform="translate(324.414062 0)"/>
     <use xlink:href="#ArialMT-6c" transform="translate(346.630859 0)"/>
     <use xlink:href="#ArialMT-22" transform="translate(368.847656 0)"/>
    </g>
   </g>
   <g id="text_18">
    <!-- Speed vs. Accuracy Tradeoff for NeuralFoil vs. XFoil -->
    <g style="fill: #262626" transform="translate(145.604759 11.64) scale(0.12 -0.12)">
     <defs>
      <path id="ArialMT-53" d="M 288 1472 
L 859 1522 
Q 900 1178 1048 958 
Q 1197 738 1509 602 
Q 1822 466 2213 466 
Q 2559 466 2825 569 
Q 3091 672 3220 851 
Q 3350 1031 3350 1244 
Q 3350 1459 3225 1620 
Q 3100 1781 2813 1891 
Q 2628 1963 1997 2114 
Q 1366 2266 1113 2400 
Q 784 2572 623 2826 
Q 463 3081 463 3397 
Q 463 3744 659 4045 
Q 856 4347 1234 4503 
Q 1613 4659 2075 4659 
Q 2584 4659 2973 4495 
Q 3363 4331 3572 4012 
Q 3781 3694 3797 3291 
L 3216 3247 
Q 3169 3681 2898 3903 
Q 2628 4125 2100 4125 
Q 1550 4125 1298 3923 
Q 1047 3722 1047 3438 
Q 1047 3191 1225 3031 
Q 1400 2872 2139 2705 
Q 2878 2538 3153 2413 
Q 3553 2228 3743 1945 
Q 3934 1663 3934 1294 
Q 3934 928 3725 604 
Q 3516 281 3123 101 
Q 2731 -78 2241 -78 
Q 1619 -78 1198 103 
Q 778 284 539 648 
Q 300 1013 288 1472 
z
" transform="scale(0.015625)"/>
      <path id="ArialMT-64" d="M 2575 0 
L 2575 419 
Q 2259 -75 1647 -75 
Q 1250 -75 917 144 
Q 584 363 401 755 
Q 219 1147 219 1656 
Q 219 2153 384 2558 
Q 550 2963 881 3178 
Q 1213 3394 1622 3394 
Q 1922 3394 2156 3267 
Q 2391 3141 2538 2938 
L 2538 4581 
L 3097 4581 
L 3097 0 
L 2575 0 
z
M 797 1656 
Q 797 1019 1065 703 
Q 1334 388 1700 388 
Q 2069 388 2326 689 
Q 2584 991 2584 1609 
Q 2584 2291 2321 2609 
Q 2059 2928 1675 2928 
Q 1300 2928 1048 2622 
Q 797 2316 797 1656 
z
" transform="scale(0.015625)"/>
      <path id="ArialMT-41" d="M -9 0 
L 1750 4581 
L 2403 4581 
L 4278 0 
L 3588 0 
L 3053 1388 
L 1138 1388 
L 634 0 
L -9 0 
z
M 1313 1881 
L 2866 1881 
L 2388 3150 
Q 2169 3728 2063 4100 
Q 1975 3659 1816 3225 
L 1313 1881 
z
" transform="scale(0.015625)"/>
      <path id="ArialMT-79" d="M 397 -1278 
L 334 -750 
Q 519 -800 656 -800 
Q 844 -800 956 -737 
Q 1069 -675 1141 -563 
Q 1194 -478 1313 -144 
Q 1328 -97 1363 -6 
L 103 3319 
L 709 3319 
L 1400 1397 
Q 1534 1031 1641 628 
Q 1738 1016 1872 1384 
L 2581 3319 
L 3144 3319 
L 1881 -56 
Q 1678 -603 1566 -809 
Q 1416 -1088 1222 -1217 
Q 1028 -1347 759 -1347 
Q 597 -1347 397 -1278 
z
" transform="scale(0.015625)"/>
      <path id="ArialMT-54" d="M 1659 0 
L 1659 4041 
L 150 4041 
L 150 4581 
L 3781 4581 
L 3781 4041 
L 2266 4041 
L 2266 0 
L 1659 0 
z
" transform="scale(0.015625)"/>
      <path id="ArialMT-4e" d="M 488 0 
L 488 4581 
L 1109 4581 
L 3516 984 
L 3516 4581 
L 4097 4581 
L 4097 0 
L 3475 0 
L 1069 3600 
L 1069 0 
L 488 0 
z
" transform="scale(0.015625)"/>
      <path id="ArialMT-46" d="M 525 0 
L 525 4581 
L 3616 4581 
L 3616 4041 
L 1131 4041 
L 1131 2622 
L 3281 2622 
L 3281 2081 
L 1131 2081 
L 1131 0 
L 525 0 
z
" transform="scale(0.015625)"/>
      <path id="ArialMT-58" d="M 28 0 
L 1800 2388 
L 238 4581 
L 959 4581 
L 1791 3406 
Q 2050 3041 2159 2844 
Q 2313 3094 2522 3366 
L 3444 4581 
L 4103 4581 
L 2494 2422 
L 4228 0 
L 3478 0 
L 2325 1634 
Q 2228 1775 2125 1941 
Q 1972 1691 1906 1597 
L 756 0 
L 28 0 
z
" transform="scale(0.015625)"/>
     </defs>
     <use xlink:href="#ArialMT-53"/>
     <use xlink:href="#ArialMT-70" transform="translate(66.699219 0)"/>
     <use xlink:href="#ArialMT-65" transform="translate(122.314453 0)"/>
     <use xlink:href="#ArialMT-65" transform="translate(177.929688 0)"/>
     <use xlink:href="#ArialMT-64" transform="translate(233.544922 0)"/>
     <use xlink:href="#ArialMT-20" transform="translate(289.160156 0)"/>
     <use xlink:href="#ArialMT-76" transform="translate(316.943359 0)"/>
     <use xlink:href="#ArialMT-73" transform="translate(366.943359 0)"/>
     <use xlink:href="#ArialMT-2e" transform="translate(416.943359 0)"/>
     <use xlink:href="#ArialMT-20" transform="translate(444.726562 0)"/>
     <use xlink:href="#ArialMT-41" transform="translate(467.009766 0)"/>
     <use xlink:href="#ArialMT-63" transform="translate(533.708984 0)"/>
     <use xlink:href="#ArialMT-63" transform="translate(583.708984 0)"/>
     <use xlink:href="#ArialMT-75" transform="translate(633.708984 0)"/>
     <use xlink:href="#ArialMT-72" transform="translate(689.324219 0)"/>
     <use xlink:href="#ArialMT-61" transform="translate(722.625 0)"/>
     <use xlink:href="#ArialMT-63" transform="translate(778.240234 0)"/>
     <use xlink:href="#ArialMT-79" transform="translate(828.240234 0)"/>
     <use xlink:href="#ArialMT-20" transform="translate(878.240234 0)"/>
     <use xlink:href="#ArialMT-54" transform="translate(904.273438 0)"/>
     <use xlink:href="#ArialMT-72" transform="translate(961.607422 0)"/>
     <use xlink:href="#ArialMT-61" transform="translate(994.908203 0)"/>
     <use xlink:href="#ArialMT-64" transform="translate(1050.523438 0)"/>
     <use xlink:href="#ArialMT-65" transform="translate(1106.138672 0)"/>
     <use xlink:href="#ArialMT-6f" transform="translate(1161.753906 0)"/>
     <use xlink:href="#ArialMT-66" transform="translate(1217.369141 0)"/>
     <use xlink:href="#ArialMT-66" transform="translate(1243.402344 0)"/>
     <use xlink:href="#ArialMT-20" transform="translate(1271.185547 0)"/>
     <use xlink:href="#ArialMT-66" transform="translate(1298.96875 0)"/>
     <use xlink:href="#ArialMT-6f" transform="translate(1326.751953 0)"/>
     <use xlink:href="#ArialMT-72" transform="translate(1382.367188 0)"/>
     <use xlink:href="#ArialMT-20" transform="translate(1415.667969 0)"/>
     <use xlink:href="#ArialMT-4e" transform="translate(1443.451172 0)"/>
     <use xlink:href="#ArialMT-65" transform="translate(1515.667969 0)"/>
     <use xlink:href="#ArialMT-75" transform="translate(1571.283203 0)"/>
     <use xlink:href="#ArialMT-72" transform="translate(1626.898438 0)"/>
     <use xlink:href="#ArialMT-61" transform="translate(1660.199219 0)"/>
     <use xlink:href="#ArialMT-6c" transform="translate(1715.814453 0)"/>
     <use xlink:href="#ArialMT-46" transform="translate(1738.03125 0)"/>
     <use xlink:href="#ArialMT-6f" transform="translate(1799.115234 0)"/>
     <use xlink:href="#ArialMT-69" transform="translate(1854.730469 0)"/>
     <use xlink:href="#ArialMT-6c" transform="translate(1876.947266 0)"/>
     <use xlink:href="#ArialMT-20" transform="translate(1899.164062 0)"/>
     <use xlink:href="#ArialMT-76" transform="translate(1926.947266 0)"/>
     <use xlink:href="#ArialMT-73" transform="translate(1976.947266 0)"/>
     <use xlink:href="#ArialMT-2e" transform="translate(2026.947266 0)"/>
     <use xlink:href="#ArialMT-20" transform="translate(2054.730469 0)"/>
     <use xlink:href="#ArialMT-58" transform="translate(2082.513672 0)"/>
     <use xlink:href="#ArialMT-46" transform="translate(2149.212891 0)"/>
     <use xlink:href="#ArialMT-6f" transform="translate(2210.296875 0)"/>
     <use xlink:href="#ArialMT-69" transform="translate(2265.912109 0)"/>
     <use xlink:href="#ArialMT-6c" transform="translate(2288.128906 0)"/>
    </g>
   </g>
   <g id="legend_1">
    <g id="patch_13">
     <path d="M 296.156875 73.645469 
L 457.3 73.645469 
Q 459.5 73.645469 459.5 71.445469 
L 459.5 25.34 
Q 459.5 23.14 457.3 23.14 
L 296.156875 23.14 
Q 293.956875 23.14 293.956875 25.34 
L 293.956875 71.445469 
Q 293.956875 73.645469 296.156875 73.645469 
z
" style="fill: #eaeaf2; opacity: 0.8; stroke: #cccccc; stroke-linejoin: miter"/>
    </g>
    <g id="line2d_74">
     <path d="M 298.356875 31.563594 
L 309.356875 31.563594 
L 320.356875 31.563594 
" style="fill: none; stroke: #000000; stroke-width: 1.5; stroke-linecap: round"/>
     <g>
      <use xlink:href="#m6006e7e29f" x="309.356875" y="31.563594" style="stroke: #000000"/>
     </g>
    </g>
    <g id="text_19">
     <!-- XFoil -->
     <g style="fill: #262626" transform="translate(329.156875 35.413594) scale(0.11 -0.11)">
      <use xlink:href="#ArialMT-58"/>
      <use xlink:href="#ArialMT-46" transform="translate(66.699219 0)"/>
      <use xlink:href="#ArialMT-6f" transform="translate(127.783203 0)"/>
      <use xlink:href="#ArialMT-69" transform="translate(183.398438 0)"/>
      <use xlink:href="#ArialMT-6c" transform="translate(205.615234 0)"/>
     </g>
    </g>
    <g id="line2d_75">
     <path d="M 298.356875 47.2575 
L 309.356875 47.2575 
L 320.356875 47.2575 
" style="fill: none; stroke: #4285f4; stroke-width: 1.5; stroke-linecap: round"/>
     <g>
      <use xlink:href="#me1d5274106" x="309.356875" y="47.2575" style="fill: #4285f4; stroke: #4285f4; stroke-linejoin: miter"/>
     </g>
    </g>
    <g id="text_20">
     <!-- NeuralFoil (nave looping) -->
     <g style="fill: #262626" transform="translate(329.156875 51.1075) scale(0.11 -0.11)">
      <defs>
       <path id="ArialMT-28" d="M 1497 -1347 
Q 1031 -759 709 28 
Q 388 816 388 1659 
Q 388 2403 628 3084 
Q 909 3875 1497 4659 
L 1900 4659 
Q 1522 4009 1400 3731 
Q 1209 3300 1100 2831 
Q 966 2247 966 1656 
Q 966 153 1900 -1347 
L 1497 -1347 
z
" transform="scale(0.015625)"/>
       <path id="ArialMT-ef" d="M 619 0 
L 619 3319 
L 1181 3319 
L 1181 0 
L 619 0 
z
M 31 3969 
L 31 4609 
L 618 4609 
L 618 3969 
L 31 3969 
z
M 1196 3969 
L 1196 4609 
L 1784 4609 
L 1784 3969 
L 1196 3969 
z
" transform="scale(0.015625)"/>
       <path id="ArialMT-29" d="M 791 -1347 
L 388 -1347 
Q 1322 153 1322 1656 
Q 1322 2244 1188 2822 
Q 1081 3291 891 3722 
Q 769 4003 388 4659 
L 791 4659 
Q 1378 3875 1659 3084 
Q 1900 2403 1900 1659 
Q 1900 816 1576 28 
Q 1253 -759 791 -1347 
z
" transform="scale(0.015625)"/>
      </defs>
      <use xlink:href="#ArialMT-4e"/>
      <use xlink:href="#ArialMT-65" transform="translate(72.216797 0)"/>
      <use xlink:href="#ArialMT-75" transform="translate(127.832031 0)"/>
      <use xlink:href="#ArialMT-72" transform="translate(183.447266 0)"/>
      <use xlink:href="#ArialMT-61" transform="translate(216.748047 0)"/>
      <use xlink:href="#ArialMT-6c" transform="translate(272.363281 0)"/>
      <use xlink:href="#ArialMT-46" transform="translate(294.580078 0)"/>
      <use xlink:href="#ArialMT-6f" transform="translate(355.664062 0)"/>
      <use xlink:href="#ArialMT-69" transform="translate(411.279297 0)"/>
      <use xlink:href="#ArialMT-6c" transform="translate(433.496094 0)"/>
      <use xlink:href="#ArialMT-20" transform="translate(455.712891 0)"/>
      <use xlink:href="#ArialMT-28" transform="translate(483.496094 0)"/>
      <use xlink:href="#ArialMT-6e" transform="translate(516.796875 0)"/>
      <use xlink:href="#ArialMT-61" transform="translate(572.412109 0)"/>
      <use xlink:href="#ArialMT-ef" transform="translate(628.027344 0)"/>
      <use xlink:href="#ArialMT-76" transform="translate(655.810547 0)"/>
      <use xlink:href="#ArialMT-65" transform="translate(705.810547 0)"/>
      <use xlink:href="#ArialMT-20" transform="translate(761.425781 0)"/>
      <use xlink:href="#ArialMT-6c" transform="translate(789.208984 0)"/>
      <use xlink:href="#ArialMT-6f" transform="translate(811.425781 0)"/>
      <use xlink:href="#ArialMT-6f" transform="translate(867.041016 0)"/>
      <use xlink:href="#ArialMT-70" transform="translate(922.65625 0)"/>
      <use xlink:href="#ArialMT-69" transform="translate(978.271484 0)"/>
      <use xlink:href="#ArialMT-6e" transform="translate(1000.488281 0)"/>
      <use xlink:href="#ArialMT-67" transform="translate(1056.103516 0)"/>
      <use xlink:href="#ArialMT-29" transform="translate(1111.71875 0)"/>
     </g>
    </g>
    <g id="line2d_76">
     <path d="M 298.356875 63.080313 
L 309.356875 63.080313 
L 320.356875 63.080313 
" style="fill: none; stroke: #ea4335; stroke-width: 1.5; stroke-linecap: round"/>
     <g>
      <use xlink:href="#mece4765f95" x="309.356875" y="63.080313" style="fill: #ea4335; stroke: #ea4335; stroke-linejoin: miter"/>
     </g>
    </g>
    <g id="text_21">
     <!-- NeuralFoil (vectorized) -->
     <g style="fill: #262626" transform="translate(329.156875 66.930313) scale(0.11 -0.11)">
      <defs>
       <path id="ArialMT-7a" d="M 125 0 
L 125 456 
L 2238 2881 
Q 1878 2863 1603 2863 
L 250 2863 
L 250 3319 
L 2963 3319 
L 2963 2947 
L 1166 841 
L 819 456 
Q 1197 484 1528 484 
L 3063 484 
L 3063 0 
L 125 0 
z
" transform="scale(0.015625)"/>
      </defs>
      <use xlink:href="#ArialMT-4e"/>
      <use xlink:href="#ArialMT-65" transform="translate(72.216797 0)"/>
      <use xlink:href="#ArialMT-75" transform="translate(127.832031 0)"/>
      <use xlink:href="#ArialMT-72" transform="translate(183.447266 0)"/>
      <use xlink:href="#ArialMT-61" transform="translate(216.748047 0)"/>
      <use xlink:href="#ArialMT-6c" transform="translate(272.363281 0)"/>
      <use xlink:href="#ArialMT-46" transform="translate(294.580078 0)"/>
      <use xlink:href="#ArialMT-6f" transform="translate(355.664062 0)"/>
      <use xlink:href="#ArialMT-69" transform="translate(411.279297 0)"/>
      <use xlink:href="#ArialMT-6c" transform="translate(433.496094 0)"/>
      <use xlink:href="#ArialMT-20" transform="translate(455.712891 0)"/>
      <use xlink:href="#ArialMT-28" transform="translate(483.496094 0)"/>
      <use xlink:href="#ArialMT-76" transform="translate(516.796875 0)"/>
      <use xlink:href="#ArialMT-65" transform="translate(566.796875 0)"/>
      <use xlink:href="#ArialMT-63" transform="translate(622.412109 0)"/>
      <use xlink:href="#ArialMT-74" transform="translate(672.412109 0)"/>
      <use xlink:href="#ArialMT-6f" transform="translate(700.195312 0)"/>
      <use xlink:href="#ArialMT-72" transform="translate(755.810547 0)"/>
      <use xlink:href="#ArialMT-69" transform="translate(789.111328 0)"/>
      <use xlink:href="#ArialMT-7a" transform="translate(811.328125 0)"/>
      <use xlink:href="#ArialMT-65" transform="translate(861.328125 0)"/>
      <use xlink:href="#ArialMT-64" transform="translate(916.943359 0)"/>
      <use xlink:href="#ArialMT-29" transform="translate(972.558594 0)"/>
     </g>
    </g>
   </g>
  </g>
 </g>
 <defs>
  <clipPath id="p21eda4824d">
   <rect x="103.435767" y="17.64" width="361.564233" height="266.46"/>
  </clipPath>
 </defs>
</svg>
